M48
; DRILL file {KiCad 9.0.0} date 2025-04-07T15:36:51+0200
; FORMAT={3:3/ absolute / metric / suppress leading zeros}
; #@! TF.CreationDate,2025-04-07T15:36:51+02:00
; #@! TF.GenerationSoftware,Kicad,Pcbnew,9.0.0
; #@! TF.FileFunction,Plated,1,6,PTH
FMAT,2
METRIC,TZ
; #@! TA.AperFunction,Plated,PTH,ViaDrill
T1C0.150
; #@! TA.AperFunction,Plated,PTH,ViaDrill
T2C0.300
; #@! TA.AperFunction,Plated,PTH,ComponentDrill
T3C1.000
%
G90
G05
T1
X-30900Y-35910
X-30750Y-9545
X-30750Y-11395
X-30747Y-12353
X-30586Y-13139
X-30400Y-7125
X-30400Y-7825
X-30363Y-22425
X-30325Y-5635
X-30275Y-39970
X-30275Y-40930
X-29800Y-36240
X-29775Y-39225
X-29740Y-15700
X-29740Y-18725
X-28775Y-16700
X-28750Y-36240
X-28663Y-20425
X-28525Y-14175
X-28400Y-18500
X-28025Y-10225
X-27765Y-15700
X-27700Y-24250
X-27300Y-39225
X-26625Y-41900
X-26480Y-15675
X-26063Y-29063
X-25730Y-4225
X-25520Y-15675
X-25350Y-21650
X-25350Y-23600
X-25350Y-24900
X-25325Y-38400
X-25325Y-40350
X-24825Y-21000
X-24770Y-4225
X-24750Y-15325
X-24575Y-12925
X-24200Y-18250
X-24150Y-17000
X-23785Y-15675
X-23750Y-12950
X-23300Y-45565
X-23150Y-19700
X-22775Y-12948
X-22775Y-28515
X-22775Y-29535
X-22765Y-15675
X-22325Y-43475
X-22325Y-44475
X-22300Y-45565
X-22250Y-11550
X-22063Y-9150
X-22063Y-9800
X-22000Y-20350
X-21975Y-22950
X-21963Y-24900
X-21900Y-3275
X-21850Y-15675
X-21775Y-29020
X-21675Y-19000
X-20985Y-38425
X-20825Y-14250
X-20775Y-26375
X-20350Y-17240
X-19965Y-38425
X-19638Y-7713
X-19615Y-23600
X-19610Y-42080
X-19335Y-9965
X-19325Y-8995
X-19100Y-11050
X-18875Y-17550
X-17625Y-35935
X-17450Y-9545
X-17450Y-11395
X-17447Y-12353
X-17113Y-22400
X-17088Y-7150
X-17088Y-7800
X-17000Y-5635
X-16478Y-15700
X-16465Y-18775
X-16450Y-36140
X-15500Y-16715
X-15413Y-20400
X-15400Y-36140
X-15138Y-18500
X-15075Y-14450
X-14675Y-12725
X-14503Y-15700
X-14475Y-21625
X-14450Y-24225
X-14125Y-39400
X-14125Y-40100
X-13450Y-4250
X-13180Y-15650
X-12838Y-29050
X-12430Y-4225
X-12220Y-15650
X-12100Y-20975
X-12100Y-23575
X-12100Y-24875
X-11522Y-12703
X-11470Y-4225
X-11300Y-15650
X-10950Y-17000
X-10925Y-18250
X-10775Y-20075
X-10600Y-20925
X-10485Y-15650
X-10450Y-4600
X-10450Y-12975
X-10420Y-41450
X-10420Y-42150
X-9950Y-3950
X-9650Y-12650
X-9550Y-28503
X-9550Y-29522
X-9465Y-15650
X-9450Y-4600
X-9400Y-10938
X-9325Y-19625
X-8950Y-3950
X-8820Y-38425
X-8800Y-9125
X-8800Y-9825
X-8750Y-20325
X-8550Y-15625
X-8500Y-29020
X-8314Y-18989
X-7925Y-25550
X-7800Y-38425
X-7550Y-13750
X-7500Y-41350
X-7400Y-27225
X-7025Y-17265
X-6325Y-7725
X-6299Y-31550
X-6250Y-22850
X-6225Y-23575
X-6025Y-8995
X-6025Y-9955
X-5925Y-10950
X-5475Y-15675
X-5475Y-16675
X-5475Y-17675
X-5475Y-18675
X-5377Y-20501
X-5175Y-24173
X-4950Y-15175
X-4950Y-16175
X-4950Y-17175
X-4950Y-18175
X-4950Y-19175
X-4775Y-20950
X-4775Y-23553
X-4600Y-9750
X-4525Y-10950
X-4373Y-24148
X-4250Y-21469
X-3725Y-5375
X-3463Y-6238
X-3350Y-20750
X-3275Y-22165
X-2775Y-31550
X-2335Y-3800
X-2335Y-5700
X-2250Y-13100
X-2250Y-25145
X-2055Y-39400
X-2055Y-40100
X-1925Y-33025
X-1475Y-22450
X-1250Y-13100
X-750Y-22450
X-700Y-21725
X-52Y-24650
X0Y-21700
X100Y-4750
X225Y-11140
X225Y-12160
X250Y-13125
X700Y-21725
X725Y-24650
X975Y-29650
X1250Y-11140
X1250Y-12160
X1275Y-28545
X1325Y-27525
X1750Y-13125
X1850Y-31100
X2250Y-25143
X2325Y-28545
X2375Y-5700
X2752Y-13105
X2925Y-22676
X3000Y-25825
X3325Y-20775
X3350Y-14100
X3431Y-38425
X3650Y-22700
X3975Y-7175
X3998Y-6400
X4250Y-12200
X4451Y-38425
X4575Y-19906
X4600Y-17965
X4600Y-18925
X4775Y-41375
X4810Y-3800
X4850Y-14575
X4850Y-16175
X4925Y-11140
X4988Y-10263
X5267Y-17130
X5275Y-18425
X5750Y-35985
X5950Y-9545
X5950Y-11395
X5953Y-12353
X6200Y-22425
X6238Y-7045
X6238Y-7875
X6270Y-41450
X6270Y-42150
X6275Y-5685
X6800Y-33000
X6950Y-18800
X6950Y-36140
X6960Y-15700
X7900Y-16700
X7900Y-20425
X8000Y-36140
X8325Y-14625
X8750Y-12700
X8850Y-22925
X8950Y-4050
X8963Y-24225
X9450Y-4600
X10220Y-15650
X10270Y-39400
X10270Y-40100
X10500Y-29038
X10750Y-18500
X10970Y-4275
X11052Y-12027
X11180Y-15650
X11250Y-16999
X11362Y-24875
X11375Y-20975
X11375Y-21625
X11388Y-23575
X11930Y-4275
X12450Y-11975
X12475Y-18250
X12525Y-17000
X12700Y-10700
X12915Y-15650
X12950Y-12950
X13450Y-12450
X13850Y-28015
X13850Y-29035
X13935Y-15675
X14450Y-11650
X14625Y-9150
X14625Y-9800
X14650Y-7725
X14688Y-20325
X14700Y-22925
X14712Y-24875
X14850Y-29020
X14925Y-15100
X14925Y-19026
X15710Y-38400
X15875Y-14075
X16375Y-17265
X16375Y-26350
X16730Y-38400
X17075Y-41375
X17400Y-9020
X17400Y-9980
X18338Y-7538
X18645Y-41450
X18645Y-42150
X19050Y-36010
X19250Y-9545
X19250Y-11395
X19252Y-12353
X19537Y-7045
X19537Y-7875
X19550Y-22425
X19575Y-5670
X20235Y-18750
X20260Y-15725
X20350Y-36090
X21225Y-16688
X21250Y-20425
X21400Y-36090
X21500Y-18425
X21650Y-14300
X21670Y-44275
X22075Y-23175
X22125Y-24200
X22225Y-12525
X22235Y-15675
X22400Y-45400
X22400Y-46400
X22625Y-39400
X22625Y-40100
X23520Y-15650
X23750Y-29038
X23775Y-10925
X24125Y-18500
X24270Y-4275
X24480Y-15650
X24500Y-21600
X24500Y-23550
X24500Y-24850
X24828Y-20950
X25175Y-43200
X25230Y-4275
X25450Y-15450
X25525Y-39070
X25575Y-10650
X25750Y-11975
X25850Y-16988
X26215Y-15650
X26250Y-12950
X26489Y-12236
X26925Y-11125
X27050Y-28015
X27050Y-29035
X27475Y-9225
X27698Y-11227
X27775Y-43700
X27813Y-20300
X27825Y-22900
X27837Y-24850
X27850Y-42700
X27923Y-11905
X27975Y-7725
X27975Y-9725
X28075Y-29020
X28425Y-19000
X29170Y-13300
X29495Y-44975
X29700Y-14300
X29800Y-17240
X29800Y-26075
X30250Y-13550
X30455Y-44975
X30636Y-10724
X30725Y-8050
X30725Y-8995
X30725Y-9955
X30875Y-39280
T2
X-31525Y-43425
X-30138Y-25650
X-29175Y-31500
X-29175Y-34400
X-28650Y-23850
X-28575Y-25650
X-28575Y-43425
X-23575Y-27300
X-23425Y-48100
X-23425Y-51050
X-22025Y-27300
X-16913Y-25638
X-15900Y-31550
X-15900Y-34450
X-15513Y-23925
X-15350Y-25638
X-10350Y-27288
X-8800Y-27288
X-1925Y-27200
X-1925Y-28750
X-575Y-33875
X-575Y-35425
X-375Y-27200
X-375Y-28750
X975Y-33875
X975Y-35425
X6425Y-25625
X7500Y-31550
X7500Y-34450
X7975Y-23825
X7975Y-25625
X13025Y-26775
X14575Y-26775
X19675Y-25625
X20800Y-31550
X20800Y-34450
X21225Y-23825
X21225Y-25625
X23450Y-48090
X23450Y-51040
X26225Y-26775
X27100Y-38325
X27775Y-26775
X29300Y-40025
T3
X-24180Y1345
X-24180Y-1195
X-21640Y1345
X-21640Y-1195
X-19100Y1345
X-19100Y-1195
X-16560Y1345
X-16560Y-1195
X-15240Y-46460
X-15240Y-49000
X-14020Y1345
X-14020Y-1195
X-12700Y-46460
X-12700Y-49000
X-11480Y1345
X-11480Y-1195
X-10160Y-46460
X-10160Y-49000
X-8940Y1345
X-8940Y-1195
X-7620Y-46460
X-7620Y-49000
X-6400Y1345
X-6400Y-1195
X-5080Y-46460
X-5080Y-49000
X-3860Y1345
X-3860Y-1195
X-2540Y-8500
X-2540Y-46460
X-2540Y-49000
X-1320Y1345
X-1320Y-1195
X0Y-8500
X0Y-46460
X0Y-49000
X1220Y1345
X1220Y-1195
X2540Y-8500
X2540Y-46460
X2540Y-49000
X3760Y1345
X3760Y-1195
X5080Y-46460
X5080Y-49000
X6300Y1345
X6300Y-1195
X7620Y-46460
X7620Y-49000
X8840Y1345
X8840Y-1195
X10160Y-46460
X10160Y-49000
X11380Y1345
X11380Y-1195
X12700Y-46460
X12700Y-49000
X13920Y1345
X13920Y-1195
X15240Y-46460
X15240Y-49000
X16460Y1345
X16460Y-1195
X19000Y1345
X19000Y-1195
X21540Y1345
X21540Y-1195
X24080Y1345
X24080Y-1195
M30
