%TF.GenerationSoftware,KiCad,Pcbnew,9.0.0*%
%TF.CreationDate,2025-04-07T15:36:09+02:00*%
%TF.ProjectId,AES42HAT,41455334-3248-4415-942e-6b696361645f,rev?*%
%TF.SameCoordinates,PX5f5e100PY5f5e100*%
%TF.FileFunction,Copper,L1,Top*%
%TF.FilePolarity,Positive*%
%FSLAX46Y46*%
G04 Gerber Fmt 4.6, Leading zero omitted, Abs format (unit mm)*
G04 Created by KiCad (PCBNEW 9.0.0) date 2025-04-07 15:36:09*
%MOMM*%
%LPD*%
G01*
G04 APERTURE LIST*
G04 Aperture macros list*
%AMRoundRect*
0 Rectangle with rounded corners*
0 $1 Rounding radius*
0 $2 $3 $4 $5 $6 $7 $8 $9 X,Y pos of 4 corners*
0 Add a 4 corners polygon primitive as box body*
4,1,4,$2,$3,$4,$5,$6,$7,$8,$9,$2,$3,0*
0 Add four circle primitives for the rounded corners*
1,1,$1+$1,$2,$3*
1,1,$1+$1,$4,$5*
1,1,$1+$1,$6,$7*
1,1,$1+$1,$8,$9*
0 Add four rect primitives between the rounded corners*
20,1,$1+$1,$2,$3,$4,$5,0*
20,1,$1+$1,$4,$5,$6,$7,0*
20,1,$1+$1,$6,$7,$8,$9,0*
20,1,$1+$1,$8,$9,$2,$3,0*%
%AMFreePoly0*
4,1,18,-0.700000,1.090000,-0.490000,1.300000,0.420000,1.300000,0.527151,1.278686,0.617990,1.217990,0.678686,1.127151,0.700000,1.020000,0.700000,-1.020000,0.678686,-1.127151,0.617990,-1.217990,0.527151,-1.278686,0.420000,-1.300000,-0.420000,-1.300000,-0.527151,-1.278686,-0.617990,-1.217990,-0.678686,-1.127151,-0.700000,-1.020000,-0.700000,1.090000,-0.700000,1.090000,$1*%
G04 Aperture macros list end*
%TA.AperFunction,SMDPad,CuDef*%
%ADD10RoundRect,0.135000X0.185000X-0.135000X0.185000X0.135000X-0.185000X0.135000X-0.185000X-0.135000X0*%
%TD*%
%TA.AperFunction,SMDPad,CuDef*%
%ADD11RoundRect,0.041000X-0.559000X-0.164000X0.559000X-0.164000X0.559000X0.164000X-0.559000X0.164000X0*%
%TD*%
%TA.AperFunction,SMDPad,CuDef*%
%ADD12RoundRect,0.050000X-0.550000X-0.200000X0.550000X-0.200000X0.550000X0.200000X-0.550000X0.200000X0*%
%TD*%
%TA.AperFunction,SMDPad,CuDef*%
%ADD13RoundRect,0.045000X-0.180000X-0.205000X0.180000X-0.205000X0.180000X0.205000X-0.180000X0.205000X0*%
%TD*%
%TA.AperFunction,SMDPad,CuDef*%
%ADD14RoundRect,0.050000X-0.250000X-0.200000X0.250000X-0.200000X0.250000X0.200000X-0.250000X0.200000X0*%
%TD*%
%TA.AperFunction,SMDPad,CuDef*%
%ADD15RoundRect,0.135000X-0.185000X0.135000X-0.185000X-0.135000X0.185000X-0.135000X0.185000X0.135000X0*%
%TD*%
%TA.AperFunction,SMDPad,CuDef*%
%ADD16RoundRect,0.140000X0.170000X-0.140000X0.170000X0.140000X-0.170000X0.140000X-0.170000X-0.140000X0*%
%TD*%
%TA.AperFunction,SMDPad,CuDef*%
%ADD17RoundRect,0.200000X0.950000X-0.225000X0.950000X0.225000X-0.950000X0.225000X-0.950000X-0.225000X0*%
%TD*%
%TA.AperFunction,SMDPad,CuDef*%
%ADD18C,1.000000*%
%TD*%
%TA.AperFunction,SMDPad,CuDef*%
%ADD19RoundRect,0.140000X0.140000X0.170000X-0.140000X0.170000X-0.140000X-0.170000X0.140000X-0.170000X0*%
%TD*%
%TA.AperFunction,SMDPad,CuDef*%
%ADD20RoundRect,0.147500X-0.172500X0.147500X-0.172500X-0.147500X0.172500X-0.147500X0.172500X0.147500X0*%
%TD*%
%TA.AperFunction,SMDPad,CuDef*%
%ADD21RoundRect,0.140000X-0.170000X0.140000X-0.170000X-0.140000X0.170000X-0.140000X0.170000X0.140000X0*%
%TD*%
%TA.AperFunction,SMDPad,CuDef*%
%ADD22RoundRect,0.135000X0.135000X0.185000X-0.135000X0.185000X-0.135000X-0.185000X0.135000X-0.185000X0*%
%TD*%
%TA.AperFunction,ComponentPad*%
%ADD23RoundRect,0.250000X0.600000X-0.600000X0.600000X0.600000X-0.600000X0.600000X-0.600000X-0.600000X0*%
%TD*%
%TA.AperFunction,ComponentPad*%
%ADD24C,1.700000*%
%TD*%
%TA.AperFunction,SMDPad,CuDef*%
%ADD25RoundRect,0.225000X0.225000X0.250000X-0.225000X0.250000X-0.225000X-0.250000X0.225000X-0.250000X0*%
%TD*%
%TA.AperFunction,SMDPad,CuDef*%
%ADD26RoundRect,0.140000X-0.140000X-0.170000X0.140000X-0.170000X0.140000X0.170000X-0.140000X0.170000X0*%
%TD*%
%TA.AperFunction,SMDPad,CuDef*%
%ADD27RoundRect,0.100000X-0.637500X-0.100000X0.637500X-0.100000X0.637500X0.100000X-0.637500X0.100000X0*%
%TD*%
%TA.AperFunction,SMDPad,CuDef*%
%ADD28RoundRect,0.135000X-0.135000X-0.185000X0.135000X-0.185000X0.135000X0.185000X-0.135000X0.185000X0*%
%TD*%
%TA.AperFunction,SMDPad,CuDef*%
%ADD29RoundRect,0.087500X-0.725000X-0.087500X0.725000X-0.087500X0.725000X0.087500X-0.725000X0.087500X0*%
%TD*%
%TA.AperFunction,SMDPad,CuDef*%
%ADD30RoundRect,0.100000X0.155000X0.100000X-0.155000X0.100000X-0.155000X-0.100000X0.155000X-0.100000X0*%
%TD*%
%TA.AperFunction,SMDPad,CuDef*%
%ADD31RoundRect,0.225000X-0.225000X-0.250000X0.225000X-0.250000X0.225000X0.250000X-0.225000X0.250000X0*%
%TD*%
%TA.AperFunction,SMDPad,CuDef*%
%ADD32RoundRect,0.147500X0.172500X-0.147500X0.172500X0.147500X-0.172500X0.147500X-0.172500X-0.147500X0*%
%TD*%
%TA.AperFunction,SMDPad,CuDef*%
%ADD33FreePoly0,90.000000*%
%TD*%
%TA.AperFunction,SMDPad,CuDef*%
%ADD34RoundRect,0.200000X0.500000X-1.100000X0.500000X1.100000X-0.500000X1.100000X-0.500000X-1.100000X0*%
%TD*%
%TA.AperFunction,SMDPad,CuDef*%
%ADD35RoundRect,0.200000X1.100000X-0.500000X1.100000X0.500000X-1.100000X0.500000X-1.100000X-0.500000X0*%
%TD*%
%TA.AperFunction,SMDPad,CuDef*%
%ADD36RoundRect,0.250000X0.250000X-0.275000X0.250000X0.275000X-0.250000X0.275000X-0.250000X-0.275000X0*%
%TD*%
%TA.AperFunction,SMDPad,CuDef*%
%ADD37RoundRect,0.250000X0.275000X-0.850000X0.275000X0.850000X-0.275000X0.850000X-0.275000X-0.850000X0*%
%TD*%
%TA.AperFunction,SMDPad,CuDef*%
%ADD38RoundRect,0.135000X0.035355X-0.226274X0.226274X-0.035355X-0.035355X0.226274X-0.226274X0.035355X0*%
%TD*%
%TA.AperFunction,SMDPad,CuDef*%
%ADD39RoundRect,0.250000X-0.450000X0.400000X-0.450000X-0.400000X0.450000X-0.400000X0.450000X0.400000X0*%
%TD*%
%TA.AperFunction,SMDPad,CuDef*%
%ADD40RoundRect,0.050000X0.350000X0.050000X-0.350000X0.050000X-0.350000X-0.050000X0.350000X-0.050000X0*%
%TD*%
%TA.AperFunction,HeatsinkPad*%
%ADD41R,1.700000X2.500000*%
%TD*%
%TA.AperFunction,SMDPad,CuDef*%
%ADD42RoundRect,0.150000X0.150000X-0.512500X0.150000X0.512500X-0.150000X0.512500X-0.150000X-0.512500X0*%
%TD*%
%TA.AperFunction,SMDPad,CuDef*%
%ADD43RoundRect,0.200000X-0.950000X0.225000X-0.950000X-0.225000X0.950000X-0.225000X0.950000X0.225000X0*%
%TD*%
%TA.AperFunction,SMDPad,CuDef*%
%ADD44RoundRect,0.175000X-0.325000X0.175000X-0.325000X-0.175000X0.325000X-0.175000X0.325000X0.175000X0*%
%TD*%
%TA.AperFunction,SMDPad,CuDef*%
%ADD45RoundRect,0.150000X-0.150000X0.200000X-0.150000X-0.200000X0.150000X-0.200000X0.150000X0.200000X0*%
%TD*%
%TA.AperFunction,SMDPad,CuDef*%
%ADD46RoundRect,0.075000X-0.662500X-0.075000X0.662500X-0.075000X0.662500X0.075000X-0.662500X0.075000X0*%
%TD*%
%TA.AperFunction,SMDPad,CuDef*%
%ADD47RoundRect,0.075000X-0.075000X-0.662500X0.075000X-0.662500X0.075000X0.662500X-0.075000X0.662500X0*%
%TD*%
%TA.AperFunction,SMDPad,CuDef*%
%ADD48RoundRect,0.085000X0.085000X-0.265000X0.085000X0.265000X-0.085000X0.265000X-0.085000X-0.265000X0*%
%TD*%
%TA.AperFunction,SMDPad,CuDef*%
%ADD49RoundRect,0.150000X-0.512500X-0.150000X0.512500X-0.150000X0.512500X0.150000X-0.512500X0.150000X0*%
%TD*%
%TA.AperFunction,SMDPad,CuDef*%
%ADD50R,1.400000X1.200000*%
%TD*%
%TA.AperFunction,ComponentPad*%
%ADD51R,1.700000X1.700000*%
%TD*%
%TA.AperFunction,ComponentPad*%
%ADD52O,1.700000X1.700000*%
%TD*%
%TA.AperFunction,SMDPad,CuDef*%
%ADD53RoundRect,0.100000X0.100000X-0.225000X0.100000X0.225000X-0.100000X0.225000X-0.100000X-0.225000X0*%
%TD*%
%TA.AperFunction,SMDPad,CuDef*%
%ADD54RoundRect,0.250000X0.275000X0.250000X-0.275000X0.250000X-0.275000X-0.250000X0.275000X-0.250000X0*%
%TD*%
%TA.AperFunction,SMDPad,CuDef*%
%ADD55RoundRect,0.250000X0.850000X0.275000X-0.850000X0.275000X-0.850000X-0.275000X0.850000X-0.275000X0*%
%TD*%
%TA.AperFunction,SMDPad,CuDef*%
%ADD56RoundRect,0.100000X-0.155000X-0.100000X0.155000X-0.100000X0.155000X0.100000X-0.155000X0.100000X0*%
%TD*%
%TA.AperFunction,SMDPad,CuDef*%
%ADD57RoundRect,0.200000X-0.750000X0.225000X-0.750000X-0.225000X0.750000X-0.225000X0.750000X0.225000X0*%
%TD*%
%TA.AperFunction,SMDPad,CuDef*%
%ADD58RoundRect,0.062500X-0.062500X0.337500X-0.062500X-0.337500X0.062500X-0.337500X0.062500X0.337500X0*%
%TD*%
%TA.AperFunction,SMDPad,CuDef*%
%ADD59RoundRect,0.062500X-0.337500X0.062500X-0.337500X-0.062500X0.337500X-0.062500X0.337500X0.062500X0*%
%TD*%
%TA.AperFunction,HeatsinkPad*%
%ADD60R,5.100000X5.100000*%
%TD*%
%TA.AperFunction,SMDPad,CuDef*%
%ADD61RoundRect,0.087500X0.725000X0.087500X-0.725000X0.087500X-0.725000X-0.087500X0.725000X-0.087500X0*%
%TD*%
%TA.AperFunction,SMDPad,CuDef*%
%ADD62RoundRect,0.250000X-0.275000X-0.250000X0.275000X-0.250000X0.275000X0.250000X-0.275000X0.250000X0*%
%TD*%
%TA.AperFunction,SMDPad,CuDef*%
%ADD63RoundRect,0.250000X-0.850000X-0.275000X0.850000X-0.275000X0.850000X0.275000X-0.850000X0.275000X0*%
%TD*%
%TA.AperFunction,ViaPad*%
%ADD64C,0.700000*%
%TD*%
%TA.AperFunction,ViaPad*%
%ADD65C,0.500000*%
%TD*%
%TA.AperFunction,Conductor*%
%ADD66C,0.300000*%
%TD*%
%TA.AperFunction,Conductor*%
%ADD67C,0.200000*%
%TD*%
%TA.AperFunction,Conductor*%
%ADD68C,0.250000*%
%TD*%
%TA.AperFunction,Conductor*%
%ADD69C,0.150000*%
%TD*%
%TA.AperFunction,Conductor*%
%ADD70C,0.500000*%
%TD*%
G04 APERTURE END LIST*
D10*
%TO.P,R89,1*%
%TO.N,/SRD*%
X-20325000Y-18259999D03*
%TO.P,R89,2*%
%TO.N,Net-(C89-Pad1)*%
X-20325000Y-17240001D03*
%TD*%
D11*
%TO.P,T3,1,IN+*%
%TO.N,/R3+*%
X-11490000Y-42125000D03*
D12*
%TO.P,T3,2,PM*%
%TO.N,/PHOC*%
X-7510000Y-42080000D03*
D11*
%TO.P,T3,3,IN-*%
%TO.N,/R3-*%
X-11490000Y-41475000D03*
%TO.P,T3,4,OUT1A*%
%TO.N,Net-(T3-OUT1A)*%
X-7510000Y-40075000D03*
D13*
%TO.P,T3,5,OUT1B*%
%TO.N,Net-(T3-OUT1B)*%
X-11100000Y-39470000D03*
D14*
%TO.P,T3,6,OUT2A*%
%TO.N,Net-(T3-OUT2A)*%
X-11800000Y-39470000D03*
D11*
%TO.P,T3,7,OUT2B*%
%TO.N,Net-(T3-OUT2B)*%
X-7510000Y-39425000D03*
%TD*%
D15*
%TO.P,R92,1*%
%TO.N,/MCLK*%
X-3275000Y-22165001D03*
%TO.P,R92,2*%
%TO.N,Net-(C90-Pad2)*%
X-3275000Y-23184999D03*
%TD*%
D16*
%TO.P,C31,1*%
%TO.N,Net-(T7-OUT2A)*%
X-6225000Y-39455000D03*
%TO.P,C31,2*%
%TO.N,Net-(C31-Pad2)*%
X-6225000Y-38495000D03*
%TD*%
D15*
%TO.P,R51,1*%
%TO.N,GNDD*%
X27050000Y-28015001D03*
%TO.P,R51,2*%
%TO.N,/FBA*%
X27050000Y-29034999D03*
%TD*%
D17*
%TO.P,L3,1,1*%
%TO.N,Net-(U4-LX1)*%
X-4375000Y-30650000D03*
%TO.P,L3,2,2*%
%TO.N,+3.3V*%
X-4375000Y-28700000D03*
%TD*%
D15*
%TO.P,R54,1*%
%TO.N,Net-(D53-A)*%
X19050000Y-33040001D03*
%TO.P,R54,2*%
%TO.N,Net-(D54-A)*%
X19050000Y-34059999D03*
%TD*%
%TO.P,R4,1*%
%TO.N,+3.3V*%
X1250000Y-11140001D03*
%TO.P,R4,2*%
%TO.N,/~{REQ}{slash}~{ISP}*%
X1250000Y-12159999D03*
%TD*%
D18*
%TO.P,TP6,1,1*%
%TO.N,Net-(U20-MUTE)*%
X6850000Y-14150000D03*
%TD*%
D10*
%TO.P,R91,1*%
%TO.N,Net-(D91-A)*%
X2250000Y-23210000D03*
%TO.P,R91,2*%
%TO.N,/LED*%
X2250000Y-22190000D03*
%TD*%
D19*
%TO.P,C22,1*%
%TO.N,+1V8*%
X11180000Y-15675000D03*
%TO.P,C22,2*%
%TO.N,GNDD*%
X10220000Y-15675000D03*
%TD*%
D20*
%TO.P,D53,1,K*%
%TO.N,Net-(D52-A1)*%
X19050000Y-31090000D03*
%TO.P,D53,2,A*%
%TO.N,Net-(D53-A)*%
X19050000Y-32060000D03*
%TD*%
D21*
%TO.P,C59,1*%
%TO.N,Net-(C59-Pad1)*%
X28775000Y-17270000D03*
%TO.P,C59,2*%
%TO.N,/SRA*%
X28775000Y-18230000D03*
%TD*%
%TO.P,C25,1*%
%TO.N,+3.3V*%
X17400000Y-8995000D03*
%TO.P,C25,2*%
%TO.N,GNDD*%
X17400000Y-9955000D03*
%TD*%
D22*
%TO.P,R41,1*%
%TO.N,Net-(T8-OUT1B)*%
X-16315000Y-38430000D03*
%TO.P,R41,2*%
%TO.N,Net-(C41-Pad2)*%
X-17335000Y-38430000D03*
%TD*%
D10*
%TO.P,R59,1*%
%TO.N,/SRA*%
X29800000Y-18259999D03*
%TO.P,R59,2*%
%TO.N,Net-(C59-Pad1)*%
X29800000Y-17240001D03*
%TD*%
D23*
%TO.P,J2,1,Pin_1*%
%TO.N,/X4+*%
X-15240000Y-49000000D03*
D24*
%TO.P,J2,2,Pin_2*%
%TO.N,/X4-*%
X-15240000Y-46460000D03*
%TO.P,J2,3,Pin_3*%
%TO.N,GNDD*%
X-12700000Y-49000000D03*
%TO.P,J2,4,Pin_4*%
%TO.N,/X3+*%
X-12700000Y-46460000D03*
%TO.P,J2,5,Pin_5*%
%TO.N,/X3-*%
X-10160000Y-49000000D03*
%TO.P,J2,6,Pin_6*%
%TO.N,GNDD*%
X-10160000Y-46460000D03*
%TO.P,J2,7,Pin_7*%
%TO.N,/X2+*%
X-7620000Y-49000000D03*
%TO.P,J2,8,Pin_8*%
%TO.N,/X2-*%
X-7620000Y-46460000D03*
%TO.P,J2,9,Pin_9*%
%TO.N,GNDD*%
X-5080000Y-49000000D03*
%TO.P,J2,10,Pin_10*%
%TO.N,/X1+*%
X-5080000Y-46460000D03*
%TO.P,J2,11,Pin_11*%
%TO.N,/X1-*%
X-2540000Y-49000000D03*
%TO.P,J2,12,Pin_12*%
%TO.N,GNDD*%
X-2540000Y-46460000D03*
%TO.P,J2,13,Pin_13*%
%TO.N,/R4+*%
X0Y-49000000D03*
%TO.P,J2,14,Pin_14*%
%TO.N,/R4-*%
X0Y-46460000D03*
%TO.P,J2,15,Pin_15*%
%TO.N,GNDD*%
X2540000Y-49000000D03*
%TO.P,J2,16,Pin_16*%
%TO.N,/R3+*%
X2540000Y-46460000D03*
%TO.P,J2,17,Pin_17*%
%TO.N,/R3-*%
X5080000Y-49000000D03*
%TO.P,J2,18,Pin_18*%
%TO.N,GNDD*%
X5080000Y-46460000D03*
%TO.P,J2,19,Pin_19*%
%TO.N,/R2+*%
X7620000Y-49000000D03*
%TO.P,J2,20,Pin_20*%
%TO.N,/R2-*%
X7620000Y-46460000D03*
%TO.P,J2,21,Pin_21*%
%TO.N,GNDD*%
X10160000Y-49000000D03*
%TO.P,J2,22,Pin_22*%
%TO.N,/R1+*%
X10160000Y-46460000D03*
%TO.P,J2,23,Pin_23*%
%TO.N,/R1-*%
X12700000Y-49000000D03*
%TO.P,J2,24,Pin_24*%
%TO.N,GNDD*%
X12700000Y-46460000D03*
%TO.P,J2,25,Pin_25*%
%TO.N,unconnected-(J2-Pin_25-Pad25)*%
X15240000Y-49000000D03*
%TO.P,J2,26,Pin_26*%
%TO.N,unconnected-(J2-Pin_26-Pad26)*%
X15240000Y-46460000D03*
%TD*%
D25*
%TO.P,C71,1*%
%TO.N,+5V*%
X-15325000Y-25625000D03*
%TO.P,C71,2*%
%TO.N,GNDD*%
X-16875000Y-25625000D03*
%TD*%
D26*
%TO.P,C93,1*%
%TO.N,Net-(D93-A)*%
X24020000Y-46475000D03*
%TO.P,C93,2*%
%TO.N,Net-(J93-In)*%
X24980000Y-46475000D03*
%TD*%
%TO.P,C75,1*%
%TO.N,Net-(C75-Pad1)*%
X-17455000Y-16725000D03*
%TO.P,C75,2*%
%TO.N,Net-(C70-Pad1)*%
X-16495000Y-16725000D03*
%TD*%
D15*
%TO.P,R8,1*%
%TO.N,/MID*%
X1275000Y-27525000D03*
%TO.P,R8,2*%
%TO.N,+5V*%
X1275000Y-28545000D03*
%TD*%
D27*
%TO.P,U50,1,Y1*%
%TO.N,unconnected-(U50-Y1-Pad1)*%
X23300000Y-20300000D03*
%TO.P,U50,2,Y0*%
%TO.N,/FBA*%
X23300000Y-20950000D03*
%TO.P,U50,3,Z1*%
%TO.N,+5V*%
X23300000Y-21600000D03*
%TO.P,U50,4,Z*%
%TO.N,/CTLA*%
X23300000Y-22250000D03*
%TO.P,U50,5,Z0*%
%TO.N,/MODA*%
X23300000Y-22900000D03*
%TO.P,U50,6,Inh*%
%TO.N,GNDD*%
X23300000Y-23550000D03*
%TO.P,U50,7,VEE*%
X23300000Y-24200000D03*
%TO.P,U50,8,VSS*%
X23300000Y-24850000D03*
%TO.P,U50,9,C*%
%TO.N,/M3A*%
X29025000Y-24850000D03*
%TO.P,U50,10,B*%
%TO.N,/MODA*%
X29025000Y-24200000D03*
%TO.P,U50,11,A*%
X29025000Y-23550000D03*
%TO.P,U50,12,X0*%
%TO.N,/SLA*%
X29025000Y-22900000D03*
%TO.P,U50,13,X1*%
%TO.N,unconnected-(U50-X1-Pad13)*%
X29025000Y-22250000D03*
%TO.P,U50,14,X*%
%TO.N,/SRA*%
X29025000Y-21600000D03*
%TO.P,U50,15,Y*%
%TO.N,+5V*%
X29025000Y-20950000D03*
%TO.P,U50,16,VDD*%
X29025000Y-20300000D03*
%TD*%
D15*
%TO.P,R71,1*%
%TO.N,GNDD*%
X-9550000Y-28515001D03*
%TO.P,R71,2*%
%TO.N,/FBC*%
X-9550000Y-29534999D03*
%TD*%
D28*
%TO.P,R2,1*%
%TO.N,+3.3VP*%
X-2335000Y-3800000D03*
%TO.P,R2,2*%
%TO.N,Net-(J1-ID_SC{slash}GPIO1)*%
X-1315000Y-3800000D03*
%TD*%
D29*
%TO.P,U53,1*%
%TO.N,Net-(C50-Pad1)*%
X22837500Y-17000000D03*
%TO.P,U53,2,-*%
%TO.N,Net-(U53A--)*%
X22837500Y-17500000D03*
%TO.P,U53,3,+*%
%TO.N,/MID*%
X22837500Y-18000000D03*
%TO.P,U53,4,V-*%
%TO.N,GNDD*%
X22837500Y-18500000D03*
%TO.P,U53,5,~{SHDN_A}*%
%TO.N,/M3A*%
X22837500Y-19000000D03*
%TO.P,U53,6,~{SHDN_B}*%
X27062500Y-19000000D03*
%TO.P,U53,7,+*%
%TO.N,/MID*%
X27062500Y-18500000D03*
%TO.P,U53,8,-*%
%TO.N,/SRA*%
X27062500Y-18000000D03*
%TO.P,U53,9*%
%TO.N,Net-(C59-Pad1)*%
X27062500Y-17500000D03*
%TO.P,U53,10,V+*%
%TO.N,+5V*%
X27062500Y-17000000D03*
%TD*%
D15*
%TO.P,R67,1*%
%TO.N,Net-(C60-Pad1)*%
X7900000Y-16715001D03*
%TO.P,R67,2*%
%TO.N,Net-(U63A--)*%
X7900000Y-17734999D03*
%TD*%
%TO.P,R12,1*%
%TO.N,Net-(D12-A)*%
X20600000Y-4665001D03*
%TO.P,R12,2*%
%TO.N,Net-(U10-~{LOCK})*%
X20600000Y-5684999D03*
%TD*%
D21*
%TO.P,C92,1*%
%TO.N,Net-(U2-XTI{slash}REF_CLK)*%
X30875000Y-38320000D03*
%TO.P,C92,2*%
%TO.N,GNDD*%
X30875000Y-39280000D03*
%TD*%
D10*
%TO.P,R70,1*%
%TO.N,Net-(L70-Pad4)*%
X-7400000Y-35684999D03*
%TO.P,R70,2*%
%TO.N,Net-(C79-Pad1)*%
X-7400000Y-34665001D03*
%TD*%
D26*
%TO.P,C55,1*%
%TO.N,Net-(C55-Pad1)*%
X19245000Y-16725000D03*
%TO.P,C55,2*%
%TO.N,Net-(C50-Pad1)*%
X20205000Y-16725000D03*
%TD*%
D22*
%TO.P,R21,1*%
%TO.N,Net-(T6-OUT1B)*%
X8060000Y-38425000D03*
%TO.P,R21,2*%
%TO.N,Net-(C21-Pad2)*%
X7040000Y-38425000D03*
%TD*%
D27*
%TO.P,U80,1,Y1*%
%TO.N,unconnected-(U80-Y1-Pad1)*%
X-26512500Y-20350000D03*
%TO.P,U80,2,Y0*%
%TO.N,/FBD*%
X-26512500Y-21000000D03*
%TO.P,U80,3,Z1*%
%TO.N,+5V*%
X-26512500Y-21650000D03*
%TO.P,U80,4,Z*%
%TO.N,/CTLD*%
X-26512500Y-22300000D03*
%TO.P,U80,5,Z0*%
%TO.N,/MODD*%
X-26512500Y-22950000D03*
%TO.P,U80,6,Inh*%
%TO.N,GNDD*%
X-26512500Y-23600000D03*
%TO.P,U80,7,VEE*%
X-26512500Y-24250000D03*
%TO.P,U80,8,VSS*%
X-26512500Y-24900000D03*
%TO.P,U80,9,C*%
%TO.N,/M3D*%
X-20787500Y-24900000D03*
%TO.P,U80,10,B*%
%TO.N,/MODD*%
X-20787500Y-24250000D03*
%TO.P,U80,11,A*%
X-20787500Y-23600000D03*
%TO.P,U80,12,X0*%
%TO.N,/SLD*%
X-20787500Y-22950000D03*
%TO.P,U80,13,X1*%
%TO.N,unconnected-(U80-X1-Pad13)*%
X-20787500Y-22300000D03*
%TO.P,U80,14,X*%
%TO.N,/SRD*%
X-20787500Y-21650000D03*
%TO.P,U80,15,Y*%
%TO.N,+5V*%
X-20787500Y-21000000D03*
%TO.P,U80,16,VDD*%
X-20787500Y-20350000D03*
%TD*%
D11*
%TO.P,T2,1,IN+*%
%TO.N,/R2+*%
X785000Y-42125000D03*
D12*
%TO.P,T2,2,PM*%
%TO.N,/PHOB*%
X4765000Y-42080000D03*
D11*
%TO.P,T2,3,IN-*%
%TO.N,/R2-*%
X785000Y-41475000D03*
%TO.P,T2,4,OUT1A*%
%TO.N,Net-(T2-OUT1A)*%
X4765000Y-40075000D03*
D13*
%TO.P,T2,5,OUT1B*%
%TO.N,Net-(T2-OUT1B)*%
X1175000Y-39470000D03*
D14*
%TO.P,T2,6,OUT2A*%
%TO.N,Net-(T2-OUT2A)*%
X475000Y-39470000D03*
D11*
%TO.P,T2,7,OUT2B*%
%TO.N,Net-(T2-OUT2B)*%
X4765000Y-39425000D03*
%TD*%
D10*
%TO.P,R80,1*%
%TO.N,Net-(L80-Pad4)*%
X-20775000Y-35684999D03*
%TO.P,R80,2*%
%TO.N,Net-(C89-Pad1)*%
X-20775000Y-34665001D03*
%TD*%
D15*
%TO.P,R83,1*%
%TO.N,/PHOD*%
X-28750000Y-36240000D03*
%TO.P,R83,2*%
%TO.N,/PVD*%
X-28750000Y-37260000D03*
%TD*%
%TO.P,R98,1*%
%TO.N,Net-(U5-A)*%
X-25975000Y-43080001D03*
%TO.P,R98,2*%
%TO.N,Net-(J98-In)*%
X-25975000Y-44099999D03*
%TD*%
D21*
%TO.P,C24,1*%
%TO.N,+3.3V*%
X5950000Y-11395000D03*
%TO.P,C24,2*%
%TO.N,GNDD*%
X5950000Y-12355000D03*
%TD*%
D30*
%TO.P,D93,1,K*%
%TO.N,GNDD*%
X21680001Y-45400000D03*
%TO.P,D93,2,K*%
X21680001Y-46400000D03*
%TO.P,D93,3,A*%
%TO.N,Net-(D93-A)*%
X22970000Y-45900000D03*
%TD*%
D21*
%TO.P,C70,1*%
%TO.N,Net-(C70-Pad1)*%
X-8500000Y-29020000D03*
%TO.P,C70,2*%
%TO.N,Net-(C70-Pad2)*%
X-8500000Y-29980000D03*
%TD*%
D25*
%TO.P,C53,1*%
%TO.N,Net-(D52-A1)*%
X21225000Y-23825000D03*
%TO.P,C53,2*%
%TO.N,Net-(U52-G)*%
X19675000Y-23825000D03*
%TD*%
D21*
%TO.P,C44,1*%
%TO.N,+3.3V*%
X-19325000Y-8995000D03*
%TO.P,C44,2*%
%TO.N,GNDD*%
X-19325000Y-9955000D03*
%TD*%
D31*
%TO.P,C72,1*%
%TO.N,Net-(D72-A1)*%
X-10325000Y-27250000D03*
%TO.P,C72,2*%
%TO.N,GNDD*%
X-8775000Y-27250000D03*
%TD*%
D32*
%TO.P,D42,1,K*%
%TO.N,GNDD*%
X-30325000Y-5635000D03*
%TO.P,D42,2,A*%
%TO.N,Net-(D42-A)*%
X-30325000Y-4665000D03*
%TD*%
D18*
%TO.P,TP4,1,1*%
%TO.N,/AESD*%
X-20500000Y-5475000D03*
%TD*%
D22*
%TO.P,R31,1*%
%TO.N,Net-(T7-OUT1B)*%
X-4240000Y-38425000D03*
%TO.P,R31,2*%
%TO.N,Net-(C31-Pad2)*%
X-5260000Y-38425000D03*
%TD*%
D16*
%TO.P,C46,1*%
%TO.N,Net-(U40-RX4-)*%
X-30750000Y-10505000D03*
%TO.P,C46,2*%
%TO.N,GNDD*%
X-30750000Y-9545000D03*
%TD*%
D11*
%TO.P,T5,1,IN+*%
%TO.N,/X1+*%
X19700000Y-42125000D03*
D12*
%TO.P,T5,2,PM*%
%TO.N,unconnected-(T5-PM-Pad2)*%
X23680000Y-42080000D03*
D11*
%TO.P,T5,3,IN-*%
%TO.N,/X1-*%
X19700000Y-41475000D03*
%TO.P,T5,4,OUT1A*%
%TO.N,Net-(T5-OUT1A)*%
X23680000Y-40075000D03*
D13*
%TO.P,T5,5,OUT1B*%
%TO.N,Net-(T5-OUT1B)*%
X20090000Y-39470000D03*
D14*
%TO.P,T5,6,OUT2A*%
%TO.N,Net-(T5-OUT2A)*%
X19390000Y-39470000D03*
D11*
%TO.P,T5,7,OUT2B*%
%TO.N,Net-(T5-OUT2B)*%
X23680000Y-39425000D03*
%TD*%
%TO.P,T8,1,IN+*%
%TO.N,/X4+*%
X-17040000Y-42125000D03*
D12*
%TO.P,T8,2,PM*%
%TO.N,unconnected-(T8-PM-Pad2)*%
X-13060000Y-42080000D03*
D11*
%TO.P,T8,3,IN-*%
%TO.N,/X4-*%
X-17040000Y-41475000D03*
%TO.P,T8,4,OUT1A*%
%TO.N,Net-(T8-OUT1A)*%
X-13060000Y-40075000D03*
D13*
%TO.P,T8,5,OUT1B*%
%TO.N,Net-(T8-OUT1B)*%
X-16650000Y-39470000D03*
D14*
%TO.P,T8,6,OUT2A*%
%TO.N,Net-(T8-OUT2A)*%
X-17350000Y-39470000D03*
D11*
%TO.P,T8,7,OUT2B*%
%TO.N,Net-(T8-OUT2B)*%
X-13060000Y-39425000D03*
%TD*%
%TO.P,T6,1,IN+*%
%TO.N,/X2+*%
X7329285Y-42125000D03*
D12*
%TO.P,T6,2,PM*%
%TO.N,unconnected-(T6-PM-Pad2)*%
X11309285Y-42080000D03*
D11*
%TO.P,T6,3,IN-*%
%TO.N,/X2-*%
X7329285Y-41475000D03*
%TO.P,T6,4,OUT1A*%
%TO.N,Net-(T6-OUT1A)*%
X11309285Y-40075000D03*
D13*
%TO.P,T6,5,OUT1B*%
%TO.N,Net-(T6-OUT1B)*%
X7719285Y-39470000D03*
D14*
%TO.P,T6,6,OUT2A*%
%TO.N,Net-(T6-OUT2A)*%
X7019285Y-39470000D03*
D11*
%TO.P,T6,7,OUT2B*%
%TO.N,Net-(T6-OUT2B)*%
X11309285Y-39425000D03*
%TD*%
D10*
%TO.P,R36,1*%
%TO.N,/PVC*%
X-16450000Y-37160000D03*
%TO.P,R36,2*%
%TO.N,GNDD*%
X-16450000Y-36140000D03*
%TD*%
D33*
%TO.P,L60,1*%
%TO.N,/PHOB*%
X10100000Y-36300000D03*
D34*
%TO.P,L60,2*%
%TO.N,Net-(D62-A1)*%
X9500000Y-31900000D03*
D35*
%TO.P,L60,3*%
%TO.N,Net-(C60-Pad2)*%
X13900000Y-31300000D03*
D34*
%TO.P,L60,4*%
%TO.N,Net-(L60-Pad4)*%
X14500000Y-35700000D03*
%TD*%
D16*
%TO.P,C97,1*%
%TO.N,+5V*%
X-30275000Y-40955000D03*
%TO.P,C97,2*%
%TO.N,GNDD*%
X-30275000Y-39995000D03*
%TD*%
D15*
%TO.P,R73,1*%
%TO.N,/PHOC*%
X-15400000Y-36140000D03*
%TO.P,R73,2*%
%TO.N,/PVC*%
X-15400000Y-37160000D03*
%TD*%
D31*
%TO.P,C3,1*%
%TO.N,+3.3V*%
X-1925000Y-27200000D03*
%TO.P,C3,2*%
%TO.N,GNDD*%
X-375000Y-27200000D03*
%TD*%
D28*
%TO.P,R44,1*%
%TO.N,+3.3V*%
X-23785000Y-15675000D03*
%TO.P,R44,2*%
%TO.N,/~{INTD}*%
X-22765000Y-15675000D03*
%TD*%
D36*
%TO.P,J98,1,In*%
%TO.N,Net-(J98-In)*%
X-30050000Y-44950000D03*
D37*
%TO.P,J98,2,Ext*%
%TO.N,GNDD*%
X-31525000Y-43425000D03*
X-28575000Y-43425000D03*
%TD*%
D28*
%TO.P,R14,1*%
%TO.N,+3.3V*%
X26215000Y-15675000D03*
%TO.P,R14,2*%
%TO.N,/~{INTA}*%
X27235000Y-15675000D03*
%TD*%
D22*
%TO.P,R68,1*%
%TO.N,/SLB*%
X8909999Y-15700000D03*
%TO.P,R68,2*%
%TO.N,Net-(C60-Pad1)*%
X7890001Y-15700000D03*
%TD*%
D38*
%TO.P,R25,1*%
%TO.N,Net-(U20-SDOUTA)*%
X12914376Y-4235624D03*
%TO.P,R25,2*%
%TO.N,/IN1*%
X13635624Y-3514376D03*
%TD*%
D21*
%TO.P,C89,1*%
%TO.N,Net-(C89-Pad1)*%
X-21300000Y-17270000D03*
%TO.P,C89,2*%
%TO.N,/SRD*%
X-21300000Y-18230000D03*
%TD*%
D25*
%TO.P,C2,1*%
%TO.N,+5V*%
X975000Y-33875000D03*
%TO.P,C2,2*%
%TO.N,GNDD*%
X-575000Y-33875000D03*
%TD*%
D28*
%TO.P,R55,1*%
%TO.N,Net-(C55-Pad1)*%
X19215000Y-18750000D03*
%TO.P,R55,2*%
%TO.N,/WCLK*%
X20235000Y-18750000D03*
%TD*%
D26*
%TO.P,C86,1*%
%TO.N,Net-(C85-Pad1)*%
X-30680000Y-17725000D03*
%TO.P,C86,2*%
%TO.N,Net-(U83A--)*%
X-29720000Y-17725000D03*
%TD*%
D33*
%TO.P,L80,1*%
%TO.N,/PHOD*%
X-26600000Y-36300000D03*
D34*
%TO.P,L80,2*%
%TO.N,Net-(D82-A1)*%
X-27200000Y-31900000D03*
D35*
%TO.P,L80,3*%
%TO.N,Net-(C80-Pad2)*%
X-22800000Y-31300000D03*
D34*
%TO.P,L80,4*%
%TO.N,Net-(L80-Pad4)*%
X-22200000Y-35700000D03*
%TD*%
D10*
%TO.P,R60,1*%
%TO.N,Net-(L60-Pad4)*%
X15975000Y-35684999D03*
%TO.P,R60,2*%
%TO.N,Net-(C69-Pad1)*%
X15975000Y-34665001D03*
%TD*%
D20*
%TO.P,D63,1,K*%
%TO.N,Net-(D62-A1)*%
X5750000Y-31090000D03*
%TO.P,D63,2,A*%
%TO.N,Net-(D63-A)*%
X5750000Y-32060000D03*
%TD*%
D19*
%TO.P,C23,1*%
%TO.N,+3.3V*%
X11930000Y-4275000D03*
%TO.P,C23,2*%
%TO.N,GNDD*%
X10970000Y-4275000D03*
%TD*%
D18*
%TO.P,TP8,1,1*%
%TO.N,Net-(U40-MUTE)*%
X-29800000Y-14175000D03*
%TD*%
D32*
%TO.P,D12,1,K*%
%TO.N,GNDD*%
X19574999Y-5669999D03*
%TO.P,D12,2,A*%
%TO.N,Net-(D12-A)*%
X19574999Y-4699999D03*
%TD*%
D21*
%TO.P,C14,1*%
%TO.N,+3.3V*%
X19250000Y-11395000D03*
%TO.P,C14,2*%
%TO.N,GNDD*%
X19250000Y-12355000D03*
%TD*%
D11*
%TO.P,T1,1,IN+*%
%TO.N,/R1+*%
X13085000Y-42100000D03*
D12*
%TO.P,T1,2,PM*%
%TO.N,/PHOA*%
X17065000Y-42055000D03*
D11*
%TO.P,T1,3,IN-*%
%TO.N,/R1-*%
X13085000Y-41450000D03*
%TO.P,T1,4,OUT1A*%
%TO.N,Net-(T1-OUT1A)*%
X17065000Y-40050000D03*
D13*
%TO.P,T1,5,OUT1B*%
%TO.N,Net-(T1-OUT1B)*%
X13475000Y-39445000D03*
D14*
%TO.P,T1,6,OUT2A*%
%TO.N,Net-(T1-OUT2A)*%
X12775000Y-39445000D03*
D11*
%TO.P,T1,7,OUT2B*%
%TO.N,Net-(T1-OUT2B)*%
X17065000Y-39400000D03*
%TD*%
D22*
%TO.P,R86,1*%
%TO.N,GNDD*%
X-29690001Y-15700000D03*
%TO.P,R86,2*%
%TO.N,Net-(C85-Pad1)*%
X-30709999Y-15700000D03*
%TD*%
D27*
%TO.P,U60,1,Y1*%
%TO.N,unconnected-(U60-Y1-Pad1)*%
X10162500Y-20325000D03*
%TO.P,U60,2,Y0*%
%TO.N,/FBB*%
X10162500Y-20975000D03*
%TO.P,U60,3,Z1*%
%TO.N,+5V*%
X10162500Y-21625000D03*
%TO.P,U60,4,Z*%
%TO.N,/CTLB*%
X10162500Y-22275000D03*
%TO.P,U60,5,Z0*%
%TO.N,/MODB*%
X10162500Y-22925000D03*
%TO.P,U60,6,Inh*%
%TO.N,GNDD*%
X10162500Y-23575000D03*
%TO.P,U60,7,VEE*%
X10162500Y-24225000D03*
%TO.P,U60,8,VSS*%
X10162500Y-24875000D03*
%TO.P,U60,9,C*%
%TO.N,/M3B*%
X15887500Y-24875000D03*
%TO.P,U60,10,B*%
%TO.N,/MODB*%
X15887500Y-24225000D03*
%TO.P,U60,11,A*%
X15887500Y-23575000D03*
%TO.P,U60,12,X0*%
%TO.N,/SLB*%
X15887500Y-22925000D03*
%TO.P,U60,13,X1*%
%TO.N,unconnected-(U60-X1-Pad13)*%
X15887500Y-22275000D03*
%TO.P,U60,14,X*%
%TO.N,/SRB*%
X15887500Y-21625000D03*
%TO.P,U60,15,Y*%
%TO.N,+5V*%
X15887500Y-20975000D03*
%TO.P,U60,16,VDD*%
X15887500Y-20325000D03*
%TD*%
D28*
%TO.P,R20,1*%
%TO.N,Net-(T2-OUT1A)*%
X3431072Y-38425000D03*
%TO.P,R20,2*%
%TO.N,Net-(T2-OUT2B)*%
X4451072Y-38425000D03*
%TD*%
D22*
%TO.P,R56,1*%
%TO.N,GNDD*%
X20259999Y-15725000D03*
%TO.P,R56,2*%
%TO.N,Net-(C55-Pad1)*%
X19240001Y-15725000D03*
%TD*%
D39*
%TO.P,D82,1,A1*%
%TO.N,Net-(D82-A1)*%
X-29175000Y-31500000D03*
%TO.P,D82,2,A2*%
%TO.N,GNDD*%
X-29175000Y-34400000D03*
%TD*%
D15*
%TO.P,R42,1*%
%TO.N,Net-(D42-A)*%
X-29300000Y-4640001D03*
%TO.P,R42,2*%
%TO.N,Net-(U40-~{LOCK})*%
X-29300000Y-5659999D03*
%TD*%
%TO.P,R90,1*%
%TO.N,Net-(C90-Pad2)*%
X-2250000Y-24125000D03*
%TO.P,R90,2*%
%TO.N,GNDD*%
X-2250000Y-25144998D03*
%TD*%
D26*
%TO.P,C65,1*%
%TO.N,Net-(C65-Pad1)*%
X5965000Y-16725000D03*
%TO.P,C65,2*%
%TO.N,Net-(C60-Pad1)*%
X6925000Y-16725000D03*
%TD*%
D10*
%TO.P,R52,1*%
%TO.N,/FBA*%
X26000000Y-29034999D03*
%TO.P,R52,2*%
%TO.N,Net-(D52-A1)*%
X26000000Y-28015001D03*
%TD*%
D29*
%TO.P,U73,1*%
%TO.N,Net-(C70-Pad1)*%
X-13812500Y-17000000D03*
%TO.P,U73,2,-*%
%TO.N,Net-(U73A--)*%
X-13812500Y-17500000D03*
%TO.P,U73,3,+*%
%TO.N,/MID*%
X-13812500Y-18000000D03*
%TO.P,U73,4,V-*%
%TO.N,GNDD*%
X-13812500Y-18500000D03*
%TO.P,U73,5,~{SHDN_A}*%
%TO.N,/M3C*%
X-13812500Y-19000000D03*
%TO.P,U73,6,~{SHDN_B}*%
X-9587500Y-19000000D03*
%TO.P,U73,7,+*%
%TO.N,/MID*%
X-9587500Y-18500000D03*
%TO.P,U73,8,-*%
%TO.N,/SRC*%
X-9587500Y-18000000D03*
%TO.P,U73,9*%
%TO.N,Net-(C79-Pad1)*%
X-9587500Y-17500000D03*
%TO.P,U73,10,V+*%
%TO.N,+5V*%
X-9587500Y-17000000D03*
%TD*%
D33*
%TO.P,L70,1*%
%TO.N,/PHOC*%
X-13300000Y-36300000D03*
D34*
%TO.P,L70,2*%
%TO.N,Net-(D72-A1)*%
X-13900000Y-31900000D03*
D35*
%TO.P,L70,3*%
%TO.N,Net-(C70-Pad2)*%
X-9500000Y-31300000D03*
D34*
%TO.P,L70,4*%
%TO.N,Net-(L70-Pad4)*%
X-8900000Y-35700000D03*
%TD*%
D26*
%TO.P,C66,1*%
%TO.N,Net-(C65-Pad1)*%
X5965000Y-17775000D03*
%TO.P,C66,2*%
%TO.N,Net-(U63A--)*%
X6925000Y-17775000D03*
%TD*%
D40*
%TO.P,U4,1,VIN2*%
%TO.N,+5V*%
X975000Y-32450000D03*
%TO.P,U4,2,LX2*%
%TO.N,Net-(U4-LX2)*%
X975000Y-32000000D03*
%TO.P,U4,3,GND*%
%TO.N,GNDD*%
X975000Y-31550000D03*
%TO.P,U4,4,FB1*%
%TO.N,+3.3V*%
X975000Y-31100000D03*
%TO.P,U4,5,NC1*%
%TO.N,unconnected-(U4-NC1-Pad5)*%
X975000Y-30650000D03*
%TO.P,U4,6,EN1*%
%TO.N,+3.3VP*%
X975000Y-30200000D03*
%TO.P,U4,7,VIN1*%
%TO.N,+5V*%
X-1925000Y-30200000D03*
%TO.P,U4,8,LX1*%
%TO.N,Net-(U4-LX1)*%
X-1925000Y-30650000D03*
%TO.P,U4,9,GND*%
%TO.N,GNDD*%
X-1925000Y-31100000D03*
%TO.P,U4,10,FB2*%
%TO.N,+1V8*%
X-1925000Y-31550000D03*
%TO.P,U4,11,NC2*%
%TO.N,unconnected-(U4-NC2-Pad11)*%
X-1925000Y-32000000D03*
%TO.P,U4,12,EN2*%
%TO.N,+3.3VP*%
X-1925000Y-32450000D03*
D41*
%TO.P,U4,13,GND*%
%TO.N,GNDD*%
X-475000Y-31325000D03*
%TD*%
D19*
%TO.P,C12,1*%
%TO.N,+1V8*%
X24480000Y-15675000D03*
%TO.P,C12,2*%
%TO.N,GNDD*%
X23520000Y-15675000D03*
%TD*%
D42*
%TO.P,U71,1,SW*%
%TO.N,Net-(U71-SW)*%
X-13799999Y-29012500D03*
%TO.P,U71,2,GND*%
%TO.N,GNDD*%
X-12850000Y-29012500D03*
%TO.P,U71,3,FB*%
%TO.N,/FBC*%
X-11900001Y-29012500D03*
%TO.P,U71,4,EN*%
%TO.N,/ENC*%
X-11900001Y-26737500D03*
%TO.P,U71,5,VOUT*%
%TO.N,Net-(D72-A1)*%
X-12850000Y-26737500D03*
%TO.P,U71,6,VI*%
%TO.N,+5V*%
X-13799999Y-26737500D03*
%TD*%
D25*
%TO.P,C61,1*%
%TO.N,+5V*%
X7975000Y-25625000D03*
%TO.P,C61,2*%
%TO.N,GNDD*%
X6425000Y-25625000D03*
%TD*%
D10*
%TO.P,R46,1*%
%TO.N,/PVD*%
X-29800000Y-37260000D03*
%TO.P,R46,2*%
%TO.N,GNDD*%
X-29800000Y-36240000D03*
%TD*%
D21*
%TO.P,C91,1*%
%TO.N,GNDD*%
X25525000Y-39070000D03*
%TO.P,C91,2*%
%TO.N,Net-(U2-XTO)*%
X25525000Y-40030000D03*
%TD*%
D15*
%TO.P,R94,1*%
%TO.N,Net-(D94-A)*%
X-24300000Y-45565000D03*
%TO.P,R94,2*%
%TO.N,Net-(J94-In)*%
X-24300000Y-46585000D03*
%TD*%
D39*
%TO.P,D52,1,A1*%
%TO.N,Net-(D52-A1)*%
X20800000Y-31550000D03*
%TO.P,D52,2,A2*%
%TO.N,GNDD*%
X20800000Y-34450000D03*
%TD*%
D19*
%TO.P,C13,1*%
%TO.N,+3.3V*%
X25230000Y-4275000D03*
%TO.P,C13,2*%
%TO.N,GNDD*%
X24270000Y-4275000D03*
%TD*%
D43*
%TO.P,L71,1,1*%
%TO.N,+5V*%
X-16125000Y-27225000D03*
%TO.P,L71,2,2*%
%TO.N,Net-(U71-SW)*%
X-16125000Y-29175000D03*
%TD*%
D28*
%TO.P,R10,1*%
%TO.N,Net-(T1-OUT1A)*%
X15710358Y-38400000D03*
%TO.P,R10,2*%
%TO.N,Net-(T1-OUT2B)*%
X16730358Y-38400000D03*
%TD*%
%TO.P,R75,1*%
%TO.N,Net-(C75-Pad1)*%
X-17485000Y-18775000D03*
%TO.P,R75,2*%
%TO.N,/WCLK*%
X-16465000Y-18775000D03*
%TD*%
D32*
%TO.P,D84,1,K*%
%TO.N,GNDD*%
X-30900000Y-35910000D03*
%TO.P,D84,2,A*%
%TO.N,Net-(D84-A)*%
X-30900000Y-34940000D03*
%TD*%
D44*
%TO.P,U52,1,GND*%
%TO.N,GNDD*%
X21250000Y-20425000D03*
D45*
%TO.P,U52,2,G*%
%TO.N,Net-(U52-G)*%
X19550000Y-20425000D03*
%TO.P,U52,3,VCC*%
%TO.N,+5V*%
X19550000Y-22425000D03*
%TO.P,U52,4,CTL*%
%TO.N,/CTLA*%
X21450000Y-22425000D03*
%TD*%
D31*
%TO.P,C62,1*%
%TO.N,Net-(D62-A1)*%
X13025000Y-26775000D03*
%TO.P,C62,2*%
%TO.N,GNDD*%
X14575000Y-26775000D03*
%TD*%
D46*
%TO.P,U40,1,RX1+*%
%TO.N,Net-(T4-OUT1A)*%
X-29162500Y-7225000D03*
%TO.P,U40,2,RX1-*%
%TO.N,Net-(T4-OUT2B)*%
X-29162500Y-7725000D03*
%TO.P,U40,3,RX2+*%
%TO.N,unconnected-(U40-RX2+-Pad3)*%
X-29162500Y-8225000D03*
%TO.P,U40,4,RX2-*%
%TO.N,unconnected-(U40-RX2--Pad4)*%
X-29162500Y-8725000D03*
%TO.P,U40,5,RX3+*%
%TO.N,unconnected-(U40-RX3+-Pad5)*%
X-29162500Y-9225000D03*
%TO.P,U40,6,RX3-*%
%TO.N,unconnected-(U40-RX3--Pad6)*%
X-29162500Y-9725000D03*
%TO.P,U40,7,RX4+*%
%TO.N,/OUT3*%
X-29162500Y-10225000D03*
%TO.P,U40,8,RX4-*%
%TO.N,Net-(U40-RX4-)*%
X-29162500Y-10725000D03*
%TO.P,U40,9,VCC*%
%TO.N,+3.3V*%
X-29162500Y-11225000D03*
%TO.P,U40,10,AGND*%
%TO.N,GNDD*%
X-29162500Y-11725000D03*
%TO.P,U40,11,~{LOCK}*%
%TO.N,Net-(U40-~{LOCK})*%
X-29162500Y-12225000D03*
%TO.P,U40,12,RXCKO*%
%TO.N,/RCLK*%
X-29162500Y-12725000D03*
D47*
%TO.P,U40,13,RXCKI*%
%TO.N,/ACLK*%
X-27750000Y-14137500D03*
%TO.P,U40,14,MUTE*%
%TO.N,Net-(U40-MUTE)*%
X-27250000Y-14137500D03*
%TO.P,U40,15,~{RDY}*%
X-26750000Y-14137500D03*
%TO.P,U40,16,DGND1*%
%TO.N,GNDD*%
X-26250000Y-14137500D03*
%TO.P,U40,17,VDD18*%
%TO.N,+1V8*%
X-25750000Y-14137500D03*
%TO.P,U40,18,CPM*%
%TO.N,GNDD*%
X-25250000Y-14137500D03*
%TO.P,U40,19,~{CS}/A0*%
%TO.N,/~{CSD}*%
X-24750000Y-14137500D03*
%TO.P,U40,20,CCLK/SCL*%
%TO.N,/SCLK*%
X-24250000Y-14137500D03*
%TO.P,U40,21,CDIN/A1*%
%TO.N,/MOSI*%
X-23750000Y-14137500D03*
%TO.P,U40,22,CDOUT/SDA*%
%TO.N,/MISO*%
X-23250000Y-14137500D03*
%TO.P,U40,23,~{INT}*%
%TO.N,/~{INTD}*%
X-22750000Y-14137500D03*
%TO.P,U40,24,~{RST}*%
%TO.N,/~{RESET}*%
X-22250000Y-14137500D03*
D46*
%TO.P,U40,25,MCLK*%
%TO.N,/MCLK*%
X-20837500Y-12725000D03*
%TO.P,U40,26,GPO1*%
%TO.N,/END*%
X-20837500Y-12225000D03*
%TO.P,U40,27,GPO2*%
%TO.N,/M3D*%
X-20837500Y-11725000D03*
%TO.P,U40,28,GPO3*%
%TO.N,/UCKD*%
X-20837500Y-11225000D03*
%TO.P,U40,29,GPO4*%
%TO.N,/UBTD*%
X-20837500Y-10725000D03*
%TO.P,U40,30,DGND2*%
%TO.N,GNDD*%
X-20837500Y-10225000D03*
%TO.P,U40,31,TX-*%
%TO.N,Net-(T8-OUT2B)*%
X-20837500Y-9725000D03*
%TO.P,U40,32,TX+*%
%TO.N,Net-(T8-OUT1A)*%
X-20837500Y-9225000D03*
%TO.P,U40,33,VDD33*%
%TO.N,+3.3V*%
X-20837500Y-8725000D03*
%TO.P,U40,34,AESOUT*%
%TO.N,/AESD*%
X-20837500Y-8225000D03*
%TO.P,U40,35,BLS*%
%TO.N,/BLS*%
X-20837500Y-7725000D03*
%TO.P,U40,36,SYNC*%
%TO.N,/SYNCD*%
X-20837500Y-7225000D03*
D47*
%TO.P,U40,37,BCKA*%
%TO.N,/BCK*%
X-22250000Y-5812500D03*
%TO.P,U40,38,LRCKA*%
%TO.N,/LR*%
X-22750000Y-5812500D03*
%TO.P,U40,39,SDINA*%
%TO.N,/OUT3*%
X-23250000Y-5812500D03*
%TO.P,U40,40,SDOUTA*%
%TO.N,Net-(U40-SDOUTA)*%
X-23750000Y-5812500D03*
%TO.P,U40,41,NC*%
%TO.N,unconnected-(U40-NC-Pad41)*%
X-24250000Y-5812500D03*
%TO.P,U40,42,VIO*%
%TO.N,+3.3V*%
X-24750000Y-5812500D03*
%TO.P,U40,43,DGND3*%
%TO.N,GNDD*%
X-25250000Y-5812500D03*
%TO.P,U40,44,BGND*%
X-25750000Y-5812500D03*
%TO.P,U40,45,SDOUTB*%
%TO.N,/IN5*%
X-26250000Y-5812500D03*
%TO.P,U40,46,SDINB*%
X-26750000Y-5812500D03*
%TO.P,U40,47,LRCKB*%
%TO.N,/LR*%
X-27250000Y-5812500D03*
%TO.P,U40,48,BCKB*%
%TO.N,/BCK*%
X-27750000Y-5812500D03*
%TD*%
D15*
%TO.P,R74,1*%
%TO.N,Net-(D73-A)*%
X-17625000Y-33015000D03*
%TO.P,R74,2*%
%TO.N,Net-(D74-A)*%
X-17625000Y-34035000D03*
%TD*%
D16*
%TO.P,C16,1*%
%TO.N,Net-(U10-RX4-)*%
X19250000Y-10505000D03*
%TO.P,C16,2*%
%TO.N,GNDD*%
X19250000Y-9545000D03*
%TD*%
D15*
%TO.P,R87,1*%
%TO.N,Net-(C80-Pad1)*%
X-28775000Y-16715001D03*
%TO.P,R87,2*%
%TO.N,Net-(U83A--)*%
X-28775000Y-17734999D03*
%TD*%
%TO.P,R81,1*%
%TO.N,GNDD*%
X-22775000Y-28515001D03*
%TO.P,R81,2*%
%TO.N,/FBD*%
X-22775000Y-29534999D03*
%TD*%
D19*
%TO.P,C40,1*%
%TO.N,Net-(T4-OUT1B)*%
X-23020000Y-38425000D03*
%TO.P,C40,2*%
%TO.N,Net-(T4-OUT2A)*%
X-23980000Y-38425000D03*
%TD*%
D15*
%TO.P,R61,1*%
%TO.N,GNDD*%
X13850000Y-28015001D03*
%TO.P,R61,2*%
%TO.N,/FBB*%
X13850000Y-29034999D03*
%TD*%
D28*
%TO.P,R1,1*%
%TO.N,+3.3VP*%
X-2335000Y-5700000D03*
%TO.P,R1,2*%
%TO.N,Net-(J1-ID_SD{slash}GPIO0)*%
X-1315000Y-5700000D03*
%TD*%
D32*
%TO.P,D22,1,K*%
%TO.N,GNDD*%
X6275000Y-5660000D03*
%TO.P,D22,2,A*%
%TO.N,Net-(D22-A)*%
X6275000Y-4690000D03*
%TD*%
D18*
%TO.P,TP5,1,1*%
%TO.N,Net-(U10-MUTE)*%
X20225000Y-14150000D03*
%TD*%
D21*
%TO.P,C34,1*%
%TO.N,+3.3V*%
X-17450000Y-11395000D03*
%TO.P,C34,2*%
%TO.N,GNDD*%
X-17450000Y-12355000D03*
%TD*%
D16*
%TO.P,C11,1*%
%TO.N,Net-(T5-OUT2A)*%
X18425000Y-39455000D03*
%TO.P,C11,2*%
%TO.N,Net-(C11-Pad2)*%
X18425000Y-38495000D03*
%TD*%
D15*
%TO.P,R15,1*%
%TO.N,/~{INTA}*%
X2200000Y-11140001D03*
%TO.P,R15,2*%
%TO.N,/~{REQ}{slash}~{ISP}*%
X2200000Y-12159999D03*
%TD*%
D43*
%TO.P,L51,1,1*%
%TO.N,+5V*%
X20450000Y-27225000D03*
%TO.P,L51,2,2*%
%TO.N,Net-(U51-SW)*%
X20450000Y-29175000D03*
%TD*%
D18*
%TO.P,TP7,1,1*%
%TO.N,Net-(U30-MUTE)*%
X-16550000Y-14225000D03*
%TD*%
D28*
%TO.P,R40,1*%
%TO.N,Net-(T4-OUT1A)*%
X-20985000Y-38425000D03*
%TO.P,R40,2*%
%TO.N,Net-(T4-OUT2B)*%
X-19965000Y-38425000D03*
%TD*%
D32*
%TO.P,D54,1,K*%
%TO.N,GNDD*%
X19050000Y-36010000D03*
%TO.P,D54,2,A*%
%TO.N,Net-(D54-A)*%
X19050000Y-35040000D03*
%TD*%
D31*
%TO.P,C1,1*%
%TO.N,+5V*%
X-1925000Y-28750000D03*
%TO.P,C1,2*%
%TO.N,GNDD*%
X-375000Y-28750000D03*
%TD*%
D22*
%TO.P,R78,1*%
%TO.N,/SLC*%
X-14490001Y-15700000D03*
%TO.P,R78,2*%
%TO.N,Net-(C70-Pad1)*%
X-15509999Y-15700000D03*
%TD*%
D19*
%TO.P,C96,1*%
%TO.N,+3.3V*%
X30455000Y-44975000D03*
%TO.P,C96,2*%
%TO.N,GNDD*%
X29495000Y-44975000D03*
%TD*%
%TO.P,C32,1*%
%TO.N,+1V8*%
X-12220000Y-15650000D03*
%TO.P,C32,2*%
%TO.N,GNDD*%
X-13180000Y-15650000D03*
%TD*%
D32*
%TO.P,D74,1,K*%
%TO.N,GNDD*%
X-17625000Y-35935000D03*
%TO.P,D74,2,A*%
%TO.N,Net-(D74-A)*%
X-17625000Y-34965000D03*
%TD*%
D15*
%TO.P,R63,1*%
%TO.N,/PHOB*%
X8000000Y-36140000D03*
%TO.P,R63,2*%
%TO.N,/PVB*%
X8000000Y-37160000D03*
%TD*%
D21*
%TO.P,C79,1*%
%TO.N,Net-(C79-Pad1)*%
X-8050000Y-17270000D03*
%TO.P,C79,2*%
%TO.N,/SRC*%
X-8050000Y-18230000D03*
%TD*%
D46*
%TO.P,U10,1,RX1+*%
%TO.N,Net-(T1-OUT1A)*%
X20837500Y-7225000D03*
%TO.P,U10,2,RX1-*%
%TO.N,Net-(T1-OUT2B)*%
X20837500Y-7725000D03*
%TO.P,U10,3,RX2+*%
%TO.N,unconnected-(U10-RX2+-Pad3)*%
X20837500Y-8225000D03*
%TO.P,U10,4,RX2-*%
%TO.N,unconnected-(U10-RX2--Pad4)*%
X20837500Y-8725000D03*
%TO.P,U10,5,RX3+*%
%TO.N,unconnected-(U10-RX3+-Pad5)*%
X20837500Y-9225000D03*
%TO.P,U10,6,RX3-*%
%TO.N,unconnected-(U10-RX3--Pad6)*%
X20837500Y-9725000D03*
%TO.P,U10,7,RX4+*%
%TO.N,/IN3*%
X20837500Y-10225000D03*
%TO.P,U10,8,RX4-*%
%TO.N,Net-(U10-RX4-)*%
X20837500Y-10725000D03*
%TO.P,U10,9,VCC*%
%TO.N,+3.3V*%
X20837500Y-11225000D03*
%TO.P,U10,10,AGND*%
%TO.N,GNDD*%
X20837500Y-11725000D03*
%TO.P,U10,11,~{LOCK}*%
%TO.N,Net-(U10-~{LOCK})*%
X20837500Y-12225000D03*
%TO.P,U10,12,RXCKO*%
%TO.N,/RCLK*%
X20837500Y-12725000D03*
D47*
%TO.P,U10,13,RXCKI*%
%TO.N,/ACLK*%
X22250000Y-14137500D03*
%TO.P,U10,14,MUTE*%
%TO.N,Net-(U10-MUTE)*%
X22750000Y-14137500D03*
%TO.P,U10,15,~{RDY}*%
X23250000Y-14137500D03*
%TO.P,U10,16,DGND1*%
%TO.N,GNDD*%
X23750000Y-14137500D03*
%TO.P,U10,17,VDD18*%
%TO.N,+1V8*%
X24250000Y-14137500D03*
%TO.P,U10,18,CPM*%
%TO.N,GNDD*%
X24750000Y-14137500D03*
%TO.P,U10,19,~{CS}/A0*%
%TO.N,/~{CSA}*%
X25250000Y-14137500D03*
%TO.P,U10,20,CCLK/SCL*%
%TO.N,/SCLK*%
X25750000Y-14137500D03*
%TO.P,U10,21,CDIN/A1*%
%TO.N,/MOSI*%
X26250000Y-14137500D03*
%TO.P,U10,22,CDOUT/SDA*%
%TO.N,/MISO*%
X26750000Y-14137500D03*
%TO.P,U10,23,~{INT}*%
%TO.N,/~{INTA}*%
X27250000Y-14137500D03*
%TO.P,U10,24,~{RST}*%
%TO.N,/~{RESET}*%
X27750000Y-14137500D03*
D46*
%TO.P,U10,25,MCLK*%
%TO.N,/MCLK*%
X29162500Y-12725000D03*
%TO.P,U10,26,GPO1*%
%TO.N,/ENA*%
X29162500Y-12225000D03*
%TO.P,U10,27,GPO2*%
%TO.N,/M3A*%
X29162500Y-11725000D03*
%TO.P,U10,28,GPO3*%
%TO.N,/UCKA*%
X29162500Y-11225000D03*
%TO.P,U10,29,GPO4*%
%TO.N,/UBTA*%
X29162500Y-10725000D03*
%TO.P,U10,30,DGND2*%
%TO.N,GNDD*%
X29162500Y-10225000D03*
%TO.P,U10,31,TX-*%
%TO.N,Net-(T5-OUT2B)*%
X29162500Y-9725000D03*
%TO.P,U10,32,TX+*%
%TO.N,Net-(T5-OUT1A)*%
X29162500Y-9225000D03*
%TO.P,U10,33,VDD33*%
%TO.N,+3.3V*%
X29162500Y-8725000D03*
%TO.P,U10,34,AESOUT*%
%TO.N,Net-(U10-AESOUT)*%
X29162500Y-8225000D03*
%TO.P,U10,35,BLS*%
%TO.N,/BLS*%
X29162500Y-7725000D03*
%TO.P,U10,36,SYNC*%
%TO.N,/SYNCA*%
X29162500Y-7225000D03*
D47*
%TO.P,U10,37,BCKA*%
%TO.N,/BCK*%
X27750000Y-5812500D03*
%TO.P,U10,38,LRCKA*%
%TO.N,/LR*%
X27250000Y-5812500D03*
%TO.P,U10,39,SDINA*%
%TO.N,/OUT0*%
X26750000Y-5812500D03*
%TO.P,U10,40,SDOUTA*%
%TO.N,/IN0*%
X26250000Y-5812500D03*
%TO.P,U10,41,NC*%
%TO.N,unconnected-(U10-NC-Pad41)*%
X25750000Y-5812500D03*
%TO.P,U10,42,VIO*%
%TO.N,+3.3V*%
X25250000Y-5812500D03*
%TO.P,U10,43,DGND3*%
%TO.N,GNDD*%
X24750000Y-5812500D03*
%TO.P,U10,44,BGND*%
X24250000Y-5812500D03*
%TO.P,U10,45,SDOUTB*%
%TO.N,Net-(U10-SDINB)*%
X23750000Y-5812500D03*
%TO.P,U10,46,SDINB*%
X23250000Y-5812500D03*
%TO.P,U10,47,LRCKB*%
%TO.N,/LR*%
X22750000Y-5812500D03*
%TO.P,U10,48,BCKB*%
%TO.N,/BCK*%
X22250000Y-5812500D03*
%TD*%
D16*
%TO.P,C36,1*%
%TO.N,Net-(U30-RX4-)*%
X-17450000Y-10505000D03*
%TO.P,C36,2*%
%TO.N,GNDD*%
X-17450000Y-9545000D03*
%TD*%
D15*
%TO.P,R64,1*%
%TO.N,Net-(D63-A)*%
X5750000Y-33015001D03*
%TO.P,R64,2*%
%TO.N,Net-(D64-A)*%
X5750000Y-34034999D03*
%TD*%
D10*
%TO.P,R72,1*%
%TO.N,/FBC*%
X-10625000Y-29534999D03*
%TO.P,R72,2*%
%TO.N,Net-(D72-A1)*%
X-10625000Y-28515001D03*
%TD*%
D22*
%TO.P,R58,1*%
%TO.N,/SLA*%
X22234999Y-15675000D03*
%TO.P,R58,2*%
%TO.N,Net-(C50-Pad1)*%
X21215001Y-15675000D03*
%TD*%
%TO.P,R76,1*%
%TO.N,GNDD*%
X-16465000Y-15700000D03*
%TO.P,R76,2*%
%TO.N,Net-(C75-Pad1)*%
X-17485000Y-15700000D03*
%TD*%
D25*
%TO.P,C51,1*%
%TO.N,+5V*%
X21225000Y-25625000D03*
%TO.P,C51,2*%
%TO.N,GNDD*%
X19675000Y-25625000D03*
%TD*%
D48*
%TO.P,U5,1,VCCA*%
%TO.N,+5V*%
X-29150000Y-40925000D03*
%TO.P,U5,2,GND*%
%TO.N,GNDD*%
X-28650000Y-40925000D03*
%TO.P,U5,3,A*%
%TO.N,Net-(U5-A)*%
X-28150000Y-40925000D03*
%TO.P,U5,4,B*%
%TO.N,/WCLK*%
X-28150000Y-39425000D03*
%TO.P,U5,5,DIR*%
%TO.N,GNDD*%
X-28650000Y-39425000D03*
%TO.P,U5,6,VCCB*%
%TO.N,+3.3V*%
X-29150000Y-39425000D03*
%TD*%
D22*
%TO.P,R11,1*%
%TO.N,Net-(T5-OUT1B)*%
X20435000Y-38400000D03*
%TO.P,R11,2*%
%TO.N,Net-(C11-Pad2)*%
X19415000Y-38400000D03*
%TD*%
D44*
%TO.P,U62,1,GND*%
%TO.N,GNDD*%
X7900000Y-20425000D03*
D45*
%TO.P,U62,2,G*%
%TO.N,Net-(U62-G)*%
X6200000Y-20425000D03*
%TO.P,U62,3,VCC*%
%TO.N,+5V*%
X6200000Y-22425000D03*
%TO.P,U62,4,CTL*%
%TO.N,/CTLB*%
X8100000Y-22425000D03*
%TD*%
D49*
%TO.P,U3,1,SCL*%
%TO.N,Net-(J1-ID_SC{slash}GPIO1)*%
X100000Y-3800000D03*
%TO.P,U3,2,GND*%
%TO.N,GNDD*%
X100000Y-4750000D03*
%TO.P,U3,3,SDA*%
%TO.N,Net-(J1-ID_SD{slash}GPIO0)*%
X100000Y-5700000D03*
%TO.P,U3,4,VCC*%
%TO.N,+3.3VP*%
X2375000Y-5700000D03*
%TO.P,U3,5,WP*%
%TO.N,Net-(U3-WP)*%
X2375000Y-3800000D03*
%TD*%
D10*
%TO.P,R62,1*%
%TO.N,/FBB*%
X12800000Y-29034999D03*
%TO.P,R62,2*%
%TO.N,Net-(D62-A1)*%
X12800000Y-28015001D03*
%TD*%
D26*
%TO.P,C85,1*%
%TO.N,Net-(C85-Pad1)*%
X-30680000Y-16725000D03*
%TO.P,C85,2*%
%TO.N,Net-(C80-Pad1)*%
X-29720000Y-16725000D03*
%TD*%
D39*
%TO.P,D72,1,A1*%
%TO.N,Net-(D72-A1)*%
X-15900000Y-31550000D03*
%TO.P,D72,2,A2*%
%TO.N,GNDD*%
X-15900000Y-34450000D03*
%TD*%
D32*
%TO.P,D64,1,K*%
%TO.N,GNDD*%
X5750000Y-35985000D03*
%TO.P,D64,2,A*%
%TO.N,Net-(D64-A)*%
X5750000Y-35015000D03*
%TD*%
D25*
%TO.P,C81,1*%
%TO.N,+5V*%
X-28587500Y-25650000D03*
%TO.P,C81,2*%
%TO.N,GNDD*%
X-30137500Y-25650000D03*
%TD*%
%TO.P,C83,1*%
%TO.N,Net-(D82-A1)*%
X-28650000Y-23850000D03*
%TO.P,C83,2*%
%TO.N,Net-(U82-G)*%
X-30200000Y-23850000D03*
%TD*%
D18*
%TO.P,TP9,1,1*%
%TO.N,Net-(U1-PIO0_9)*%
X-3400000Y-24450000D03*
%TD*%
D22*
%TO.P,R66,1*%
%TO.N,GNDD*%
X6959999Y-15700000D03*
%TO.P,R66,2*%
%TO.N,Net-(C65-Pad1)*%
X5940001Y-15700000D03*
%TD*%
D10*
%TO.P,R26,1*%
%TO.N,/PVB*%
X6950000Y-37160000D03*
%TO.P,R26,2*%
%TO.N,GNDD*%
X6950000Y-36140000D03*
%TD*%
D28*
%TO.P,R85,1*%
%TO.N,Net-(C85-Pad1)*%
X-30709999Y-18725000D03*
%TO.P,R85,2*%
%TO.N,/WCLK*%
X-29690001Y-18725000D03*
%TD*%
D44*
%TO.P,U82,1,GND*%
%TO.N,GNDD*%
X-28662500Y-20425000D03*
D45*
%TO.P,U82,2,G*%
%TO.N,Net-(U82-G)*%
X-30362500Y-20425000D03*
%TO.P,U82,3,VCC*%
%TO.N,+5V*%
X-30362500Y-22425000D03*
%TO.P,U82,4,CTL*%
%TO.N,/CTLD*%
X-28462500Y-22425000D03*
%TD*%
D25*
%TO.P,C63,1*%
%TO.N,Net-(D62-A1)*%
X7975000Y-23825000D03*
%TO.P,C63,2*%
%TO.N,Net-(U62-G)*%
X6425000Y-23825000D03*
%TD*%
D43*
%TO.P,L61,1,1*%
%TO.N,+5V*%
X7225000Y-27225000D03*
%TO.P,L61,2,2*%
%TO.N,Net-(U61-SW)*%
X7225000Y-29175000D03*
%TD*%
D21*
%TO.P,C69,1*%
%TO.N,Net-(C69-Pad1)*%
X15350000Y-17295000D03*
%TO.P,C69,2*%
%TO.N,/SRB*%
X15350000Y-18255000D03*
%TD*%
D22*
%TO.P,R88,1*%
%TO.N,/SLD*%
X-27765001Y-15700000D03*
%TO.P,R88,2*%
%TO.N,Net-(C80-Pad1)*%
X-28784999Y-15700000D03*
%TD*%
D18*
%TO.P,TP1,1,1*%
%TO.N,Net-(U10-AESOUT)*%
X29700000Y-5675000D03*
%TD*%
D19*
%TO.P,C43,1*%
%TO.N,+3.3V*%
X-24770000Y-4225000D03*
%TO.P,C43,2*%
%TO.N,GNDD*%
X-25730000Y-4225000D03*
%TD*%
D29*
%TO.P,U83,1*%
%TO.N,Net-(C80-Pad1)*%
X-27162500Y-17000000D03*
%TO.P,U83,2,-*%
%TO.N,Net-(U83A--)*%
X-27162500Y-17500000D03*
%TO.P,U83,3,+*%
%TO.N,/MID*%
X-27162500Y-18000000D03*
%TO.P,U83,4,V-*%
%TO.N,GNDD*%
X-27162500Y-18500000D03*
%TO.P,U83,5,~{SHDN_A}*%
%TO.N,/M3D*%
X-27162500Y-19000000D03*
%TO.P,U83,6,~{SHDN_B}*%
X-22937500Y-19000000D03*
%TO.P,U83,7,+*%
%TO.N,/MID*%
X-22937500Y-18500000D03*
%TO.P,U83,8,-*%
%TO.N,/SRD*%
X-22937500Y-18000000D03*
%TO.P,U83,9*%
%TO.N,Net-(C89-Pad1)*%
X-22937500Y-17500000D03*
%TO.P,U83,10,V+*%
%TO.N,+5V*%
X-22937500Y-17000000D03*
%TD*%
D15*
%TO.P,R77,1*%
%TO.N,Net-(C70-Pad1)*%
X-15500000Y-16740001D03*
%TO.P,R77,2*%
%TO.N,Net-(U73A--)*%
X-15500000Y-17759999D03*
%TD*%
D19*
%TO.P,C42,1*%
%TO.N,+1V8*%
X-25520000Y-15675000D03*
%TO.P,C42,2*%
%TO.N,GNDD*%
X-26480000Y-15675000D03*
%TD*%
D33*
%TO.P,L50,1*%
%TO.N,/PHOA*%
X23400000Y-36300000D03*
D34*
%TO.P,L50,2*%
%TO.N,Net-(D52-A1)*%
X22800000Y-31900000D03*
D35*
%TO.P,L50,3*%
%TO.N,Net-(C50-Pad2)*%
X27200000Y-31300000D03*
D34*
%TO.P,L50,4*%
%TO.N,Net-(L50-Pad4)*%
X27800000Y-35700000D03*
%TD*%
D16*
%TO.P,C26,1*%
%TO.N,Net-(U20-RX4-)*%
X5950000Y-10505000D03*
%TO.P,C26,2*%
%TO.N,GNDD*%
X5950000Y-9545000D03*
%TD*%
%TO.P,C41,1*%
%TO.N,Net-(T8-OUT2A)*%
X-18300000Y-39460000D03*
%TO.P,C41,2*%
%TO.N,Net-(C41-Pad2)*%
X-18300000Y-38500000D03*
%TD*%
D10*
%TO.P,R9,1*%
%TO.N,GNDD*%
X2325000Y-28545000D03*
%TO.P,R9,2*%
%TO.N,/MID*%
X2325000Y-27525000D03*
%TD*%
D11*
%TO.P,T4,1,IN+*%
%TO.N,/R4+*%
X-23590000Y-42125000D03*
D12*
%TO.P,T4,2,PM*%
%TO.N,/PHOD*%
X-19610000Y-42080000D03*
D11*
%TO.P,T4,3,IN-*%
%TO.N,/R4-*%
X-23590000Y-41475000D03*
%TO.P,T4,4,OUT1A*%
%TO.N,Net-(T4-OUT1A)*%
X-19610000Y-40075000D03*
D13*
%TO.P,T4,5,OUT1B*%
%TO.N,Net-(T4-OUT1B)*%
X-23200000Y-39470000D03*
D14*
%TO.P,T4,6,OUT2A*%
%TO.N,Net-(T4-OUT2A)*%
X-23900000Y-39470000D03*
D11*
%TO.P,T4,7,OUT2B*%
%TO.N,Net-(T4-OUT2B)*%
X-19610000Y-39425000D03*
%TD*%
D19*
%TO.P,C20,1*%
%TO.N,Net-(T2-OUT1B)*%
X1321072Y-38425000D03*
%TO.P,C20,2*%
%TO.N,Net-(T2-OUT2A)*%
X361072Y-38425000D03*
%TD*%
D50*
%TO.P,Y1,1,1*%
%TO.N,Net-(U2-XTI{slash}REF_CLK)*%
X29300000Y-38325000D03*
%TO.P,Y1,2,2*%
%TO.N,GNDD*%
X27100000Y-38325000D03*
%TO.P,Y1,3,3*%
%TO.N,Net-(U2-XTO)*%
X27100000Y-40025000D03*
%TO.P,Y1,4,4*%
%TO.N,GNDD*%
X29300000Y-40025000D03*
%TD*%
D10*
%TO.P,R16,1*%
%TO.N,/PVA*%
X20350000Y-37110000D03*
%TO.P,R16,2*%
%TO.N,GNDD*%
X20350000Y-36090000D03*
%TD*%
D18*
%TO.P,TP2,1,1*%
%TO.N,/AESB*%
X16500000Y-5675000D03*
%TD*%
D21*
%TO.P,C90,1*%
%TO.N,Net-(U1-PIO0_8)*%
X-2250000Y-22220000D03*
%TO.P,C90,2*%
%TO.N,Net-(C90-Pad2)*%
X-2250000Y-23180000D03*
%TD*%
D15*
%TO.P,R17,1*%
%TO.N,/SYNCA*%
X30725000Y-7030002D03*
%TO.P,R17,2*%
%TO.N,/WCLK*%
X30725000Y-8050000D03*
%TD*%
D25*
%TO.P,C73,1*%
%TO.N,Net-(D72-A1)*%
X-15512500Y-23925000D03*
%TO.P,C73,2*%
%TO.N,Net-(U72-G)*%
X-17062500Y-23925000D03*
%TD*%
D15*
%TO.P,R22,1*%
%TO.N,Net-(D22-A)*%
X7300000Y-4665001D03*
%TO.P,R22,2*%
%TO.N,Net-(U20-~{LOCK})*%
X7300000Y-5684999D03*
%TD*%
D51*
%TO.P,J1,1,3V3*%
%TO.N,+3.3VP*%
X24080000Y-1195000D03*
D52*
%TO.P,J1,2,5V*%
%TO.N,+5V*%
X24080000Y1345000D03*
%TO.P,J1,3,SDA/GPIO2*%
%TO.N,/SDA*%
X21540000Y-1195000D03*
%TO.P,J1,4,5V*%
%TO.N,+5V*%
X21540000Y1345000D03*
D53*
%TO.P,J1,4,Y*%
%TO.N,/RCLK*%
X-25325000Y-39225000D03*
D52*
%TO.P,J1,5,SCL/GPIO3*%
%TO.N,/SCL*%
X19000000Y-1195000D03*
D53*
%TO.P,J1,5,VCC*%
%TO.N,+3.3V*%
X-26625000Y-39225000D03*
D52*
%TO.P,J1,6,GND*%
%TO.N,N/C*%
X19000000Y1345000D03*
%TO.P,J1,7,GCLK0/GPIO4*%
%TO.N,/MCLK*%
X16460000Y-1195000D03*
%TO.P,J1,8,GPIO14/TXD*%
%TO.N,/H2P*%
X16460000Y1345000D03*
%TO.P,J1,9,GND*%
%TO.N,GNDD*%
X13920000Y-1195000D03*
%TO.P,J1,10,GPIO15/RXD*%
%TO.N,/P2H*%
X13920000Y1345000D03*
%TO.P,J1,11,GPIO17*%
%TO.N,/IN4*%
X11380000Y-1195000D03*
%TO.P,J1,12,GPIO18/PWM0*%
%TO.N,/BCK*%
X11380000Y1345000D03*
%TO.P,J1,13,GPIO27*%
%TO.N,/OUT3*%
X8840000Y-1195000D03*
%TO.P,J1,14,GND*%
%TO.N,N/C*%
X8840000Y1345000D03*
%TO.P,J1,15,GPIO22*%
%TO.N,/IN1*%
X6300000Y-1195000D03*
%TO.P,J1,16,GPIO23*%
%TO.N,/OUT1*%
X6300000Y1345000D03*
%TO.P,J1,17,3V3*%
%TO.N,+3.3VP*%
X3760000Y-1195000D03*
%TO.P,J1,18,GPIO24*%
%TO.N,/IN2*%
X3760000Y1345000D03*
%TO.P,J1,19,MOSI0/GPIO10*%
%TO.N,/MOSI*%
X1220000Y-1195000D03*
%TO.P,J1,20,GND*%
%TO.N,GNDD*%
X1220000Y1345000D03*
%TO.P,J1,21,MISO0/GPIO9*%
%TO.N,/MISO*%
X-1320000Y-1195000D03*
%TO.P,J1,22,GPIO25*%
%TO.N,/OUT2*%
X-1320000Y1345000D03*
%TO.P,J1,23,SCLK0/GPIO11*%
%TO.N,/SCLK*%
X-3860000Y-1195000D03*
%TO.P,J1,24,~{CE0}/GPIO8*%
%TO.N,/~{CSA}*%
X-3860000Y1345000D03*
%TO.P,J1,25,GND*%
%TO.N,GNDD*%
X-6400000Y-1195000D03*
%TO.P,J1,26,~{CE1}/GPIO7*%
%TO.N,/~{REQ}{slash}~{ISP}*%
X-6400000Y1345000D03*
%TO.P,J1,27,ID_SD/GPIO0*%
%TO.N,Net-(J1-ID_SD{slash}GPIO0)*%
X-8940000Y-1195000D03*
%TO.P,J1,28,ID_SC/GPIO1*%
%TO.N,Net-(J1-ID_SC{slash}GPIO1)*%
X-8940000Y1345000D03*
%TO.P,J1,29,GCLK1/GPIO5*%
%TO.N,/~{WIEN}*%
X-11480000Y-1195000D03*
%TO.P,J1,30,GND*%
%TO.N,GNDD*%
X-11480000Y1345000D03*
%TO.P,J1,31,GCLK2/GPIO6*%
%TO.N,/RCLK*%
X-14020000Y-1195000D03*
%TO.P,J1,32,PWM0/GPIO12*%
%TO.N,/~{RESET}*%
X-14020000Y1345000D03*
%TO.P,J1,33,PWM1/GPIO13*%
%TO.N,/BLS*%
X-16560000Y-1195000D03*
%TO.P,J1,34,GND*%
%TO.N,GNDD*%
X-16560000Y1345000D03*
%TO.P,J1,35,GPIO19/MISO1*%
%TO.N,/LR*%
X-19100000Y-1195000D03*
%TO.P,J1,36,GPIO16*%
%TO.N,/IN5*%
X-19100000Y1345000D03*
%TO.P,J1,37,GPIO26*%
%TO.N,/IN3*%
X-21640000Y-1195000D03*
%TO.P,J1,38,GPIO20/MOSI1*%
%TO.N,/IN0*%
X-21640000Y1345000D03*
%TO.P,J1,39,GND*%
%TO.N,GNDD*%
X-24180000Y-1195000D03*
%TO.P,J1,40,GPIO21/SCLK1*%
%TO.N,/OUT0*%
X-24180000Y1345000D03*
%TD*%
D44*
%TO.P,U72,1,GND*%
%TO.N,GNDD*%
X-15437500Y-20425000D03*
D45*
%TO.P,U72,2,G*%
%TO.N,Net-(U72-G)*%
X-17137500Y-20425000D03*
%TO.P,U72,3,VCC*%
%TO.N,+5V*%
X-17137500Y-22425000D03*
%TO.P,U72,4,CTL*%
%TO.N,/CTLC*%
X-15237500Y-22425000D03*
%TD*%
D15*
%TO.P,R96,1*%
%TO.N,GNDD*%
X-22300000Y-45565000D03*
%TO.P,R96,2*%
%TO.N,Net-(J94-In)*%
X-22300000Y-46585000D03*
%TD*%
D19*
%TO.P,C94,1*%
%TO.N,Net-(U2-XTI{slash}REF_CLK)*%
X24610000Y-44275000D03*
%TO.P,C94,2*%
%TO.N,Net-(D93-A)*%
X23650000Y-44275000D03*
%TD*%
D15*
%TO.P,R57,1*%
%TO.N,Net-(C50-Pad1)*%
X21225000Y-16715001D03*
%TO.P,R57,2*%
%TO.N,Net-(U53A--)*%
X21225000Y-17734999D03*
%TD*%
%TO.P,R97,1*%
%TO.N,GNDD*%
X-23300000Y-45565000D03*
%TO.P,R97,2*%
%TO.N,Net-(J94-In)*%
X-23300000Y-46585000D03*
%TD*%
D46*
%TO.P,U30,1,RX1+*%
%TO.N,Net-(T3-OUT1A)*%
X-15862500Y-7225000D03*
%TO.P,U30,2,RX1-*%
%TO.N,Net-(T3-OUT2B)*%
X-15862500Y-7725000D03*
%TO.P,U30,3,RX2+*%
%TO.N,unconnected-(U30-RX2+-Pad3)*%
X-15862500Y-8225000D03*
%TO.P,U30,4,RX2-*%
%TO.N,unconnected-(U30-RX2--Pad4)*%
X-15862500Y-8725000D03*
%TO.P,U30,5,RX3+*%
%TO.N,unconnected-(U30-RX3+-Pad5)*%
X-15862500Y-9225000D03*
%TO.P,U30,6,RX3-*%
%TO.N,unconnected-(U30-RX3--Pad6)*%
X-15862500Y-9725000D03*
%TO.P,U30,7,RX4+*%
%TO.N,/SDO2*%
X-15862500Y-10225000D03*
%TO.P,U30,8,RX4-*%
%TO.N,Net-(U30-RX4-)*%
X-15862500Y-10725000D03*
%TO.P,U30,9,VCC*%
%TO.N,+3.3V*%
X-15862500Y-11225000D03*
%TO.P,U30,10,AGND*%
%TO.N,GNDD*%
X-15862500Y-11725000D03*
%TO.P,U30,11,~{LOCK}*%
%TO.N,Net-(U30-~{LOCK})*%
X-15862500Y-12225000D03*
%TO.P,U30,12,RXCKO*%
%TO.N,/RCLK*%
X-15862500Y-12725000D03*
D47*
%TO.P,U30,13,RXCKI*%
%TO.N,/ACLK*%
X-14450000Y-14137500D03*
%TO.P,U30,14,MUTE*%
%TO.N,Net-(U30-MUTE)*%
X-13950000Y-14137500D03*
%TO.P,U30,15,~{RDY}*%
X-13450000Y-14137500D03*
%TO.P,U30,16,DGND1*%
%TO.N,GNDD*%
X-12950000Y-14137500D03*
%TO.P,U30,17,VDD18*%
%TO.N,+1V8*%
X-12450000Y-14137500D03*
%TO.P,U30,18,CPM*%
%TO.N,GNDD*%
X-11950000Y-14137500D03*
%TO.P,U30,19,~{CS}/A0*%
%TO.N,/~{CSC}*%
X-11450000Y-14137500D03*
%TO.P,U30,20,CCLK/SCL*%
%TO.N,/SCLK*%
X-10950000Y-14137500D03*
%TO.P,U30,21,CDIN/A1*%
%TO.N,/MOSI*%
X-10450000Y-14137500D03*
%TO.P,U30,22,CDOUT/SDA*%
%TO.N,/MISO*%
X-9950000Y-14137500D03*
%TO.P,U30,23,~{INT}*%
%TO.N,/~{INTC}*%
X-9450000Y-14137500D03*
%TO.P,U30,24,~{RST}*%
%TO.N,/~{RESET}*%
X-8950000Y-14137500D03*
D46*
%TO.P,U30,25,MCLK*%
%TO.N,/MCLK*%
X-7537500Y-12725000D03*
%TO.P,U30,26,GPO1*%
%TO.N,/ENC*%
X-7537500Y-12225000D03*
%TO.P,U30,27,GPO2*%
%TO.N,/M3C*%
X-7537500Y-11725000D03*
%TO.P,U30,28,GPO3*%
%TO.N,/UCKC*%
X-7537500Y-11225000D03*
%TO.P,U30,29,GPO4*%
%TO.N,/UBTC*%
X-7537500Y-10725000D03*
%TO.P,U30,30,DGND2*%
%TO.N,GNDD*%
X-7537500Y-10225000D03*
%TO.P,U30,31,TX-*%
%TO.N,Net-(T7-OUT2B)*%
X-7537500Y-9725000D03*
%TO.P,U30,32,TX+*%
%TO.N,Net-(T7-OUT1A)*%
X-7537500Y-9225000D03*
%TO.P,U30,33,VDD33*%
%TO.N,+3.3V*%
X-7537500Y-8725000D03*
%TO.P,U30,34,AESOUT*%
%TO.N,/AESC*%
X-7537500Y-8225000D03*
%TO.P,U30,35,BLS*%
%TO.N,/BLS*%
X-7537500Y-7725000D03*
%TO.P,U30,36,SYNC*%
%TO.N,/SYNCC*%
X-7537500Y-7225000D03*
D47*
%TO.P,U30,37,BCKA*%
%TO.N,/BCK*%
X-8950000Y-5812500D03*
%TO.P,U30,38,LRCKA*%
%TO.N,/LR*%
X-9450000Y-5812500D03*
%TO.P,U30,39,SDINA*%
%TO.N,/OUT2*%
X-9950000Y-5812500D03*
%TO.P,U30,40,SDOUTA*%
%TO.N,/IN2*%
X-10450000Y-5812500D03*
%TO.P,U30,41,NC*%
%TO.N,unconnected-(U30-NC-Pad41)*%
X-10950000Y-5812500D03*
%TO.P,U30,42,VIO*%
%TO.N,+3.3V*%
X-11450000Y-5812500D03*
%TO.P,U30,43,DGND3*%
%TO.N,GNDD*%
X-11950000Y-5812500D03*
%TO.P,U30,44,BGND*%
X-12450000Y-5812500D03*
%TO.P,U30,45,SDOUTB*%
%TO.N,/IN4*%
X-12950000Y-5812500D03*
%TO.P,U30,46,SDINB*%
X-13450000Y-5812500D03*
%TO.P,U30,47,LRCKB*%
%TO.N,/LR*%
X-13950000Y-5812500D03*
%TO.P,U30,48,BCKB*%
%TO.N,/BCK*%
X-14450000Y-5812500D03*
%TD*%
D21*
%TO.P,C60,1*%
%TO.N,Net-(C60-Pad1)*%
X14850000Y-29020000D03*
%TO.P,C60,2*%
%TO.N,Net-(C60-Pad2)*%
X14850000Y-29980000D03*
%TD*%
D32*
%TO.P,D91,1,K*%
%TO.N,GNDD*%
X2250000Y-25142501D03*
%TO.P,D91,2,A*%
%TO.N,Net-(D91-A)*%
X2250000Y-24172501D03*
%TD*%
D18*
%TO.P,TP10,1,1*%
%TO.N,Net-(U3-WP)*%
X4375000Y-5150000D03*
%TD*%
D26*
%TO.P,C56,1*%
%TO.N,Net-(C55-Pad1)*%
X19245000Y-17725000D03*
%TO.P,C56,2*%
%TO.N,Net-(U53A--)*%
X20205000Y-17725000D03*
%TD*%
D15*
%TO.P,R32,1*%
%TO.N,Net-(D32-A)*%
X-15975000Y-4640001D03*
%TO.P,R32,2*%
%TO.N,Net-(U30-~{LOCK})*%
X-15975000Y-5659999D03*
%TD*%
D11*
%TO.P,T7,1,IN+*%
%TO.N,/X3+*%
X-4965000Y-42125000D03*
D12*
%TO.P,T7,2,PM*%
%TO.N,unconnected-(T7-PM-Pad2)*%
X-985000Y-42080000D03*
D11*
%TO.P,T7,3,IN-*%
%TO.N,/X3-*%
X-4965000Y-41475000D03*
%TO.P,T7,4,OUT1A*%
%TO.N,Net-(T7-OUT1A)*%
X-985000Y-40075000D03*
D13*
%TO.P,T7,5,OUT1B*%
%TO.N,Net-(T7-OUT1B)*%
X-4575000Y-39470000D03*
D14*
%TO.P,T7,6,OUT2A*%
%TO.N,Net-(T7-OUT2A)*%
X-5275000Y-39470000D03*
D11*
%TO.P,T7,7,OUT2B*%
%TO.N,Net-(T7-OUT2B)*%
X-985000Y-39425000D03*
%TD*%
D42*
%TO.P,U61,1,SW*%
%TO.N,Net-(U61-SW)*%
X9550001Y-29037500D03*
%TO.P,U61,2,GND*%
%TO.N,GNDD*%
X10500000Y-29037500D03*
%TO.P,U61,3,FB*%
%TO.N,/FBB*%
X11449999Y-29037500D03*
%TO.P,U61,4,EN*%
%TO.N,/ENB*%
X11449999Y-26762500D03*
%TO.P,U61,5,VOUT*%
%TO.N,Net-(D62-A1)*%
X10500000Y-26762500D03*
%TO.P,U61,6,VI*%
%TO.N,+5V*%
X9550001Y-26762500D03*
%TD*%
%TO.P,U51,1,SW*%
%TO.N,Net-(U51-SW)*%
X22800001Y-29037500D03*
%TO.P,U51,2,GND*%
%TO.N,GNDD*%
X23750000Y-29037500D03*
%TO.P,U51,3,FB*%
%TO.N,/FBA*%
X24699999Y-29037500D03*
%TO.P,U51,4,EN*%
%TO.N,/ENA*%
X24699999Y-26762500D03*
%TO.P,U51,5,VOUT*%
%TO.N,Net-(D52-A1)*%
X23750000Y-26762500D03*
%TO.P,U51,6,VI*%
%TO.N,+5V*%
X22800001Y-26762500D03*
%TD*%
D18*
%TO.P,TP3,1,1*%
%TO.N,/AESC*%
X-7000000Y-5825000D03*
%TD*%
D22*
%TO.P,R3,1*%
%TO.N,+3.3VP*%
X4809999Y-3800000D03*
%TO.P,R3,2*%
%TO.N,Net-(U3-WP)*%
X3790001Y-3800000D03*
%TD*%
D54*
%TO.P,J93,1,In*%
%TO.N,Net-(J93-In)*%
X24975000Y-49565000D03*
D55*
%TO.P,J93,2,Ext*%
%TO.N,GNDD*%
X23450000Y-51040000D03*
X23450000Y-48090000D03*
%TD*%
D10*
%TO.P,R50,1*%
%TO.N,Net-(L50-Pad4)*%
X29225000Y-35709999D03*
%TO.P,R50,2*%
%TO.N,Net-(C59-Pad1)*%
X29225000Y-34690001D03*
%TD*%
D38*
%TO.P,R45,1*%
%TO.N,Net-(U40-SDOUTA)*%
X-23760624Y-4260624D03*
%TO.P,R45,2*%
%TO.N,/IN3*%
X-23039376Y-3539376D03*
%TD*%
D56*
%TO.P,D94,1,K*%
%TO.N,GNDD*%
X-23025000Y-44475000D03*
%TO.P,D94,2,K*%
%TO.N,+5V*%
X-23025000Y-43475000D03*
%TO.P,D94,3,A*%
%TO.N,Net-(D94-A)*%
X-24314999Y-43975000D03*
%TD*%
D21*
%TO.P,C95,1*%
%TO.N,GNDD*%
X4600000Y-17965000D03*
%TO.P,C95,2*%
%TO.N,+3.3V*%
X4600000Y-18925000D03*
%TD*%
D10*
%TO.P,R82,1*%
%TO.N,/FBD*%
X-23800000Y-29534999D03*
%TO.P,R82,2*%
%TO.N,Net-(D82-A1)*%
X-23800000Y-28515001D03*
%TD*%
D31*
%TO.P,C82,1*%
%TO.N,Net-(D82-A1)*%
X-23575000Y-27300000D03*
%TO.P,C82,2*%
%TO.N,GNDD*%
X-22025000Y-27300000D03*
%TD*%
D42*
%TO.P,U81,1,SW*%
%TO.N,Net-(U81-SW)*%
X-27012499Y-29062500D03*
%TO.P,U81,2,GND*%
%TO.N,GNDD*%
X-26062500Y-29062500D03*
%TO.P,U81,3,FB*%
%TO.N,/FBD*%
X-25112501Y-29062500D03*
%TO.P,U81,4,EN*%
%TO.N,/END*%
X-25112501Y-26787500D03*
%TO.P,U81,5,VOUT*%
%TO.N,Net-(D82-A1)*%
X-26062500Y-26787500D03*
%TO.P,U81,6,VI*%
%TO.N,+5V*%
X-27012499Y-26787500D03*
%TD*%
D28*
%TO.P,R93,1*%
%TO.N,GNDD*%
X21670001Y-44275000D03*
%TO.P,R93,2*%
%TO.N,Net-(D93-A)*%
X22689999Y-44275000D03*
%TD*%
D15*
%TO.P,R84,1*%
%TO.N,Net-(D83-A)*%
X-30900000Y-32965001D03*
%TO.P,R84,2*%
%TO.N,Net-(D84-A)*%
X-30900000Y-33984999D03*
%TD*%
D57*
%TO.P,L4,1,1*%
%TO.N,Net-(U4-LX2)*%
X3000000Y-32325001D03*
%TO.P,L4,2,2*%
%TO.N,+1V8*%
X3000000Y-33774999D03*
%TD*%
D43*
%TO.P,L81,1,1*%
%TO.N,+5V*%
X-29362500Y-27250001D03*
%TO.P,L81,2,2*%
%TO.N,Net-(U81-SW)*%
X-29362500Y-29200001D03*
%TD*%
D19*
%TO.P,C10,1*%
%TO.N,Net-(T1-OUT1B)*%
X13650358Y-38400000D03*
%TO.P,C10,2*%
%TO.N,Net-(T1-OUT2A)*%
X12690358Y-38400000D03*
%TD*%
D21*
%TO.P,C50,1*%
%TO.N,Net-(C50-Pad1)*%
X28075000Y-29020000D03*
%TO.P,C50,2*%
%TO.N,Net-(C50-Pad2)*%
X28075000Y-29980000D03*
%TD*%
D28*
%TO.P,R24,1*%
%TO.N,+3.3V*%
X12915000Y-15675000D03*
%TO.P,R24,2*%
%TO.N,/~{INTB}*%
X13935000Y-15675000D03*
%TD*%
D39*
%TO.P,D62,1,A1*%
%TO.N,Net-(D62-A1)*%
X7500000Y-31550000D03*
%TO.P,D62,2,A2*%
%TO.N,GNDD*%
X7500000Y-34450000D03*
%TD*%
D20*
%TO.P,D83,1,K*%
%TO.N,Net-(D82-A1)*%
X-30900000Y-31065000D03*
%TO.P,D83,2,A*%
%TO.N,Net-(D83-A)*%
X-30900000Y-32035000D03*
%TD*%
D10*
%TO.P,R5,1*%
%TO.N,/~{RESET}*%
X225000Y-12159999D03*
%TO.P,R5,2*%
%TO.N,GNDD*%
X225000Y-11140001D03*
%TD*%
%TO.P,R79,1*%
%TO.N,/SRC*%
X-7025000Y-18284999D03*
%TO.P,R79,2*%
%TO.N,Net-(C79-Pad1)*%
X-7025000Y-17265001D03*
%TD*%
D28*
%TO.P,R30,1*%
%TO.N,Net-(T3-OUT1A)*%
X-8820000Y-38425000D03*
%TO.P,R30,2*%
%TO.N,Net-(T3-OUT2B)*%
X-7800000Y-38425000D03*
%TD*%
D31*
%TO.P,C52,1*%
%TO.N,Net-(D52-A1)*%
X26225000Y-26775000D03*
%TO.P,C52,2*%
%TO.N,GNDD*%
X27775000Y-26775000D03*
%TD*%
D21*
%TO.P,C35,1*%
%TO.N,+3.3V*%
X-6025000Y-8995000D03*
%TO.P,C35,2*%
%TO.N,GNDD*%
X-6025000Y-9955000D03*
%TD*%
D19*
%TO.P,C30,1*%
%TO.N,Net-(T3-OUT1B)*%
X-10920000Y-38425000D03*
%TO.P,C30,2*%
%TO.N,Net-(T3-OUT2A)*%
X-11880000Y-38425000D03*
%TD*%
D21*
%TO.P,C80,1*%
%TO.N,Net-(C80-Pad1)*%
X-21775000Y-29020000D03*
%TO.P,C80,2*%
%TO.N,Net-(C80-Pad2)*%
X-21775000Y-29980000D03*
%TD*%
D28*
%TO.P,R34,1*%
%TO.N,+3.3V*%
X-10485000Y-15650000D03*
%TO.P,R34,2*%
%TO.N,/~{INTC}*%
X-9465000Y-15650000D03*
%TD*%
D21*
%TO.P,C15,1*%
%TO.N,+3.3V*%
X30725000Y-8995000D03*
%TO.P,C15,2*%
%TO.N,GNDD*%
X30725000Y-9955000D03*
%TD*%
D20*
%TO.P,D73,1,K*%
%TO.N,Net-(D72-A1)*%
X-17625000Y-31090000D03*
%TO.P,D73,2,A*%
%TO.N,Net-(D73-A)*%
X-17625000Y-32060000D03*
%TD*%
D15*
%TO.P,R53,1*%
%TO.N,/PHOA*%
X21400000Y-36090000D03*
%TO.P,R53,2*%
%TO.N,/PVA*%
X21400000Y-37110000D03*
%TD*%
D10*
%TO.P,R69,1*%
%TO.N,/SRB*%
X16375000Y-18284999D03*
%TO.P,R69,2*%
%TO.N,Net-(C69-Pad1)*%
X16375000Y-17265001D03*
%TD*%
D19*
%TO.P,C33,1*%
%TO.N,+3.3V*%
X-11450000Y-4225000D03*
%TO.P,C33,2*%
%TO.N,GNDD*%
X-12410000Y-4225000D03*
%TD*%
D58*
%TO.P,U1,1,PIO1_8*%
%TO.N,/UBTD*%
X2750000Y-13975000D03*
%TO.P,U1,2,PIO0_13*%
%TO.N,/SCLK*%
X2250000Y-13975000D03*
%TO.P,U1,3,PIO1_9*%
%TO.N,/UBTC*%
X1750000Y-13975000D03*
%TO.P,U1,4,PIO0_12*%
%TO.N,/~{REQ}{slash}~{ISP}*%
X1250000Y-13975000D03*
%TO.P,U1,5,PIO0_5*%
%TO.N,/~{RESET}*%
X750000Y-13975000D03*
%TO.P,U1,6,PIO0_4*%
%TO.N,/~{CSB}*%
X250000Y-13975000D03*
%TO.P,U1,7,PIO0_28*%
%TO.N,/~{CSA}*%
X-250000Y-13975000D03*
%TO.P,U1,8,PIO0_3*%
%TO.N,/SWCLK*%
X-750000Y-13975000D03*
%TO.P,U1,9,PIO0_31*%
%TO.N,/MODC*%
X-1250000Y-13975000D03*
%TO.P,U1,10,PIO0_2*%
%TO.N,/SWDIO*%
X-1750000Y-13975000D03*
%TO.P,U1,11,PIO1_0*%
%TO.N,/MODD*%
X-2250000Y-13975000D03*
%TO.P,U1,12,PIO0_11*%
%TO.N,/SDA*%
X-2750000Y-13975000D03*
D59*
%TO.P,U1,13,PIO0_10*%
%TO.N,/SCL*%
X-3450000Y-14675000D03*
%TO.P,U1,14,PIO1_1*%
%TO.N,/~{CSD}*%
X-3450000Y-15175000D03*
%TO.P,U1,15,PIO0_16*%
%TO.N,/MODB*%
X-3450000Y-15675000D03*
%TO.P,U1,16,PIO1_2*%
%TO.N,/~{CSC}*%
X-3450000Y-16175000D03*
%TO.P,U1,17,PIO0_27*%
%TO.N,/UBTA*%
X-3450000Y-16675000D03*
%TO.P,U1,18,PIO0_26*%
%TO.N,/UBTB*%
X-3450000Y-17175000D03*
%TO.P,U1,19,PIO0_25*%
%TO.N,/P2H*%
X-3450000Y-17675000D03*
%TO.P,U1,20,PIO0_24*%
%TO.N,/H2P*%
X-3450000Y-18175000D03*
%TO.P,U1,21,PIO1_3*%
%TO.N,/UCKD*%
X-3450000Y-18675000D03*
%TO.P,U1,22,PIO0_15*%
%TO.N,/MODA*%
X-3450000Y-19175000D03*
%TO.P,U1,23,PIO1_4*%
%TO.N,/UCKC*%
X-3450000Y-19675000D03*
%TO.P,U1,24,PIO0_1*%
%TO.N,/ACLK*%
X-3450000Y-20175000D03*
D58*
%TO.P,U1,25,PIO0_9*%
%TO.N,Net-(U1-PIO0_9)*%
X-2750000Y-20875000D03*
%TO.P,U1,26,PIO0_8*%
%TO.N,Net-(U1-PIO0_8)*%
X-2250000Y-20875000D03*
%TO.P,U1,27,PIO1_5*%
%TO.N,/~{INTC}*%
X-1750000Y-20875000D03*
%TO.P,U1,28,PIO1_6*%
%TO.N,/~{INTD}*%
X-1250000Y-20875000D03*
%TO.P,U1,29,VDD*%
%TO.N,+3.3V*%
X-750000Y-20875000D03*
%TO.P,U1,30,VSS*%
%TO.N,GNDD*%
X-250000Y-20875000D03*
%TO.P,U1,31,VREFN*%
X250000Y-20875000D03*
%TO.P,U1,32,VREFP*%
%TO.N,+3.3V*%
X750000Y-20875000D03*
%TO.P,U1,33,PIO0_7*%
%TO.N,/PVA*%
X1250000Y-20875000D03*
%TO.P,U1,34,PIO0_6*%
%TO.N,/PVB*%
X1750000Y-20875000D03*
%TO.P,U1,35,PIO1_7*%
%TO.N,/LED*%
X2250000Y-20875000D03*
%TO.P,U1,36,PIO0_0*%
%TO.N,/MOSI*%
X2750000Y-20875000D03*
D59*
%TO.P,U1,37,PIO0_14*%
%TO.N,/PVC*%
X3450000Y-20175000D03*
%TO.P,U1,38,PIO0_29*%
%TO.N,/WCLK*%
X3450000Y-19675000D03*
%TO.P,U1,39,PIO0_23*%
%TO.N,/PVD*%
X3450000Y-19175000D03*
%TO.P,U1,40,VDDA*%
%TO.N,+3.3V*%
X3450000Y-18675000D03*
%TO.P,U1,41,VSSA*%
%TO.N,GNDD*%
X3450000Y-18175000D03*
%TO.P,U1,42,PIO0_30*%
%TO.N,/BCK*%
X3450000Y-17675000D03*
%TO.P,U1,43,PIO0_22*%
%TO.N,/UCKA*%
X3450000Y-17175000D03*
%TO.P,U1,44,PIO0_21*%
%TO.N,/UCKB*%
X3450000Y-16675000D03*
%TO.P,U1,45,PIO0_20*%
%TO.N,/~{INTB}*%
X3450000Y-16175000D03*
%TO.P,U1,46,PIO0_19*%
%TO.N,/~{INTA}*%
X3450000Y-15675000D03*
%TO.P,U1,47,PIO0_18*%
%TO.N,/MISO*%
X3450000Y-15175000D03*
%TO.P,U1,48,PIO0_17*%
%TO.N,/BLS*%
X3450000Y-14675000D03*
D60*
%TO.P,U1,49*%
%TO.N,N/C*%
X0Y-17425000D03*
%TD*%
D27*
%TO.P,U70,1,Y1*%
%TO.N,unconnected-(U70-Y1-Pad1)*%
X-13275000Y-20325000D03*
%TO.P,U70,2,Y0*%
%TO.N,/FBC*%
X-13275000Y-20975000D03*
%TO.P,U70,3,Z1*%
%TO.N,+5V*%
X-13275000Y-21625000D03*
%TO.P,U70,4,Z*%
%TO.N,/CTLC*%
X-13275000Y-22275000D03*
%TO.P,U70,5,Z0*%
%TO.N,/MODC*%
X-13275000Y-22925000D03*
%TO.P,U70,6,Inh*%
%TO.N,GNDD*%
X-13275000Y-23575000D03*
%TO.P,U70,7,VEE*%
X-13275000Y-24225000D03*
%TO.P,U70,8,VSS*%
X-13275000Y-24875000D03*
%TO.P,U70,9,C*%
%TO.N,/M3C*%
X-7550000Y-24875000D03*
%TO.P,U70,10,B*%
%TO.N,/MODC*%
X-7550000Y-24225000D03*
%TO.P,U70,11,A*%
X-7550000Y-23575000D03*
%TO.P,U70,12,X0*%
%TO.N,/SLC*%
X-7550000Y-22925000D03*
%TO.P,U70,13,X1*%
%TO.N,unconnected-(U70-X1-Pad13)*%
X-7550000Y-22275000D03*
%TO.P,U70,14,X*%
%TO.N,/SRC*%
X-7550000Y-21625000D03*
%TO.P,U70,15,Y*%
%TO.N,+5V*%
X-7550000Y-20975000D03*
%TO.P,U70,16,VDD*%
X-7550000Y-20325000D03*
%TD*%
D29*
%TO.P,U63,1*%
%TO.N,Net-(C60-Pad1)*%
X9512500Y-17000000D03*
%TO.P,U63,2,-*%
%TO.N,Net-(U63A--)*%
X9512500Y-17500000D03*
%TO.P,U63,3,+*%
%TO.N,/MID*%
X9512500Y-18000000D03*
%TO.P,U63,4,V-*%
%TO.N,GNDD*%
X9512500Y-18500000D03*
%TO.P,U63,5,~{SHDN_A}*%
%TO.N,/M3B*%
X9512500Y-19000000D03*
%TO.P,U63,6,~{SHDN_B}*%
X13737500Y-19000000D03*
%TO.P,U63,7,+*%
%TO.N,/MID*%
X13737500Y-18500000D03*
%TO.P,U63,8,-*%
%TO.N,/SRB*%
X13737500Y-18000000D03*
%TO.P,U63,9*%
%TO.N,Net-(C69-Pad1)*%
X13737500Y-17500000D03*
%TO.P,U63,10,V+*%
%TO.N,+5V*%
X13737500Y-17000000D03*
%TD*%
D53*
%TO.P,U6,1,~{OE}*%
%TO.N,/~{WIEN}*%
X-26625000Y-41125000D03*
%TO.P,U6,2,A*%
%TO.N,Net-(D94-A)*%
X-25975000Y-41125000D03*
%TO.P,U6,3,GND*%
%TO.N,GNDD*%
X-25325000Y-41125000D03*
%TO.P,U6,4,Y*%
%TO.N,/RCLK*%
X-25325000Y-39225000D03*
%TO.P,U6,5,VCC*%
%TO.N,+3.3V*%
X-26625000Y-39225000D03*
%TD*%
D26*
%TO.P,C76,1*%
%TO.N,Net-(C75-Pad1)*%
X-17455000Y-17750000D03*
%TO.P,C76,2*%
%TO.N,Net-(U73A--)*%
X-16495000Y-17750000D03*
%TD*%
D25*
%TO.P,C4,1*%
%TO.N,+1V8*%
X975000Y-35425000D03*
%TO.P,C4,2*%
%TO.N,GNDD*%
X-575000Y-35425000D03*
%TD*%
D10*
%TO.P,R99,1*%
%TO.N,Net-(J98-In)*%
X-26975000Y-44109999D03*
%TO.P,R99,2*%
%TO.N,Net-(U5-A)*%
X-26975000Y-43090001D03*
%TD*%
D21*
%TO.P,C45,1*%
%TO.N,+3.3V*%
X-30750000Y-11395000D03*
%TO.P,C45,2*%
%TO.N,GNDD*%
X-30750000Y-12355000D03*
%TD*%
D32*
%TO.P,D32,1,K*%
%TO.N,GNDD*%
X-17000000Y-5635000D03*
%TO.P,D32,2,A*%
%TO.N,Net-(D32-A)*%
X-17000000Y-4665000D03*
%TD*%
D46*
%TO.P,U20,1,RX1+*%
%TO.N,Net-(T2-OUT1A)*%
X7537500Y-7225000D03*
%TO.P,U20,2,RX1-*%
%TO.N,Net-(T2-OUT2B)*%
X7537500Y-7725000D03*
%TO.P,U20,3,RX2+*%
%TO.N,unconnected-(U20-RX2+-Pad3)*%
X7537500Y-8225000D03*
%TO.P,U20,4,RX2-*%
%TO.N,unconnected-(U20-RX2--Pad4)*%
X7537500Y-8725000D03*
%TO.P,U20,5,RX3+*%
%TO.N,unconnected-(U20-RX3+-Pad5)*%
X7537500Y-9225000D03*
%TO.P,U20,6,RX3-*%
%TO.N,unconnected-(U20-RX3--Pad6)*%
X7537500Y-9725000D03*
%TO.P,U20,7,RX4+*%
%TO.N,/IN1*%
X7537500Y-10225000D03*
%TO.P,U20,8,RX4-*%
%TO.N,Net-(U20-RX4-)*%
X7537500Y-10725000D03*
%TO.P,U20,9,VCC*%
%TO.N,+3.3V*%
X7537500Y-11225000D03*
%TO.P,U20,10,AGND*%
%TO.N,GNDD*%
X7537500Y-11725000D03*
%TO.P,U20,11,~{LOCK}*%
%TO.N,Net-(U20-~{LOCK})*%
X7537500Y-12225000D03*
%TO.P,U20,12,RXCKO*%
%TO.N,/RCLK*%
X7537500Y-12725000D03*
D47*
%TO.P,U20,13,RXCKI*%
%TO.N,/ACLK*%
X8950000Y-14137500D03*
%TO.P,U20,14,MUTE*%
%TO.N,Net-(U20-MUTE)*%
X9450000Y-14137500D03*
%TO.P,U20,15,~{RDY}*%
X9950000Y-14137500D03*
%TO.P,U20,16,DGND1*%
%TO.N,GNDD*%
X10450000Y-14137500D03*
%TO.P,U20,17,VDD18*%
%TO.N,+1V8*%
X10950000Y-14137500D03*
%TO.P,U20,18,CPM*%
%TO.N,GNDD*%
X11450000Y-14137500D03*
%TO.P,U20,19,~{CS}/A0*%
%TO.N,/~{CSB}*%
X11950000Y-14137500D03*
%TO.P,U20,20,CCLK/SCL*%
%TO.N,/SCLK*%
X12450000Y-14137500D03*
%TO.P,U20,21,CDIN/A1*%
%TO.N,/MOSI*%
X12950000Y-14137500D03*
%TO.P,U20,22,CDOUT/SDA*%
%TO.N,/MISO*%
X13450000Y-14137500D03*
%TO.P,U20,23,~{INT}*%
%TO.N,/~{INTB}*%
X13950000Y-14137500D03*
%TO.P,U20,24,~{RST}*%
%TO.N,/~{RESET}*%
X14450000Y-14137500D03*
D46*
%TO.P,U20,25,MCLK*%
%TO.N,/MCLK*%
X15862500Y-12725000D03*
%TO.P,U20,26,GPO1*%
%TO.N,/ENB*%
X15862500Y-12225000D03*
%TO.P,U20,27,GPO2*%
%TO.N,/M3B*%
X15862500Y-11725000D03*
%TO.P,U20,28,GPO3*%
%TO.N,/UCKB*%
X15862500Y-11225000D03*
%TO.P,U20,29,GPO4*%
%TO.N,/UBTB*%
X15862500Y-10725000D03*
%TO.P,U20,30,DGND2*%
%TO.N,GNDD*%
X15862500Y-10225000D03*
%TO.P,U20,31,TX-*%
%TO.N,Net-(T6-OUT2B)*%
X15862500Y-9725000D03*
%TO.P,U20,32,TX+*%
%TO.N,Net-(T6-OUT1A)*%
X15862500Y-9225000D03*
%TO.P,U20,33,VDD33*%
%TO.N,+3.3V*%
X15862500Y-8725000D03*
%TO.P,U20,34,AESOUT*%
%TO.N,/AESB*%
X15862500Y-8225000D03*
%TO.P,U20,35,BLS*%
%TO.N,/BLS*%
X15862500Y-7725000D03*
%TO.P,U20,36,SYNC*%
%TO.N,/SYNCB*%
X15862500Y-7225000D03*
D47*
%TO.P,U20,37,BCKA*%
%TO.N,/BCK*%
X14450000Y-5812500D03*
%TO.P,U20,38,LRCKA*%
%TO.N,/LR*%
X13950000Y-5812500D03*
%TO.P,U20,39,SDINA*%
%TO.N,/OUT1*%
X13450000Y-5812500D03*
%TO.P,U20,40,SDOUTA*%
%TO.N,Net-(U20-SDOUTA)*%
X12950000Y-5812500D03*
%TO.P,U20,41,NC*%
%TO.N,unconnected-(U20-NC-Pad41)*%
X12450000Y-5812500D03*
%TO.P,U20,42,VIO*%
%TO.N,+3.3V*%
X11950000Y-5812500D03*
%TO.P,U20,43,DGND3*%
%TO.N,GNDD*%
X11450000Y-5812500D03*
%TO.P,U20,44,BGND*%
X10950000Y-5812500D03*
%TO.P,U20,45,SDOUTB*%
%TO.N,Net-(U20-SDINB)*%
X10450000Y-5812500D03*
%TO.P,U20,46,SDINB*%
X9950000Y-5812500D03*
%TO.P,U20,47,LRCKB*%
%TO.N,/LR*%
X9450000Y-5812500D03*
%TO.P,U20,48,BCKB*%
%TO.N,/BCK*%
X8950000Y-5812500D03*
%TD*%
D51*
%TO.P,J8,1,Pin_1*%
%TO.N,/SWCLK*%
X2540000Y-8500000D03*
D52*
%TO.P,J8,2,Pin_2*%
%TO.N,GNDD*%
X0Y-8500000D03*
%TO.P,J8,3,Pin_3*%
%TO.N,/SWDIO*%
X-2540000Y-8500000D03*
%TD*%
D16*
%TO.P,C21,1*%
%TO.N,Net-(T6-OUT2A)*%
X6075000Y-39455000D03*
%TO.P,C21,2*%
%TO.N,Net-(C21-Pad2)*%
X6075000Y-38495000D03*
%TD*%
D61*
%TO.P,U2,1,VD*%
%TO.N,+3.3V*%
X30700000Y-43700000D03*
%TO.P,U2,2,GND*%
%TO.N,GNDD*%
X30700000Y-43200000D03*
%TO.P,U2,3,CLK_OUT*%
%TO.N,/MCLK*%
X30700000Y-42700000D03*
%TO.P,U2,4,AUX_OUT*%
%TO.N,/ACLK*%
X30700000Y-42200000D03*
%TO.P,U2,5,CLK_IN*%
%TO.N,/RCLK*%
X30700000Y-41700000D03*
%TO.P,U2,6,XTO*%
%TO.N,Net-(U2-XTO)*%
X26475000Y-41700000D03*
%TO.P,U2,7,XTI/REF_CLK*%
%TO.N,Net-(U2-XTI{slash}REF_CLK)*%
X26475000Y-42200000D03*
%TO.P,U2,8,AD0/~{CS}*%
%TO.N,+3.3V*%
X26475000Y-42700000D03*
%TO.P,U2,9,SCL/CCLK*%
%TO.N,/SCL*%
X26475000Y-43200000D03*
%TO.P,U2,10,SDA/CDIN*%
%TO.N,/SDA*%
X26475000Y-43700000D03*
%TD*%
D62*
%TO.P,J94,1,In*%
%TO.N,Net-(J94-In)*%
X-24950000Y-49575000D03*
D63*
%TO.P,J94,2,Ext*%
%TO.N,GNDD*%
X-23425000Y-48100000D03*
X-23425000Y-51050000D03*
%TD*%
D28*
%TO.P,R65,1*%
%TO.N,Net-(C65-Pad1)*%
X5930000Y-18800000D03*
%TO.P,R65,2*%
%TO.N,/WCLK*%
X6950000Y-18800000D03*
%TD*%
D64*
%TO.N,GNDD*%
X29300000Y-40025000D03*
D65*
X19050000Y-36010000D03*
D64*
X20800000Y-34450000D03*
D65*
X225000Y-11140001D03*
X24500000Y-23550000D03*
X-15137500Y-18500000D03*
D64*
X-23425000Y-51050000D03*
D65*
X-30325000Y-5635000D03*
X20350000Y-36090000D03*
X-2250000Y-25144998D03*
X-30747500Y-12352500D03*
X-23300000Y-45565000D03*
X-25350000Y-24900000D03*
X-30275000Y-39970000D03*
X-27700000Y-24250000D03*
X-22300000Y-45565000D03*
X-12100000Y-23575000D03*
X-25325000Y-40350000D03*
X11362500Y-24875000D03*
X-15412500Y-20400000D03*
X5952500Y-12352500D03*
X-19335000Y-9965000D03*
X-17447500Y-12352500D03*
X21250000Y-20425000D03*
X24270000Y-4275000D03*
D64*
X-8800001Y-27287500D03*
D65*
X2250000Y-25142501D03*
X17400000Y-9980000D03*
X30875000Y-39280000D03*
X22400000Y-45400000D03*
X10750000Y-18500000D03*
X19250000Y-9545000D03*
X-22775000Y-28515001D03*
X5750000Y-35985000D03*
X8962500Y-24225000D03*
X-17625000Y-35935000D03*
X25525000Y-39070000D03*
D64*
X27775000Y-26775000D03*
D65*
X11387500Y-23575000D03*
D64*
X19675000Y-25625000D03*
X-22025000Y-27300000D03*
X23450000Y-51040000D03*
X-575000Y-33875000D03*
X27100000Y-38325000D03*
D65*
X10970000Y-4275000D03*
X-16477501Y-15700000D03*
D64*
X-29175000Y-34400000D03*
D65*
X19252500Y-12352500D03*
X-6025000Y-9955000D03*
X-28400000Y-18500000D03*
X6959999Y-15700000D03*
X5950000Y-9545000D03*
X29495000Y-44975000D03*
X100000Y-4750000D03*
X-13180000Y-15650000D03*
D64*
X7500000Y-34450000D03*
D65*
X20259999Y-15725000D03*
X-30900000Y-35910000D03*
D64*
X-28575000Y-43425000D03*
D65*
X-12100000Y-24875000D03*
X24500000Y-24850000D03*
D64*
X23450000Y-48090000D03*
D65*
X-26480000Y-15675000D03*
X-25730000Y-4225000D03*
X-17000000Y-5635000D03*
X6275000Y-5685000D03*
X-17450000Y-9545000D03*
X-28662500Y-20425000D03*
X2325000Y-28545000D03*
X13850000Y-28015001D03*
X6950000Y-36140000D03*
D64*
X-23425000Y-48100000D03*
D65*
X23520000Y-15650000D03*
D64*
X6425000Y-25625000D03*
X-575000Y-35425000D03*
D65*
X30725000Y-9955000D03*
X-26062500Y-29062500D03*
D64*
X-375000Y-27200000D03*
D65*
X21670001Y-44275000D03*
X24125000Y-18500000D03*
X-29800000Y-36240000D03*
X-25350000Y-23600000D03*
X4600000Y-17965000D03*
X-12430000Y-4225000D03*
D64*
X-31525000Y-43425000D03*
D65*
X-12837501Y-29050000D03*
X19574999Y-5669999D03*
D64*
X14575000Y-26775000D03*
D65*
X-29740001Y-15700000D03*
X10500000Y-29037500D03*
X22400000Y-46400000D03*
X-9550001Y-28502501D03*
X-16450000Y-36140000D03*
D64*
X-375000Y-28750000D03*
X-30137500Y-25650000D03*
D65*
X27050000Y-28015001D03*
X10220000Y-15650000D03*
D64*
X-16912501Y-25637500D03*
D65*
X23750000Y-29037500D03*
X7900000Y-20425000D03*
X0Y-21700000D03*
X-30750000Y-9545000D03*
X-14450000Y-24225000D03*
X-22325000Y-44475000D03*
D64*
X-15900000Y-34450000D03*
D65*
X22125000Y-24200000D03*
%TO.N,+3.3V*%
X26215000Y-15650000D03*
X-19325000Y-8995000D03*
X30725000Y-8995000D03*
X1850000Y-31100000D03*
X12915000Y-15650000D03*
X-27300000Y-39225000D03*
D64*
X-1925000Y-27200000D03*
D65*
X30455000Y-44975000D03*
X-29775000Y-39225000D03*
X17400000Y-9020000D03*
X-24770000Y-4225000D03*
X1250000Y-11140001D03*
X-17450000Y-11395000D03*
X-700000Y-21725000D03*
X25230000Y-4275000D03*
X5950000Y-11395000D03*
X11930000Y-4275000D03*
X-11470000Y-4225000D03*
X-30750000Y-11395000D03*
X4600000Y-18925000D03*
X19250000Y-11395000D03*
X700000Y-21725000D03*
X-23785000Y-15675000D03*
X-10485000Y-15650000D03*
X27850000Y-42700000D03*
X-6025000Y-8995000D03*
D64*
%TO.N,+5V*%
X7975000Y-25625000D03*
D65*
X19550000Y-22425000D03*
D64*
X21225000Y-25625000D03*
D65*
X27812500Y-20300000D03*
X-30362500Y-22425000D03*
X-22325000Y-43475000D03*
X-24150000Y-17000000D03*
X25850000Y-16987500D03*
D64*
X-28575000Y-25650000D03*
X975000Y-33875000D03*
D65*
X-30275000Y-40930000D03*
X-8750000Y-20325000D03*
X1275000Y-28545000D03*
D64*
X-15350001Y-25637500D03*
D65*
X-22000000Y-20350000D03*
X14687500Y-20325000D03*
X12525000Y-17000000D03*
X24500000Y-21600000D03*
X-17112500Y-22400000D03*
X6200000Y-22425000D03*
X11375000Y-21625000D03*
X-10950000Y-17000000D03*
X-25350000Y-21650000D03*
X-14475000Y-21625000D03*
D64*
X-1925000Y-28750000D03*
D65*
%TO.N,+1V8*%
X-25520000Y-15675000D03*
X24480000Y-15650000D03*
X11180000Y-15650000D03*
X6800000Y-33000000D03*
X-2775000Y-31550000D03*
X-12220000Y-15650000D03*
D64*
X975000Y-35425000D03*
D65*
X-6299000Y-31550000D03*
%TO.N,/MCLK*%
X29170000Y-13300000D03*
X-7550000Y-13750000D03*
X-20825000Y-14250000D03*
X-3275000Y-22165001D03*
X15875000Y-14075000D03*
%TO.N,/BLS*%
X14650000Y-7725000D03*
X-19637500Y-7712500D03*
X27975000Y-7725000D03*
X4250000Y-12200000D03*
X-6325000Y-7725000D03*
%TO.N,+3.3VP*%
X4809999Y-3800000D03*
X2375000Y-5700000D03*
X975000Y-29650000D03*
X-2335000Y-5700000D03*
X-2335000Y-3800000D03*
X-1925000Y-33025000D03*
%TO.N,/~{CSA}*%
X4987500Y-10262500D03*
X23775000Y-10925000D03*
%TO.N,/SCLK*%
X-24575000Y-12925000D03*
X12450000Y-11975000D03*
X-11521752Y-12703248D03*
X3350000Y-14100000D03*
X25750000Y-11975000D03*
%TO.N,/MOSI*%
X-10450000Y-12975000D03*
X3325000Y-20775000D03*
X12950000Y-12950000D03*
X-23750000Y-12950000D03*
X26250000Y-12950000D03*
%TO.N,/MISO*%
X13450000Y-12450000D03*
X-9650000Y-12650000D03*
X26489124Y-12235876D03*
X-22775000Y-12948376D03*
X4850000Y-14575000D03*
%TO.N,/~{INTA}*%
X25575000Y-10650000D03*
X4925000Y-11140001D03*
%TO.N,/~{RESET}*%
X225000Y-12159999D03*
X26925000Y-11125000D03*
X14450000Y-11650000D03*
X-9400000Y-10937500D03*
X-22250000Y-11550000D03*
%TO.N,/~{CSB}*%
X11051624Y-12026624D03*
X250000Y-13125000D03*
%TO.N,/~{INTB}*%
X4850000Y-16175000D03*
X13935000Y-15675000D03*
%TO.N,/~{REQ}{slash}~{ISP}*%
X-4525000Y-10950000D03*
X1250000Y-12159999D03*
%TO.N,/UCKA*%
X5266878Y-17130058D03*
X25450000Y-15450000D03*
X27698376Y-11226624D03*
%TO.N,/UBTA*%
X30636148Y-10724070D03*
X-5475000Y-16675000D03*
X-4775000Y-23553000D03*
X-4775000Y-20950000D03*
%TO.N,/UBTB*%
X-4950000Y-17175000D03*
X-4600000Y-9750000D03*
X12700000Y-10700000D03*
%TO.N,/PHOA*%
X21400000Y-36090000D03*
X17075000Y-41375000D03*
%TO.N,/IN4*%
X-13450000Y-4250000D03*
%TO.N,/~{CSC}*%
X-11300000Y-15650000D03*
X-4950000Y-16175000D03*
%TO.N,/~{CSD}*%
X-4950000Y-15175000D03*
X-24750000Y-15325000D03*
%TO.N,/MODC*%
X-1250000Y-13100000D03*
X-6225000Y-23575000D03*
%TO.N,/MODD*%
X-19615140Y-23600000D03*
X-6250000Y-22850000D03*
X-2250000Y-13100000D03*
%TO.N,/SDA*%
X27775000Y-43700000D03*
X3975000Y-7175000D03*
%TO.N,/SCL*%
X3998000Y-6400000D03*
X25175000Y-43200000D03*
%TO.N,/MODB*%
X8850000Y-22925000D03*
X-5475000Y-15675000D03*
X-4250000Y-21469485D03*
X-4373376Y-24148376D03*
%TO.N,/UCKD*%
X-18875000Y-17550000D03*
X-5475000Y-18675000D03*
%TO.N,/P2H*%
X-5475000Y-17675000D03*
X-3725000Y-5375000D03*
%TO.N,/H2P*%
X-3462500Y-6237500D03*
X-4950000Y-18175000D03*
%TO.N,/UBTC*%
X1750000Y-13125000D03*
X-5925000Y-10950000D03*
%TO.N,/MODA*%
X-5377249Y-20500999D03*
X-4950000Y-19175000D03*
X22075000Y-23175000D03*
X-5175000Y-24172545D03*
%TO.N,/UBTD*%
X-19100000Y-11050000D03*
X2752246Y-13105076D03*
%TO.N,/PVC*%
X-51624Y-24650000D03*
X2925000Y-22676000D03*
%TO.N,/WCLK*%
X30725000Y-8050000D03*
X4575000Y-19906000D03*
X-16465000Y-18775000D03*
X20235000Y-18750000D03*
X-29740001Y-18725000D03*
X6950000Y-18800000D03*
%TO.N,/PVD*%
X725000Y-24650000D03*
X3650000Y-22700000D03*
%TO.N,Net-(T5-OUT2B)*%
X22625000Y-39400000D03*
X27975000Y-9725000D03*
%TO.N,Net-(T5-OUT1A)*%
X27475000Y-9225000D03*
X22625000Y-40100000D03*
%TO.N,/X2+*%
X6270000Y-42150000D03*
%TO.N,/X2-*%
X6270000Y-41450000D03*
%TO.N,/X1+*%
X18645000Y-42150000D03*
%TO.N,/X1-*%
X18645000Y-41450000D03*
%TO.N,/R3+*%
X-10420000Y-42150000D03*
%TO.N,/R3-*%
X-10420000Y-41450000D03*
%TO.N,/BCK*%
X5275000Y-18425000D03*
X8950000Y-4050000D03*
X-8950000Y-3950000D03*
%TO.N,/OUT3*%
X-28025000Y-10225000D03*
X-21900000Y-3275000D03*
%TO.N,/IN2*%
X-10450000Y-4600000D03*
%TO.N,/OUT2*%
X-9950000Y-3950000D03*
%TO.N,/IN3*%
X18337696Y-7537696D03*
%TO.N,/LR*%
X9450000Y-4600000D03*
X-9450000Y-4600000D03*
%TO.N,/M3A*%
X28425000Y-19000000D03*
X27923148Y-11905100D03*
X27837499Y-24850000D03*
%TO.N,/SLA*%
X22234999Y-15675000D03*
X27825000Y-22900000D03*
%TO.N,/FBA*%
X24828248Y-20950000D03*
X27050000Y-29034999D03*
%TO.N,/~{WIEN}*%
X-26625000Y-41900000D03*
%TO.N,Net-(C59-Pad1)*%
X29800000Y-26075000D03*
X29800000Y-17240001D03*
%TO.N,Net-(T6-OUT2B)*%
X14625000Y-9800003D03*
X10270000Y-39400000D03*
%TO.N,Net-(T6-OUT1A)*%
X14625000Y-9150000D03*
X10270000Y-40100000D03*
%TO.N,Net-(T7-OUT1A)*%
X-2055000Y-40100000D03*
X-8800000Y-9125000D03*
%TO.N,Net-(T7-OUT2B)*%
X-2055000Y-39400000D03*
X-8800000Y-9825000D03*
%TO.N,Net-(T8-OUT1A)*%
X-14125000Y-40100000D03*
X-22062500Y-9150000D03*
%TO.N,Net-(T8-OUT2B)*%
X-14125000Y-39400000D03*
X-22062500Y-9800003D03*
%TO.N,Net-(C50-Pad1)*%
X21225000Y-16687500D03*
X28075000Y-29020000D03*
D64*
%TO.N,Net-(D52-A1)*%
X21225000Y-23825000D03*
X20800000Y-31550000D03*
X26225000Y-26775000D03*
D65*
%TO.N,Net-(C60-Pad1)*%
X14850000Y-29020000D03*
X7900000Y-16700000D03*
D64*
%TO.N,Net-(D62-A1)*%
X13025000Y-26775000D03*
X7500000Y-31550000D03*
X7975000Y-23825000D03*
D65*
%TO.N,Net-(C69-Pad1)*%
X16375000Y-17265001D03*
X16375000Y-26350000D03*
%TO.N,Net-(C70-Pad1)*%
X-8500000Y-29020000D03*
X-15500000Y-16715001D03*
D64*
%TO.N,Net-(D72-A1)*%
X-15900000Y-31550000D03*
X-10350001Y-27287500D03*
X-15512500Y-23925000D03*
D65*
%TO.N,Net-(C79-Pad1)*%
X-7400000Y-27225000D03*
X-7025000Y-17265001D03*
%TO.N,Net-(C80-Pad1)*%
X-28775000Y-16700000D03*
X-21775000Y-29020000D03*
D64*
%TO.N,Net-(D82-A1)*%
X-23575000Y-27300000D03*
X-29175000Y-31500000D03*
X-28650000Y-23850000D03*
D65*
%TO.N,Net-(C89-Pad1)*%
X-20350000Y-17240001D03*
X-20775000Y-26375000D03*
%TO.N,/PHOB*%
X4775000Y-41375000D03*
X8000000Y-36140000D03*
%TO.N,/PHOC*%
X-15400000Y-36140000D03*
X-7500000Y-41350000D03*
%TO.N,/FBB*%
X11375000Y-20975000D03*
X13850000Y-29034999D03*
%TO.N,/SLB*%
X14700000Y-22925000D03*
X11250000Y-16999000D03*
%TO.N,/FBC*%
X-12100000Y-20975000D03*
X-9550000Y-29522499D03*
%TO.N,/SLC*%
X-10600000Y-20925000D03*
X-14502501Y-15700000D03*
%TO.N,/FBD*%
X-22775000Y-29534999D03*
X-24825000Y-21000000D03*
%TO.N,/SLD*%
X-27765001Y-15700000D03*
X-21975000Y-22950000D03*
%TO.N,/MID*%
X-10775000Y-20075000D03*
X1325000Y-27525000D03*
X12475000Y-18250000D03*
X-24200000Y-18250000D03*
X3000000Y-25825000D03*
X21500000Y-18425000D03*
X-10925000Y-18250000D03*
%TO.N,/M3B*%
X14712499Y-24875000D03*
X14925000Y-19026000D03*
X14925000Y-15100000D03*
%TO.N,/M3C*%
X-8550000Y-15625000D03*
X-7925000Y-25550000D03*
X-8313785Y-18988785D03*
%TO.N,/M3D*%
X-21675000Y-19000000D03*
X-21850000Y-15675000D03*
X-21962501Y-24900000D03*
%TO.N,Net-(T1-OUT2B)*%
X19537500Y-7875000D03*
X16730358Y-38400000D03*
%TO.N,Net-(T1-OUT1A)*%
X15710358Y-38400000D03*
X19537500Y-7045000D03*
%TO.N,Net-(T2-OUT1A)*%
X3431072Y-38425000D03*
X6237500Y-7045000D03*
%TO.N,Net-(T2-OUT2B)*%
X6237500Y-7875000D03*
X4451072Y-38425000D03*
%TO.N,Net-(T3-OUT1A)*%
X-17087500Y-7150000D03*
X-8820000Y-38425000D03*
%TO.N,Net-(T3-OUT2B)*%
X-7800000Y-38425000D03*
X-17087500Y-7800003D03*
%TO.N,Net-(T4-OUT2B)*%
X-19965000Y-38425000D03*
X-30400000Y-7825000D03*
%TO.N,Net-(T4-OUT1A)*%
X-30400000Y-7125000D03*
X-20985000Y-38425000D03*
%TO.N,/~{INTC}*%
X-1475000Y-22450000D03*
X-9465000Y-15650000D03*
X-9325000Y-19625000D03*
%TO.N,/~{INTD}*%
X-22765000Y-15675000D03*
X-23150000Y-19700000D03*
X-750000Y-22450000D03*
%TO.N,/ACLK*%
X8325000Y-14625000D03*
X-15075000Y-14450000D03*
X-3350000Y-20750000D03*
X21650000Y-14300000D03*
X29700000Y-14300000D03*
X-28525000Y-14175000D03*
%TO.N,/RCLK*%
X8750000Y-12700000D03*
X-25325000Y-38400000D03*
X-30586334Y-13138666D03*
X-14675000Y-12725000D03*
X30250000Y-13550000D03*
X22225000Y-12525000D03*
%TO.N,/PHOD*%
X-28750000Y-36240000D03*
X-19610000Y-42080000D03*
%TD*%
D66*
%TO.N,GNDD*%
X-12950000Y-15420000D02*
X-13180000Y-15650000D01*
X29500000Y-43425000D02*
X29500000Y-43950000D01*
X24250000Y-4900000D02*
X24250000Y-5812500D01*
X-29730000Y-39970000D02*
X-30275000Y-39970000D01*
X30405000Y-10225000D02*
X30675000Y-9955000D01*
X-25750000Y-4245000D02*
X-25730000Y-4225000D01*
X19252500Y-12352500D02*
X19250000Y-12355000D01*
X-11950000Y-13150000D02*
X-12150000Y-12950000D01*
X24750000Y-13150000D02*
X24550000Y-12950000D01*
D67*
X21680001Y-46400000D02*
X22400000Y-46400000D01*
D68*
X4390000Y-18175000D02*
X4600000Y-17965000D01*
D66*
X-12450000Y-5812500D02*
X-12450000Y-4800000D01*
X29162500Y-10225000D02*
X30405000Y-10225000D01*
X30700000Y-43200000D02*
X29725000Y-43200000D01*
X-26250000Y-15420000D02*
X-26480000Y-15650000D01*
X-12950000Y-14137500D02*
X-12950000Y-15420000D01*
X24250000Y-4750000D02*
X24250000Y-4900000D01*
X24600000Y-4850000D02*
X24300000Y-4850000D01*
X10175000Y-24225000D02*
X8962500Y-24225000D01*
D69*
X-700000Y-31100000D02*
X-475000Y-31325000D01*
D66*
X-13262500Y-24875000D02*
X-12100000Y-24875000D01*
D69*
X-250000Y-31550000D02*
X-475000Y-31325000D01*
D66*
X-25375000Y-4750000D02*
X-25750000Y-4750000D01*
X-25450000Y-13100000D02*
X-26050000Y-13100000D01*
X11250000Y-12950000D02*
X10600000Y-12950000D01*
X-16820000Y-11725000D02*
X-17447500Y-12352500D01*
D67*
X-1925000Y-31100000D02*
X-700000Y-31100000D01*
D66*
X29495000Y-43955000D02*
X29495000Y-44975000D01*
X-30120000Y-11725000D02*
X-30747500Y-12352500D01*
X-12150000Y-12950000D02*
X-12800000Y-12950000D01*
X-11950000Y-4925000D02*
X-12075000Y-4800000D01*
D68*
X250000Y-21450000D02*
X0Y-21700000D01*
D66*
X-23025000Y-44475000D02*
X-22325000Y-44475000D01*
D68*
X-250000Y-21450000D02*
X0Y-21700000D01*
D66*
X11450000Y-5000000D02*
X11350000Y-4900000D01*
X-13287501Y-24887500D02*
X-12125001Y-24887500D01*
X17105000Y-10225000D02*
X17375000Y-9955000D01*
X-29162500Y-11725000D02*
X-30120000Y-11725000D01*
X10970000Y-4275000D02*
X10950000Y-4295000D01*
X20837500Y-11725000D02*
X19880000Y-11725000D01*
X19880000Y-11725000D02*
X19252500Y-12352500D01*
X11350000Y-4900000D02*
X10950000Y-4900000D01*
X-13262500Y-23575000D02*
X-12100000Y-23575000D01*
X10450000Y-13100000D02*
X10450000Y-14137500D01*
X10150000Y-24875000D02*
X11362500Y-24875000D01*
X-6295000Y-10225000D02*
X-6025000Y-9955000D01*
X-12800000Y-12950000D02*
X-12950000Y-13100000D01*
X24250000Y-4295000D02*
X24250000Y-4750000D01*
X-26512500Y-24250000D02*
X-27700000Y-24250000D01*
D68*
X250000Y-20875000D02*
X250000Y-21450000D01*
D66*
X-12950000Y-13100000D02*
X-12950000Y-14137500D01*
X-15862500Y-11725000D02*
X-16820000Y-11725000D01*
X-11950000Y-14137500D02*
X-11950000Y-13150000D01*
X29500000Y-43950000D02*
X29495000Y-43955000D01*
X-26250000Y-14137500D02*
X-26250000Y-15420000D01*
X-17447500Y-12352500D02*
X-17450000Y-12355000D01*
X-19595000Y-10225000D02*
X-19335000Y-9965000D01*
X23287500Y-24850000D02*
X24500000Y-24850000D01*
X6580000Y-11725000D02*
X5952500Y-12352500D01*
X23750000Y-15420000D02*
X23520000Y-15650000D01*
X-25250000Y-4875000D02*
X-25375000Y-4750000D01*
X24550000Y-12950000D02*
X23900000Y-12950000D01*
X5952500Y-12352500D02*
X5950000Y-12355000D01*
X-7537500Y-10225000D02*
X-6295000Y-10225000D01*
X24270000Y-4275000D02*
X24250000Y-4295000D01*
X-26512500Y-24900000D02*
X-25350000Y-24900000D01*
X24750000Y-14137500D02*
X24750000Y-13150000D01*
X-28650000Y-40925000D02*
X-28650000Y-40200000D01*
X-25750000Y-5812500D02*
X-25750000Y-4750000D01*
X23900000Y-12950000D02*
X23750000Y-13100000D01*
X-25325000Y-41125000D02*
X-25325000Y-40350000D01*
X23750000Y-14137500D02*
X23750000Y-15420000D01*
X7537500Y-11725000D02*
X6580000Y-11725000D01*
X23750000Y-13100000D02*
X23750000Y-14137500D01*
X11450000Y-14137500D02*
X11450000Y-13150000D01*
X11450000Y-13150000D02*
X11250000Y-12950000D01*
X23287500Y-23550000D02*
X24500000Y-23550000D01*
D67*
X975000Y-31550000D02*
X-250000Y-31550000D01*
D66*
X-19335000Y-9965000D02*
X-19325000Y-9955000D01*
X10450000Y-15420000D02*
X10220000Y-15650000D01*
X-26512500Y-23600000D02*
X-25350000Y-23600000D01*
X24300000Y-4850000D02*
X24250000Y-4900000D01*
D68*
X-250000Y-20875000D02*
X-250000Y-21450000D01*
D66*
X15862500Y-10225000D02*
X17105000Y-10225000D01*
X-28650000Y-40200000D02*
X-29500000Y-40200000D01*
X-26250000Y-13300000D02*
X-26250000Y-14137500D01*
X10450000Y-14137500D02*
X10450000Y-15420000D01*
X29725000Y-43200000D02*
X29500000Y-43425000D01*
X-26050000Y-13100000D02*
X-26250000Y-13300000D01*
X10950000Y-4295000D02*
X10950000Y-4900000D01*
X10600000Y-12950000D02*
X10450000Y-13100000D01*
D68*
X3450000Y-18175000D02*
X4390000Y-18175000D01*
D66*
X-30747500Y-12352500D02*
X-30750000Y-12355000D01*
X-20837500Y-10225000D02*
X-19595000Y-10225000D01*
X-29500000Y-40200000D02*
X-29730000Y-39970000D01*
X-12075000Y-4800000D02*
X-12450000Y-4800000D01*
X9512500Y-18500000D02*
X10750000Y-18500000D01*
X-12450000Y-4245000D02*
X-12430000Y-4225000D01*
X-25750000Y-4750000D02*
X-25750000Y-4245000D01*
X-27162500Y-18500000D02*
X-28400000Y-18500000D01*
X10175000Y-23575000D02*
X11387500Y-23575000D01*
X-25250000Y-5812500D02*
X-25250000Y-4875000D01*
X24750000Y-5000000D02*
X24600000Y-4850000D01*
X24125000Y-18500000D02*
X22825000Y-18500000D01*
X11450000Y-5812500D02*
X11450000Y-5000000D01*
X23337500Y-24200000D02*
X22125000Y-24200000D01*
X-12450000Y-4800000D02*
X-12450000Y-4245000D01*
X-28650000Y-40200000D02*
X-28650000Y-39425000D01*
X-25250000Y-13300000D02*
X-25450000Y-13100000D01*
X-13900000Y-18500000D02*
X-15137500Y-18500000D01*
X-11950000Y-5812500D02*
X-11950000Y-4925000D01*
X-25250000Y-14137500D02*
X-25250000Y-13300000D01*
D67*
X21680001Y-45400000D02*
X22400000Y-45400000D01*
D66*
X-13262500Y-24225000D02*
X-14450000Y-24225000D01*
X24750000Y-5812500D02*
X24750000Y-5000000D01*
X10950000Y-4900000D02*
X10950000Y-5812500D01*
%TO.N,+3.3V*%
X11950000Y-4295000D02*
X11950000Y-5812500D01*
X7537500Y-11225000D02*
X6120000Y-11225000D01*
X-6295000Y-8725000D02*
X-6025000Y-8995000D01*
D67*
X975000Y-31100000D02*
X1850000Y-31100000D01*
D68*
X-750000Y-21675000D02*
X-700000Y-21725000D01*
D66*
X-29162500Y-11225000D02*
X-30580000Y-11225000D01*
X20837500Y-11225000D02*
X19420000Y-11225000D01*
X11930000Y-4275000D02*
X11950000Y-4295000D01*
X17105000Y-8725000D02*
X17375000Y-8995000D01*
D68*
X750000Y-20875000D02*
X750000Y-21675000D01*
X750000Y-21675000D02*
X700000Y-21725000D01*
D66*
X-17280000Y-11225000D02*
X-17450000Y-11395000D01*
D69*
X27725000Y-42700000D02*
X27850000Y-42700000D01*
D66*
X26475000Y-42700000D02*
X27725000Y-42700000D01*
X-19595000Y-8725000D02*
X-19325000Y-8995000D01*
X-11450000Y-4245000D02*
X-11470000Y-4225000D01*
X-7537500Y-8725000D02*
X-6295000Y-8725000D01*
X30405000Y-8725000D02*
X30675000Y-8995000D01*
X15862500Y-8725000D02*
X17105000Y-8725000D01*
X25250000Y-4295000D02*
X25250000Y-5812500D01*
X25230000Y-4275000D02*
X25250000Y-4295000D01*
D68*
X3450000Y-18675000D02*
X4350000Y-18675000D01*
D66*
X-11450000Y-5812500D02*
X-11450000Y-4245000D01*
D68*
X-750000Y-20875000D02*
X-750000Y-21675000D01*
D66*
X-20837500Y-8725000D02*
X-19595000Y-8725000D01*
D68*
X4350000Y-18675000D02*
X4600000Y-18925000D01*
D66*
X29162500Y-8725000D02*
X30405000Y-8725000D01*
X-24750000Y-5812500D02*
X-24750000Y-4245000D01*
X-26625000Y-39225000D02*
X-27300000Y-39225000D01*
X30455000Y-44975000D02*
X30455000Y-43700000D01*
X-29200001Y-39374999D02*
X-29775000Y-39374999D01*
X-30580000Y-11225000D02*
X-30750000Y-11395000D01*
X-24750000Y-4245000D02*
X-24770000Y-4225000D01*
X6120000Y-11225000D02*
X5950000Y-11395000D01*
X19420000Y-11225000D02*
X19250000Y-11395000D01*
X-15862500Y-11225000D02*
X-17280000Y-11225000D01*
X-29150000Y-39425000D02*
X-29200001Y-39374999D01*
%TO.N,+5V*%
X-7537500Y-20325000D02*
X-8750000Y-20325000D01*
X10162500Y-21625000D02*
X11375000Y-21625000D01*
X-23025000Y-43475000D02*
X-22325000Y-43475000D01*
X23287500Y-21600000D02*
X24500000Y-21600000D01*
X27812500Y-20750000D02*
X27812500Y-20300000D01*
D70*
X-29362500Y-27250001D02*
X-29212499Y-27100000D01*
D66*
X15900000Y-20325000D02*
X14687500Y-20325000D01*
X-20787500Y-21000000D02*
X-21800000Y-21000000D01*
X-9662500Y-17000000D02*
X-10975000Y-17000000D01*
D70*
X-28587500Y-25650000D02*
X-28575000Y-25650000D01*
D66*
X15900000Y-20975000D02*
X14887500Y-20975000D01*
X-20787500Y-20350000D02*
X-22000000Y-20350000D01*
X29025000Y-20950000D02*
X28012500Y-20950000D01*
X-22937500Y-17000000D02*
X-24150000Y-17000000D01*
D70*
X-15362501Y-25637500D02*
X-15350001Y-25637500D01*
D66*
X13737500Y-17000000D02*
X12525000Y-17000000D01*
X-29150000Y-40925000D02*
X-30270000Y-40925000D01*
X-22000000Y-20800000D02*
X-22000000Y-20350000D01*
X-21800000Y-21000000D02*
X-22000000Y-20800000D01*
X-26512500Y-21650000D02*
X-25350000Y-21650000D01*
X-13262500Y-21625000D02*
X-14475000Y-21625000D01*
X27062500Y-16987500D02*
X25850000Y-16987500D01*
X28012500Y-20950000D02*
X27812500Y-20750000D01*
X-8550000Y-20975000D02*
X-8750000Y-20775000D01*
X-30270000Y-40925000D02*
X-30275000Y-40930000D01*
X14887500Y-20975000D02*
X14687500Y-20775000D01*
X-8750000Y-20775000D02*
X-8750000Y-20325000D01*
X14687500Y-20775000D02*
X14687500Y-20325000D01*
X29025000Y-20300000D02*
X27812500Y-20300000D01*
X-7537500Y-20975000D02*
X-8550000Y-20975000D01*
%TO.N,+1V8*%
X10950000Y-14137500D02*
X10950000Y-15420000D01*
X-12450000Y-14137500D02*
X-12450000Y-15420000D01*
X-25750000Y-14137500D02*
X-25750000Y-15420000D01*
X24250000Y-15420000D02*
X24480000Y-15650000D01*
X-25750000Y-15420000D02*
X-25520000Y-15650000D01*
X10950000Y-15420000D02*
X11180000Y-15650000D01*
D67*
X-1925000Y-31550000D02*
X-2775000Y-31550000D01*
D70*
X-2775000Y-31550000D02*
X-6299000Y-31550000D01*
D66*
X-12450000Y-15420000D02*
X-12220000Y-15650000D01*
X24250000Y-14137500D02*
X24250000Y-15420000D01*
D69*
%TO.N,/MCLK*%
X29800000Y-42700000D02*
X30700000Y-42700000D01*
X31475000Y-37950000D02*
X31475000Y-40400000D01*
X29300000Y-41418870D02*
X29300000Y-42200000D01*
X29300000Y-42200000D02*
X29800000Y-42700000D01*
X29170000Y-13300000D02*
X29170000Y-14895000D01*
X29793870Y-40925000D02*
X29300000Y-41418870D01*
X30950000Y-40925000D02*
X29793870Y-40925000D01*
X29162500Y-12725000D02*
X29162500Y-13292500D01*
X15862500Y-12725000D02*
X15862500Y-14062500D01*
X29170000Y-14895000D02*
X31025000Y-16750000D01*
X15862500Y-14062500D02*
X15875000Y-14075000D01*
D67*
X-7550000Y-13750000D02*
X-7550000Y-12725000D01*
D69*
X29162500Y-13292500D02*
X29170000Y-13300000D01*
X31025000Y-16750000D02*
X31025000Y-37500000D01*
X31025000Y-37500000D02*
X31475000Y-37950000D01*
X31475000Y-40400000D02*
X30950000Y-40925000D01*
D67*
X-20825000Y-14250000D02*
X-20825000Y-12725000D01*
%TO.N,Net-(T5-OUT2A)*%
X18440000Y-39470000D02*
X18425000Y-39455000D01*
X19390000Y-39470000D02*
X18440000Y-39470000D01*
D69*
%TO.N,/BLS*%
X29162500Y-7725000D02*
X27975000Y-7725000D01*
D67*
X4250000Y-12200000D02*
X4250000Y-14450000D01*
X-7537500Y-7725000D02*
X-6325000Y-7725000D01*
X-20837500Y-7725000D02*
X-19650000Y-7725000D01*
X4250000Y-14450000D02*
X4025000Y-14675000D01*
X15837500Y-7725000D02*
X14650000Y-7725000D01*
X-19650000Y-7725000D02*
X-19637500Y-7712500D01*
X4025000Y-14675000D02*
X3450000Y-14675000D01*
%TO.N,/IN5*%
X-26400000Y-4775000D02*
X-26750000Y-4775000D01*
X-20370000Y75000D02*
X-24975000Y75000D01*
X-26750000Y-5812500D02*
X-26750000Y-4775000D01*
X-19100000Y1345000D02*
X-20370000Y75000D01*
X-24975000Y75000D02*
X-26750000Y-1700000D01*
X-26250000Y-4925000D02*
X-26400000Y-4775000D01*
X-26250000Y-5812500D02*
X-26250000Y-4925000D01*
X-26750000Y-1700000D02*
X-26750000Y-4775000D01*
D69*
%TO.N,+3.3VP*%
X975000Y-30200000D02*
X975000Y-29650000D01*
X-1925000Y-33025000D02*
X-1925000Y-32875000D01*
X-1925000Y-32450000D02*
X-1925000Y-33025000D01*
D67*
%TO.N,/~{CSA}*%
X5350000Y-3150000D02*
X4775000Y-2575000D01*
D69*
X-150000Y-10625000D02*
X4625000Y-10625000D01*
D67*
X25250000Y-12400000D02*
X25250000Y-14137500D01*
X-2600000Y-2025000D02*
X-2600000Y85000D01*
X5350000Y-9900000D02*
X5350000Y-3150000D01*
X-2600000Y85000D02*
X-3860000Y1345000D01*
X-2050000Y-2575000D02*
X-2600000Y-2025000D01*
X4775000Y-2575000D02*
X-2050000Y-2575000D01*
D69*
X-250000Y-13975000D02*
X-250000Y-13325000D01*
X4625000Y-10625000D02*
X4987500Y-10262500D01*
D67*
X23775000Y-10925000D02*
X25250000Y-12400000D01*
D69*
X-425000Y-10900000D02*
X-150000Y-10625000D01*
D67*
X4987500Y-10262500D02*
X5350000Y-9900000D01*
D69*
X-250000Y-13325000D02*
X-425000Y-13150000D01*
X-425000Y-13150000D02*
X-425000Y-10900000D01*
%TO.N,/SCLK*%
X3129076Y-12629076D02*
X2555080Y-12629076D01*
X25750000Y-14137500D02*
X25750000Y-11975000D01*
X3350000Y-12850000D02*
X3129076Y-12629076D01*
D67*
X-24250000Y-13250000D02*
X-24575000Y-12925000D01*
X-11521752Y-12703248D02*
X-10950000Y-13275000D01*
X-24250000Y-14137500D02*
X-24250000Y-13250000D01*
D69*
X2250000Y-12934156D02*
X2250000Y-13975000D01*
X2555080Y-12629076D02*
X2250000Y-12934156D01*
D67*
X12450000Y-11975000D02*
X12450000Y-14137500D01*
D69*
X3350000Y-14100000D02*
X3350000Y-12850000D01*
D67*
X-10950000Y-13275000D02*
X-10950000Y-14162500D01*
%TO.N,/MOSI*%
X-10450000Y-14162500D02*
X-10450000Y-12975000D01*
X26250000Y-14137500D02*
X26250000Y-12950000D01*
X12950000Y-14137500D02*
X12950000Y-12950000D01*
X-23750000Y-14137500D02*
X-23750000Y-12950000D01*
X3325000Y-20775000D02*
X2750000Y-20775000D01*
%TO.N,/MISO*%
X4250000Y-15175000D02*
X3450000Y-15175000D01*
X-9950000Y-13300000D02*
X-9950000Y-14162500D01*
X-23123376Y-12948376D02*
X-23250000Y-13075000D01*
X-9650000Y-12650000D02*
X-9650000Y-13000000D01*
X-23250000Y-13075000D02*
X-23250000Y-14137500D01*
D69*
X26750000Y-12496752D02*
X26750000Y-14137500D01*
D67*
X-9650000Y-13000000D02*
X-9950000Y-13300000D01*
X-22775000Y-12948376D02*
X-23123376Y-12948376D01*
X4850000Y-14575000D02*
X4250000Y-15175000D01*
D69*
X26489124Y-12235876D02*
X26750000Y-12496752D01*
D67*
X13450000Y-14137500D02*
X13450000Y-12450000D01*
D69*
%TO.N,/~{INTA}*%
X25575000Y-10650000D02*
X27146148Y-12221148D01*
X27146148Y-12226944D02*
X27250000Y-12330796D01*
X27250000Y-12330796D02*
X27250000Y-14137500D01*
D67*
X4940001Y-11140001D02*
X4925000Y-11140001D01*
X5350000Y-11550000D02*
X4940001Y-11140001D01*
X5350000Y-14800000D02*
X5350000Y-11550000D01*
X3450000Y-15675000D02*
X4475000Y-15675000D01*
X4475000Y-15675000D02*
X5350000Y-14800000D01*
D66*
X27250000Y-15635000D02*
X27235000Y-15650000D01*
D69*
X4925000Y-11140001D02*
X2200000Y-11140001D01*
X27146148Y-12221148D02*
X27146148Y-12226944D01*
D66*
X27250000Y-14137500D02*
X27250000Y-15635000D01*
D67*
%TO.N,/~{RESET}*%
X-8400000Y-3750000D02*
X-10200000Y-1950000D01*
X-8400000Y-6650000D02*
X-8400000Y-3750000D01*
X-10200000Y-350000D02*
X-10625000Y75000D01*
D69*
X26925000Y-11574322D02*
X27270826Y-11920148D01*
D67*
X309999Y-12184999D02*
X750000Y-12625000D01*
X-8950000Y-11387500D02*
X-8950000Y-14137500D01*
D69*
X27447148Y-12096470D02*
X27447148Y-12102266D01*
X26925000Y-11125000D02*
X26925000Y-11574322D01*
D67*
X14450000Y-14137500D02*
X14450000Y-11650000D01*
D69*
X27551000Y-12206118D02*
X27725982Y-12381100D01*
X27731100Y-12381100D02*
X27750000Y-12400000D01*
X27750000Y-12400000D02*
X27750000Y-14137500D01*
D67*
X750000Y-12625000D02*
X750000Y-13975000D01*
X-10625000Y75000D02*
X-12750000Y75000D01*
X-9400000Y-10937500D02*
X-9400000Y-7650000D01*
X-9400000Y-10937500D02*
X-8950000Y-11387500D01*
D69*
X27725982Y-12381100D02*
X27731100Y-12381100D01*
X27447148Y-12102266D02*
X27551000Y-12206118D01*
X27270826Y-11920148D02*
X27447148Y-12096470D01*
D67*
X225000Y-12184999D02*
X309999Y-12184999D01*
X-12750000Y75000D02*
X-14020000Y1345000D01*
X-22250000Y-11550000D02*
X-22250000Y-14137500D01*
X-9400000Y-7650000D02*
X-8400000Y-6650000D01*
X-10200000Y-1950000D02*
X-10200000Y-350000D01*
%TO.N,Net-(C90-Pad2)*%
X-2250000Y-24125000D02*
X-2250000Y-23180000D01*
D69*
X-2254999Y-23184999D02*
X-2250000Y-23180000D01*
D67*
X-3275000Y-23184999D02*
X-2254999Y-23184999D01*
%TO.N,/~{CSB}*%
X11950000Y-12925000D02*
X11950000Y-14137500D01*
X250000Y-13975000D02*
X250000Y-13125000D01*
X11051624Y-12026624D02*
X11950000Y-12925000D01*
D66*
%TO.N,/~{INTB}*%
X13950000Y-14137500D02*
X13950000Y-15635000D01*
X13950000Y-15635000D02*
X13935000Y-15650000D01*
D69*
X3450000Y-16175000D02*
X4850000Y-16175000D01*
D67*
%TO.N,/~{REQ}{slash}~{ISP}*%
X2200000Y-12159999D02*
X1250000Y-12159999D01*
X1250000Y-12159999D02*
X1250000Y-13975000D01*
D69*
%TO.N,/SWCLK*%
X-750000Y-13975000D02*
X-750000Y-10775000D01*
X-750000Y-10775000D02*
X-75000Y-10100000D01*
X-75000Y-10100000D02*
X940000Y-10100000D01*
X940000Y-10100000D02*
X2540000Y-8500000D01*
D67*
%TO.N,/SWDIO*%
X-1750000Y-13975000D02*
X-1750000Y-9290000D01*
X-1750000Y-9290000D02*
X-2540000Y-8500000D01*
D69*
%TO.N,/UCKA*%
X4166258Y-17144410D02*
X4135668Y-17175000D01*
X4135668Y-17175000D02*
X3450000Y-17175000D01*
X5252526Y-17144410D02*
X4166258Y-17144410D01*
X5266878Y-17130058D02*
X5252526Y-17144410D01*
D67*
X29137500Y-11225000D02*
X27700000Y-11225000D01*
X27700000Y-11225000D02*
X27698376Y-11226624D01*
%TO.N,/UBTA*%
X29137500Y-10725000D02*
X30635218Y-10725000D01*
D69*
X-3450000Y-16675000D02*
X-5475000Y-16675000D01*
X30635218Y-10725000D02*
X30636148Y-10724070D01*
%TO.N,/UCKB*%
X5325000Y-15400000D02*
X5325000Y-15976834D01*
X11125000Y-11225000D02*
X9175000Y-13175000D01*
X14252834Y-11174000D02*
X14201834Y-11225000D01*
X5047166Y-16651000D02*
X5024000Y-16651000D01*
X9175000Y-13175000D02*
X6600000Y-13175000D01*
X5326000Y-15977834D02*
X5326000Y-16372166D01*
X5326000Y-16372166D02*
X5047166Y-16651000D01*
X5975000Y-14750000D02*
X5325000Y-15400000D01*
X14647166Y-11174000D02*
X14252834Y-11174000D01*
X14698166Y-11225000D02*
X14647166Y-11174000D01*
X5325000Y-15976834D02*
X5326000Y-15977834D01*
X15837500Y-11225000D02*
X14698166Y-11225000D01*
X5000000Y-16675000D02*
X3450000Y-16675000D01*
X5975000Y-13800000D02*
X5975000Y-14750000D01*
X14201834Y-11225000D02*
X11125000Y-11225000D01*
X6600000Y-13175000D02*
X5975000Y-13800000D01*
X5024000Y-16651000D02*
X5000000Y-16675000D01*
%TO.N,/UBTB*%
X15837500Y-10725000D02*
X12725000Y-10725000D01*
X-3450000Y-17175000D02*
X-4950000Y-17175000D01*
X12725000Y-10725000D02*
X12700000Y-10700000D01*
%TO.N,/PHOA*%
X23190000Y-36090000D02*
X23400000Y-36300000D01*
D67*
X17075000Y-42045000D02*
X17065000Y-42055000D01*
D69*
X21400000Y-36090000D02*
X23190000Y-36090000D01*
D67*
X17075000Y-41375000D02*
X17075000Y-42045000D01*
%TO.N,/IN4*%
X-13450000Y-5812500D02*
X-13450000Y-4650000D01*
X-12950000Y-4900000D02*
X-13200000Y-4650000D01*
X-13450000Y-4650000D02*
X-13450000Y-4250000D01*
X-13200000Y-4650000D02*
X-13450000Y-4650000D01*
X-12950000Y-5812500D02*
X-12950000Y-4900000D01*
D69*
%TO.N,/ENA*%
X28175000Y-12325000D02*
X28175000Y-14400000D01*
X28275000Y-12225000D02*
X28175000Y-12325000D01*
X30650000Y-24725000D02*
X29825000Y-25550000D01*
X28175000Y-14400000D02*
X30650000Y-16875000D01*
X24975000Y-25550000D02*
X24699999Y-25825001D01*
X29825000Y-25550000D02*
X24975000Y-25550000D01*
X24699999Y-25825001D02*
X24699999Y-26762500D01*
X30650000Y-16875000D02*
X30650000Y-24725000D01*
X29162500Y-12225000D02*
X28275000Y-12225000D01*
D67*
%TO.N,Net-(U4-LX1)*%
X-2750000Y-30650000D02*
X-1925000Y-30650000D01*
D70*
X-4375000Y-30650000D02*
X-2750000Y-30650000D01*
%TO.N,Net-(U4-LX2)*%
X1700000Y-32000000D02*
X2674999Y-32000000D01*
X2674999Y-32000000D02*
X3000000Y-32325001D01*
D67*
X975000Y-32000000D02*
X1700000Y-32000000D01*
%TO.N,Net-(T5-OUT1B)*%
X20090000Y-38745000D02*
X20435000Y-38400000D01*
X20090000Y-39470000D02*
X20090000Y-38745000D01*
%TO.N,Net-(U10-~{LOCK})*%
X20647499Y-5684999D02*
X20600000Y-5684999D01*
X20837500Y-12225000D02*
X21725000Y-12225000D01*
X22000000Y-7037500D02*
X20647499Y-5684999D01*
X21725000Y-12225000D02*
X22000000Y-11950000D01*
X22000000Y-11950000D02*
X22000000Y-7037500D01*
D69*
%TO.N,Net-(U10-AESOUT)*%
X27700000Y-8225000D02*
X27500000Y-8025000D01*
X27500000Y-7528248D02*
X28375000Y-6653248D01*
X28375000Y-6653248D02*
X28375000Y-6100000D01*
X28800000Y-5675000D02*
X29700000Y-5675000D01*
X29162500Y-8225000D02*
X27700000Y-8225000D01*
X27500000Y-8025000D02*
X27500000Y-7528248D01*
X28375000Y-6100000D02*
X28800000Y-5675000D01*
D67*
%TO.N,/SYNCA*%
X29162500Y-7225000D02*
X30050000Y-7225000D01*
X30244998Y-7030002D02*
X30725000Y-7030002D01*
X30050000Y-7225000D02*
X30244998Y-7030002D01*
%TO.N,/~{CSC}*%
X-11475000Y-15475000D02*
X-11475000Y-14187500D01*
D69*
X-3450000Y-16175000D02*
X-4950000Y-16175000D01*
D67*
X-11300000Y-15650000D02*
X-11475000Y-15475000D01*
X-11475000Y-14187500D02*
X-11450000Y-14162500D01*
D69*
%TO.N,/~{CSD}*%
X-24750000Y-15325000D02*
X-24750000Y-14137500D01*
X-4950000Y-15175000D02*
X-3450000Y-15175000D01*
D67*
%TO.N,/MODC*%
X-10650000Y-22925000D02*
X-13275000Y-22925000D01*
X-10000000Y-23575000D02*
X-10650000Y-22925000D01*
X-8550000Y-24225000D02*
X-8700000Y-24075000D01*
D69*
X-1250001Y-13975000D02*
X-1250001Y-13100001D01*
D67*
X-6225000Y-23575000D02*
X-7550000Y-23575000D01*
X-8700000Y-24075000D02*
X-8700000Y-23575000D01*
X-7537500Y-24225000D02*
X-8550000Y-24225000D01*
X-8700000Y-23575000D02*
X-7537500Y-23575000D01*
D69*
X-1250001Y-13100001D02*
X-1250000Y-13100000D01*
D67*
X-8700000Y-23575000D02*
X-10000000Y-23575000D01*
%TO.N,/MODD*%
X-21950000Y-23600000D02*
X-20787500Y-23600000D01*
X-26512500Y-22950000D02*
X-24025000Y-22950000D01*
X-20787500Y-24250000D02*
X-21800000Y-24250000D01*
X-23375000Y-23600000D02*
X-21950000Y-23600000D01*
X-21800000Y-24250000D02*
X-21950000Y-24100000D01*
D69*
X-2250001Y-13100001D02*
X-2250000Y-13100000D01*
X-20787500Y-23600000D02*
X-19615140Y-23600000D01*
D67*
X-21950000Y-24100000D02*
X-21950000Y-23600000D01*
X-24025000Y-22950000D02*
X-23375000Y-23600000D01*
D69*
X-2250001Y-13975000D02*
X-2250001Y-13100001D01*
D67*
%TO.N,/SDA*%
X-3675000Y-8000000D02*
X-2875000Y-7200000D01*
X-2875000Y-7200000D02*
X3950000Y-7200000D01*
X-2750000Y-10275000D02*
X-3675000Y-9350000D01*
X3950000Y-7200000D02*
X3975000Y-7175000D01*
X26475000Y-43700000D02*
X27775000Y-43700000D01*
X-2750000Y-13975000D02*
X-2750000Y-10275000D01*
X-3675000Y-9350000D02*
X-3675000Y-8000000D01*
%TO.N,/SCL*%
X-4050000Y-7700000D02*
X-3025000Y-6675000D01*
X-4050000Y-13350000D02*
X-3850000Y-13150000D01*
X-4050000Y-14575000D02*
X-4050000Y-13350000D01*
X-3850000Y-9775000D02*
X-4050000Y-9575000D01*
X-3025000Y-6675000D02*
X3723000Y-6675000D01*
X3723000Y-6675000D02*
X3998000Y-6400000D01*
X26475000Y-43200000D02*
X25175000Y-43200000D01*
X-3950000Y-14675000D02*
X-4050000Y-14575000D01*
X-3450000Y-14675000D02*
X-3950000Y-14675000D01*
X-3850000Y-13150000D02*
X-3850000Y-9775000D01*
X-4050000Y-9575000D02*
X-4050000Y-7700000D01*
D69*
%TO.N,/UCKC*%
X-6124000Y-11776000D02*
X-6675000Y-11225000D01*
X-6675000Y-11225000D02*
X-7537500Y-11225000D01*
X-5475000Y-19675000D02*
X-6124000Y-19026000D01*
X-6124000Y-19026000D02*
X-6124000Y-11776000D01*
X-3450000Y-19675000D02*
X-5475000Y-19675000D01*
D66*
%TO.N,/MODB*%
X11975000Y-22925000D02*
X12625000Y-23575000D01*
X15887500Y-23575000D02*
X14725000Y-23575000D01*
X8850000Y-22925000D02*
X11975000Y-22925000D01*
X14725000Y-24000000D02*
X14950000Y-24225000D01*
X14725000Y-23575000D02*
X14725000Y-24000000D01*
X12625000Y-23575000D02*
X14725000Y-23575000D01*
X14950000Y-24225000D02*
X15887500Y-24225000D01*
D69*
X-3450000Y-15675000D02*
X-5475000Y-15675000D01*
D67*
%TO.N,/UCKD*%
X-18875000Y-17575000D02*
X-18875000Y-12250000D01*
X-19900000Y-11225000D02*
X-20837500Y-11225000D01*
X-18875000Y-12250000D02*
X-19900000Y-11225000D01*
D69*
X-3450000Y-18675000D02*
X-5475000Y-18675000D01*
%TO.N,/P2H*%
X-3450000Y-17675000D02*
X-5475000Y-17675000D01*
%TO.N,/H2P*%
X-3450000Y-18175000D02*
X-4950000Y-18175000D01*
%TO.N,/UBTC*%
X-5925000Y-10950000D02*
X-6400000Y-10950000D01*
D67*
X1750000Y-13125000D02*
X1750000Y-13975000D01*
D69*
X-6400000Y-10950000D02*
X-6625000Y-10725000D01*
X-6625000Y-10725000D02*
X-7537500Y-10725000D01*
D66*
%TO.N,/MODA*%
X27853069Y-23553069D02*
X27856138Y-23550000D01*
X29025000Y-24200000D02*
X28050000Y-24200000D01*
X25000000Y-22900000D02*
X23300000Y-22900000D01*
X27856138Y-23550000D02*
X29025000Y-23550000D01*
X28050000Y-24200000D02*
X27853069Y-24003069D01*
D69*
X23300000Y-22900000D02*
X22350000Y-22900000D01*
D66*
X27856138Y-23550000D02*
X25650000Y-23550000D01*
X25650000Y-23550000D02*
X25000000Y-22900000D01*
X27853069Y-24003069D02*
X27853069Y-23553069D01*
D69*
X22350000Y-22900000D02*
X22075000Y-23175000D01*
X-3450000Y-19175000D02*
X-4950000Y-19175000D01*
D67*
%TO.N,/UBTD*%
X-19375000Y-11050000D02*
X-19700000Y-10725000D01*
D69*
X2752246Y-13105076D02*
X2752246Y-13111497D01*
D67*
X-19700000Y-10725000D02*
X-20837500Y-10725000D01*
X-19100000Y-11050000D02*
X-19375000Y-11050000D01*
D69*
X2752246Y-13111497D02*
X2750000Y-13113743D01*
D67*
X2750000Y-13113743D02*
X2750000Y-13975000D01*
%TO.N,/PVA*%
X19162500Y-37700000D02*
X19752500Y-37110000D01*
X1250000Y-25600000D02*
X2426000Y-26776000D01*
D69*
X21400000Y-37110000D02*
X20350000Y-37110000D01*
D67*
X3229612Y-26776000D02*
X4699000Y-28245388D01*
X4699000Y-36770389D02*
X5628611Y-37700000D01*
X1250000Y-20875000D02*
X1250000Y-25600000D01*
X2426000Y-26776000D02*
X3229612Y-26776000D01*
X19752500Y-37110000D02*
X20350000Y-37110000D01*
X4699000Y-28245388D02*
X4699000Y-36770389D01*
X5628611Y-37700000D02*
X19162500Y-37700000D01*
%TO.N,/PVB*%
X8000000Y-37160000D02*
X6950000Y-37160000D01*
X3375000Y-26425000D02*
X2575000Y-26425000D01*
X5585000Y-37160000D02*
X5050000Y-36625000D01*
X5050000Y-36625000D02*
X5050000Y-28100000D01*
X6950000Y-37160000D02*
X5585000Y-37160000D01*
X5050000Y-28100000D02*
X3375000Y-26425000D01*
X1600000Y-25450000D02*
X1600000Y-21925000D01*
X1750000Y-21775000D02*
X1750000Y-20875000D01*
X2575000Y-26425000D02*
X1600000Y-25450000D01*
X1600000Y-21925000D02*
X1750000Y-21775000D01*
%TO.N,/LED*%
X2250000Y-20875000D02*
X2250000Y-22190000D01*
D69*
%TO.N,/PVC*%
X-5650000Y-25700000D02*
X-6650000Y-26700000D01*
X-7075000Y-32825000D02*
X-6650000Y-33250000D01*
X3950000Y-20175000D02*
X3450000Y-20175000D01*
X-6650000Y-28575000D02*
X-7075000Y-29000000D01*
X2974000Y-22725000D02*
X2974000Y-22627000D01*
X-7626000Y-37226000D02*
X-15334000Y-37226000D01*
X2925000Y-22676000D02*
X2974000Y-22725000D01*
X-51624Y-24650000D02*
X-51624Y-24651624D01*
X-6650000Y-36250000D02*
X-7626000Y-37226000D01*
X-6650000Y-26700000D02*
X-6650000Y-28575000D01*
X4075000Y-21526000D02*
X4075000Y-20300000D01*
X-16450000Y-37160000D02*
X-15400000Y-37160000D01*
X-15334000Y-37226000D02*
X-15400000Y-37160000D01*
X4075000Y-20300000D02*
X3950000Y-20175000D01*
X-7075000Y-29000000D02*
X-7075000Y-32825000D01*
X2974000Y-22627000D02*
X4075000Y-21526000D01*
X-51624Y-24651624D02*
X-1100000Y-25700000D01*
X-1100000Y-25700000D02*
X-5650000Y-25700000D01*
X-6650000Y-33250000D02*
X-6650000Y-36250000D01*
D67*
%TO.N,/WCLK*%
X-28625000Y-38125000D02*
X-30950000Y-38125000D01*
X-29740001Y-19265001D02*
X-29740001Y-18725000D01*
D69*
X4106000Y-19906000D02*
X3875000Y-19675000D01*
D67*
X-28150000Y-39425000D02*
X-28150000Y-38600000D01*
D69*
X3875000Y-19675000D02*
X3450000Y-19675000D01*
D67*
X-30950000Y-38125000D02*
X-31575000Y-37500000D01*
X-31575000Y-20400000D02*
X-30750000Y-19575000D01*
X-30050000Y-19575000D02*
X-29740001Y-19265001D01*
D69*
X4575000Y-19906000D02*
X4106000Y-19906000D01*
D67*
X-31575000Y-37500000D02*
X-31575000Y-20400000D01*
X-30750000Y-19575000D02*
X-30050000Y-19575000D01*
X-28150000Y-38600000D02*
X-28625000Y-38125000D01*
D69*
%TO.N,/PVD*%
X-6774000Y-29275000D02*
X-6774000Y-32651000D01*
X5076000Y-19601000D02*
X4906000Y-19431000D01*
X4375000Y-20825000D02*
X5076000Y-20124000D01*
X4906000Y-19431000D02*
X4274518Y-19431000D01*
X-775000Y-26150000D02*
X-5675000Y-26150000D01*
X4274518Y-19431000D02*
X4064000Y-19220482D01*
X651215Y-24723785D02*
X-775000Y-26150000D01*
X-6325000Y-26800000D02*
X-6325000Y-28826000D01*
X4064000Y-19220482D02*
X4064000Y-19219068D01*
X4064000Y-19219068D02*
X4019932Y-19175000D01*
X-6774000Y-32651000D02*
X-6325000Y-33100000D01*
X-6325000Y-33100000D02*
X-6325000Y-36350678D01*
X-5675000Y-26150000D02*
X-6325000Y-26800000D01*
X-7724322Y-37750000D02*
X-27725000Y-37750000D01*
X725000Y-24650000D02*
X798785Y-24723785D01*
X-6325000Y-28826000D02*
X-6774000Y-29275000D01*
X4019932Y-19175000D02*
X3450000Y-19175000D01*
X4375000Y-21975000D02*
X4375000Y-20825000D01*
X-29800000Y-37260000D02*
X-28750000Y-37260000D01*
X-6325000Y-36350678D02*
X-7724322Y-37750000D01*
X5076000Y-20124000D02*
X5076000Y-19601000D01*
X-27725000Y-37750000D02*
X-28215000Y-37260000D01*
X798785Y-24723785D02*
X651215Y-24723785D01*
X-28215000Y-37260000D02*
X-28750000Y-37260000D01*
X3650000Y-22700000D02*
X4375000Y-21975000D01*
D67*
%TO.N,Net-(T1-OUT1B)*%
X13475000Y-38575358D02*
X13650358Y-38400000D01*
X13475000Y-39445000D02*
X13475000Y-38575358D01*
%TO.N,Net-(T5-OUT2B)*%
X29162500Y-9725000D02*
X27975000Y-9725000D01*
X23680000Y-39425000D02*
X22625000Y-39425000D01*
%TO.N,Net-(T5-OUT1A)*%
X23680000Y-40075000D02*
X22625000Y-40075000D01*
X29162500Y-9225000D02*
X27475000Y-9225000D01*
%TO.N,/X4+*%
X-15625000Y-45175000D02*
X-16375000Y-45925000D01*
X-16375000Y-47865000D02*
X-15240000Y-49000000D01*
X-15625000Y-42600000D02*
X-15625000Y-45175000D01*
X-16100000Y-42125000D02*
X-15625000Y-42600000D01*
X-17040000Y-42125000D02*
X-16100000Y-42125000D01*
X-16375000Y-45925000D02*
X-16375000Y-47865000D01*
%TO.N,/X4-*%
X-15240000Y-42410000D02*
X-15240000Y-46460000D01*
X-17040000Y-41475000D02*
X-16175000Y-41475000D01*
X-16175000Y-41475000D02*
X-15240000Y-42410000D01*
%TO.N,/X3+*%
X-8975000Y-45250000D02*
X-11490000Y-45250000D01*
X-5850000Y-42125000D02*
X-8975000Y-45250000D01*
X-11490000Y-45250000D02*
X-12700000Y-46460000D01*
X-4965000Y-42125000D02*
X-5850000Y-42125000D01*
%TO.N,/X3-*%
X-3975000Y-42550000D02*
X-4200000Y-42775000D01*
X-5950000Y-42775000D02*
X-8900000Y-45725000D01*
X-3975000Y-42450000D02*
X-3975000Y-42550000D01*
X-8900000Y-47740000D02*
X-10160000Y-49000000D01*
X-4200000Y-42775000D02*
X-5950000Y-42775000D01*
X-3950000Y-41675000D02*
X-3950000Y-42425000D01*
X-3950000Y-42425000D02*
X-3975000Y-42450000D01*
X-8900000Y-45725000D02*
X-8900000Y-47740000D01*
X-4150000Y-41475000D02*
X-3950000Y-41675000D01*
X-4965000Y-41475000D02*
X-4150000Y-41475000D01*
%TO.N,/X2+*%
X7325000Y-42125000D02*
X6270000Y-42125000D01*
%TO.N,/X2-*%
X7325000Y-41475000D02*
X6270000Y-41475000D01*
%TO.N,/X1+*%
X19700000Y-42125000D02*
X18645000Y-42125000D01*
%TO.N,/X1-*%
X19700000Y-41475000D02*
X18645000Y-41475000D01*
%TO.N,/R4+*%
X-23575000Y-42124999D02*
X-21924264Y-42125000D01*
X-16200000Y-50850000D02*
X-1850000Y-50850000D01*
X-21150000Y-42899264D02*
X-21150000Y-45900000D01*
X-21924264Y-42125000D02*
X-21150000Y-42899264D01*
X-21150000Y-45900000D02*
X-16200000Y-50850000D01*
X-1850000Y-50850000D02*
X0Y-49000000D01*
%TO.N,/R4-*%
X-20776014Y-42748986D02*
X-20776014Y-45748986D01*
X-2050000Y-50450000D02*
X-1275000Y-49675000D01*
X-16075000Y-50450000D02*
X-2050000Y-50450000D01*
X-23575000Y-41475000D02*
X-22050000Y-41475000D01*
X-22050000Y-41475000D02*
X-20776014Y-42748986D01*
X-1275000Y-49675000D02*
X-1275000Y-47735000D01*
X-20776014Y-45748986D02*
X-16075000Y-50450000D01*
X-1275000Y-47735000D02*
X0Y-46460000D01*
D69*
%TO.N,/R3+*%
X-11475000Y-42124999D02*
X-10420000Y-42125000D01*
%TO.N,/R3-*%
X-11475000Y-41475000D02*
X-10420000Y-41475000D01*
D67*
%TO.N,/R2+*%
X6350000Y-47730000D02*
X7620000Y-49000000D01*
X6350000Y-45686388D02*
X6350000Y-47730000D01*
X785000Y-42125000D02*
X2788612Y-42125000D01*
X2788612Y-42125000D02*
X6350000Y-45686388D01*
%TO.N,/R2-*%
X785000Y-41475000D02*
X2635000Y-41475000D01*
X2635000Y-41475000D02*
X7620000Y-46460000D01*
%TO.N,/R1+*%
X13085000Y-42100000D02*
X13085000Y-43535000D01*
X13085000Y-43535000D02*
X10160000Y-46460000D01*
%TO.N,/R1-*%
X13825000Y-41450000D02*
X14000000Y-41625000D01*
X14000000Y-47700000D02*
X12700000Y-49000000D01*
X14000000Y-41625000D02*
X14000000Y-47700000D01*
X13085000Y-41450000D02*
X13825000Y-41450000D01*
D69*
%TO.N,Net-(U10-MUTE)*%
X22712500Y-15125000D02*
X21162500Y-15125000D01*
X23250000Y-14125000D02*
X23250000Y-14962500D01*
X22750000Y-15087500D02*
X22712500Y-15125000D01*
X23250000Y-14962500D02*
X23087500Y-15125000D01*
X23087500Y-15125000D02*
X22712500Y-15125000D01*
X22750000Y-14125000D02*
X22750000Y-15087500D01*
X21162500Y-15125000D02*
X20200000Y-14162500D01*
D66*
%TO.N,Net-(U10-SDINB)*%
X23750000Y-4925000D02*
X23625000Y-4800000D01*
X23250000Y-4925000D02*
X23250000Y-5812500D01*
X23625000Y-4800000D02*
X23375000Y-4800000D01*
X23375000Y-4800000D02*
X23250000Y-4925000D01*
X23750000Y-5812500D02*
X23750000Y-4925000D01*
%TO.N,Net-(U20-SDINB)*%
X9950000Y-4975000D02*
X9950000Y-5812500D01*
X10325000Y-4850000D02*
X10075000Y-4850000D01*
X10450000Y-5812500D02*
X10450000Y-4975000D01*
X10450000Y-4975000D02*
X10325000Y-4850000D01*
X10075000Y-4850000D02*
X9950000Y-4975000D01*
D67*
%TO.N,/BCK*%
X-9550000Y-7275000D02*
X-13899264Y-7275000D01*
X-22725000Y-7250000D02*
X-22250000Y-6775000D01*
D69*
X5281993Y-18412398D02*
X5281993Y-17816925D01*
D67*
X-22250000Y-6775000D02*
X-22250000Y-5812500D01*
X-16475000Y-2850000D02*
X-20150000Y-2850000D01*
D69*
X4059932Y-17675000D02*
X3450000Y-17675000D01*
D67*
X22250000Y-5812500D02*
X22250000Y-4550000D01*
X-8950000Y-5812500D02*
X-8950000Y-3950000D01*
X-20150000Y-2850000D02*
X-22250000Y-4950000D01*
X22250000Y-4550000D02*
X21750000Y-4050000D01*
X27750000Y-5812500D02*
X27750000Y-6700000D01*
X21750000Y-4050000D02*
X15225000Y-4050000D01*
X14450000Y-6825000D02*
X14100000Y-7175000D01*
X-8950000Y-5812500D02*
X-8950000Y-6675000D01*
X-14450000Y-4875000D02*
X-16475000Y-2850000D01*
X-8950000Y-6675000D02*
X-9550000Y-7275000D01*
X-14450000Y-5812500D02*
X-14450000Y-4875000D01*
D69*
X5281993Y-17816925D02*
X4925068Y-17460000D01*
D67*
X22775000Y-7225000D02*
X22250000Y-6700000D01*
X9450000Y-7175000D02*
X8950000Y-6675000D01*
X27750000Y-6700000D02*
X27225000Y-7225000D01*
X8950000Y-4050000D02*
X8950000Y-5812500D01*
X-27225000Y-7250000D02*
X-22725000Y-7250000D01*
X8950000Y-6675000D02*
X8950000Y-5812500D01*
X-22250000Y-4950000D02*
X-22250000Y-5812500D01*
X-13899264Y-7275000D02*
X-14450000Y-6724264D01*
D69*
X4274932Y-17460000D02*
X4059932Y-17675000D01*
D67*
X-14450000Y-6724264D02*
X-14450000Y-5812500D01*
X14450000Y-4825000D02*
X14450000Y-5812500D01*
X15225000Y-4050000D02*
X14450000Y-4825000D01*
X14450000Y-5812500D02*
X14450000Y-6825000D01*
X22250000Y-6700000D02*
X22250000Y-5812500D01*
X-27750000Y-6725000D02*
X-27225000Y-7250000D01*
X14100000Y-7175000D02*
X9450000Y-7175000D01*
D69*
X4925068Y-17460000D02*
X4274932Y-17460000D01*
D67*
X-27750000Y-5812500D02*
X-27750000Y-6725000D01*
X27225000Y-7225000D02*
X22775000Y-7225000D01*
D69*
%TO.N,/OUT3*%
X-23250000Y-4625000D02*
X-21900000Y-3275000D01*
D67*
X-29162500Y-10225000D02*
X-28025000Y-10225000D01*
D69*
X-23250000Y-5812500D02*
X-23250000Y-4625000D01*
%TO.N,/IN1*%
X5700000Y-8275000D02*
X5700000Y-1795000D01*
X7537500Y-10225000D02*
X6725000Y-10225000D01*
X6725000Y-10225000D02*
X6525000Y-10025000D01*
D67*
X13071248Y-2950000D02*
X8055000Y-2950000D01*
D69*
X5700000Y-1795000D02*
X6300000Y-1195000D01*
X6525000Y-9100000D02*
X5700000Y-8275000D01*
D67*
X8055000Y-2950000D02*
X6300000Y-1195000D01*
X13635624Y-3514376D02*
X13071248Y-2950000D01*
D69*
X6525000Y-10025000D02*
X6525000Y-9100000D01*
D67*
%TO.N,/OUT1*%
X13450000Y-4675000D02*
X14300000Y-3825000D01*
X14300000Y-3825000D02*
X14300000Y-3375000D01*
X13450000Y-5812500D02*
X13450000Y-4675000D01*
X7575000Y70000D02*
X6300000Y1345000D01*
X13450000Y-2525000D02*
X8275000Y-2525000D01*
X8275000Y-2525000D02*
X7575000Y-1825000D01*
X14300000Y-3375000D02*
X13450000Y-2525000D01*
X7575000Y-1825000D02*
X7575000Y70000D01*
%TO.N,/IN2*%
X-10450000Y-5812500D02*
X-10450000Y-4600000D01*
%TO.N,/OUT2*%
X-9950000Y-3950000D02*
X-9950000Y-5812500D01*
D69*
%TO.N,/IN3*%
X19926728Y-10225000D02*
X20837500Y-10225000D01*
D66*
X-23039376Y-3539376D02*
X-22625000Y-3125000D01*
X-22625000Y-3125000D02*
X-22625000Y-2180000D01*
D69*
X18337696Y-7537696D02*
X19825000Y-9025000D01*
D66*
X-22625000Y-2180000D02*
X-21640000Y-1195000D01*
D69*
X19825000Y-9025000D02*
X19825000Y-10123272D01*
X19825000Y-10123272D02*
X19926728Y-10225000D01*
D67*
%TO.N,/IN0*%
X-20318995Y2666005D02*
X25058995Y2666005D01*
X-21640000Y1345000D02*
X-20318995Y2666005D01*
X26250000Y1475000D02*
X26250000Y-5812500D01*
X25058995Y2666005D02*
X26250000Y1475000D01*
%TO.N,/OUT0*%
X26750000Y-5812500D02*
X26750000Y1500678D01*
X26750000Y1500678D02*
X25475678Y2775000D01*
X25409995Y2811394D02*
X25204384Y3017005D01*
X-22507995Y3017005D02*
X-24180000Y1345000D01*
X25204384Y3017005D02*
X-22507995Y3017005D01*
X25409995Y2811394D02*
X25409995Y2811393D01*
X25475678Y2775000D02*
X25446388Y2775000D01*
X25446388Y2775000D02*
X25409995Y2811394D01*
%TO.N,/LR*%
X-13950000Y-6675000D02*
X-13950000Y-5812500D01*
X9450000Y-5812500D02*
X9450000Y-4600000D01*
X27250000Y-6700000D02*
X27075000Y-6875000D01*
X27075000Y-6875000D02*
X22950000Y-6875000D01*
X21949264Y-3700000D02*
X15050000Y-3700000D01*
X-9450000Y-5812500D02*
X-9450000Y-6675000D01*
X-22750000Y-4845000D02*
X-19100000Y-1195000D01*
X-22750000Y-6725955D02*
X-22750000Y-5812500D01*
X-27250000Y-5812500D02*
X-27250000Y-6725000D01*
X-19100000Y-1195000D02*
X-17970000Y-2325000D01*
X-27075000Y-6900000D02*
X-22924045Y-6900000D01*
X-17970000Y-2325000D02*
X-16475000Y-2325000D01*
X9450000Y-6675000D02*
X9450000Y-5812500D01*
X9600000Y-6825000D02*
X9450000Y-6675000D01*
X13950000Y-4800000D02*
X13950000Y-5812500D01*
X-9675000Y-6900000D02*
X-13725000Y-6900000D01*
X-13725000Y-6900000D02*
X-13950000Y-6675000D01*
X-16475000Y-2325000D02*
X-13950000Y-4850000D01*
X22750000Y-5812500D02*
X22750000Y-4500736D01*
X22750000Y-6675000D02*
X22750000Y-5812500D01*
X-9450000Y-6675000D02*
X-9675000Y-6900000D01*
X22950000Y-6875000D02*
X22750000Y-6675000D01*
X-22750000Y-5812500D02*
X-22750000Y-4845000D01*
X27250000Y-5812500D02*
X27250000Y-6700000D01*
X-22924045Y-6900000D02*
X-22750000Y-6725955D01*
X-9450000Y-5812500D02*
X-9450000Y-4600000D01*
X13825000Y-6825000D02*
X9600000Y-6825000D01*
X22750000Y-4500736D02*
X21949264Y-3700000D01*
X-13950000Y-4850000D02*
X-13950000Y-5812500D01*
X15050000Y-3700000D02*
X13950000Y-4800000D01*
X13950000Y-5812500D02*
X13950000Y-6700000D01*
X13950000Y-6700000D02*
X13825000Y-6825000D01*
X-27250000Y-6725000D02*
X-27075000Y-6900000D01*
%TO.N,/M3A*%
X27062500Y-19000000D02*
X28425000Y-19000000D01*
D69*
X28137500Y-11850000D02*
X28125000Y-11850000D01*
X28262500Y-11725000D02*
X28137500Y-11850000D01*
D67*
X22850000Y-19000000D02*
X27062500Y-19000000D01*
D69*
X29150000Y-11725000D02*
X28262500Y-11725000D01*
D66*
X29000000Y-24850000D02*
X27837499Y-24850000D01*
%TO.N,/SLA*%
X29012500Y-22900000D02*
X27825000Y-22900000D01*
D69*
%TO.N,/FBA*%
X24828248Y-20950000D02*
X23300000Y-20950000D01*
D66*
X25997499Y-29037500D02*
X26000000Y-29034999D01*
X26000000Y-29034999D02*
X27050000Y-29034999D01*
X24699999Y-29037500D02*
X25997499Y-29037500D01*
%TO.N,/SRA*%
X29025000Y-21600000D02*
X29975000Y-21600000D01*
X29800000Y-19150000D02*
X29800000Y-18284999D01*
X28687500Y-18217500D02*
X29632501Y-18217500D01*
X27087500Y-18000000D02*
X28470000Y-18000000D01*
X30200000Y-19550000D02*
X29800000Y-19150000D01*
X28470000Y-18000000D02*
X28687500Y-18217500D01*
X29975000Y-21600000D02*
X30200000Y-21375000D01*
X30200000Y-21375000D02*
X30200000Y-19550000D01*
X27075000Y-17987500D02*
X27087500Y-18000000D01*
%TO.N,/CTLA*%
X22100000Y-22425000D02*
X21450000Y-22425000D01*
X23300000Y-22250000D02*
X22275000Y-22250000D01*
X22275000Y-22250000D02*
X22100000Y-22425000D01*
D69*
%TO.N,Net-(D12-A)*%
X19550000Y-4665001D02*
X20575001Y-4665001D01*
X19550000Y-4675000D02*
X19574999Y-4699999D01*
%TO.N,/~{WIEN}*%
X-26625000Y-41900000D02*
X-26625000Y-41125000D01*
%TO.N,Net-(J1-ID_SD{slash}GPIO0)*%
X100000Y-5700000D02*
X-1315000Y-5700000D01*
D67*
X-1650000Y-4800000D02*
X-5335000Y-4800000D01*
X-5335000Y-4800000D02*
X-8940000Y-1195000D01*
X-1315000Y-5135000D02*
X-1650000Y-4800000D01*
X-1315000Y-5700000D02*
X-1315000Y-5135000D01*
%TO.N,Net-(J1-ID_SC{slash}GPIO1)*%
X-1315000Y-3285000D02*
X-1550000Y-3050000D01*
X-1315000Y-3800000D02*
X-1315000Y-3285000D01*
X-7675000Y80000D02*
X-8940000Y1345000D01*
X-7675000Y-1925000D02*
X-7675000Y80000D01*
D69*
X100000Y-3800000D02*
X-1315000Y-3800000D01*
D67*
X-1550000Y-3050000D02*
X-6550000Y-3050000D01*
X-6550000Y-3050000D02*
X-7675000Y-1925000D01*
D66*
%TO.N,Net-(U5-A)*%
X-28150000Y-41350000D02*
X-26975000Y-42525000D01*
X-26965000Y-43080001D02*
X-26975000Y-43090001D01*
X-28150000Y-40925000D02*
X-28150000Y-41350000D01*
X-25975000Y-43080001D02*
X-26965000Y-43080001D01*
X-26975000Y-42525000D02*
X-26975000Y-43090001D01*
D69*
%TO.N,Net-(U3-WP)*%
X3790001Y-3800000D02*
X3790001Y-4565001D01*
X3790001Y-4565001D02*
X4375000Y-5150000D01*
X2375000Y-3800000D02*
X3790001Y-3800000D01*
D67*
%TO.N,Net-(T1-OUT2A)*%
X12775000Y-38484642D02*
X12690358Y-38400000D01*
X12775000Y-39445000D02*
X12775000Y-38484642D01*
%TO.N,Net-(C11-Pad2)*%
X19320000Y-38495000D02*
X19415000Y-38400000D01*
X18425000Y-38495000D02*
X19320000Y-38495000D01*
D69*
%TO.N,Net-(T2-OUT1B)*%
X1175000Y-38571072D02*
X1321072Y-38425000D01*
X1175000Y-39470000D02*
X1175000Y-38571072D01*
%TO.N,Net-(T2-OUT2A)*%
X475000Y-39470000D02*
X475000Y-38538928D01*
X475000Y-38538928D02*
X361072Y-38425000D01*
D67*
%TO.N,Net-(C21-Pad2)*%
X6970000Y-38495000D02*
X7040000Y-38425000D01*
X6075000Y-38495000D02*
X6970000Y-38495000D01*
%TO.N,Net-(T6-OUT2A)*%
X6090000Y-39470000D02*
X6075000Y-39455000D01*
X7019285Y-39470000D02*
X6090000Y-39470000D01*
%TO.N,Net-(T3-OUT2A)*%
X-11736786Y-38493214D02*
X-11805000Y-38425000D01*
X-11736786Y-39470000D02*
X-11736786Y-38493214D01*
%TO.N,Net-(T3-OUT1B)*%
X-11036786Y-38616786D02*
X-10845000Y-38425000D01*
X-11036786Y-39470000D02*
X-11036786Y-38616786D01*
D69*
%TO.N,Net-(C31-Pad2)*%
X-5330000Y-38495000D02*
X-5260000Y-38425000D01*
X-6225000Y-38495000D02*
X-5330000Y-38495000D01*
%TO.N,Net-(T7-OUT2A)*%
X-6210000Y-39470000D02*
X-6225000Y-39455000D01*
X-5275000Y-39470000D02*
X-6210000Y-39470000D01*
D67*
%TO.N,Net-(T4-OUT1B)*%
X-23200000Y-39470000D02*
X-23200000Y-38605000D01*
X-23200000Y-38605000D02*
X-23020000Y-38425000D01*
%TO.N,Net-(T4-OUT2A)*%
X-23900000Y-38505000D02*
X-23980000Y-38425000D01*
X-23900000Y-39470000D02*
X-23900000Y-38505000D01*
%TO.N,Net-(C41-Pad2)*%
X-17405000Y-38500000D02*
X-17335000Y-38430000D01*
X-18300000Y-38500000D02*
X-17405000Y-38500000D01*
%TO.N,Net-(T8-OUT2A)*%
X-18285000Y-39475000D02*
X-18300000Y-39460000D01*
X-17350000Y-39475000D02*
X-18285000Y-39475000D01*
D66*
%TO.N,Net-(U52-G)*%
X20475000Y-21350000D02*
X19550000Y-20425000D01*
X20475000Y-23025000D02*
X20475000Y-21350000D01*
X19675000Y-23825000D02*
X20475000Y-23025000D01*
%TO.N,Net-(C55-Pad1)*%
X19245000Y-17725000D02*
X19245000Y-18720000D01*
X19245000Y-16725000D02*
X19245000Y-15729999D01*
X19245000Y-16725000D02*
X19245000Y-17725000D01*
X19245000Y-15729999D02*
X19240001Y-15725000D01*
X19245000Y-18720000D02*
X19215000Y-18750000D01*
%TO.N,Net-(U53A--)*%
X21550000Y-17487500D02*
X21315001Y-17722499D01*
X22837500Y-17487500D02*
X21550000Y-17487500D01*
X21315001Y-17722499D02*
X20214999Y-17722499D01*
%TO.N,Net-(C59-Pad1)*%
X27062500Y-17500000D02*
X28545000Y-17500000D01*
X28804999Y-17240001D02*
X28775000Y-17270000D01*
X29800000Y-17240001D02*
X28804999Y-17240001D01*
D67*
X29800000Y-26075000D02*
X29225000Y-26650000D01*
X29225000Y-26650000D02*
X29225000Y-34690001D01*
D66*
X28545000Y-17500000D02*
X28817499Y-17227501D01*
%TO.N,Net-(U63A--)*%
X9512500Y-17500000D02*
X8200000Y-17500000D01*
X6889999Y-17734999D02*
X6880000Y-17725000D01*
X8200000Y-17500000D02*
X7965001Y-17734999D01*
X7900000Y-17734999D02*
X6889999Y-17734999D01*
X7965001Y-17734999D02*
X7900000Y-17734999D01*
%TO.N,Net-(U62-G)*%
X6975000Y-23275000D02*
X6975000Y-21200000D01*
X6975000Y-21200000D02*
X6200000Y-20425000D01*
X6425000Y-23825000D02*
X6975000Y-23275000D01*
%TO.N,Net-(U73A--)*%
X-15500000Y-17759999D02*
X-15525000Y-17734999D01*
X-13900000Y-17500000D02*
X-15150000Y-17500000D01*
X-15525000Y-17734999D02*
X-16522501Y-17734999D01*
X-15409999Y-17759999D02*
X-15500000Y-17759999D01*
X-15150000Y-17500000D02*
X-15409999Y-17759999D01*
X-16522501Y-17734999D02*
X-16532500Y-17725000D01*
%TO.N,Net-(U72-G)*%
X-16225000Y-21325000D02*
X-16225000Y-23100000D01*
X-17112500Y-20437500D02*
X-16225000Y-21325000D01*
X-17112500Y-20400000D02*
X-17112500Y-20437500D01*
X-16225000Y-23100000D02*
X-16950000Y-23825000D01*
%TO.N,Net-(U83A--)*%
X-28775000Y-17734999D02*
X-29785001Y-17734999D01*
X-27162500Y-17500000D02*
X-28450000Y-17500000D01*
X-28684999Y-17734999D02*
X-28775000Y-17734999D01*
X-29785001Y-17734999D02*
X-29795000Y-17725000D01*
X-28450000Y-17500000D02*
X-28684999Y-17734999D01*
%TO.N,Net-(U82-G)*%
X-30362500Y-20425000D02*
X-30362500Y-20462500D01*
X-29475000Y-23125000D02*
X-30200000Y-23850000D01*
X-29475000Y-21350000D02*
X-29475000Y-23125000D01*
X-30362500Y-20462500D02*
X-29475000Y-21350000D01*
D67*
%TO.N,Net-(D22-A)*%
X6275000Y-4690001D02*
X7275001Y-4690001D01*
X7275001Y-4690001D02*
X7300000Y-4715000D01*
D69*
%TO.N,Net-(D32-A)*%
X-17000000Y-4665001D02*
X-16024999Y-4665001D01*
X-16024999Y-4665001D02*
X-16000000Y-4690000D01*
%TO.N,Net-(D42-A)*%
X-30325000Y-4665001D02*
X-29324999Y-4665001D01*
X-29324999Y-4665001D02*
X-29300000Y-4690000D01*
D66*
%TO.N,Net-(L50-Pad4)*%
X29225000Y-35709999D02*
X27809999Y-35709999D01*
X27809999Y-35709999D02*
X27800000Y-35700000D01*
D67*
%TO.N,Net-(L60-Pad4)*%
X15975000Y-35684999D02*
X14515001Y-35684999D01*
D69*
X14515001Y-35684999D02*
X14500000Y-35700000D01*
D66*
%TO.N,Net-(L70-Pad4)*%
X-7409999Y-35700000D02*
X-7400000Y-35709999D01*
X-8900000Y-35700000D02*
X-7409999Y-35700000D01*
D70*
%TO.N,Net-(U71-SW)*%
X-16137501Y-29187501D02*
X-16000000Y-29050000D01*
D66*
%TO.N,Net-(L80-Pad4)*%
X-22200000Y-35700000D02*
X-20790001Y-35700000D01*
X-20790001Y-35700000D02*
X-20775000Y-35684999D01*
D70*
%TO.N,Net-(U81-SW)*%
X-29362500Y-29200001D02*
X-29224999Y-29062500D01*
D67*
%TO.N,Net-(T6-OUT1B)*%
X7719285Y-38765715D02*
X8060000Y-38425000D01*
X7719285Y-39470000D02*
X7719285Y-38765715D01*
D69*
%TO.N,Net-(T7-OUT1B)*%
X-4575000Y-39470000D02*
X-4575000Y-38760000D01*
X-4575000Y-38760000D02*
X-4240000Y-38425000D01*
D67*
%TO.N,Net-(T8-OUT1B)*%
X-16650000Y-38765000D02*
X-16315000Y-38430000D01*
X-16650000Y-39475000D02*
X-16650000Y-38765000D01*
%TO.N,Net-(T6-OUT2B)*%
X11325000Y-39425000D02*
X10270000Y-39425000D01*
D69*
X14725000Y-9725000D02*
X14625000Y-9825000D01*
D67*
X15862500Y-9725000D02*
X14725000Y-9725000D01*
%TO.N,Net-(T6-OUT1A)*%
X15862500Y-9225000D02*
X14675003Y-9225000D01*
X11325000Y-40075000D02*
X10270000Y-40075000D01*
D69*
X14675003Y-9225000D02*
X14625000Y-9174997D01*
%TO.N,Net-(T7-OUT1A)*%
X-8737497Y-9225000D02*
X-8787500Y-9174997D01*
X-7550000Y-9225000D02*
X-8737497Y-9225000D01*
X-1000000Y-40075000D02*
X-2055000Y-40075000D01*
%TO.N,Net-(T7-OUT2B)*%
X-8687500Y-9725000D02*
X-8787500Y-9825000D01*
X-7550000Y-9725000D02*
X-8687500Y-9725000D01*
X-1000000Y-39425000D02*
X-2055000Y-39425000D01*
%TO.N,Net-(T8-OUT1A)*%
X-22012497Y-9225000D02*
X-22062500Y-9174997D01*
D67*
X-13050000Y-40075000D02*
X-14105000Y-40075000D01*
D69*
X-20825000Y-9225000D02*
X-22012497Y-9225000D01*
%TO.N,Net-(T8-OUT2B)*%
X-21962500Y-9725000D02*
X-22062500Y-9825000D01*
X-20825000Y-9725000D02*
X-21962500Y-9725000D01*
D67*
X-13050000Y-39425000D02*
X-14105000Y-39425000D01*
%TO.N,Net-(U20-~{LOCK})*%
X7537500Y-12225000D02*
X8450000Y-12225000D01*
X9212500Y-11462500D02*
X9212500Y-7525000D01*
X8450000Y-12225000D02*
X9212500Y-11462500D01*
X7372499Y-5684999D02*
X7300000Y-5684999D01*
X9212500Y-7525000D02*
X7372499Y-5684999D01*
D69*
%TO.N,Net-(U20-MUTE)*%
X9800000Y-15100000D02*
X9425000Y-15100000D01*
X9425000Y-15100000D02*
X7800000Y-15100000D01*
X9925000Y-14137500D02*
X9925000Y-14975000D01*
X9425000Y-14137500D02*
X9425000Y-15100000D01*
X7800000Y-15100000D02*
X6875000Y-14175000D01*
X9925000Y-14975000D02*
X9800000Y-15100000D01*
D67*
%TO.N,Net-(U30-~{LOCK})*%
X-14848376Y-6726624D02*
X-15915001Y-5659999D01*
X-14996752Y-12225000D02*
X-14848376Y-12076624D01*
X-15915001Y-5659999D02*
X-15975000Y-5659999D01*
X-14848376Y-12076624D02*
X-14848376Y-6726624D01*
X-15862500Y-12225000D02*
X-14996752Y-12225000D01*
%TO.N,Net-(U30-MUTE)*%
X-13950000Y-14137500D02*
X-13950000Y-15125000D01*
X-13450000Y-14137500D02*
X-13450000Y-14950000D01*
X-13450000Y-14950000D02*
X-13625000Y-15125000D01*
X-15650000Y-15125000D02*
X-16550000Y-14225000D01*
X-13625000Y-15125000D02*
X-13950000Y-15125000D01*
X-13950000Y-15125000D02*
X-15650000Y-15125000D01*
%TO.N,Net-(U40-~{LOCK})*%
X-28101000Y-6870389D02*
X-28101000Y-6870388D01*
X-27576000Y-7395389D02*
X-27576000Y-7395388D01*
X-28150000Y-12225000D02*
X-27525000Y-11600000D01*
X-27525000Y-7446389D02*
X-27576000Y-7395389D01*
X-29162500Y-12225000D02*
X-28150000Y-12225000D01*
X-28101000Y-6870388D02*
X-28101000Y-6799000D01*
X-27895388Y-7076000D02*
X-27895389Y-7076000D01*
X-28101000Y-6799000D02*
X-29240001Y-5659999D01*
X-29240001Y-5659999D02*
X-29300000Y-5659999D01*
X-27895389Y-7076000D02*
X-28101000Y-6870389D01*
X-27525000Y-7446389D02*
X-27525000Y-7446388D01*
X-27525000Y-11600000D02*
X-27525000Y-7446389D01*
X-27576000Y-7395388D02*
X-27895388Y-7076000D01*
%TO.N,Net-(U40-MUTE)*%
X-26900000Y-15125000D02*
X-27275000Y-15125000D01*
X-27250000Y-14137500D02*
X-27250000Y-15100000D01*
X-27250000Y-15100000D02*
X-27275000Y-15125000D01*
X-27275000Y-15125000D02*
X-28850000Y-15125000D01*
X-26750000Y-14975000D02*
X-26900000Y-15125000D01*
X-26750000Y-14137500D02*
X-26750000Y-14975000D01*
X-28850000Y-15125000D02*
X-29800000Y-14175000D01*
D66*
%TO.N,Net-(C50-Pad1)*%
X21225000Y-16702501D02*
X21225000Y-16687500D01*
X21225000Y-16702501D02*
X20239999Y-16702501D01*
X21225000Y-16687500D02*
X21225000Y-15772499D01*
X21562500Y-16987500D02*
X21277501Y-16702501D01*
X21277501Y-16702501D02*
X21225000Y-16702501D01*
X22837500Y-16987500D02*
X21562500Y-16987500D01*
%TO.N,Net-(C50-Pad2)*%
X28075000Y-29975000D02*
X28075000Y-30720000D01*
X28075000Y-30720000D02*
X27500000Y-31295000D01*
X27500000Y-31295000D02*
X27075000Y-31295000D01*
D70*
%TO.N,Net-(D52-A1)*%
X25150000Y-27825000D02*
X25340001Y-28015001D01*
X26000000Y-27000000D02*
X26225000Y-26775000D01*
D66*
X19050000Y-31090000D02*
X20340000Y-31090000D01*
D70*
X23750000Y-27625000D02*
X23950000Y-27825000D01*
X26000000Y-28015001D02*
X26000000Y-27000000D01*
X22800000Y-31900000D02*
X22450000Y-31550000D01*
D66*
X20340000Y-31090000D02*
X20800000Y-31550000D01*
D70*
X25340001Y-28015001D02*
X26000000Y-28015001D01*
X22450000Y-31550000D02*
X20800000Y-31550000D01*
X23750000Y-26762500D02*
X23750000Y-27625000D01*
X23950000Y-27825000D02*
X25150000Y-27825000D01*
D66*
%TO.N,Net-(C60-Pad2)*%
X14850000Y-29975000D02*
X14850000Y-30720000D01*
X14275000Y-31295000D02*
X13850000Y-31295000D01*
X14850000Y-30720000D02*
X14275000Y-31295000D01*
%TO.N,Net-(C60-Pad1)*%
X7900000Y-16700000D02*
X7900000Y-15784999D01*
X8184999Y-17000000D02*
X7900000Y-16715001D01*
X7900000Y-16715001D02*
X7900000Y-16700000D01*
X9512500Y-17000000D02*
X8184999Y-17000000D01*
X6914999Y-16715001D02*
X6905000Y-16725000D01*
X7900000Y-16715001D02*
X6914999Y-16715001D01*
%TO.N,Net-(D62-A1)*%
X6290000Y-31090000D02*
X5775000Y-31090000D01*
X7500000Y-31550000D02*
X6750000Y-31550000D01*
D70*
X10500000Y-27675000D02*
X10700000Y-27875000D01*
X7500000Y-31550000D02*
X9150000Y-31550000D01*
X11940001Y-28015001D02*
X12800000Y-28015001D01*
X10700000Y-27875000D02*
X11800000Y-27875000D01*
X12800000Y-27000000D02*
X13025000Y-26775000D01*
X10500000Y-26762500D02*
X10500000Y-27675000D01*
D66*
X6750000Y-31550000D02*
X6290000Y-31090000D01*
D70*
X12800000Y-28015001D02*
X12800000Y-27000000D01*
X11800000Y-27875000D02*
X11940001Y-28015001D01*
X9150000Y-31550000D02*
X9500000Y-31900000D01*
D66*
%TO.N,Net-(C65-Pad1)*%
X5945000Y-18785000D02*
X5930000Y-18800000D01*
X5915001Y-15700000D02*
X5945000Y-15729999D01*
X5945000Y-15729999D02*
X5945000Y-18785000D01*
D67*
%TO.N,Net-(C69-Pad1)*%
X15975000Y-26750000D02*
X16375000Y-26350000D01*
D66*
X13750000Y-17500000D02*
X15145000Y-17500000D01*
X15379999Y-17265001D02*
X16375000Y-17265001D01*
D67*
X15975000Y-34665001D02*
X15975000Y-26750000D01*
D66*
X15145000Y-17500000D02*
X15379999Y-17265001D01*
D67*
%TO.N,/SRB*%
X15887500Y-21625000D02*
X16825000Y-21625000D01*
D66*
X13750000Y-18000000D02*
X15132500Y-18000000D01*
X16307501Y-18230000D02*
X16337500Y-18259999D01*
D67*
X16400000Y-19162500D02*
X16400000Y-18297499D01*
X16975000Y-21475000D02*
X16975000Y-19737500D01*
X16975000Y-19737500D02*
X16400000Y-19162500D01*
X16825000Y-21625000D02*
X16975000Y-21475000D01*
X16400000Y-18297499D02*
X16362500Y-18259999D01*
D66*
X15362500Y-18230000D02*
X16307501Y-18230000D01*
X15132500Y-18000000D02*
X15362500Y-18230000D01*
%TO.N,Net-(C70-Pad1)*%
X-15175000Y-17000000D02*
X-15459999Y-16715001D01*
X-13900000Y-17000000D02*
X-15175000Y-17000000D01*
X-15512500Y-15784999D02*
X-15597499Y-15700000D01*
X-15512500Y-16715001D02*
X-15512500Y-15784999D01*
X-15500000Y-16715001D02*
X-15512500Y-16715001D01*
X-15512500Y-16715001D02*
X-16497501Y-16715001D01*
X-15459999Y-16715001D02*
X-15500000Y-16715001D01*
X-16497501Y-16715001D02*
X-16507500Y-16725000D01*
%TO.N,Net-(C70-Pad2)*%
X-8500000Y-29980000D02*
X-8500000Y-30725000D01*
X-8500000Y-30725000D02*
X-9075000Y-31300000D01*
X-9075000Y-31300000D02*
X-9500000Y-31300000D01*
%TO.N,Net-(D72-A1)*%
X-15900000Y-31550000D02*
X-16650000Y-31550000D01*
D70*
X-14250000Y-31550000D02*
X-13900000Y-31900000D01*
X-11595001Y-27862500D02*
X-10955000Y-28502501D01*
X-10350001Y-28277501D02*
X-10350001Y-27287500D01*
X-15900000Y-31550000D02*
X-14250000Y-31550000D01*
X-12837501Y-27625000D02*
X-12600001Y-27862500D01*
D66*
X-17110000Y-31090000D02*
X-17625000Y-31090000D01*
D70*
X-10955000Y-28502501D02*
X-10575001Y-28502501D01*
D66*
X-16650000Y-31550000D02*
X-17110000Y-31090000D01*
D70*
X-12837501Y-26775000D02*
X-12837501Y-27625000D01*
X-10575001Y-28502501D02*
X-10350001Y-28277501D01*
X-12600001Y-27862500D02*
X-11595001Y-27862500D01*
D66*
%TO.N,Net-(C75-Pad1)*%
X-17472499Y-17745001D02*
X-17492500Y-17725000D01*
X-17467500Y-16725000D02*
X-17467500Y-17700000D01*
X-17472499Y-18725000D02*
X-17472499Y-17745001D01*
X-17467500Y-16725000D02*
X-17467500Y-15729999D01*
X-17467500Y-17700000D02*
X-17492500Y-17725000D01*
X-17467500Y-15729999D02*
X-17497499Y-15700000D01*
%TO.N,/SRC*%
X-7117499Y-18230000D02*
X-7087500Y-18259999D01*
X-6450000Y-21475000D02*
X-6450000Y-19737500D01*
X-9675000Y-18000000D02*
X-8292500Y-18000000D01*
X-7537500Y-21625000D02*
X-6600000Y-21625000D01*
X-8062500Y-18230000D02*
X-7117499Y-18230000D01*
X-7025000Y-18297499D02*
X-7062500Y-18259999D01*
X-6450000Y-19737500D02*
X-7025000Y-19162500D01*
X-7025000Y-19162500D02*
X-7025000Y-18297499D01*
X-8292500Y-18000000D02*
X-8062500Y-18230000D01*
X-6600000Y-21625000D02*
X-6450000Y-21475000D01*
%TO.N,Net-(C79-Pad1)*%
X-9675000Y-17500000D02*
X-8280000Y-17500000D01*
X-8280000Y-17500000D02*
X-8045001Y-17265001D01*
D69*
X-7400000Y-27225000D02*
X-7400000Y-34665001D01*
D66*
X-8045001Y-17265001D02*
X-7025000Y-17265001D01*
%TO.N,Net-(C80-Pad1)*%
X-28775000Y-16715001D02*
X-29760001Y-16715001D01*
X-28775000Y-15784999D02*
X-28859999Y-15700000D01*
X-28775000Y-16715001D02*
X-28775000Y-16700000D01*
X-28775000Y-16700000D02*
X-28775000Y-15784999D01*
X-29760001Y-16715001D02*
X-29770000Y-16725000D01*
X-28734999Y-16715001D02*
X-28775000Y-16715001D01*
X-28450000Y-17000000D02*
X-28734999Y-16715001D01*
X-27162500Y-17000000D02*
X-28450000Y-17000000D01*
%TO.N,Net-(C80-Pad2)*%
X-22350000Y-31295000D02*
X-22775000Y-31295000D01*
X-21775000Y-29975000D02*
X-21775000Y-30720000D01*
X-21775000Y-30720000D02*
X-22350000Y-31295000D01*
D70*
%TO.N,Net-(D82-A1)*%
X-23800000Y-28515001D02*
X-23575000Y-28290001D01*
X-26062500Y-27637500D02*
X-25825000Y-27875000D01*
X-29175000Y-31500000D02*
X-27600000Y-31500000D01*
X-25825000Y-27875000D02*
X-24855527Y-27875000D01*
X-24230527Y-28500000D02*
X-24225000Y-28500000D01*
X-26062500Y-26787500D02*
X-26062500Y-27637500D01*
X-23575000Y-28290001D02*
X-23575000Y-27300000D01*
X-24225000Y-28500000D02*
X-24209999Y-28515001D01*
D66*
X-30900000Y-31057499D02*
X-30467501Y-31057499D01*
D70*
X-27600000Y-31500000D02*
X-27200000Y-31900000D01*
D66*
X-30467501Y-31057499D02*
X-30025000Y-31500000D01*
D70*
X-24209999Y-28515001D02*
X-23800000Y-28515001D01*
D66*
X-30025000Y-31500000D02*
X-29175000Y-31500000D01*
D70*
X-24855527Y-27875000D02*
X-24230527Y-28500000D01*
D66*
%TO.N,Net-(C85-Pad1)*%
X-30730000Y-17700000D02*
X-30755000Y-17725000D01*
X-30730000Y-16725000D02*
X-30730000Y-15729999D01*
X-30730000Y-15729999D02*
X-30759999Y-15700000D01*
X-30730000Y-16725000D02*
X-30730000Y-17700000D01*
X-30734999Y-18725000D02*
X-30734999Y-17745001D01*
X-30734999Y-17745001D02*
X-30755000Y-17725000D01*
D67*
%TO.N,Net-(C89-Pad1)*%
X-20775000Y-34665001D02*
X-20775000Y-26375000D01*
D66*
X-22937500Y-17500000D02*
X-21555000Y-17500000D01*
X-20379999Y-17270000D02*
X-20350000Y-17240001D01*
X-21325000Y-17270000D02*
X-20379999Y-17270000D01*
X-21555000Y-17500000D02*
X-21325000Y-17270000D01*
%TO.N,/SRD*%
X-20379999Y-18230000D02*
X-20350000Y-18259999D01*
X-21555000Y-18000000D02*
X-21325000Y-18230000D01*
X-19700000Y-21500000D02*
X-19700000Y-19750000D01*
X-20325000Y-19125000D02*
X-20325000Y-18259999D01*
X-19700000Y-19750000D02*
X-20325000Y-19125000D01*
X-21325000Y-18230000D02*
X-20379999Y-18230000D01*
X-20787500Y-21650000D02*
X-19850000Y-21650000D01*
X-19850000Y-21650000D02*
X-19700000Y-21500000D01*
X-22937500Y-18000000D02*
X-21555000Y-18000000D01*
%TO.N,Net-(D53-A)*%
X19050000Y-32060000D02*
X19050000Y-33040001D01*
%TO.N,Net-(D54-A)*%
X19050000Y-34059999D02*
X19050000Y-35040000D01*
%TO.N,Net-(D63-A)*%
X5750000Y-33015001D02*
X5750000Y-32060000D01*
%TO.N,Net-(D64-A)*%
X5750000Y-34034999D02*
X5750000Y-35015000D01*
%TO.N,Net-(D73-A)*%
X-17625000Y-32060000D02*
X-17625000Y-33015000D01*
%TO.N,Net-(D74-A)*%
X-17625000Y-34035000D02*
X-17625000Y-34965000D01*
%TO.N,Net-(D83-A)*%
X-30900000Y-32965001D02*
X-30900000Y-32027499D01*
%TO.N,Net-(D84-A)*%
X-30900000Y-33984999D02*
X-30900000Y-34940000D01*
D67*
%TO.N,/PHOB*%
X9940000Y-36140000D02*
X10100000Y-36300000D01*
X4765000Y-42080000D02*
X4765000Y-41385000D01*
X8000000Y-36140000D02*
X9940000Y-36140000D01*
X4765000Y-41385000D02*
X4775000Y-41375000D01*
%TO.N,/PHOC*%
X-15400000Y-36140000D02*
X-13460000Y-36140000D01*
D69*
X-7500000Y-42075000D02*
X-7500000Y-41350000D01*
X-7505000Y-42080000D02*
X-7500000Y-42075000D01*
X-7510000Y-42080000D02*
X-7505000Y-42080000D01*
D67*
X-13460000Y-36140000D02*
X-13300000Y-36300000D01*
D66*
%TO.N,/FBB*%
X11449999Y-29037500D02*
X12797499Y-29037500D01*
D70*
X12797499Y-29037500D02*
X12800000Y-29034999D01*
D66*
X13850000Y-29034999D02*
X12800000Y-29034999D01*
D67*
X10175000Y-20975000D02*
X11375000Y-20975000D01*
%TO.N,/SLB*%
X9075000Y-16425000D02*
X10676000Y-16425000D01*
D66*
X15887500Y-22925000D02*
X14700000Y-22925000D01*
D67*
X8909999Y-16259999D02*
X9075000Y-16425000D01*
X10676000Y-16425000D02*
X11250000Y-16999000D01*
X8909999Y-15700000D02*
X8909999Y-16259999D01*
D66*
%TO.N,/FBC*%
X-11462501Y-29050000D02*
X-11887502Y-29050000D01*
X-10575001Y-29522499D02*
X-10990002Y-29522499D01*
X-10990002Y-29522499D02*
X-11462501Y-29050000D01*
X-9550001Y-29522499D02*
X-9550000Y-29522499D01*
X-9550000Y-29522499D02*
X-10575001Y-29522499D01*
D69*
X-13275000Y-20975000D02*
X-12100000Y-20975000D01*
D67*
%TO.N,/SLC*%
X-10600000Y-21975000D02*
X-10600000Y-20925000D01*
X-7537500Y-22925000D02*
X-9650000Y-22925000D01*
X-9650000Y-22925000D02*
X-10600000Y-21975000D01*
%TO.N,/FBD*%
X-26512500Y-21000000D02*
X-24825000Y-21000000D01*
D66*
X-22775000Y-29534999D02*
X-23800000Y-29534999D01*
X-23800000Y-29534999D02*
X-24215001Y-29534999D01*
X-24687500Y-29062500D02*
X-25112501Y-29062500D01*
X-24215001Y-29534999D02*
X-24687500Y-29062500D01*
%TO.N,/SLD*%
X-20787500Y-22950000D02*
X-21975000Y-22950000D01*
D68*
%TO.N,/MID*%
X2325000Y-27525000D02*
X1325000Y-27525000D01*
D67*
X-27162500Y-18000000D02*
X-24450000Y-18000000D01*
X-24200000Y-18250000D02*
X-23950000Y-18500000D01*
X25550000Y-18000000D02*
X26050000Y-18500000D01*
X-24450000Y-18000000D02*
X-24200000Y-18250000D01*
X5425000Y-23400000D02*
X5425000Y-20025000D01*
X9512500Y-18000000D02*
X12225000Y-18000000D01*
X21950000Y-18000000D02*
X21525000Y-18425000D01*
X7325000Y-19550000D02*
X7975000Y-18900000D01*
X8525000Y-18000000D02*
X9512500Y-18000000D01*
D66*
X-11175000Y-18000000D02*
X-10675000Y-18500000D01*
D67*
X3000000Y-25825000D02*
X5425000Y-23400000D01*
D66*
X-10675000Y-18500000D02*
X-9675000Y-18500000D01*
D67*
X12725000Y-18500000D02*
X13737500Y-18500000D01*
X7975000Y-18900000D02*
X7975000Y-18550000D01*
D68*
X1325000Y-27525000D02*
X1275000Y-27525000D01*
D67*
X22837500Y-18000000D02*
X21950000Y-18000000D01*
X-23950000Y-18500000D02*
X-22937500Y-18500000D01*
X22850000Y-18000000D02*
X25550000Y-18000000D01*
D66*
X-13900000Y-18000000D02*
X-11175000Y-18000000D01*
D67*
X7975000Y-18550000D02*
X8525000Y-18000000D01*
X27050000Y-18500000D02*
X27062500Y-18487500D01*
X12225000Y-18000000D02*
X12725000Y-18500000D01*
X5425000Y-20025000D02*
X5900000Y-19550000D01*
X26050000Y-18500000D02*
X27050000Y-18500000D01*
X5900000Y-19550000D02*
X7325000Y-19550000D01*
D66*
%TO.N,/M3B*%
X14925000Y-19026000D02*
X13763500Y-19026000D01*
D67*
X9512500Y-19000000D02*
X13737500Y-19000000D01*
D69*
X14875000Y-11875000D02*
X15025000Y-11725000D01*
X14925000Y-14090748D02*
X14875000Y-14040748D01*
X14875000Y-14040748D02*
X14875000Y-11875000D01*
D66*
X13763500Y-19026000D02*
X13737500Y-19000000D01*
X13775000Y-19000000D02*
X13737500Y-19000000D01*
D69*
X14925000Y-15100000D02*
X14925000Y-14090748D01*
X15025000Y-11725000D02*
X15850000Y-11725000D01*
D66*
X15875000Y-24875000D02*
X14712499Y-24875000D01*
%TO.N,/CTLB*%
X8250000Y-22275000D02*
X10162500Y-22275000D01*
X8100000Y-22425000D02*
X8250000Y-22275000D01*
D67*
%TO.N,/ENB*%
X11449999Y-25850001D02*
X11675000Y-25625000D01*
X11449999Y-26762500D02*
X11449999Y-25850001D01*
X17025000Y-12225000D02*
X15862500Y-12225000D01*
X17450000Y-24950000D02*
X17450000Y-12650000D01*
X11675000Y-25625000D02*
X16775000Y-25625000D01*
X17450000Y-12650000D02*
X17025000Y-12225000D01*
X16775000Y-25625000D02*
X17450000Y-24950000D01*
D66*
%TO.N,/CTLC*%
X-14300000Y-22400000D02*
X-15212500Y-22400000D01*
X-13262500Y-22275000D02*
X-14175000Y-22275000D01*
X-14175000Y-22275000D02*
X-14300000Y-22400000D01*
D69*
%TO.N,/M3C*%
X-8550000Y-15625000D02*
X-8561815Y-15613185D01*
D66*
X-7925000Y-25250000D02*
X-7925000Y-24950000D01*
D69*
X-8436815Y-11725685D02*
X-7549315Y-11725685D01*
X-8561815Y-15613185D02*
X-8561815Y-11850685D01*
D66*
X-7925000Y-25550000D02*
X-7925000Y-25250000D01*
D69*
X-8561815Y-11850685D02*
X-8436815Y-11725685D01*
D66*
X-7925000Y-24950000D02*
X-7812500Y-24837500D01*
X-8313785Y-18988785D02*
X-8325000Y-19000000D01*
D69*
X-8325000Y-19000000D02*
X-13900000Y-19000000D01*
%TO.N,/ENC*%
X-6074000Y-19581756D02*
X-6425000Y-19230756D01*
X-6425000Y-12475000D02*
X-6675000Y-12225000D01*
X-6075000Y-19582756D02*
X-6074000Y-19581756D01*
X-11900001Y-26737500D02*
X-11387500Y-26737500D01*
X-6675000Y-12225000D02*
X-7537500Y-12225000D01*
X-6425000Y-19230756D02*
X-6425000Y-12475000D01*
X-10750000Y-26100000D02*
X-7525000Y-26100000D01*
X-11387500Y-26737500D02*
X-10750000Y-26100000D01*
X-5650000Y-24225000D02*
X-5650000Y-22650000D01*
X-6075000Y-22225000D02*
X-6075000Y-19582756D01*
X-5650000Y-22650000D02*
X-6075000Y-22225000D01*
X-7525000Y-26100000D02*
X-5650000Y-24225000D01*
D66*
%TO.N,/CTLD*%
X-27600000Y-22300000D02*
X-27725000Y-22425000D01*
X-26512500Y-22300000D02*
X-27600000Y-22300000D01*
X-27725000Y-22425000D02*
X-28462500Y-22425000D01*
D67*
%TO.N,/M3D*%
X-21850000Y-11850000D02*
X-21725000Y-11725000D01*
X-21725000Y-11725000D02*
X-20837500Y-11725000D01*
X-27162500Y-19000000D02*
X-22937500Y-19000000D01*
X-21850000Y-15675000D02*
X-21850000Y-11850000D01*
D69*
X-21675000Y-19000000D02*
X-22937500Y-19000000D01*
X-20800000Y-24900000D02*
X-21962501Y-24900000D01*
D67*
%TO.N,/END*%
X-18950000Y-24800000D02*
X-19700000Y-25550000D01*
X-19700000Y-25550000D02*
X-24750000Y-25550000D01*
X-20837500Y-12225000D02*
X-19775000Y-12225000D01*
X-19475000Y-17700000D02*
X-18950000Y-18225000D01*
X-24750000Y-25550000D02*
X-25112501Y-25912501D01*
X-25112501Y-25912501D02*
X-25112501Y-26787500D01*
X-18950000Y-18225000D02*
X-18950000Y-24800000D01*
X-19475000Y-12525000D02*
X-19475000Y-17700000D01*
X-19775000Y-12225000D02*
X-19475000Y-12525000D01*
%TO.N,Net-(T1-OUT2B)*%
X16745358Y-39425000D02*
X16730358Y-39410000D01*
X19537500Y-7850000D02*
X19537500Y-7875000D01*
X20850000Y-7725000D02*
X20000000Y-7725000D01*
X19850000Y-7875000D02*
X19537500Y-7875000D01*
X20000000Y-7725000D02*
X19850000Y-7875000D01*
X16730358Y-39410000D02*
X16730358Y-38400000D01*
X16770358Y-39400000D02*
X16745358Y-39425000D01*
X17065000Y-39400000D02*
X16770358Y-39400000D01*
%TO.N,Net-(T1-OUT1A)*%
X19850000Y-7050000D02*
X20025000Y-7225000D01*
X16345358Y-40050000D02*
X15710358Y-39415000D01*
X19537500Y-7050000D02*
X19850000Y-7050000D01*
X15710358Y-39415000D02*
X15710358Y-38400000D01*
X20025000Y-7225000D02*
X20850000Y-7225000D01*
X17065000Y-40050000D02*
X16345358Y-40050000D01*
%TO.N,Net-(T2-OUT1A)*%
X3431072Y-39531072D02*
X3431072Y-38425000D01*
X6762500Y-7225000D02*
X7550000Y-7225000D01*
X4765000Y-40075000D02*
X3975000Y-40075000D01*
X6237500Y-7050000D02*
X6587500Y-7050000D01*
X6587500Y-7050000D02*
X6762500Y-7225000D01*
X3975000Y-40075000D02*
X3431072Y-39531072D01*
%TO.N,Net-(T2-OUT2B)*%
X4475000Y-39425000D02*
X4450000Y-39400000D01*
X4765000Y-39425000D02*
X4475000Y-39425000D01*
X4475000Y-39425000D02*
X4451072Y-39401072D01*
X6562500Y-7875000D02*
X6237500Y-7875000D01*
X7550000Y-7725000D02*
X6712500Y-7725000D01*
X4451072Y-39401072D02*
X4451072Y-38425000D01*
X6712500Y-7725000D02*
X6562500Y-7875000D01*
D69*
X6237500Y-7850000D02*
X6237500Y-7875000D01*
%TO.N,Net-(T3-OUT1A)*%
X-8820000Y-39405000D02*
X-8820000Y-38425000D01*
D67*
X-17037497Y-7225000D02*
X-17087500Y-7174997D01*
X-15850000Y-7225000D02*
X-17037497Y-7225000D01*
D69*
X-8150000Y-40075000D02*
X-8820000Y-39405000D01*
X-7446786Y-40075000D02*
X-8150000Y-40075000D01*
%TO.N,Net-(T3-OUT2B)*%
X-7775000Y-39425000D02*
X-7800000Y-39400000D01*
X-7446786Y-39425000D02*
X-7775000Y-39425000D01*
D67*
X-15850000Y-7725000D02*
X-16987500Y-7725000D01*
D69*
X-7800000Y-39400000D02*
X-7800000Y-38425000D01*
D67*
X-16987500Y-7725000D02*
X-17087500Y-7825000D01*
D69*
%TO.N,Net-(T4-OUT2B)*%
X-30287500Y-7725000D02*
X-30387500Y-7825000D01*
D67*
X-19617500Y-39425000D02*
X-19850000Y-39425000D01*
D69*
X-29150000Y-7725000D02*
X-30287500Y-7725000D01*
D67*
X-19850000Y-39425000D02*
X-19965000Y-39310000D01*
X-19965000Y-39310000D02*
X-19965000Y-38425000D01*
D69*
%TO.N,Net-(T4-OUT1A)*%
X-29150000Y-7225000D02*
X-30337497Y-7225000D01*
D67*
X-20985000Y-39465000D02*
X-20985000Y-38425000D01*
X-19617500Y-40075000D02*
X-20375000Y-40075000D01*
D69*
X-30337497Y-7225000D02*
X-30387500Y-7174997D01*
D67*
X-20375000Y-40075000D02*
X-20985000Y-39465000D01*
%TO.N,/AESB*%
X16850000Y-8225000D02*
X17000000Y-8075000D01*
X17000000Y-6175000D02*
X16500000Y-5675000D01*
X17000000Y-8075000D02*
X17000000Y-6175000D01*
X15862500Y-8225000D02*
X16850000Y-8225000D01*
%TO.N,/AESC*%
X-5800000Y-7025000D02*
X-7000000Y-5825000D01*
X-5800000Y-7908521D02*
X-5800000Y-7025000D01*
X-6116479Y-8225000D02*
X-5800000Y-7908521D01*
X-7537500Y-8225000D02*
X-6116479Y-8225000D01*
%TO.N,/~{INTC}*%
X-1675000Y-22250000D02*
X-1475000Y-22450000D01*
X-1750000Y-20875000D02*
X-1750000Y-21575000D01*
D66*
X-9450000Y-14137500D02*
X-9450000Y-15635000D01*
X-9450000Y-15635000D02*
X-9465000Y-15650000D01*
D67*
X-1675000Y-21650000D02*
X-1675000Y-22250000D01*
X-1750000Y-21575000D02*
X-1675000Y-21650000D01*
%TO.N,/AESD*%
X-21875000Y-8037500D02*
X-21875000Y-6850000D01*
X-21875000Y-6850000D02*
X-20500000Y-5475000D01*
X-20837500Y-8225000D02*
X-21687500Y-8225000D01*
X-21687500Y-8225000D02*
X-21875000Y-8037500D01*
%TO.N,/~{INTD}*%
X-1250000Y-21950000D02*
X-1250000Y-20875000D01*
D66*
X-22765000Y-15675000D02*
X-22750000Y-15660000D01*
D67*
X-750000Y-22450000D02*
X-1250000Y-21950000D01*
D66*
X-22750000Y-15660000D02*
X-22750000Y-14137500D01*
D69*
%TO.N,/ACLK*%
X31326000Y-37375322D02*
X31776000Y-37825322D01*
D67*
X-28525000Y-14175000D02*
X-27750000Y-14175000D01*
D69*
X31776000Y-37825322D02*
X31776000Y-40523264D01*
X29700000Y-15000000D02*
X31149000Y-16449000D01*
X29918134Y-41225000D02*
X29600000Y-41543134D01*
X31074264Y-41225000D02*
X29918134Y-41225000D01*
X29600000Y-41543134D02*
X29600000Y-42075000D01*
X31776000Y-40523264D02*
X31699632Y-40599632D01*
X31326000Y-16625322D02*
X31326000Y-37375322D01*
X-3450000Y-20625000D02*
X-3450000Y-20175000D01*
D67*
X-14450000Y-14450000D02*
X-14450000Y-14137500D01*
D69*
X29600000Y-42075000D02*
X29725000Y-42200000D01*
X22250000Y-14137500D02*
X21637500Y-14137500D01*
X29725000Y-42200000D02*
X30700000Y-42200000D01*
X29700000Y-14300000D02*
X29700000Y-15000000D01*
D67*
X-27750000Y-14175000D02*
X-27750000Y-14137500D01*
D69*
X8950000Y-14625000D02*
X8950000Y-14137500D01*
X8325000Y-14625000D02*
X8950000Y-14625000D01*
D67*
X-15075000Y-14450000D02*
X-14450000Y-14450000D01*
D69*
X8393750Y-14693750D02*
X8337500Y-14637500D01*
X31699632Y-40599632D02*
X31074264Y-41225000D01*
X-3325000Y-20750000D02*
X-3450000Y-20625000D01*
X31149000Y-16449000D02*
X31149678Y-16449000D01*
X31149678Y-16449000D02*
X31326000Y-16625322D01*
%TO.N,/RCLK*%
X31225000Y-16100000D02*
X31226356Y-16100000D01*
X20837500Y-12725000D02*
X22025000Y-12725000D01*
X8550000Y-12700000D02*
X8525000Y-12725000D01*
X32125000Y-37750000D02*
X32125000Y-41175000D01*
X32125000Y-41175000D02*
X31600000Y-41700000D01*
X-30586334Y-13138666D02*
X-30172668Y-12725000D01*
X-14675000Y-12725000D02*
X-15856250Y-12725000D01*
X30250000Y-13550000D02*
X30250000Y-15125000D01*
X31600000Y-41700000D02*
X30700000Y-41700000D01*
X31627000Y-16500644D02*
X31627000Y-37252000D01*
X8525000Y-12725000D02*
X7537500Y-12725000D01*
X31627000Y-37252000D02*
X32125000Y-37750000D01*
D67*
X-25325000Y-39225000D02*
X-25325000Y-38275000D01*
D69*
X30250000Y-15125000D02*
X31225000Y-16100000D01*
X-30172668Y-12725000D02*
X-29162500Y-12725000D01*
X8750000Y-12700000D02*
X8550000Y-12700000D01*
X22025000Y-12725000D02*
X22225000Y-12525000D01*
X31226356Y-16100000D02*
X31627000Y-16500644D01*
D67*
%TO.N,Net-(U2-XTO)*%
X25530000Y-40025000D02*
X25525000Y-40030000D01*
X27100000Y-40025000D02*
X25530000Y-40025000D01*
D69*
X26475000Y-41700000D02*
X27100000Y-41700000D01*
D67*
X27100000Y-41700000D02*
X27100000Y-40025000D01*
%TO.N,Net-(U2-XTI{slash}REF_CLK)*%
X28200000Y-39325000D02*
X29200000Y-38325000D01*
X29200000Y-38325000D02*
X29300000Y-38325000D01*
X24610000Y-44275000D02*
X24610000Y-42990000D01*
X29300000Y-38325000D02*
X30870000Y-38325000D01*
X25400000Y-42200000D02*
X26475000Y-42200000D01*
X26475000Y-42200000D02*
X27550000Y-42200000D01*
X27550000Y-42200000D02*
X28200000Y-41550000D01*
X24610000Y-42990000D02*
X25400000Y-42200000D01*
D69*
X30870000Y-38325000D02*
X30875000Y-38320000D01*
D67*
X28200000Y-41550000D02*
X28200000Y-39325000D01*
%TO.N,Net-(D91-A)*%
X2250000Y-23210000D02*
X2250000Y-24172501D01*
%TO.N,Net-(D93-A)*%
X22970000Y-45900000D02*
X22970000Y-45220000D01*
X22689999Y-44275000D02*
X23650000Y-44275000D01*
X23175000Y-46475000D02*
X22970000Y-46270000D01*
X22689999Y-44939999D02*
X22689999Y-44275000D01*
X22970000Y-45220000D02*
X22689999Y-44939999D01*
X24020000Y-46475000D02*
X23175000Y-46475000D01*
X22970000Y-46270000D02*
X22970000Y-45900000D01*
%TO.N,Net-(J93-In)*%
X24975000Y-49565000D02*
X24975000Y-46480000D01*
X24975000Y-46480000D02*
X24980000Y-46475000D01*
D66*
%TO.N,Net-(U10-RX4-)*%
X19470000Y-10725000D02*
X19250000Y-10505000D01*
X20837500Y-10725000D02*
X19470000Y-10725000D01*
%TO.N,Net-(U20-RX4-)*%
X6170000Y-10725000D02*
X5950000Y-10505000D01*
X7537500Y-10725000D02*
X6170000Y-10725000D01*
%TO.N,Net-(U30-RX4-)*%
X-15862500Y-10725000D02*
X-17230000Y-10725000D01*
X-17230000Y-10725000D02*
X-17450000Y-10505000D01*
%TO.N,Net-(U40-RX4-)*%
X-29162500Y-10725000D02*
X-30530000Y-10725000D01*
X-30530000Y-10725000D02*
X-30750000Y-10505000D01*
D69*
%TO.N,Net-(U20-SDOUTA)*%
X12950000Y-4246248D02*
X12939376Y-4235624D01*
X12950000Y-5812500D02*
X12950000Y-4246248D01*
D66*
%TO.N,Net-(U40-SDOUTA)*%
X-23750000Y-5812500D02*
X-23750000Y-4235000D01*
X-23750000Y-4235000D02*
X-23760000Y-4225000D01*
%TO.N,Net-(D94-A)*%
X-24314999Y-43435001D02*
X-25975000Y-41775000D01*
X-25975000Y-41775000D02*
X-25975000Y-41125000D01*
X-24314999Y-43975000D02*
X-24314999Y-43435001D01*
X-24300000Y-45565000D02*
X-24300000Y-43989999D01*
X-24300000Y-43989999D02*
X-24314999Y-43975000D01*
%TO.N,Net-(J94-In)*%
X-24300000Y-46585000D02*
X-23300000Y-46585000D01*
X-24950000Y-47235000D02*
X-24300000Y-46585000D01*
X-23300000Y-46585000D02*
X-22300000Y-46585000D01*
X-24950000Y-49575000D02*
X-24950000Y-47235000D01*
%TO.N,Net-(J98-In)*%
X-25985000Y-44109999D02*
X-25975000Y-44099999D01*
X-27225000Y-44950000D02*
X-26975000Y-44700000D01*
X-26975000Y-44700000D02*
X-26975000Y-44109999D01*
X-26975000Y-44109999D02*
X-25985000Y-44109999D01*
X-30050000Y-44950000D02*
X-27225000Y-44950000D01*
D69*
%TO.N,/PHOD*%
X-26660000Y-36240000D02*
X-26600000Y-36300000D01*
D67*
X-28750000Y-36240000D02*
X-26660000Y-36240000D01*
%TO.N,Net-(U1-PIO0_9)*%
X-2750000Y-20875000D02*
X-2750000Y-21450000D01*
X-3825000Y-24025000D02*
X-3400000Y-24450000D01*
X-2750000Y-21450000D02*
X-2900000Y-21600000D01*
X-2900000Y-21600000D02*
X-3625000Y-21600000D01*
X-4250000Y-23400000D02*
X-3825000Y-23825000D01*
X-4250000Y-22225000D02*
X-4250000Y-23400000D01*
X-3825000Y-23825000D02*
X-3825000Y-24025000D01*
X-3625000Y-21600000D02*
X-4250000Y-22225000D01*
%TO.N,Net-(U1-PIO0_8)*%
X-2250000Y-20875000D02*
X-2250000Y-22220000D01*
%TD*%
%TA.AperFunction,Conductor*%
%TO.N,Net-(U61-SW)*%
G36*
X9811971Y-28177381D02*
G01*
X9852346Y-28185412D01*
X9897043Y-28203927D01*
X9920913Y-28219877D01*
X9926805Y-28225769D01*
X9931537Y-28227829D01*
X9955122Y-28254086D01*
X9971072Y-28277956D01*
X9989588Y-28322655D01*
X9997617Y-28363020D01*
X10000000Y-28387210D01*
X10000000Y-28480357D01*
X9999675Y-28489324D01*
X9999500Y-28491737D01*
X9999500Y-29583265D01*
X9999675Y-29585679D01*
X10000000Y-29594645D01*
X10000000Y-29662789D01*
X9997617Y-29686982D01*
X9989588Y-29727344D01*
X9971072Y-29772043D01*
X9955122Y-29795913D01*
X9920913Y-29830122D01*
X9897043Y-29846072D01*
X9852344Y-29864588D01*
X9835841Y-29867870D01*
X9811978Y-29872617D01*
X9787789Y-29875000D01*
X6012211Y-29875000D01*
X5988020Y-29872617D01*
X5972744Y-29869578D01*
X5947656Y-29864588D01*
X5902956Y-29846072D01*
X5879086Y-29830122D01*
X5844877Y-29795913D01*
X5828927Y-29772043D01*
X5810412Y-29727346D01*
X5802381Y-29686971D01*
X5800000Y-29662789D01*
X5800000Y-28387210D01*
X5802381Y-28363029D01*
X5810412Y-28322651D01*
X5828927Y-28277956D01*
X5844877Y-28254086D01*
X5879086Y-28219877D01*
X5902956Y-28203927D01*
X5947653Y-28185412D01*
X5988027Y-28177381D01*
X6012211Y-28175000D01*
X9787789Y-28175000D01*
X9811971Y-28177381D01*
G37*
%TD.AperFunction*%
%TD*%
%TA.AperFunction,Conductor*%
%TO.N,GNDD*%
G36*
X186971Y-26502381D02*
G01*
X227346Y-26510412D01*
X272043Y-26528927D01*
X295913Y-26544877D01*
X301805Y-26550769D01*
X306537Y-26552829D01*
X330122Y-26579086D01*
X346072Y-26602956D01*
X364588Y-26647655D01*
X372617Y-26688020D01*
X375000Y-26712210D01*
X375000Y-30114158D01*
X374500Y-30124336D01*
X374500Y-30275673D01*
X375000Y-30285841D01*
X375000Y-30572812D01*
X374500Y-30575326D01*
X374500Y-30724674D01*
X375000Y-30727187D01*
X375000Y-31014158D01*
X374500Y-31024336D01*
X374500Y-31175673D01*
X375000Y-31185841D01*
X375000Y-31922812D01*
X374500Y-31925326D01*
X374500Y-32074674D01*
X375000Y-32077187D01*
X375000Y-32364158D01*
X374500Y-32374336D01*
X374500Y-32384332D01*
X373238Y-32401978D01*
X370000Y-32424498D01*
X370000Y-32451000D01*
X350315Y-32518039D01*
X297511Y-32563794D01*
X246000Y-32575000D01*
X150000Y-32575000D01*
X150000Y-33301878D01*
X148738Y-33319525D01*
X144500Y-33349000D01*
X144500Y-34312789D01*
X145006Y-34323100D01*
X145488Y-34332917D01*
X145491Y-34332953D01*
X147866Y-34357075D01*
X147871Y-34357114D01*
X148658Y-34362418D01*
X150000Y-34380612D01*
X150000Y-34919384D01*
X148658Y-34937579D01*
X147869Y-34942892D01*
X145491Y-34967049D01*
X145488Y-34967082D01*
X144962Y-34977792D01*
X144500Y-34987210D01*
X144500Y-35862789D01*
X145006Y-35873100D01*
X145488Y-35882917D01*
X145489Y-35882921D01*
X146306Y-35891225D01*
X146269Y-35891958D01*
X146407Y-35892307D01*
X144519Y-35927550D01*
X139589Y-35952339D01*
X121071Y-35997046D01*
X105121Y-36020915D01*
X70913Y-36055122D01*
X47043Y-36071072D01*
X2344Y-36089588D01*
X-14159Y-36092870D01*
X-38022Y-36097617D01*
X-62211Y-36100000D01*
X-1112789Y-36100000D01*
X-1136980Y-36097617D01*
X-1152256Y-36094578D01*
X-1177344Y-36089588D01*
X-1222044Y-36071072D01*
X-1245914Y-36055122D01*
X-1280123Y-36020913D01*
X-1296073Y-35997043D01*
X-1314588Y-35952346D01*
X-1322619Y-35911971D01*
X-1325000Y-35887789D01*
X-1325000Y-32527187D01*
X-1324500Y-32524674D01*
X-1324500Y-32375326D01*
X-1325000Y-32372812D01*
X-1325000Y-32085841D01*
X-1324500Y-32075673D01*
X-1324500Y-31924336D01*
X-1325000Y-31914158D01*
X-1325000Y-31627187D01*
X-1324500Y-31624674D01*
X-1324500Y-31475326D01*
X-1325000Y-31472812D01*
X-1325000Y-30735841D01*
X-1324500Y-30725673D01*
X-1324500Y-30574336D01*
X-1325000Y-30564158D01*
X-1325000Y-30285841D01*
X-1324962Y-30282769D01*
X-1324799Y-30276175D01*
X-1324500Y-30274674D01*
X-1324500Y-30264127D01*
X-1324462Y-30262594D01*
X-1324229Y-30261865D01*
X-1323238Y-30248019D01*
X-1320000Y-30225500D01*
X-1320000Y-30114121D01*
X-1308249Y-30061431D01*
X-1304304Y-30053026D01*
X-1300033Y-30046635D01*
X-1298989Y-30045057D01*
X-1297776Y-30043205D01*
X-1272510Y-29988508D01*
X-1269990Y-29979924D01*
X-1265946Y-29971310D01*
X-1248849Y-29951991D01*
X-1234905Y-29930292D01*
X-1226075Y-29926258D01*
X-1219640Y-29918988D01*
X-1194815Y-29911980D01*
X-1171351Y-29901263D01*
X-1153697Y-29900000D01*
X-1075000Y-29900000D01*
X-1075000Y-26712210D01*
X-1072619Y-26688029D01*
X-1064588Y-26647651D01*
X-1046073Y-26602956D01*
X-1030123Y-26579086D01*
X-995914Y-26544877D01*
X-972044Y-26528927D01*
X-927347Y-26510412D01*
X-886973Y-26502381D01*
X-862789Y-26500000D01*
X162789Y-26500000D01*
X186971Y-26502381D01*
G37*
%TD.AperFunction*%
%TD*%
%TA.AperFunction,Conductor*%
%TO.N,+5V*%
G36*
X1329984Y-32305770D02*
G01*
X1348689Y-32306041D01*
X1377595Y-32319750D01*
X1379075Y-32320185D01*
X1379880Y-32320834D01*
X1380578Y-32321165D01*
X1390928Y-32328030D01*
X1423387Y-32360489D01*
X1526114Y-32419799D01*
X1531426Y-32421222D01*
X1544542Y-32429922D01*
X1589528Y-32483383D01*
X1600000Y-32533257D01*
X1600000Y-33073357D01*
X1589280Y-33121099D01*
X1590237Y-33121496D01*
X1570555Y-33169007D01*
X1558860Y-33207563D01*
X1550828Y-33247942D01*
X1547871Y-33267878D01*
X1547868Y-33267903D01*
X1545491Y-33292049D01*
X1545488Y-33292082D01*
X1544500Y-33312220D01*
X1544500Y-34394493D01*
X1535557Y-34424948D01*
X1528255Y-34455852D01*
X1525782Y-34458238D01*
X1524815Y-34461532D01*
X1500832Y-34482313D01*
X1477976Y-34504368D01*
X1473596Y-34505912D01*
X1472011Y-34507287D01*
X1444693Y-34516110D01*
X1437285Y-34517583D01*
X1411978Y-34522617D01*
X1387789Y-34525000D01*
X562211Y-34525000D01*
X538020Y-34522617D01*
X522744Y-34519578D01*
X497656Y-34514588D01*
X452956Y-34496072D01*
X429086Y-34480122D01*
X394877Y-34445913D01*
X378927Y-34422043D01*
X360412Y-34377346D01*
X352381Y-34336971D01*
X350000Y-34312789D01*
X350000Y-33349000D01*
X369685Y-33281961D01*
X422489Y-33236206D01*
X474000Y-33225000D01*
X475000Y-33225000D01*
X475000Y-32815467D01*
X494685Y-32748428D01*
X511319Y-32727786D01*
X519551Y-32719553D01*
X519552Y-32719552D01*
X563867Y-32653231D01*
X563867Y-32653229D01*
X563868Y-32653229D01*
X575499Y-32594752D01*
X575500Y-32594750D01*
X575500Y-32424500D01*
X595185Y-32357461D01*
X647989Y-32311706D01*
X699500Y-32300500D01*
X935438Y-32300500D01*
X1312036Y-32300500D01*
X1329984Y-32305770D01*
G37*
%TD.AperFunction*%
%TD*%
%TA.AperFunction,Conductor*%
%TO.N,Net-(U71-SW)*%
G36*
X-13588029Y-28177381D02*
G01*
X-13547654Y-28185412D01*
X-13502957Y-28203927D01*
X-13479087Y-28219877D01*
X-13473195Y-28225769D01*
X-13468463Y-28227829D01*
X-13444878Y-28254086D01*
X-13428928Y-28277956D01*
X-13410412Y-28322655D01*
X-13402383Y-28363020D01*
X-13400000Y-28387210D01*
X-13400000Y-29662789D01*
X-13402383Y-29686982D01*
X-13410412Y-29727344D01*
X-13413603Y-29735046D01*
X-13413695Y-29740206D01*
X-13428928Y-29772043D01*
X-13444878Y-29795913D01*
X-13479087Y-29830122D01*
X-13502957Y-29846072D01*
X-13547656Y-29864588D01*
X-13564159Y-29867870D01*
X-13588022Y-29872617D01*
X-13612211Y-29875000D01*
X-17387789Y-29875000D01*
X-17411980Y-29872617D01*
X-17427256Y-29869578D01*
X-17452344Y-29864588D01*
X-17497044Y-29846072D01*
X-17520914Y-29830122D01*
X-17555123Y-29795913D01*
X-17571073Y-29772043D01*
X-17589588Y-29727346D01*
X-17597619Y-29686971D01*
X-17600000Y-29662789D01*
X-17600000Y-28387210D01*
X-17597619Y-28363029D01*
X-17589588Y-28322651D01*
X-17571073Y-28277956D01*
X-17555123Y-28254086D01*
X-17520914Y-28219877D01*
X-17497044Y-28203927D01*
X-17452347Y-28185412D01*
X-17411973Y-28177381D01*
X-17387789Y-28175000D01*
X-13612211Y-28175000D01*
X-13588029Y-28177381D01*
G37*
%TD.AperFunction*%
%TD*%
%TA.AperFunction,Conductor*%
%TO.N,+3.3V*%
G36*
X-1488029Y-26502381D02*
G01*
X-1447654Y-26510412D01*
X-1402957Y-26528927D01*
X-1379087Y-26544877D01*
X-1373195Y-26550769D01*
X-1368463Y-26552829D01*
X-1344878Y-26579086D01*
X-1328928Y-26602956D01*
X-1310412Y-26647655D01*
X-1302383Y-26688020D01*
X-1300000Y-26712210D01*
X-1300000Y-27662789D01*
X-1302383Y-27686982D01*
X-1310412Y-27727344D01*
X-1313603Y-27735046D01*
X-1313695Y-27740206D01*
X-1328928Y-27772043D01*
X-1344878Y-27795913D01*
X-1379087Y-27830122D01*
X-1402957Y-27846072D01*
X-1447656Y-27864588D01*
X-1464159Y-27867870D01*
X-1488022Y-27872617D01*
X-1512211Y-27875000D01*
X-2900000Y-27875000D01*
X-2900000Y-29162789D01*
X-2902383Y-29186979D01*
X-2902383Y-29186982D01*
X-2910412Y-29227344D01*
X-2928928Y-29272043D01*
X-2944878Y-29295913D01*
X-2979087Y-29330122D01*
X-3002957Y-29346072D01*
X-3047656Y-29364588D01*
X-3064159Y-29367870D01*
X-3088022Y-29372617D01*
X-3112211Y-29375000D01*
X-5512789Y-29375000D01*
X-5536980Y-29372617D01*
X-5552256Y-29369578D01*
X-5577344Y-29364588D01*
X-5622044Y-29346072D01*
X-5645914Y-29330122D01*
X-5680123Y-29295913D01*
X-5696073Y-29272043D01*
X-5714588Y-29227346D01*
X-5722619Y-29186971D01*
X-5725000Y-29162789D01*
X-5725000Y-26712210D01*
X-5722619Y-26688029D01*
X-5714588Y-26647651D01*
X-5696073Y-26602956D01*
X-5680123Y-26579086D01*
X-5645914Y-26544877D01*
X-5622044Y-26528927D01*
X-5577347Y-26510412D01*
X-5536973Y-26502381D01*
X-5512789Y-26500000D01*
X-1512211Y-26500000D01*
X-1488029Y-26502381D01*
G37*
%TD.AperFunction*%
%TD*%
%TA.AperFunction,Conductor*%
%TO.N,+5V*%
G36*
X-27988029Y-24977381D02*
G01*
X-27947654Y-24985412D01*
X-27902957Y-25003927D01*
X-27879087Y-25019877D01*
X-27873195Y-25025769D01*
X-27868463Y-25027829D01*
X-27844878Y-25054086D01*
X-27828928Y-25077956D01*
X-27810412Y-25122655D01*
X-27802383Y-25163020D01*
X-27800000Y-25187210D01*
X-27800000Y-25675000D01*
X-26812211Y-25675000D01*
X-26788029Y-25677381D01*
X-26747654Y-25685412D01*
X-26702957Y-25703927D01*
X-26679087Y-25719877D01*
X-26644878Y-25754086D01*
X-26628928Y-25777956D01*
X-26610412Y-25822655D01*
X-26602383Y-25863022D01*
X-26600000Y-25887210D01*
X-26600000Y-27662789D01*
X-26602383Y-27686979D01*
X-26602383Y-27686982D01*
X-26610412Y-27727344D01*
X-26628928Y-27772043D01*
X-26644878Y-27795913D01*
X-26679087Y-27830122D01*
X-26702957Y-27846072D01*
X-26747656Y-27864588D01*
X-26764159Y-27867870D01*
X-26788022Y-27872617D01*
X-26812211Y-27875000D01*
X-30587789Y-27875000D01*
X-30611980Y-27872617D01*
X-30627256Y-27869578D01*
X-30652344Y-27864588D01*
X-30697044Y-27846072D01*
X-30720914Y-27830122D01*
X-30755123Y-27795913D01*
X-30771073Y-27772043D01*
X-30789588Y-27727346D01*
X-30797619Y-27686971D01*
X-30800000Y-27662789D01*
X-30800000Y-26787210D01*
X-30797619Y-26763029D01*
X-30789588Y-26722651D01*
X-30771073Y-26677956D01*
X-30755123Y-26654086D01*
X-30720914Y-26619877D01*
X-30697044Y-26603927D01*
X-30652347Y-26585412D01*
X-30611973Y-26577381D01*
X-30587789Y-26575000D01*
X-29200000Y-26575000D01*
X-29200000Y-25187210D01*
X-29197619Y-25163029D01*
X-29189588Y-25122651D01*
X-29171073Y-25077956D01*
X-29155123Y-25054086D01*
X-29120914Y-25019877D01*
X-29097044Y-25003927D01*
X-29052347Y-24985412D01*
X-29011973Y-24977381D01*
X-28987789Y-24975000D01*
X-28012211Y-24975000D01*
X-27988029Y-24977381D01*
G37*
%TD.AperFunction*%
%TD*%
%TA.AperFunction,Conductor*%
%TO.N,Net-(U51-SW)*%
G36*
X23011971Y-28177381D02*
G01*
X23052346Y-28185412D01*
X23097043Y-28203927D01*
X23120913Y-28219877D01*
X23126805Y-28225769D01*
X23131537Y-28227829D01*
X23155122Y-28254086D01*
X23171072Y-28277956D01*
X23189588Y-28322655D01*
X23197617Y-28363020D01*
X23200000Y-28387210D01*
X23200000Y-29662789D01*
X23197617Y-29686982D01*
X23189588Y-29727344D01*
X23186397Y-29735046D01*
X23186305Y-29740206D01*
X23171072Y-29772043D01*
X23155122Y-29795913D01*
X23120913Y-29830122D01*
X23097043Y-29846072D01*
X23052344Y-29864588D01*
X23035841Y-29867870D01*
X23011978Y-29872617D01*
X22987789Y-29875000D01*
X19212211Y-29875000D01*
X19188020Y-29872617D01*
X19172744Y-29869578D01*
X19147656Y-29864588D01*
X19102956Y-29846072D01*
X19079086Y-29830122D01*
X19044877Y-29795913D01*
X19028927Y-29772043D01*
X19010412Y-29727346D01*
X19002381Y-29686971D01*
X19000000Y-29662789D01*
X19000000Y-28387210D01*
X19002381Y-28363029D01*
X19010412Y-28322651D01*
X19028927Y-28277956D01*
X19044877Y-28254086D01*
X19079086Y-28219877D01*
X19102956Y-28203927D01*
X19147653Y-28185412D01*
X19188027Y-28177381D01*
X19212211Y-28175000D01*
X22987789Y-28175000D01*
X23011971Y-28177381D01*
G37*
%TD.AperFunction*%
%TD*%
%TA.AperFunction,Conductor*%
%TO.N,+5V*%
G36*
X-14788029Y-24977381D02*
G01*
X-14747654Y-24985412D01*
X-14702957Y-25003927D01*
X-14679087Y-25019877D01*
X-14673195Y-25025769D01*
X-14668463Y-25027829D01*
X-14644878Y-25054086D01*
X-14628928Y-25077956D01*
X-14610412Y-25122655D01*
X-14602383Y-25163020D01*
X-14600000Y-25187210D01*
X-14600000Y-25675000D01*
X-13612211Y-25675000D01*
X-13588029Y-25677381D01*
X-13547654Y-25685412D01*
X-13502957Y-25703927D01*
X-13479087Y-25719877D01*
X-13444878Y-25754086D01*
X-13428928Y-25777956D01*
X-13410412Y-25822655D01*
X-13402383Y-25863022D01*
X-13400000Y-25887210D01*
X-13400000Y-27662789D01*
X-13402383Y-27686979D01*
X-13402383Y-27686982D01*
X-13410412Y-27727344D01*
X-13428928Y-27772043D01*
X-13444878Y-27795913D01*
X-13479087Y-27830122D01*
X-13502957Y-27846072D01*
X-13547656Y-27864588D01*
X-13564159Y-27867870D01*
X-13588022Y-27872617D01*
X-13612211Y-27875000D01*
X-17387789Y-27875000D01*
X-17411980Y-27872617D01*
X-17427256Y-27869578D01*
X-17452344Y-27864588D01*
X-17497044Y-27846072D01*
X-17520914Y-27830122D01*
X-17555123Y-27795913D01*
X-17571073Y-27772043D01*
X-17589588Y-27727346D01*
X-17597619Y-27686971D01*
X-17600000Y-27662789D01*
X-17600000Y-26787210D01*
X-17597619Y-26763029D01*
X-17589588Y-26722651D01*
X-17571073Y-26677956D01*
X-17555123Y-26654086D01*
X-17520914Y-26619877D01*
X-17497044Y-26603927D01*
X-17452347Y-26585412D01*
X-17411973Y-26577381D01*
X-17387789Y-26575000D01*
X-16000000Y-26575000D01*
X-16000000Y-25187210D01*
X-15997619Y-25163029D01*
X-15989588Y-25122651D01*
X-15971073Y-25077956D01*
X-15955123Y-25054086D01*
X-15920914Y-25019877D01*
X-15897044Y-25003927D01*
X-15852347Y-24985412D01*
X-15811973Y-24977381D01*
X-15787789Y-24975000D01*
X-14812211Y-24975000D01*
X-14788029Y-24977381D01*
G37*
%TD.AperFunction*%
%TD*%
%TA.AperFunction,Conductor*%
%TO.N,+5V*%
G36*
X21811971Y-24977381D02*
G01*
X21852346Y-24985412D01*
X21897043Y-25003927D01*
X21920913Y-25019877D01*
X21926805Y-25025769D01*
X21931537Y-25027829D01*
X21955122Y-25054086D01*
X21971072Y-25077956D01*
X21989588Y-25122655D01*
X21997617Y-25163020D01*
X22000000Y-25187210D01*
X22000000Y-25675000D01*
X22987789Y-25675000D01*
X23011971Y-25677381D01*
X23052346Y-25685412D01*
X23097043Y-25703927D01*
X23120913Y-25719877D01*
X23155122Y-25754086D01*
X23171072Y-25777956D01*
X23189588Y-25822655D01*
X23197617Y-25863022D01*
X23200000Y-25887210D01*
X23200000Y-27662789D01*
X23197617Y-27686979D01*
X23197617Y-27686982D01*
X23189588Y-27727344D01*
X23171072Y-27772043D01*
X23155122Y-27795913D01*
X23120913Y-27830122D01*
X23097043Y-27846072D01*
X23052344Y-27864588D01*
X23035841Y-27867870D01*
X23011978Y-27872617D01*
X22987789Y-27875000D01*
X19212211Y-27875000D01*
X19188020Y-27872617D01*
X19172744Y-27869578D01*
X19147656Y-27864588D01*
X19102956Y-27846072D01*
X19079086Y-27830122D01*
X19044877Y-27795913D01*
X19028927Y-27772043D01*
X19010412Y-27727346D01*
X19002381Y-27686971D01*
X19000000Y-27662789D01*
X19000000Y-26787210D01*
X19002381Y-26763029D01*
X19010412Y-26722651D01*
X19028927Y-26677956D01*
X19044877Y-26654086D01*
X19079086Y-26619877D01*
X19102956Y-26603927D01*
X19147653Y-26585412D01*
X19188027Y-26577381D01*
X19212211Y-26575000D01*
X20600000Y-26575000D01*
X20600000Y-25187210D01*
X20602381Y-25163029D01*
X20610412Y-25122651D01*
X20628927Y-25077956D01*
X20644877Y-25054086D01*
X20679086Y-25019877D01*
X20702956Y-25003927D01*
X20747653Y-24985412D01*
X20788027Y-24977381D01*
X20812211Y-24975000D01*
X21787789Y-24975000D01*
X21811971Y-24977381D01*
G37*
%TD.AperFunction*%
%TD*%
%TA.AperFunction,Conductor*%
%TO.N,+5V*%
G36*
X8611971Y-24977381D02*
G01*
X8652346Y-24985412D01*
X8697043Y-25003927D01*
X8720913Y-25019877D01*
X8726805Y-25025769D01*
X8731537Y-25027829D01*
X8755122Y-25054086D01*
X8771072Y-25077956D01*
X8789588Y-25122655D01*
X8797617Y-25163020D01*
X8800000Y-25187210D01*
X8800000Y-25675000D01*
X9787789Y-25675000D01*
X9811971Y-25677381D01*
X9852346Y-25685412D01*
X9897043Y-25703927D01*
X9920913Y-25719877D01*
X9955122Y-25754086D01*
X9971072Y-25777956D01*
X9989588Y-25822655D01*
X9997617Y-25863022D01*
X10000000Y-25887210D01*
X10000000Y-26205357D01*
X9999675Y-26214324D01*
X9999500Y-26216737D01*
X9999500Y-27308265D01*
X9999675Y-27310679D01*
X10000000Y-27319645D01*
X10000000Y-27662789D01*
X9997617Y-27686979D01*
X9997617Y-27686982D01*
X9989588Y-27727344D01*
X9971072Y-27772043D01*
X9955122Y-27795913D01*
X9920913Y-27830122D01*
X9897043Y-27846072D01*
X9852344Y-27864588D01*
X9835841Y-27867870D01*
X9811978Y-27872617D01*
X9787789Y-27875000D01*
X6012211Y-27875000D01*
X5988020Y-27872617D01*
X5972744Y-27869578D01*
X5947656Y-27864588D01*
X5902956Y-27846072D01*
X5879086Y-27830122D01*
X5844877Y-27795913D01*
X5828927Y-27772043D01*
X5810412Y-27727346D01*
X5802381Y-27686971D01*
X5800000Y-27662789D01*
X5800000Y-26787210D01*
X5802381Y-26763029D01*
X5810412Y-26722651D01*
X5828927Y-26677956D01*
X5844877Y-26654086D01*
X5879086Y-26619877D01*
X5902956Y-26603927D01*
X5947653Y-26585412D01*
X5988027Y-26577381D01*
X6012211Y-26575000D01*
X7400000Y-26575000D01*
X7400000Y-25187210D01*
X7402381Y-25163029D01*
X7410412Y-25122651D01*
X7428927Y-25077956D01*
X7444877Y-25054086D01*
X7479086Y-25019877D01*
X7502956Y-25003927D01*
X7547653Y-24985412D01*
X7588027Y-24977381D01*
X7612211Y-24975000D01*
X8587789Y-24975000D01*
X8611971Y-24977381D01*
G37*
%TD.AperFunction*%
%TD*%
%TA.AperFunction,Conductor*%
%TO.N,Net-(U81-SW)*%
G36*
X-26788029Y-28177381D02*
G01*
X-26747654Y-28185412D01*
X-26702957Y-28203927D01*
X-26679087Y-28219877D01*
X-26673195Y-28225769D01*
X-26668463Y-28227829D01*
X-26644878Y-28254086D01*
X-26628928Y-28277956D01*
X-26610412Y-28322655D01*
X-26602383Y-28363020D01*
X-26600000Y-28387210D01*
X-26600000Y-29662789D01*
X-26602383Y-29686982D01*
X-26610412Y-29727344D01*
X-26613603Y-29735046D01*
X-26613695Y-29740206D01*
X-26628928Y-29772043D01*
X-26644878Y-29795913D01*
X-26679087Y-29830122D01*
X-26702957Y-29846072D01*
X-26747656Y-29864588D01*
X-26764159Y-29867870D01*
X-26788022Y-29872617D01*
X-26812211Y-29875000D01*
X-30587789Y-29875000D01*
X-30611980Y-29872617D01*
X-30627256Y-29869578D01*
X-30652344Y-29864588D01*
X-30697044Y-29846072D01*
X-30720914Y-29830122D01*
X-30755123Y-29795913D01*
X-30771073Y-29772043D01*
X-30789588Y-29727346D01*
X-30797619Y-29686971D01*
X-30800000Y-29662789D01*
X-30800000Y-28387210D01*
X-30797619Y-28363029D01*
X-30789588Y-28322651D01*
X-30771073Y-28277956D01*
X-30755123Y-28254086D01*
X-30720914Y-28219877D01*
X-30697044Y-28203927D01*
X-30652347Y-28185412D01*
X-30611973Y-28177381D01*
X-30587789Y-28175000D01*
X-26812211Y-28175000D01*
X-26788029Y-28177381D01*
G37*
%TD.AperFunction*%
%TD*%
%TA.AperFunction,Conductor*%
%TO.N,+1V8*%
G36*
X4111971Y-33102381D02*
G01*
X4152346Y-33110412D01*
X4197043Y-33128927D01*
X4220913Y-33144877D01*
X4226805Y-33150769D01*
X4231537Y-33152829D01*
X4255122Y-33179086D01*
X4271072Y-33202956D01*
X4289588Y-33247655D01*
X4297617Y-33288020D01*
X4300000Y-33312210D01*
X4300000Y-35862789D01*
X4297617Y-35886982D01*
X4289588Y-35927344D01*
X4286397Y-35935046D01*
X4286305Y-35940206D01*
X4271072Y-35972043D01*
X4255122Y-35995913D01*
X4220913Y-36030122D01*
X4197043Y-36046072D01*
X4152344Y-36064588D01*
X4135841Y-36067870D01*
X4111978Y-36072617D01*
X4087789Y-36075000D01*
X562211Y-36075000D01*
X538020Y-36072617D01*
X522744Y-36069578D01*
X497656Y-36064588D01*
X452956Y-36046072D01*
X429086Y-36030122D01*
X394877Y-35995913D01*
X378927Y-35972043D01*
X360412Y-35927346D01*
X352381Y-35886971D01*
X350000Y-35862789D01*
X350000Y-34987210D01*
X352381Y-34963029D01*
X360412Y-34922651D01*
X378927Y-34877956D01*
X394877Y-34854086D01*
X429086Y-34819877D01*
X452956Y-34803927D01*
X497653Y-34785412D01*
X538027Y-34777381D01*
X562211Y-34775000D01*
X1750000Y-34775000D01*
X1750000Y-33312210D01*
X1752381Y-33288029D01*
X1760412Y-33247651D01*
X1778927Y-33202956D01*
X1794877Y-33179086D01*
X1829086Y-33144877D01*
X1852956Y-33128927D01*
X1897653Y-33110412D01*
X1938027Y-33102381D01*
X1962211Y-33100000D01*
X4087789Y-33100000D01*
X4111971Y-33102381D01*
G37*
%TD.AperFunction*%
%TD*%
%TA.AperFunction,Conductor*%
%TO.N,+5V*%
G36*
X-1638029Y-28102381D02*
G01*
X-1597654Y-28110412D01*
X-1552957Y-28128927D01*
X-1529087Y-28144877D01*
X-1523195Y-28150769D01*
X-1518463Y-28152829D01*
X-1494878Y-28179086D01*
X-1478928Y-28202956D01*
X-1460412Y-28247655D01*
X-1452383Y-28288020D01*
X-1450000Y-28312210D01*
X-1450000Y-29863571D01*
X-1469685Y-29930610D01*
X-1470898Y-29932462D01*
X-1513868Y-29996769D01*
X-1513869Y-29996770D01*
X-1525500Y-30055247D01*
X-1525500Y-30225500D01*
X-1545185Y-30292539D01*
X-1597989Y-30338294D01*
X-1649500Y-30349500D01*
X-2362036Y-30349500D01*
X-2385805Y-30342520D01*
X-2410416Y-30339673D01*
X-2421927Y-30331914D01*
X-2429075Y-30329815D01*
X-2440622Y-30321418D01*
X-2445371Y-30317527D01*
X-2473387Y-30289511D01*
X-2494310Y-30277431D01*
X-2502136Y-30271019D01*
X-2516358Y-30250177D01*
X-2533767Y-30231918D01*
X-2538962Y-30217051D01*
X-2541518Y-30213305D01*
X-2541625Y-30209428D01*
X-2545167Y-30199292D01*
X-2547616Y-30186980D01*
X-2549999Y-30162789D01*
X-2549999Y-28312210D01*
X-2547618Y-28288029D01*
X-2539587Y-28247651D01*
X-2536398Y-28239952D01*
X-2536305Y-28234793D01*
X-2521072Y-28202956D01*
X-2505122Y-28179086D01*
X-2470913Y-28144877D01*
X-2447043Y-28128927D01*
X-2402346Y-28110412D01*
X-2361972Y-28102381D01*
X-2337788Y-28100000D01*
X-1662211Y-28100000D01*
X-1638029Y-28102381D01*
G37*
%TD.AperFunction*%
%TD*%
M02*
