%TF.GenerationSoftware,KiCad,Pcbnew,9.0.0*%
%TF.CreationDate,2025-04-07T15:36:10+02:00*%
%TF.ProjectId,AES42HAT,41455334-3248-4415-942e-6b696361645f,rev?*%
%TF.SameCoordinates,PX5f5e100PY5f5e100*%
%TF.FileFunction,Copper,L6,Bot*%
%TF.FilePolarity,Positive*%
%FSLAX46Y46*%
G04 Gerber Fmt 4.6, Leading zero omitted, Abs format (unit mm)*
G04 Created by KiCad (PCBNEW 9.0.0) date 2025-04-07 15:36:10*
%MOMM*%
%LPD*%
G01*
G04 APERTURE LIST*
G04 Aperture macros list*
%AMRoundRect*
0 Rectangle with rounded corners*
0 $1 Rounding radius*
0 $2 $3 $4 $5 $6 $7 $8 $9 X,Y pos of 4 corners*
0 Add a 4 corners polygon primitive as box body*
4,1,4,$2,$3,$4,$5,$6,$7,$8,$9,$2,$3,0*
0 Add four circle primitives for the rounded corners*
1,1,$1+$1,$2,$3*
1,1,$1+$1,$4,$5*
1,1,$1+$1,$6,$7*
1,1,$1+$1,$8,$9*
0 Add four rect primitives between the rounded corners*
20,1,$1+$1,$2,$3,$4,$5,0*
20,1,$1+$1,$4,$5,$6,$7,0*
20,1,$1+$1,$6,$7,$8,$9,0*
20,1,$1+$1,$8,$9,$2,$3,0*%
G04 Aperture macros list end*
%TA.AperFunction,ComponentPad*%
%ADD10RoundRect,0.250000X0.600000X-0.600000X0.600000X0.600000X-0.600000X0.600000X-0.600000X-0.600000X0*%
%TD*%
%TA.AperFunction,ComponentPad*%
%ADD11C,1.700000*%
%TD*%
%TA.AperFunction,ComponentPad*%
%ADD12R,1.700000X1.700000*%
%TD*%
%TA.AperFunction,ComponentPad*%
%ADD13O,1.700000X1.700000*%
%TD*%
%TA.AperFunction,ViaPad*%
%ADD14C,0.700000*%
%TD*%
%TA.AperFunction,ViaPad*%
%ADD15C,0.500000*%
%TD*%
%TA.AperFunction,Conductor*%
%ADD16C,0.500000*%
%TD*%
%TA.AperFunction,Conductor*%
%ADD17C,0.300000*%
%TD*%
%TA.AperFunction,Conductor*%
%ADD18C,0.200000*%
%TD*%
%TA.AperFunction,Conductor*%
%ADD19C,0.150000*%
%TD*%
G04 APERTURE END LIST*
D10*
%TO.P,J2,1,Pin_1*%
%TO.N,/X4+*%
X-15240000Y-49000000D03*
D11*
%TO.P,J2,2,Pin_2*%
%TO.N,/X4-*%
X-15240000Y-46460000D03*
%TO.P,J2,3,Pin_3*%
%TO.N,GNDD*%
X-12700000Y-49000000D03*
%TO.P,J2,4,Pin_4*%
%TO.N,/X3+*%
X-12700000Y-46460000D03*
%TO.P,J2,5,Pin_5*%
%TO.N,/X3-*%
X-10160000Y-49000000D03*
%TO.P,J2,6,Pin_6*%
%TO.N,GNDD*%
X-10160000Y-46460000D03*
%TO.P,J2,7,Pin_7*%
%TO.N,/X2+*%
X-7620000Y-49000000D03*
%TO.P,J2,8,Pin_8*%
%TO.N,/X2-*%
X-7620000Y-46460000D03*
%TO.P,J2,9,Pin_9*%
%TO.N,GNDD*%
X-5080000Y-49000000D03*
%TO.P,J2,10,Pin_10*%
%TO.N,/X1+*%
X-5080000Y-46460000D03*
%TO.P,J2,11,Pin_11*%
%TO.N,/X1-*%
X-2540000Y-49000000D03*
%TO.P,J2,12,Pin_12*%
%TO.N,GNDD*%
X-2540000Y-46460000D03*
%TO.P,J2,13,Pin_13*%
%TO.N,/R4+*%
X0Y-49000000D03*
%TO.P,J2,14,Pin_14*%
%TO.N,/R4-*%
X0Y-46460000D03*
%TO.P,J2,15,Pin_15*%
%TO.N,GNDD*%
X2540000Y-49000000D03*
%TO.P,J2,16,Pin_16*%
%TO.N,/R3+*%
X2540000Y-46460000D03*
%TO.P,J2,17,Pin_17*%
%TO.N,/R3-*%
X5080000Y-49000000D03*
%TO.P,J2,18,Pin_18*%
%TO.N,GNDD*%
X5080000Y-46460000D03*
%TO.P,J2,19,Pin_19*%
%TO.N,/R2+*%
X7620000Y-49000000D03*
%TO.P,J2,20,Pin_20*%
%TO.N,/R2-*%
X7620000Y-46460000D03*
%TO.P,J2,21,Pin_21*%
%TO.N,GNDD*%
X10160000Y-49000000D03*
%TO.P,J2,22,Pin_22*%
%TO.N,/R1+*%
X10160000Y-46460000D03*
%TO.P,J2,23,Pin_23*%
%TO.N,/R1-*%
X12700000Y-49000000D03*
%TO.P,J2,24,Pin_24*%
%TO.N,GNDD*%
X12700000Y-46460000D03*
%TO.P,J2,25,Pin_25*%
%TO.N,unconnected-(J2-Pin_25-Pad25)*%
X15240000Y-49000000D03*
%TO.P,J2,26,Pin_26*%
%TO.N,unconnected-(J2-Pin_26-Pad26)*%
X15240000Y-46460000D03*
%TD*%
D12*
%TO.P,J1,1,3V3*%
%TO.N,+3.3VP*%
X24080000Y-1195000D03*
D13*
%TO.P,J1,2,5V*%
%TO.N,+5V*%
X24080000Y1345000D03*
%TO.P,J1,3,SDA/GPIO2*%
%TO.N,/SDA*%
X21540000Y-1195000D03*
%TO.P,J1,4,5V*%
%TO.N,+5V*%
X21540000Y1345000D03*
%TO.P,J1,5,SCL/GPIO3*%
%TO.N,/SCL*%
X19000000Y-1195000D03*
%TO.P,J1,6,GND*%
%TO.N,N/C*%
X19000000Y1345000D03*
%TO.P,J1,7,GCLK0/GPIO4*%
%TO.N,/MCLK*%
X16460000Y-1195000D03*
%TO.P,J1,8,GPIO14/TXD*%
%TO.N,/H2P*%
X16460000Y1345000D03*
%TO.P,J1,9,GND*%
%TO.N,GNDD*%
X13920000Y-1195000D03*
%TO.P,J1,10,GPIO15/RXD*%
%TO.N,/P2H*%
X13920000Y1345000D03*
%TO.P,J1,11,GPIO17*%
%TO.N,/IN4*%
X11380000Y-1195000D03*
%TO.P,J1,12,GPIO18/PWM0*%
%TO.N,/BCK*%
X11380000Y1345000D03*
%TO.P,J1,13,GPIO27*%
%TO.N,/OUT3*%
X8840000Y-1195000D03*
%TO.P,J1,14,GND*%
%TO.N,N/C*%
X8840000Y1345000D03*
%TO.P,J1,15,GPIO22*%
%TO.N,/IN1*%
X6300000Y-1195000D03*
%TO.P,J1,16,GPIO23*%
%TO.N,/OUT1*%
X6300000Y1345000D03*
%TO.P,J1,17,3V3*%
%TO.N,+3.3VP*%
X3760000Y-1195000D03*
%TO.P,J1,18,GPIO24*%
%TO.N,/IN2*%
X3760000Y1345000D03*
%TO.P,J1,19,MOSI0/GPIO10*%
%TO.N,/MOSI*%
X1220000Y-1195000D03*
%TO.P,J1,20,GND*%
%TO.N,GNDD*%
X1220000Y1345000D03*
%TO.P,J1,21,MISO0/GPIO9*%
%TO.N,/MISO*%
X-1320000Y-1195000D03*
%TO.P,J1,22,GPIO25*%
%TO.N,/OUT2*%
X-1320000Y1345000D03*
%TO.P,J1,23,SCLK0/GPIO11*%
%TO.N,/SCLK*%
X-3860000Y-1195000D03*
%TO.P,J1,24,~{CE0}/GPIO8*%
%TO.N,/~{CSA}*%
X-3860000Y1345000D03*
%TO.P,J1,25,GND*%
%TO.N,GNDD*%
X-6400000Y-1195000D03*
%TO.P,J1,26,~{CE1}/GPIO7*%
%TO.N,/~{REQ}{slash}~{ISP}*%
X-6400000Y1345000D03*
%TO.P,J1,27,ID_SD/GPIO0*%
%TO.N,Net-(J1-ID_SD{slash}GPIO0)*%
X-8940000Y-1195000D03*
%TO.P,J1,28,ID_SC/GPIO1*%
%TO.N,Net-(J1-ID_SC{slash}GPIO1)*%
X-8940000Y1345000D03*
%TO.P,J1,29,GCLK1/GPIO5*%
%TO.N,/~{WIEN}*%
X-11480000Y-1195000D03*
%TO.P,J1,30,GND*%
%TO.N,GNDD*%
X-11480000Y1345000D03*
%TO.P,J1,31,GCLK2/GPIO6*%
%TO.N,/RCLK*%
X-14020000Y-1195000D03*
%TO.P,J1,32,PWM0/GPIO12*%
%TO.N,/~{RESET}*%
X-14020000Y1345000D03*
%TO.P,J1,33,PWM1/GPIO13*%
%TO.N,/BLS*%
X-16560000Y-1195000D03*
%TO.P,J1,34,GND*%
%TO.N,GNDD*%
X-16560000Y1345000D03*
%TO.P,J1,35,GPIO19/MISO1*%
%TO.N,/LR*%
X-19100000Y-1195000D03*
%TO.P,J1,36,GPIO16*%
%TO.N,/IN5*%
X-19100000Y1345000D03*
%TO.P,J1,37,GPIO26*%
%TO.N,/IN3*%
X-21640000Y-1195000D03*
%TO.P,J1,38,GPIO20/MOSI1*%
%TO.N,/IN0*%
X-21640000Y1345000D03*
%TO.P,J1,39,GND*%
%TO.N,GNDD*%
X-24180000Y-1195000D03*
%TO.P,J1,40,GPIO21/SCLK1*%
%TO.N,/OUT0*%
X-24180000Y1345000D03*
%TD*%
D12*
%TO.P,J8,1,Pin_1*%
%TO.N,/SWCLK*%
X2540000Y-8500000D03*
D13*
%TO.P,J8,2,Pin_2*%
%TO.N,GNDD*%
X0Y-8500000D03*
%TO.P,J8,3,Pin_3*%
%TO.N,/SWDIO*%
X-2540000Y-8500000D03*
%TD*%
D14*
%TO.N,GNDD*%
X29300000Y-40025000D03*
D15*
X19050000Y-36010000D03*
D14*
X20800000Y-34450000D03*
D15*
X225000Y-11140001D03*
X24500000Y-23550000D03*
X-15137500Y-18500000D03*
D14*
X-23425000Y-51050000D03*
D15*
X-30325000Y-5635000D03*
X20350000Y-36090000D03*
X-2250000Y-25144998D03*
X-30747500Y-12352500D03*
X-23300000Y-45565000D03*
X-25350000Y-24900000D03*
X-30275000Y-39970000D03*
X-27700000Y-24250000D03*
X-22300000Y-45565000D03*
X-12100000Y-23575000D03*
X-25325000Y-40350000D03*
X11362500Y-24875000D03*
X-15412500Y-20400000D03*
X5952500Y-12352500D03*
X-19335000Y-9965000D03*
X-17447500Y-12352500D03*
X21250000Y-20425000D03*
X24270000Y-4275000D03*
D14*
X-8800001Y-27287500D03*
D15*
X2250000Y-25142501D03*
X17400000Y-9980000D03*
X30875000Y-39280000D03*
X22400000Y-45400000D03*
X10750000Y-18500000D03*
X19250000Y-9545000D03*
X-22775000Y-28515001D03*
X5750000Y-35985000D03*
X8962500Y-24225000D03*
X-17625000Y-35935000D03*
X25525000Y-39070000D03*
D14*
X27775000Y-26775000D03*
D15*
X11387500Y-23575000D03*
D14*
X19675000Y-25625000D03*
X-22025000Y-27300000D03*
X23450000Y-51040000D03*
X-575000Y-33875000D03*
X27100000Y-38325000D03*
D15*
X10970000Y-4275000D03*
X-16477501Y-15700000D03*
D14*
X-29175000Y-34400000D03*
D15*
X19252500Y-12352500D03*
X-6025000Y-9955000D03*
X-28400000Y-18500000D03*
X6959999Y-15700000D03*
X5950000Y-9545000D03*
X29495000Y-44975000D03*
X100000Y-4750000D03*
X-13180000Y-15650000D03*
D14*
X7500000Y-34450000D03*
D15*
X20259999Y-15725000D03*
X-30900000Y-35910000D03*
D14*
X-28575000Y-43425000D03*
D15*
X-12100000Y-24875000D03*
X24500000Y-24850000D03*
D14*
X23450000Y-48090000D03*
D15*
X-26480000Y-15675000D03*
X-25730000Y-4225000D03*
X-17000000Y-5635000D03*
X6275000Y-5685000D03*
X-17450000Y-9545000D03*
X-28662500Y-20425000D03*
X2325000Y-28545000D03*
X13850000Y-28015001D03*
X6950000Y-36140000D03*
D14*
X-23425000Y-48100000D03*
D15*
X23520000Y-15650000D03*
D14*
X6425000Y-25625000D03*
X-575000Y-35425000D03*
D15*
X30725000Y-9955000D03*
X-26062500Y-29062500D03*
D14*
X-375000Y-27200000D03*
D15*
X21670001Y-44275000D03*
X24125000Y-18500000D03*
X-29800000Y-36240000D03*
X-25350000Y-23600000D03*
X4600000Y-17965000D03*
X-12430000Y-4225000D03*
D14*
X-31525000Y-43425000D03*
D15*
X-12837501Y-29050000D03*
X19574999Y-5669999D03*
D14*
X14575000Y-26775000D03*
D15*
X-29740001Y-15700000D03*
X10500000Y-29037500D03*
X22400000Y-46400000D03*
X-9550001Y-28502501D03*
X-16450000Y-36140000D03*
D14*
X-375000Y-28750000D03*
X-30137500Y-25650000D03*
D15*
X27050000Y-28015001D03*
X10220000Y-15650000D03*
D14*
X-16912501Y-25637500D03*
D15*
X23750000Y-29037500D03*
X7900000Y-20425000D03*
X0Y-21700000D03*
X-30750000Y-9545000D03*
X-14450000Y-24225000D03*
X-22325000Y-44475000D03*
D14*
X-15900000Y-34450000D03*
D15*
X22125000Y-24200000D03*
%TO.N,+3.3V*%
X26215000Y-15650000D03*
X-19325000Y-8995000D03*
X30725000Y-8995000D03*
X1850000Y-31100000D03*
X12915000Y-15650000D03*
X-27300000Y-39225000D03*
D14*
X-1925000Y-27200000D03*
D15*
X30455000Y-44975000D03*
X-29775000Y-39225000D03*
X17400000Y-9020000D03*
X-24770000Y-4225000D03*
X1250000Y-11140001D03*
X-17450000Y-11395000D03*
X-700000Y-21725000D03*
X25230000Y-4275000D03*
X5950000Y-11395000D03*
X11930000Y-4275000D03*
X-11470000Y-4225000D03*
X-30750000Y-11395000D03*
X4600000Y-18925000D03*
X19250000Y-11395000D03*
X700000Y-21725000D03*
X-23785000Y-15675000D03*
X-10485000Y-15650000D03*
X27850000Y-42700000D03*
X-6025000Y-8995000D03*
D14*
%TO.N,+5V*%
X7975000Y-25625000D03*
D15*
X19550000Y-22425000D03*
D14*
X21225000Y-25625000D03*
D15*
X27812500Y-20300000D03*
X-30362500Y-22425000D03*
X-22325000Y-43475000D03*
X-24150000Y-17000000D03*
X25850000Y-16987500D03*
D14*
X-28575000Y-25650000D03*
X975000Y-33875000D03*
D15*
X-30275000Y-40930000D03*
X-8750000Y-20325000D03*
X1275000Y-28545000D03*
D14*
X-15350001Y-25637500D03*
D15*
X-22000000Y-20350000D03*
X14687500Y-20325000D03*
X12525000Y-17000000D03*
X24500000Y-21600000D03*
X-17112500Y-22400000D03*
X6200000Y-22425000D03*
X11375000Y-21625000D03*
X-10950000Y-17000000D03*
X-25350000Y-21650000D03*
X-14475000Y-21625000D03*
D14*
X-1925000Y-28750000D03*
D15*
%TO.N,+1V8*%
X-25520000Y-15675000D03*
X24480000Y-15650000D03*
X11180000Y-15650000D03*
X6800000Y-33000000D03*
X-2775000Y-31550000D03*
X-12220000Y-15650000D03*
D14*
X975000Y-35425000D03*
D15*
X-6299000Y-31550000D03*
%TO.N,/MCLK*%
X29170000Y-13300000D03*
X-7550000Y-13750000D03*
X-20825000Y-14250000D03*
X-3275000Y-22165001D03*
X15875000Y-14075000D03*
%TO.N,/BLS*%
X14650000Y-7725000D03*
X-19637500Y-7712500D03*
X27975000Y-7725000D03*
X4250000Y-12200000D03*
X-6325000Y-7725000D03*
%TO.N,+3.3VP*%
X4809999Y-3800000D03*
X2375000Y-5700000D03*
X975000Y-29650000D03*
X-2335000Y-5700000D03*
X-2335000Y-3800000D03*
X-1925000Y-33025000D03*
%TO.N,/~{CSA}*%
X4987500Y-10262500D03*
X23775000Y-10925000D03*
%TO.N,/SCLK*%
X-24575000Y-12925000D03*
X12450000Y-11975000D03*
X-11521752Y-12703248D03*
X3350000Y-14100000D03*
X25750000Y-11975000D03*
%TO.N,/MOSI*%
X-10450000Y-12975000D03*
X3325000Y-20775000D03*
X12950000Y-12950000D03*
X-23750000Y-12950000D03*
X26250000Y-12950000D03*
%TO.N,/MISO*%
X13450000Y-12450000D03*
X-9650000Y-12650000D03*
X26489124Y-12235876D03*
X-22775000Y-12948376D03*
X4850000Y-14575000D03*
%TO.N,/~{INTA}*%
X25575000Y-10650000D03*
X4925000Y-11140001D03*
%TO.N,/~{RESET}*%
X225000Y-12159999D03*
X26925000Y-11125000D03*
X14450000Y-11650000D03*
X-9400000Y-10937500D03*
X-22250000Y-11550000D03*
%TO.N,/~{CSB}*%
X11051624Y-12026624D03*
X250000Y-13125000D03*
%TO.N,/~{INTB}*%
X4850000Y-16175000D03*
X13935000Y-15675000D03*
%TO.N,/~{REQ}{slash}~{ISP}*%
X-4525000Y-10950000D03*
X1250000Y-12159999D03*
%TO.N,/UCKA*%
X5266878Y-17130058D03*
X25450000Y-15450000D03*
X27698376Y-11226624D03*
%TO.N,/UBTA*%
X30636148Y-10724070D03*
X-5475000Y-16675000D03*
X-4775000Y-23553000D03*
X-4775000Y-20950000D03*
%TO.N,/UBTB*%
X-4950000Y-17175000D03*
X-4600000Y-9750000D03*
X12700000Y-10700000D03*
%TO.N,/PHOA*%
X21400000Y-36090000D03*
X17075000Y-41375000D03*
%TO.N,/IN4*%
X-13450000Y-4250000D03*
%TO.N,/~{CSC}*%
X-11300000Y-15650000D03*
X-4950000Y-16175000D03*
%TO.N,/~{CSD}*%
X-4950000Y-15175000D03*
X-24750000Y-15325000D03*
%TO.N,/MODC*%
X-1250000Y-13100000D03*
X-6225000Y-23575000D03*
%TO.N,/MODD*%
X-19615140Y-23600000D03*
X-6250000Y-22850000D03*
X-2250000Y-13100000D03*
%TO.N,/SDA*%
X27775000Y-43700000D03*
X3975000Y-7175000D03*
%TO.N,/SCL*%
X3998000Y-6400000D03*
X25175000Y-43200000D03*
%TO.N,/MODB*%
X8850000Y-22925000D03*
X-5475000Y-15675000D03*
X-4250000Y-21469485D03*
X-4373376Y-24148376D03*
%TO.N,/UCKD*%
X-18875000Y-17550000D03*
X-5475000Y-18675000D03*
%TO.N,/P2H*%
X-5475000Y-17675000D03*
X-3725000Y-5375000D03*
%TO.N,/H2P*%
X-3462500Y-6237500D03*
X-4950000Y-18175000D03*
%TO.N,/UBTC*%
X1750000Y-13125000D03*
X-5925000Y-10950000D03*
%TO.N,/MODA*%
X-5377249Y-20500999D03*
X-4950000Y-19175000D03*
X22075000Y-23175000D03*
X-5175000Y-24172545D03*
%TO.N,/UBTD*%
X-19100000Y-11050000D03*
X2752246Y-13105076D03*
%TO.N,/PVC*%
X-51624Y-24650000D03*
X2925000Y-22676000D03*
%TO.N,/WCLK*%
X30725000Y-8050000D03*
X4575000Y-19906000D03*
X-16465000Y-18775000D03*
X20235000Y-18750000D03*
X-29740001Y-18725000D03*
X6950000Y-18800000D03*
%TO.N,/PVD*%
X725000Y-24650000D03*
X3650000Y-22700000D03*
%TO.N,Net-(T5-OUT2B)*%
X22625000Y-39400000D03*
X27975000Y-9725000D03*
%TO.N,Net-(T5-OUT1A)*%
X27475000Y-9225000D03*
X22625000Y-40100000D03*
%TO.N,/X2+*%
X6270000Y-42150000D03*
%TO.N,/X2-*%
X6270000Y-41450000D03*
%TO.N,/X1+*%
X18645000Y-42150000D03*
%TO.N,/X1-*%
X18645000Y-41450000D03*
%TO.N,/R3+*%
X-10420000Y-42150000D03*
%TO.N,/R3-*%
X-10420000Y-41450000D03*
%TO.N,/BCK*%
X5275000Y-18425000D03*
X8950000Y-4050000D03*
X-8950000Y-3950000D03*
%TO.N,/OUT3*%
X-28025000Y-10225000D03*
X-21900000Y-3275000D03*
%TO.N,/IN2*%
X-10450000Y-4600000D03*
%TO.N,/OUT2*%
X-9950000Y-3950000D03*
%TO.N,/IN3*%
X18337696Y-7537696D03*
%TO.N,/LR*%
X9450000Y-4600000D03*
X-9450000Y-4600000D03*
%TO.N,/M3A*%
X28425000Y-19000000D03*
X27923148Y-11905100D03*
X27837499Y-24850000D03*
%TO.N,/SLA*%
X22234999Y-15675000D03*
X27825000Y-22900000D03*
%TO.N,/FBA*%
X24828248Y-20950000D03*
X27050000Y-29034999D03*
%TO.N,/~{WIEN}*%
X-26625000Y-41900000D03*
%TO.N,Net-(C59-Pad1)*%
X29800000Y-26075000D03*
X29800000Y-17240001D03*
%TO.N,Net-(T6-OUT2B)*%
X14625000Y-9800003D03*
X10270000Y-39400000D03*
%TO.N,Net-(T6-OUT1A)*%
X14625000Y-9150000D03*
X10270000Y-40100000D03*
%TO.N,Net-(T7-OUT1A)*%
X-2055000Y-40100000D03*
X-8800000Y-9125000D03*
%TO.N,Net-(T7-OUT2B)*%
X-2055000Y-39400000D03*
X-8800000Y-9825000D03*
%TO.N,Net-(T8-OUT1A)*%
X-14125000Y-40100000D03*
X-22062500Y-9150000D03*
%TO.N,Net-(T8-OUT2B)*%
X-14125000Y-39400000D03*
X-22062500Y-9800003D03*
%TO.N,Net-(C50-Pad1)*%
X21225000Y-16687500D03*
X28075000Y-29020000D03*
D14*
%TO.N,Net-(D52-A1)*%
X21225000Y-23825000D03*
X20800000Y-31550000D03*
X26225000Y-26775000D03*
D15*
%TO.N,Net-(C60-Pad1)*%
X14850000Y-29020000D03*
X7900000Y-16700000D03*
D14*
%TO.N,Net-(D62-A1)*%
X13025000Y-26775000D03*
X7500000Y-31550000D03*
X7975000Y-23825000D03*
D15*
%TO.N,Net-(C69-Pad1)*%
X16375000Y-17265001D03*
X16375000Y-26350000D03*
%TO.N,Net-(C70-Pad1)*%
X-8500000Y-29020000D03*
X-15500000Y-16715001D03*
D14*
%TO.N,Net-(D72-A1)*%
X-15900000Y-31550000D03*
X-10350001Y-27287500D03*
X-15512500Y-23925000D03*
D15*
%TO.N,Net-(C79-Pad1)*%
X-7400000Y-27225000D03*
X-7025000Y-17265001D03*
%TO.N,Net-(C80-Pad1)*%
X-28775000Y-16700000D03*
X-21775000Y-29020000D03*
D14*
%TO.N,Net-(D82-A1)*%
X-23575000Y-27300000D03*
X-29175000Y-31500000D03*
X-28650000Y-23850000D03*
D15*
%TO.N,Net-(C89-Pad1)*%
X-20350000Y-17240001D03*
X-20775000Y-26375000D03*
%TO.N,/PHOB*%
X4775000Y-41375000D03*
X8000000Y-36140000D03*
%TO.N,/PHOC*%
X-15400000Y-36140000D03*
X-7500000Y-41350000D03*
%TO.N,/FBB*%
X11375000Y-20975000D03*
X13850000Y-29034999D03*
%TO.N,/SLB*%
X14700000Y-22925000D03*
X11250000Y-16999000D03*
%TO.N,/FBC*%
X-12100000Y-20975000D03*
X-9550000Y-29522499D03*
%TO.N,/SLC*%
X-10600000Y-20925000D03*
X-14502501Y-15700000D03*
%TO.N,/FBD*%
X-22775000Y-29534999D03*
X-24825000Y-21000000D03*
%TO.N,/SLD*%
X-27765001Y-15700000D03*
X-21975000Y-22950000D03*
%TO.N,/MID*%
X-10775000Y-20075000D03*
X1325000Y-27525000D03*
X12475000Y-18250000D03*
X-24200000Y-18250000D03*
X3000000Y-25825000D03*
X21500000Y-18425000D03*
X-10925000Y-18250000D03*
%TO.N,/M3B*%
X14712499Y-24875000D03*
X14925000Y-19026000D03*
X14925000Y-15100000D03*
%TO.N,/M3C*%
X-8550000Y-15625000D03*
X-7925000Y-25550000D03*
X-8313785Y-18988785D03*
%TO.N,/M3D*%
X-21675000Y-19000000D03*
X-21850000Y-15675000D03*
X-21962501Y-24900000D03*
%TO.N,Net-(T1-OUT2B)*%
X19537500Y-7875000D03*
X16730358Y-38400000D03*
%TO.N,Net-(T1-OUT1A)*%
X15710358Y-38400000D03*
X19537500Y-7045000D03*
%TO.N,Net-(T2-OUT1A)*%
X3431072Y-38425000D03*
X6237500Y-7045000D03*
%TO.N,Net-(T2-OUT2B)*%
X6237500Y-7875000D03*
X4451072Y-38425000D03*
%TO.N,Net-(T3-OUT1A)*%
X-17087500Y-7150000D03*
X-8820000Y-38425000D03*
%TO.N,Net-(T3-OUT2B)*%
X-7800000Y-38425000D03*
X-17087500Y-7800003D03*
%TO.N,Net-(T4-OUT2B)*%
X-19965000Y-38425000D03*
X-30400000Y-7825000D03*
%TO.N,Net-(T4-OUT1A)*%
X-30400000Y-7125000D03*
X-20985000Y-38425000D03*
%TO.N,/~{INTC}*%
X-1475000Y-22450000D03*
X-9465000Y-15650000D03*
X-9325000Y-19625000D03*
%TO.N,/~{INTD}*%
X-22765000Y-15675000D03*
X-23150000Y-19700000D03*
X-750000Y-22450000D03*
%TO.N,/ACLK*%
X8325000Y-14625000D03*
X-15075000Y-14450000D03*
X-3350000Y-20750000D03*
X21650000Y-14300000D03*
X29700000Y-14300000D03*
X-28525000Y-14175000D03*
%TO.N,/RCLK*%
X8750000Y-12700000D03*
X-25325000Y-38400000D03*
X-30586334Y-13138666D03*
X-14675000Y-12725000D03*
X30250000Y-13550000D03*
X22225000Y-12525000D03*
%TO.N,/PHOD*%
X-28750000Y-36240000D03*
X-19610000Y-42080000D03*
%TD*%
D16*
%TO.N,+1V8*%
X6751000Y-17949000D02*
X5425000Y-19275000D01*
D17*
X-8750000Y-21625000D02*
X-8750000Y-25800000D01*
X-7949000Y-27455232D02*
X-7949000Y-29900000D01*
X-7949000Y-26601000D02*
X-7949000Y-26994768D01*
D16*
X5425000Y-19275000D02*
X5425000Y-31625000D01*
D17*
X-10150000Y-16925000D02*
X-10150000Y-20225000D01*
X-10825000Y-16250000D02*
X-10150000Y-16925000D01*
X-7949000Y-26994768D02*
X-7951000Y-26996768D01*
D16*
X7600000Y-16025000D02*
X6751000Y-16874000D01*
X8475000Y-16025000D02*
X7600000Y-16025000D01*
D17*
X-10150000Y-20225000D02*
X-8750000Y-21625000D01*
D16*
X8751000Y-16301000D02*
X8475000Y-16025000D01*
D17*
X-8750000Y-25800000D02*
X-7949000Y-26601000D01*
X-7951000Y-27453232D02*
X-7949000Y-27455232D01*
D16*
X6751000Y-16874000D02*
X6751000Y-17949000D01*
X5425000Y-31625000D02*
X6800000Y-33000000D01*
X10529000Y-16301000D02*
X8751000Y-16301000D01*
X11180000Y-15650000D02*
X10529000Y-16301000D01*
D17*
X-12220000Y-15650000D02*
X-11620000Y-16250000D01*
X-7951000Y-26996768D02*
X-7951000Y-27453232D01*
X-11620000Y-16250000D02*
X-10825000Y-16250000D01*
X-7949000Y-29900000D02*
X-6299000Y-31550000D01*
D18*
%TO.N,/MCLK*%
X13674000Y-11874000D02*
X13674000Y-7151000D01*
X15875000Y-14075000D02*
X13674000Y-11874000D01*
X16460000Y-4365000D02*
X16460000Y-1195000D01*
X13674000Y-7151000D02*
X16460000Y-4365000D01*
%TO.N,/BLS*%
X-19637500Y-4272500D02*
X-16560000Y-1195000D01*
X-19637500Y-7712500D02*
X-19637500Y-4272500D01*
%TO.N,+3.3VP*%
X975000Y-30125000D02*
X-1925000Y-33025000D01*
X975000Y-29650000D02*
X975000Y-30125000D01*
X1275000Y-6800000D02*
X2375000Y-5700000D01*
X2600000Y-29650000D02*
X4175000Y-28075000D01*
X2250000Y-11025000D02*
X1275000Y-10050000D01*
X4175000Y-22450000D02*
X2250000Y-20525000D01*
X2250000Y-20525000D02*
X2250000Y-11025000D01*
X975000Y-29650000D02*
X2600000Y-29650000D01*
X4175000Y-28075000D02*
X4175000Y-22450000D01*
X1275000Y-10050000D02*
X1275000Y-6800000D01*
%TO.N,/SCLK*%
X3350000Y-14100000D02*
X3350000Y-10350000D01*
X3350000Y-10350000D02*
X4500000Y-9200000D01*
X-1805000Y-3250000D02*
X-3860000Y-1195000D01*
X4500000Y-9200000D02*
X4500000Y-5525000D01*
X2225000Y-3250000D02*
X-1805000Y-3250000D01*
X4500000Y-5525000D02*
X2225000Y-3250000D01*
%TO.N,/MOSI*%
X3325000Y-16425000D02*
X4625000Y-15125000D01*
X3325000Y-20775000D02*
X3325000Y-16425000D01*
X5425000Y-11050000D02*
X5575000Y-10900000D01*
X5575000Y-10900000D02*
X5575000Y-9975000D01*
X5575000Y-9975000D02*
X5300000Y-9700000D01*
X5425000Y-14825000D02*
X5425000Y-11050000D01*
X4625000Y-15125000D02*
X5125000Y-15125000D01*
X5125000Y-15125000D02*
X5425000Y-14825000D01*
X5300000Y-9700000D02*
X5300000Y-5275000D01*
X5300000Y-5275000D02*
X1220000Y-1195000D01*
%TO.N,/MISO*%
X310000Y-2825000D02*
X-1320000Y-1195000D01*
X4400000Y-11500000D02*
X4400000Y-9925000D01*
X4850000Y-11950000D02*
X4400000Y-11500000D01*
X4900000Y-9425000D02*
X4900000Y-5425000D01*
X4400000Y-9925000D02*
X4900000Y-9425000D01*
X4850000Y-14575000D02*
X4850000Y-11950000D01*
X2300000Y-2825000D02*
X310000Y-2825000D01*
X4900000Y-5425000D02*
X2300000Y-2825000D01*
%TO.N,/~{REQ}{slash}~{ISP}*%
X-5150000Y95000D02*
X-6400000Y1345000D01*
X-4525000Y-10950000D02*
X-5150000Y-10325000D01*
X-5150000Y-10325000D02*
X-5150000Y95000D01*
D19*
%TO.N,/UCKA*%
X27698376Y-11226624D02*
X27400000Y-11525000D01*
X27400000Y-13500000D02*
X25450000Y-15450000D01*
X27400000Y-11525000D02*
X27400000Y-13500000D01*
D18*
%TO.N,/UBTA*%
X-4775000Y-23553000D02*
X-4775000Y-20950000D01*
D19*
%TO.N,/UBTB*%
X-4550000Y-17175000D02*
X-4950000Y-17175000D01*
X-4600000Y-9750000D02*
X-3902000Y-10448000D01*
X-3902000Y-10448000D02*
X-3902000Y-16527000D01*
X-3902000Y-16527000D02*
X-4550000Y-17175000D01*
D18*
%TO.N,/PHOA*%
X21400000Y-37050000D02*
X21400000Y-36090000D01*
X17075000Y-41375000D02*
X21400000Y-37050000D01*
D19*
%TO.N,/MODC*%
X-5774000Y-23124000D02*
X-6225000Y-23575000D01*
X-5949000Y-22477834D02*
X-5774000Y-22652834D01*
X-1250000Y-13100000D02*
X-1250000Y-16775678D01*
X-1250000Y-16775678D02*
X-4500322Y-20026000D01*
X-5949000Y-20224678D02*
X-5949000Y-22477834D01*
X-5750322Y-20026000D02*
X-5949000Y-20224678D01*
X-5774000Y-22652834D02*
X-5774000Y-23124000D01*
X-4500322Y-20026000D02*
X-5750322Y-20026000D01*
%TO.N,/MODD*%
X-2250000Y-17350000D02*
X-4625000Y-19725000D01*
X-2250000Y-13100000D02*
X-2250000Y-17350000D01*
X-6250000Y-20100000D02*
X-6250000Y-22850000D01*
X-5875000Y-19725000D02*
X-6250000Y-20100000D01*
X-4625000Y-19725000D02*
X-5875000Y-19725000D01*
D18*
%TO.N,/SDA*%
X27225000Y-3250000D02*
X32000000Y-8025000D01*
X27200000Y-41200000D02*
X27200000Y-43150000D01*
X23595000Y-3250000D02*
X27225000Y-3250000D01*
X21540000Y-1195000D02*
X23595000Y-3250000D01*
X32000000Y-36400000D02*
X27200000Y-41200000D01*
X27200000Y-43150000D02*
X27775000Y-43725000D01*
X32000000Y-8025000D02*
X32000000Y-36400000D01*
%TO.N,/SCL*%
X25175000Y-42575000D02*
X25175000Y-43200000D01*
X19000000Y-1195000D02*
X21431000Y-3626000D01*
X31599000Y-8174000D02*
X31599000Y-36151000D01*
X21431000Y-3626000D02*
X27051000Y-3626000D01*
X27051000Y-3626000D02*
X31599000Y-8174000D01*
X31599000Y-36151000D02*
X25175000Y-42575000D01*
%TO.N,/MODB*%
X-4250000Y-21469485D02*
X-4250000Y-23736521D01*
X-4250000Y-23736521D02*
X-4375000Y-23861521D01*
X-4375000Y-23861521D02*
X-4375000Y-24146752D01*
X-4375000Y-24146752D02*
X-4373376Y-24148376D01*
D19*
%TO.N,/P2H*%
X-4624322Y-17675000D02*
X-3601000Y-16651678D01*
X-3601000Y-16651678D02*
X-3601000Y-10124000D01*
X-4075000Y-5725000D02*
X-3725000Y-5375000D01*
X-3601000Y-10124000D02*
X-4075000Y-9650000D01*
X-3750000Y-5400000D02*
X-3725000Y-5375000D01*
X-5475000Y-17675000D02*
X-4624322Y-17675000D01*
X-4075000Y-9650000D02*
X-4075000Y-5725000D01*
%TO.N,/H2P*%
X-3774000Y-6549000D02*
X-3774000Y-9525000D01*
X-3300000Y-16776356D02*
X-4698644Y-18175000D01*
X-3462500Y-6237500D02*
X-3774000Y-6549000D01*
X-4698644Y-18175000D02*
X-4950000Y-18175000D01*
X-3300000Y-9999000D02*
X-3300000Y-16776356D01*
X-3774000Y-9525000D02*
X-3300000Y-9999000D01*
D18*
%TO.N,/MODA*%
X-5377249Y-20500999D02*
X-5377249Y-23697751D01*
X-5377249Y-23697751D02*
X-5175000Y-23900000D01*
X-5175000Y-23900000D02*
X-5175000Y-24172545D01*
%TO.N,/PVC*%
X473376Y-24125000D02*
X-51624Y-24650000D01*
X1476000Y-24125000D02*
X473376Y-24125000D01*
X2925000Y-22676000D02*
X1476000Y-24125000D01*
%TO.N,/PVD*%
X3650000Y-22700000D02*
X1700000Y-24650000D01*
X1700000Y-24650000D02*
X725000Y-24650000D01*
%TO.N,Net-(T5-OUT2B)*%
X30750000Y-12500000D02*
X27975000Y-9725000D01*
X22625000Y-39400000D02*
X30750000Y-31275000D01*
X22625000Y-39425000D02*
X22625000Y-39400000D01*
X30750000Y-31275000D02*
X30750000Y-12500000D01*
%TO.N,Net-(T5-OUT1A)*%
X22603248Y-40075000D02*
X22650000Y-40075000D01*
X27767479Y-9224000D02*
X27766479Y-9225000D01*
X28183521Y-9225000D02*
X28182521Y-9224000D01*
X31125000Y-31608521D02*
X31125000Y-12150000D01*
X27766479Y-9225000D02*
X27475000Y-9225000D01*
X31125000Y-12150000D02*
X28200000Y-9225000D01*
X22824000Y-39901000D02*
X22832521Y-39901000D01*
X22650000Y-40075000D02*
X22824000Y-39901000D01*
X28182521Y-9224000D02*
X27767479Y-9224000D01*
X28200000Y-9225000D02*
X28183521Y-9225000D01*
X22832521Y-39901000D02*
X31125000Y-31608521D01*
%TO.N,/X2+*%
X-6325000Y-45850000D02*
X-4875000Y-44400000D01*
X-4875000Y-44400000D02*
X3995000Y-44400000D01*
X-6325000Y-47705000D02*
X-6325000Y-45850000D01*
X3995000Y-44400000D02*
X6270000Y-42125000D01*
X-7620000Y-49000000D02*
X-6325000Y-47705000D01*
%TO.N,/X2-*%
X-7620000Y-46460000D02*
X-5260000Y-44100000D01*
X-5100678Y-43950000D02*
X3475000Y-43950000D01*
X5950000Y-41475000D02*
X6270000Y-41475000D01*
X3475000Y-43950000D02*
X5950000Y-41475000D01*
X-5250678Y-44100000D02*
X-5100678Y-43950000D01*
X-5260000Y-44100000D02*
X-5250678Y-44100000D01*
%TO.N,/X1+*%
X15945000Y-44825000D02*
X18645000Y-42125000D01*
X-3445000Y-44825000D02*
X15945000Y-44825000D01*
X-5080000Y-46460000D02*
X-3445000Y-44825000D01*
%TO.N,/X1-*%
X18975000Y-41475000D02*
X18645000Y-41475000D01*
X-1275000Y-47735000D02*
X-1275000Y-45700000D01*
X19200000Y-41700000D02*
X18975000Y-41475000D01*
X19200000Y-42350000D02*
X19200000Y-41700000D01*
X-1275000Y-45700000D02*
X-775000Y-45200000D01*
X-2540000Y-49000000D02*
X-1275000Y-47735000D01*
X16350000Y-45200000D02*
X19200000Y-42350000D01*
X-775000Y-45200000D02*
X16350000Y-45200000D01*
%TO.N,/BCK*%
X6250000Y-15625000D02*
X6675000Y-15200000D01*
X5281993Y-18412398D02*
X6250000Y-17444391D01*
X7250000Y-5750000D02*
X8950000Y-4050000D01*
X7250000Y-12975000D02*
X7250000Y-5750000D01*
X6250000Y-17444391D02*
X6250000Y-15625000D01*
X6675000Y-15200000D02*
X6675000Y-13550000D01*
X6675000Y-13550000D02*
X7250000Y-12975000D01*
%TO.N,/OUT3*%
X-28025000Y-10225000D02*
X-21900000Y-4100000D01*
X-21900000Y-4100000D02*
X-21900000Y-3275000D01*
%TO.N,/IN2*%
X-10450000Y-4600000D02*
X-10450000Y-3400000D01*
X-10200000Y-3150000D02*
X-10200000Y2275000D01*
X2005000Y3100000D02*
X3760000Y1345000D01*
X-10450000Y-3400000D02*
X-10200000Y-3150000D01*
X-10200000Y2275000D02*
X-9375000Y3100000D01*
X-9375000Y3100000D02*
X2005000Y3100000D01*
%TO.N,/OUT2*%
X-6900000Y2700000D02*
X-2675000Y2700000D01*
X-7675000Y-1675000D02*
X-7675000Y1925000D01*
X-7675000Y1925000D02*
X-6900000Y2700000D01*
X-2675000Y2700000D02*
X-1320000Y1345000D01*
X-9950000Y-3950000D02*
X-7675000Y-1675000D01*
%TO.N,/M3A*%
X28425000Y-24262499D02*
X27837499Y-24850000D01*
X28425000Y-19000000D02*
X28425000Y-24262499D01*
X28425000Y-12406952D02*
X27923148Y-11905100D01*
X28425000Y-19000000D02*
X28425000Y-12406952D01*
%TO.N,/SLA*%
X27825000Y-21265001D02*
X22234999Y-15675000D01*
X27825000Y-22900000D02*
X27825000Y-21265001D01*
%TO.N,/FBA*%
X26925000Y-23046752D02*
X26925000Y-27075000D01*
X26925000Y-27075000D02*
X27575000Y-27725000D01*
X24828248Y-20950000D02*
X26925000Y-23046752D01*
X27575000Y-27725000D02*
X27575000Y-28509999D01*
X27575000Y-28509999D02*
X27050000Y-29034999D01*
%TO.N,/~{WIEN}*%
X-26625000Y-41900000D02*
X-26625000Y-38750000D01*
X-31926000Y-36245389D02*
X-31926000Y-13981943D01*
X-25350000Y75000D02*
X-12750000Y75000D01*
X-12750000Y75000D02*
X-11480000Y-1195000D01*
X-30849322Y-37275000D02*
X-30850322Y-37276000D01*
X-26625000Y-38750000D02*
X-28100000Y-37275000D01*
X-31850000Y-6425000D02*
X-25350000Y75000D01*
X-31850000Y-13905944D02*
X-31850000Y-6425000D01*
X-31926000Y-13981943D02*
X-31850000Y-13905944D01*
X-28100000Y-37275000D02*
X-30849322Y-37275000D01*
X-30895389Y-37276000D02*
X-31926000Y-36245389D01*
X-30850322Y-37276000D02*
X-30895389Y-37276000D01*
%TO.N,Net-(C59-Pad1)*%
X29800000Y-26075000D02*
X29800000Y-17240001D01*
%TO.N,Net-(T6-OUT2B)*%
X14625000Y-9800003D02*
X16975000Y-12150003D01*
X16975000Y-12150003D02*
X16975000Y-32720000D01*
X16975000Y-32720000D02*
X10270000Y-39425000D01*
%TO.N,Net-(T6-OUT1A)*%
X17350000Y-11500000D02*
X17350000Y-33350000D01*
X17350000Y-33350000D02*
X10625000Y-40075000D01*
X15000000Y-9150000D02*
X17350000Y-11500000D01*
X14625000Y-9150000D02*
X15000000Y-9150000D01*
X10625000Y-40075000D02*
X10270000Y-40075000D01*
%TO.N,Net-(T7-OUT1A)*%
X-9350000Y-10062500D02*
X-6450000Y-12962500D01*
X-5625000Y-26225000D02*
X-5625000Y-36526752D01*
X-2450000Y-40100000D02*
X-2101752Y-40100000D01*
X-8787500Y-9150000D02*
X-9125000Y-9150000D01*
X-6450000Y-18000000D02*
X-7225000Y-18775000D01*
X-9350000Y-9375000D02*
X-9350000Y-10062500D01*
X-2675000Y-39875000D02*
X-2450000Y-40100000D01*
X-2675000Y-39476752D02*
X-2675000Y-39875000D01*
X-6450000Y-12962500D02*
X-6450000Y-18000000D01*
X-9125000Y-9150000D02*
X-9350000Y-9375000D01*
X-7225000Y-18775000D02*
X-7225000Y-24625000D01*
X-5625000Y-36526752D02*
X-2675000Y-39476752D01*
X-7225000Y-24625000D02*
X-5625000Y-26225000D01*
X-2101752Y-40100000D02*
X-2076752Y-40075000D01*
%TO.N,Net-(T7-OUT2B)*%
X-6793274Y-18893274D02*
X-6075000Y-18175000D01*
X-6075000Y-12819118D02*
X-8787500Y-10106618D01*
X-2055000Y-39425000D02*
X-2055000Y-39385000D01*
X-8787500Y-10106618D02*
X-8787500Y-9800003D01*
X-6075000Y-18175000D02*
X-6075000Y-12819118D01*
X-6793274Y-24406387D02*
X-6793274Y-18893274D01*
X-5100000Y-36340000D02*
X-5100000Y-26099661D01*
X-5100000Y-26099661D02*
X-6793274Y-24406387D01*
X-2055000Y-39385000D02*
X-5100000Y-36340000D01*
%TO.N,Net-(T8-OUT1A)*%
X-19075000Y-18700000D02*
X-19826000Y-17949000D01*
X-22563500Y-10007524D02*
X-22563500Y-9363500D01*
X-19826000Y-17949000D02*
X-19826000Y-12745024D01*
X-19826000Y-12745024D02*
X-22563500Y-10007524D01*
X-15005280Y-40075000D02*
X-19075000Y-36005280D01*
X-19075000Y-36005280D02*
X-19075000Y-18700000D01*
X-22350000Y-9150000D02*
X-22062500Y-9150000D01*
X-22563500Y-9363500D02*
X-22350000Y-9150000D01*
X-14105000Y-40075000D02*
X-15005280Y-40075000D01*
%TO.N,Net-(T8-OUT2B)*%
X-19375000Y-12487503D02*
X-19375000Y-17875000D01*
X-19375000Y-17875000D02*
X-18650000Y-18600000D01*
X-18650000Y-18600000D02*
X-18650000Y-35725000D01*
X-18650000Y-35725000D02*
X-14950000Y-39425000D01*
X-14950000Y-39425000D02*
X-14105000Y-39425000D01*
X-22062500Y-9800003D02*
X-19375000Y-12487503D01*
%TO.N,Net-(C50-Pad1)*%
X27300000Y-22475000D02*
X21512500Y-16687500D01*
X28400000Y-26425000D02*
X27300000Y-25325000D01*
X28400000Y-28695000D02*
X28400000Y-26425000D01*
X27300000Y-25325000D02*
X27300000Y-22475000D01*
X28075000Y-29020000D02*
X28400000Y-28695000D01*
X21512500Y-16687500D02*
X21225000Y-16687500D01*
D16*
%TO.N,Net-(D52-A1)*%
X23700000Y-26775000D02*
X26225000Y-26775000D01*
X21225000Y-24300000D02*
X23700000Y-26775000D01*
X21225000Y-23825000D02*
X21225000Y-24300000D01*
D18*
X26225000Y-28775000D02*
X23450000Y-31550000D01*
X26225000Y-26775000D02*
X26225000Y-28775000D01*
X23450000Y-31550000D02*
X20800000Y-31550000D01*
%TO.N,Net-(C60-Pad1)*%
X15300000Y-28570000D02*
X15300000Y-26350000D01*
X14100000Y-25150000D02*
X14100000Y-22878611D01*
X11845389Y-20624000D02*
X11845388Y-20624000D01*
X11824000Y-20624000D02*
X7900000Y-16700000D01*
X13770389Y-22549000D02*
X13770388Y-22549000D01*
X12051000Y-20829611D02*
X12051000Y-20829612D01*
X13770388Y-22549000D02*
X12051000Y-20829611D01*
X14100000Y-22878611D02*
X13976000Y-22754612D01*
X11845388Y-20624000D02*
X11824000Y-20624000D01*
X14850000Y-29020000D02*
X15300000Y-28570000D01*
X15300000Y-26350000D02*
X14100000Y-25150000D01*
X13976000Y-22754612D02*
X13770389Y-22549000D01*
X12051000Y-20829611D02*
X11845389Y-20624000D01*
%TO.N,Net-(D62-A1)*%
X13025000Y-29425000D02*
X10900000Y-31550000D01*
X10900000Y-31550000D02*
X7500000Y-31550000D01*
D16*
X10450000Y-26775000D02*
X13025000Y-26775000D01*
X7975000Y-24300000D02*
X10450000Y-26775000D01*
X7975000Y-23825000D02*
X7975000Y-24300000D01*
D18*
X13025000Y-26775000D02*
X13025000Y-29425000D01*
%TO.N,Net-(C69-Pad1)*%
X16375000Y-26350000D02*
X16375000Y-17265001D01*
D19*
%TO.N,Net-(C70-Pad1)*%
X-8500000Y-28400000D02*
X-9375001Y-27524999D01*
X-9375001Y-22849999D02*
X-15500000Y-16725000D01*
X-15500000Y-16725000D02*
X-15500000Y-16715001D01*
X-9375001Y-27524999D02*
X-9375001Y-22849999D01*
X-8500000Y-29020000D02*
X-8500000Y-28400000D01*
D16*
%TO.N,Net-(D72-A1)*%
X-15512500Y-23925000D02*
X-15512500Y-24400000D01*
X-12625000Y-27287500D02*
X-10350001Y-27287500D01*
D18*
X-10350001Y-27287500D02*
X-10350000Y-27287501D01*
X-10350000Y-27287501D02*
X-10350000Y-28425000D01*
X-10350000Y-28425000D02*
X-13475000Y-31550000D01*
D16*
X-15512500Y-24400000D02*
X-12625000Y-27287500D01*
D18*
X-13475000Y-31550000D02*
X-15900000Y-31550000D01*
%TO.N,Net-(C79-Pad1)*%
X-7400000Y-27225000D02*
X-7400000Y-25250000D01*
X-7400000Y-25250000D02*
X-7625000Y-25025000D01*
X-7625000Y-25025000D02*
X-7625000Y-17865001D01*
X-7625000Y-17865001D02*
X-7025000Y-17265001D01*
%TO.N,Net-(C80-Pad1)*%
X-21424000Y-27001000D02*
X-21424000Y-27548943D01*
X-28775000Y-16700000D02*
X-28256744Y-16700000D01*
X-22600000Y-22356744D02*
X-22600000Y-25825000D01*
X-22600000Y-25825000D02*
X-21424000Y-27001000D01*
X-28256744Y-16700000D02*
X-22600000Y-22356744D01*
X-21775000Y-27899943D02*
X-21775000Y-29020000D01*
X-21424000Y-27548943D02*
X-21775000Y-27899943D01*
D16*
%TO.N,Net-(D82-A1)*%
X-28650000Y-24225000D02*
X-25575000Y-27300000D01*
X-28650000Y-23850000D02*
X-28650000Y-24225000D01*
D18*
X-24225000Y-29350000D02*
X-23575000Y-28700000D01*
X-26350000Y-31500000D02*
X-29175000Y-31500000D01*
X-23575000Y-28700000D02*
X-23575000Y-27300000D01*
X-24225000Y-29375000D02*
X-26350000Y-31500000D01*
D16*
X-25575000Y-27300000D02*
X-23575000Y-27300000D01*
D18*
X-24225000Y-29375000D02*
X-24225000Y-29350000D01*
%TO.N,Net-(C89-Pad1)*%
X-20350000Y-25950000D02*
X-20350000Y-17240001D01*
X-20775000Y-26375000D02*
X-20350000Y-25950000D01*
%TO.N,/PHOB*%
X4775000Y-41375000D02*
X8000000Y-38150000D01*
X8000000Y-38150000D02*
X8000000Y-36140000D01*
%TO.N,/PHOC*%
X-15400000Y-36140000D02*
X-12710000Y-36140000D01*
X-12710000Y-36140000D02*
X-7500000Y-41350000D01*
%TO.N,/FBB*%
X13625000Y-26975000D02*
X14375000Y-27725000D01*
X11700000Y-20975000D02*
X13625000Y-22900000D01*
X11375000Y-20975000D02*
X11700000Y-20975000D01*
X13625000Y-22900000D02*
X13625000Y-26975000D01*
X14375000Y-27725000D02*
X14375000Y-28509999D01*
X14375000Y-28509999D02*
X13850000Y-29034999D01*
%TO.N,/SLB*%
X11250000Y-16999000D02*
X11250000Y-19475000D01*
X11250000Y-19475000D02*
X14700000Y-22925000D01*
D19*
%TO.N,/FBC*%
X-9075000Y-28305750D02*
X-9075000Y-29047499D01*
X-9675001Y-23399999D02*
X-9675001Y-27705749D01*
X-9675001Y-27705749D02*
X-9075000Y-28305750D01*
X-12100000Y-20975000D02*
X-11926000Y-21149000D01*
X-11902834Y-21149000D02*
X-11624000Y-21427834D01*
X-11926000Y-21149000D02*
X-11902834Y-21149000D01*
X-9075000Y-29047499D02*
X-9550000Y-29522499D01*
X-11624000Y-21427834D02*
X-11624000Y-21451000D01*
X-11624000Y-21451000D02*
X-9675001Y-23399999D01*
D18*
%TO.N,/SLC*%
X-10825000Y-20925000D02*
X-10600000Y-20925000D01*
X-14502501Y-17247499D02*
X-10825000Y-20925000D01*
X-14502501Y-15700000D02*
X-14502501Y-17247499D01*
%TO.N,/FBD*%
X-22250000Y-28700000D02*
X-22775000Y-29225000D01*
X-22775000Y-29225000D02*
X-22775000Y-29534999D01*
X-22975000Y-22850000D02*
X-22975000Y-27525000D01*
X-22250000Y-28250000D02*
X-22250000Y-28700000D01*
X-22975000Y-27525000D02*
X-22250000Y-28250000D01*
X-24825000Y-21000000D02*
X-22975000Y-22850000D01*
%TO.N,/SLD*%
X-21975000Y-22950000D02*
X-21975000Y-21950000D01*
X-27765001Y-16159999D02*
X-27765001Y-15700000D01*
X-21975000Y-21950000D02*
X-27765001Y-16159999D01*
%TO.N,/MID*%
X-10775000Y-19050000D02*
X-10925000Y-18900000D01*
X-10925000Y-18900000D02*
X-10925000Y-18250000D01*
X-10775000Y-20075000D02*
X-10775000Y-19050000D01*
%TO.N,/M3B*%
X15325000Y-19425000D02*
X15325000Y-24262499D01*
X15325000Y-24262499D02*
X14712499Y-24875000D01*
X14925000Y-19026000D02*
X14926000Y-19026000D01*
X14926000Y-19026000D02*
X15325000Y-19425000D01*
X14925000Y-19026000D02*
X14925000Y-15100000D01*
%TO.N,/M3C*%
X-8313785Y-19461215D02*
X-8313785Y-18988785D01*
X-8025000Y-19750000D02*
X-8313785Y-19461215D01*
X-8550000Y-18752570D02*
X-8550000Y-15625000D01*
X-8313785Y-18988785D02*
X-8550000Y-18752570D01*
X-7925000Y-25550000D02*
X-7925000Y-25250000D01*
X-8025000Y-25150000D02*
X-8025000Y-19750000D01*
X-7925000Y-25250000D02*
X-8025000Y-25150000D01*
%TO.N,/M3D*%
X-21675000Y-19000000D02*
X-21275000Y-19400000D01*
X-21275000Y-19400000D02*
X-21275000Y-24212499D01*
X-21850000Y-16050000D02*
X-21850000Y-15675000D01*
X-21675000Y-16225000D02*
X-21850000Y-16050000D01*
X-21675000Y-19000000D02*
X-21675000Y-16225000D01*
X-21275000Y-24212499D02*
X-21962501Y-24900000D01*
%TO.N,Net-(T1-OUT2B)*%
X18525000Y-36605358D02*
X18525000Y-8887500D01*
X18525000Y-8887500D02*
X19537500Y-7875000D01*
X16730358Y-38400000D02*
X18525000Y-36605358D01*
%TO.N,Net-(T1-OUT1A)*%
X18175000Y-8407500D02*
X19537500Y-7045000D01*
X15710358Y-38400000D02*
X18175000Y-35935358D01*
X18175000Y-35935358D02*
X18175000Y-8407500D01*
%TO.N,Net-(T2-OUT1A)*%
X6475000Y-12675000D02*
X6475000Y-9150000D01*
X6475000Y-9150000D02*
X5725000Y-8400000D01*
X3431072Y-38425000D02*
X4525000Y-37331072D01*
X5725000Y-7550736D02*
X6230736Y-7045000D01*
X5925000Y-13225000D02*
X6475000Y-12675000D01*
X3725000Y-20275000D02*
X3725000Y-16550000D01*
X6230736Y-7045000D02*
X6237500Y-7045000D01*
X4525000Y-21075000D02*
X3725000Y-20275000D01*
X5925000Y-14900000D02*
X5925000Y-13225000D01*
X4525000Y-37331072D02*
X4525000Y-21075000D01*
X5325000Y-15500000D02*
X5925000Y-14900000D01*
X4775000Y-15500000D02*
X5325000Y-15500000D01*
X5725000Y-8400000D02*
X5725000Y-7550736D01*
X3725000Y-16550000D02*
X4775000Y-15500000D01*
%TO.N,Net-(T2-OUT2B)*%
X4900000Y-37976072D02*
X4900000Y-20950000D01*
X4075000Y-20125000D02*
X4075000Y-17550000D01*
X6276000Y-13449000D02*
X6850000Y-12875000D01*
X6276000Y-15074000D02*
X6276000Y-13449000D01*
X6850000Y-12875000D02*
X6850000Y-8487500D01*
X5057521Y-16676000D02*
X5462500Y-16271021D01*
X4075000Y-17550000D02*
X4949000Y-16676000D01*
X4451072Y-38425000D02*
X4900000Y-37976072D01*
X5462500Y-15887500D02*
X6276000Y-15074000D01*
X6850000Y-8487500D02*
X6237500Y-7875000D01*
X4949000Y-16676000D02*
X5057521Y-16676000D01*
X4900000Y-20950000D02*
X4075000Y-20125000D01*
X5462500Y-16271021D02*
X5462500Y-15887500D01*
%TO.N,Net-(T3-OUT1A)*%
X-17450000Y-7150000D02*
X-17087500Y-7150000D01*
X-18300000Y-33450000D02*
X-18300000Y-8000000D01*
X-18300000Y-8000000D02*
X-17450000Y-7150000D01*
X-8820000Y-37917500D02*
X-11237500Y-35500000D01*
X-16250000Y-35500000D02*
X-18300000Y-33450000D01*
X-11237500Y-35500000D02*
X-16250000Y-35500000D01*
X-8820000Y-38425000D02*
X-8820000Y-37917500D01*
%TO.N,Net-(T3-OUT2B)*%
X-17087500Y-7800003D02*
X-17550003Y-7800003D01*
X-17550003Y-7800003D02*
X-17950000Y-8200000D01*
X-16125000Y-35125000D02*
X-11100000Y-35125000D01*
X-17950000Y-33300000D02*
X-16125000Y-35125000D01*
X-11100000Y-35125000D02*
X-7800000Y-38425000D01*
X-17950000Y-8200000D02*
X-17950000Y-33300000D01*
%TO.N,Net-(T4-OUT2B)*%
X-29425000Y-8800000D02*
X-30400000Y-7825000D01*
X-30875000Y-30700000D02*
X-30875000Y-16104213D01*
X-29425000Y-14654213D02*
X-29425000Y-8800000D01*
X-19965000Y-38425000D02*
X-23390000Y-35000000D01*
X-26575000Y-35000000D02*
X-30875000Y-30700000D01*
X-30875000Y-16104213D02*
X-29425000Y-14654213D01*
X-23390000Y-35000000D02*
X-26575000Y-35000000D01*
%TO.N,Net-(T4-OUT1A)*%
X-23550000Y-35375000D02*
X-20985000Y-37940000D01*
X-31225000Y-15900000D02*
X-31225000Y-30844409D01*
X-29900000Y-14575000D02*
X-31225000Y-15900000D01*
X-30925000Y-7350000D02*
X-30925000Y-8100000D01*
X-30700000Y-7125000D02*
X-30925000Y-7350000D01*
X-31225000Y-30844409D02*
X-26694409Y-35375000D01*
X-29900000Y-9125000D02*
X-29900000Y-14575000D01*
X-26694409Y-35375000D02*
X-23550000Y-35375000D01*
X-30400000Y-7125000D02*
X-30700000Y-7125000D01*
X-20985000Y-37940000D02*
X-20985000Y-38425000D01*
X-30925000Y-8100000D02*
X-29900000Y-9125000D01*
%TO.N,/~{INTC}*%
X-9325000Y-19050000D02*
X-9465000Y-18910000D01*
X-9325000Y-19575000D02*
X-9325000Y-19050000D01*
X-9465000Y-18910000D02*
X-9465000Y-15650000D01*
%TO.N,/~{INTD}*%
X-22765000Y-19315000D02*
X-22765000Y-15675000D01*
X-23150000Y-19700000D02*
X-22765000Y-19315000D01*
%TO.N,/RCLK*%
X-30825000Y-36850000D02*
X-26875000Y-36850000D01*
X-14020000Y-1195000D02*
X-14020000Y-12070000D01*
X-31575000Y-14127332D02*
X-31575000Y-36100000D01*
X-30586334Y-13138666D02*
X-31575000Y-14127332D01*
X-26875000Y-36850000D02*
X-25325000Y-38400000D01*
X-14020000Y-12070000D02*
X-14675000Y-12725000D01*
X-31575000Y-36100000D02*
X-30825000Y-36850000D01*
%TO.N,/PHOD*%
X-24340000Y-37350000D02*
X-24350000Y-37350000D01*
X-25460000Y-36240000D02*
X-28750000Y-36240000D01*
X-24350000Y-37350000D02*
X-25460000Y-36240000D01*
X-19610000Y-42080000D02*
X-24340000Y-37350000D01*
%TD*%
M02*
