%TF.GenerationSoftware,KiCad,Pcbnew,9.0.0*%
%TF.CreationDate,2025-04-07T15:36:10+02:00*%
%TF.ProjectId,AES42HAT,41455334-3248-4415-942e-6b696361645f,rev?*%
%TF.SameCoordinates,PX5f5e100PY5f5e100*%
%TF.FileFunction,Paste,Top*%
%TF.FilePolarity,Positive*%
%FSLAX46Y46*%
G04 Gerber Fmt 4.6, Leading zero omitted, Abs format (unit mm)*
G04 Created by KiCad (PCBNEW 9.0.0) date 2025-04-07 15:36:10*
%MOMM*%
%LPD*%
G01*
G04 APERTURE LIST*
G04 Aperture macros list*
%AMRoundRect*
0 Rectangle with rounded corners*
0 $1 Rounding radius*
0 $2 $3 $4 $5 $6 $7 $8 $9 X,Y pos of 4 corners*
0 Add a 4 corners polygon primitive as box body*
4,1,4,$2,$3,$4,$5,$6,$7,$8,$9,$2,$3,0*
0 Add four circle primitives for the rounded corners*
1,1,$1+$1,$2,$3*
1,1,$1+$1,$4,$5*
1,1,$1+$1,$6,$7*
1,1,$1+$1,$8,$9*
0 Add four rect primitives between the rounded corners*
20,1,$1+$1,$2,$3,$4,$5,0*
20,1,$1+$1,$4,$5,$6,$7,0*
20,1,$1+$1,$6,$7,$8,$9,0*
20,1,$1+$1,$8,$9,$2,$3,0*%
%AMFreePoly0*
4,1,21,0.477466,1.268166,0.563863,1.230017,0.630017,1.163863,0.668166,1.077466,0.675000,1.018558,0.675000,-1.018558,0.668166,-1.077466,0.630017,-1.163863,0.563863,-1.230017,0.477466,-1.268166,0.418559,-1.275000,-0.418559,-1.275000,-0.477466,-1.268166,-0.563863,-1.230017,-0.630017,-1.163863,-0.668166,-1.077466,-0.675000,-1.018558,-0.675000,1.079644,-0.479644,1.275000,0.418559,1.275000,
0.477466,1.268166,0.477466,1.268166,$1*%
G04 Aperture macros list end*
%ADD10RoundRect,0.122500X0.172500X-0.122500X0.172500X0.122500X-0.172500X0.122500X-0.172500X-0.122500X0*%
%ADD11RoundRect,0.036000X-0.539000X-0.144000X0.539000X-0.144000X0.539000X0.144000X-0.539000X0.144000X0*%
%ADD12RoundRect,0.045000X-0.530000X-0.180000X0.530000X-0.180000X0.530000X0.180000X-0.530000X0.180000X0*%
%ADD13RoundRect,0.040000X-0.160000X-0.185000X0.160000X-0.185000X0.160000X0.185000X-0.160000X0.185000X0*%
%ADD14RoundRect,0.045000X-0.230000X-0.180000X0.230000X-0.180000X0.230000X0.180000X-0.230000X0.180000X0*%
%ADD15RoundRect,0.122500X-0.172500X0.122500X-0.172500X-0.122500X0.172500X-0.122500X0.172500X0.122500X0*%
%ADD16RoundRect,0.127500X0.157500X-0.127500X0.157500X0.127500X-0.157500X0.127500X-0.157500X-0.127500X0*%
%ADD17RoundRect,0.188235X0.936765X-0.211765X0.936765X0.211765X-0.936765X0.211765X-0.936765X-0.211765X0*%
%ADD18RoundRect,0.127500X0.127500X0.157500X-0.127500X0.157500X-0.127500X-0.157500X0.127500X-0.157500X0*%
%ADD19RoundRect,0.135000X-0.160000X0.135000X-0.160000X-0.135000X0.160000X-0.135000X0.160000X0.135000X0*%
%ADD20RoundRect,0.127500X-0.157500X0.127500X-0.157500X-0.127500X0.157500X-0.127500X0.157500X0.127500X0*%
%ADD21RoundRect,0.122500X0.122500X0.172500X-0.122500X0.172500X-0.122500X-0.172500X0.122500X-0.172500X0*%
%ADD22RoundRect,0.212500X0.212500X0.237500X-0.212500X0.237500X-0.212500X-0.237500X0.212500X-0.237500X0*%
%ADD23RoundRect,0.127500X-0.127500X-0.157500X0.127500X-0.157500X0.127500X0.157500X-0.127500X0.157500X0*%
%ADD24RoundRect,0.087500X-0.625000X-0.087500X0.625000X-0.087500X0.625000X0.087500X-0.625000X0.087500X0*%
%ADD25RoundRect,0.122500X-0.122500X-0.172500X0.122500X-0.172500X0.122500X0.172500X-0.122500X0.172500X0*%
%ADD26RoundRect,0.075000X-0.712500X-0.075000X0.712500X-0.075000X0.712500X0.075000X-0.712500X0.075000X0*%
%ADD27RoundRect,0.087500X0.142500X0.087500X-0.142500X0.087500X-0.142500X-0.087500X0.142500X-0.087500X0*%
%ADD28RoundRect,0.212500X-0.212500X-0.237500X0.212500X-0.237500X0.212500X0.237500X-0.212500X0.237500X0*%
%ADD29RoundRect,0.135000X0.160000X-0.135000X0.160000X0.135000X-0.160000X0.135000X-0.160000X-0.135000X0*%
%ADD30FreePoly0,90.000000*%
%ADD31RoundRect,0.192857X0.482143X-1.082143X0.482143X1.082143X-0.482143X1.082143X-0.482143X-1.082143X0*%
%ADD32RoundRect,0.192857X1.082143X-0.482143X1.082143X0.482143X-1.082143X0.482143X-1.082143X-0.482143X0*%
%ADD33RoundRect,0.237500X0.237500X-0.262500X0.237500X0.262500X-0.237500X0.262500X-0.237500X-0.262500X0*%
%ADD34RoundRect,0.238095X0.261905X-0.836905X0.261905X0.836905X-0.261905X0.836905X-0.261905X-0.836905X0*%
%ADD35RoundRect,0.122500X0.035355X-0.208597X0.208597X-0.035355X-0.035355X0.208597X-0.208597X0.035355X0*%
%ADD36RoundRect,0.240385X-0.434615X0.384615X-0.434615X-0.384615X0.434615X-0.384615X0.434615X0.384615X0*%
%ADD37RoundRect,0.172500X0.172500X0.332500X-0.172500X0.332500X-0.172500X-0.332500X0.172500X-0.332500X0*%
%ADD38RoundRect,0.037500X0.337500X0.037500X-0.337500X0.037500X-0.337500X-0.037500X0.337500X-0.037500X0*%
%ADD39RoundRect,0.137500X0.137500X-0.500000X0.137500X0.500000X-0.137500X0.500000X-0.137500X-0.500000X0*%
%ADD40RoundRect,0.188235X-0.936765X0.211765X-0.936765X-0.211765X0.936765X-0.211765X0.936765X0.211765X0*%
%ADD41RoundRect,0.162500X-0.312500X0.162500X-0.312500X-0.162500X0.312500X-0.162500X0.312500X0.162500X0*%
%ADD42RoundRect,0.137500X-0.137500X0.187500X-0.137500X-0.187500X0.137500X-0.187500X0.137500X0.187500X0*%
%ADD43RoundRect,0.062500X-0.650000X-0.062500X0.650000X-0.062500X0.650000X0.062500X-0.650000X0.062500X0*%
%ADD44RoundRect,0.062500X-0.062500X-0.650000X0.062500X-0.650000X0.062500X0.650000X-0.062500X0.650000X0*%
%ADD45RoundRect,0.072500X0.072500X-0.252500X0.072500X0.252500X-0.072500X0.252500X-0.072500X-0.252500X0*%
%ADD46RoundRect,0.137500X-0.500000X-0.137500X0.500000X-0.137500X0.500000X0.137500X-0.500000X0.137500X0*%
%ADD47R,1.350000X1.150000*%
%ADD48RoundRect,0.087500X0.087500X-0.212500X0.087500X0.212500X-0.087500X0.212500X-0.087500X-0.212500X0*%
%ADD49RoundRect,0.237500X0.262500X0.237500X-0.262500X0.237500X-0.262500X-0.237500X0.262500X-0.237500X0*%
%ADD50RoundRect,0.238095X0.836905X0.261905X-0.836905X0.261905X-0.836905X-0.261905X0.836905X-0.261905X0*%
%ADD51RoundRect,0.087500X-0.142500X-0.087500X0.142500X-0.087500X0.142500X0.087500X-0.142500X0.087500X0*%
%ADD52RoundRect,0.188235X-0.736765X0.211765X-0.736765X-0.211765X0.736765X-0.211765X0.736765X0.211765X0*%
%ADD53RoundRect,0.250000X-0.265000X0.265000X-0.265000X-0.265000X0.265000X-0.265000X0.265000X0.265000X0*%
%ADD54RoundRect,0.050000X-0.050000X0.325000X-0.050000X-0.325000X0.050000X-0.325000X0.050000X0.325000X0*%
%ADD55RoundRect,0.050000X-0.325000X0.050000X-0.325000X-0.050000X0.325000X-0.050000X0.325000X0.050000X0*%
%ADD56RoundRect,0.075000X0.712500X0.075000X-0.712500X0.075000X-0.712500X-0.075000X0.712500X-0.075000X0*%
%ADD57RoundRect,0.237500X-0.262500X-0.237500X0.262500X-0.237500X0.262500X0.237500X-0.262500X0.237500X0*%
%ADD58RoundRect,0.238095X-0.836905X-0.261905X0.836905X-0.261905X0.836905X0.261905X-0.836905X0.261905X0*%
G04 APERTURE END LIST*
D10*
%TO.C,R89*%
X-20325000Y-18259999D03*
X-20325000Y-17240001D03*
%TD*%
D11*
%TO.C,T3*%
X-11490000Y-42125000D03*
D12*
X-7510000Y-42080000D03*
D11*
X-11490000Y-41475000D03*
X-7510000Y-40075000D03*
D13*
X-11100000Y-39470000D03*
D14*
X-11800000Y-39470000D03*
D11*
X-7510000Y-39425000D03*
%TD*%
D15*
%TO.C,R92*%
X-3275000Y-22165001D03*
X-3275000Y-23184999D03*
%TD*%
D16*
%TO.C,C31*%
X-6225000Y-39455000D03*
X-6225000Y-38495000D03*
%TD*%
D15*
%TO.C,R51*%
X27050000Y-28015001D03*
X27050000Y-29034999D03*
%TD*%
D17*
%TO.C,L3*%
X-4375000Y-30650000D03*
X-4375000Y-28700000D03*
%TD*%
D15*
%TO.C,R54*%
X19050000Y-33040001D03*
X19050000Y-34059999D03*
%TD*%
%TO.C,R4*%
X1250000Y-11140001D03*
X1250000Y-12159999D03*
%TD*%
D10*
%TO.C,R91*%
X2250000Y-23210000D03*
X2250000Y-22190000D03*
%TD*%
D18*
%TO.C,C22*%
X11180000Y-15675000D03*
X10220000Y-15675000D03*
%TD*%
D19*
%TO.C,D53*%
X19050000Y-31090000D03*
X19050000Y-32060000D03*
%TD*%
D20*
%TO.C,C59*%
X28775000Y-17270000D03*
X28775000Y-18230000D03*
%TD*%
%TO.C,C25*%
X17400000Y-8995000D03*
X17400000Y-9955000D03*
%TD*%
D21*
%TO.C,R41*%
X-16315000Y-38430000D03*
X-17335000Y-38430000D03*
%TD*%
D10*
%TO.C,R59*%
X29800000Y-18259999D03*
X29800000Y-17240001D03*
%TD*%
D22*
%TO.C,C71*%
X-15325000Y-25625000D03*
X-16875000Y-25625000D03*
%TD*%
D23*
%TO.C,C93*%
X24020000Y-46475000D03*
X24980000Y-46475000D03*
%TD*%
%TO.C,C75*%
X-17455000Y-16725000D03*
X-16495000Y-16725000D03*
%TD*%
D15*
%TO.C,R8*%
X1275000Y-27525000D03*
X1275000Y-28545000D03*
%TD*%
D24*
%TO.C,U50*%
X23300000Y-20300000D03*
X23300000Y-20950000D03*
X23300000Y-21600000D03*
X23300000Y-22250000D03*
X23300000Y-22900000D03*
X23300000Y-23550000D03*
X23300000Y-24200000D03*
X23300000Y-24850000D03*
X29025000Y-24850000D03*
X29025000Y-24200000D03*
X29025000Y-23550000D03*
X29025000Y-22900000D03*
X29025000Y-22250000D03*
X29025000Y-21600000D03*
X29025000Y-20950000D03*
X29025000Y-20300000D03*
%TD*%
D15*
%TO.C,R71*%
X-9550000Y-28515001D03*
X-9550000Y-29534999D03*
%TD*%
D25*
%TO.C,R2*%
X-2335000Y-3800000D03*
X-1315000Y-3800000D03*
%TD*%
D26*
%TO.C,U53*%
X22837500Y-17000000D03*
X22837500Y-17500000D03*
X22837500Y-18000000D03*
X22837500Y-18500000D03*
X22837500Y-19000000D03*
X27062500Y-19000000D03*
X27062500Y-18500000D03*
X27062500Y-18000000D03*
X27062500Y-17500000D03*
X27062500Y-17000000D03*
%TD*%
D15*
%TO.C,R67*%
X7900000Y-16715001D03*
X7900000Y-17734999D03*
%TD*%
%TO.C,R12*%
X20600000Y-4665001D03*
X20600000Y-5684999D03*
%TD*%
D20*
%TO.C,C92*%
X30875000Y-38320000D03*
X30875000Y-39280000D03*
%TD*%
D10*
%TO.C,R70*%
X-7400000Y-35684999D03*
X-7400000Y-34665001D03*
%TD*%
D23*
%TO.C,C55*%
X19245000Y-16725000D03*
X20205000Y-16725000D03*
%TD*%
D21*
%TO.C,R21*%
X8060000Y-38425000D03*
X7040000Y-38425000D03*
%TD*%
D24*
%TO.C,U80*%
X-26512500Y-20350000D03*
X-26512500Y-21000000D03*
X-26512500Y-21650000D03*
X-26512500Y-22300000D03*
X-26512500Y-22950000D03*
X-26512500Y-23600000D03*
X-26512500Y-24250000D03*
X-26512500Y-24900000D03*
X-20787500Y-24900000D03*
X-20787500Y-24250000D03*
X-20787500Y-23600000D03*
X-20787500Y-22950000D03*
X-20787500Y-22300000D03*
X-20787500Y-21650000D03*
X-20787500Y-21000000D03*
X-20787500Y-20350000D03*
%TD*%
D11*
%TO.C,T2*%
X785000Y-42125000D03*
D12*
X4765000Y-42080000D03*
D11*
X785000Y-41475000D03*
X4765000Y-40075000D03*
D13*
X1175000Y-39470000D03*
D14*
X475000Y-39470000D03*
D11*
X4765000Y-39425000D03*
%TD*%
D10*
%TO.C,R80*%
X-20775000Y-35684999D03*
X-20775000Y-34665001D03*
%TD*%
D15*
%TO.C,R83*%
X-28750000Y-36240000D03*
X-28750000Y-37260000D03*
%TD*%
%TO.C,R98*%
X-25975000Y-43080001D03*
X-25975000Y-44099999D03*
%TD*%
D20*
%TO.C,C24*%
X5950000Y-11395000D03*
X5950000Y-12355000D03*
%TD*%
D27*
%TO.C,D93*%
X21680001Y-45400000D03*
X21680001Y-46400000D03*
X22970000Y-45900000D03*
%TD*%
D20*
%TO.C,C70*%
X-8500000Y-29020000D03*
X-8500000Y-29980000D03*
%TD*%
D22*
%TO.C,C53*%
X21225000Y-23825000D03*
X19675000Y-23825000D03*
%TD*%
D20*
%TO.C,C44*%
X-19325000Y-8995000D03*
X-19325000Y-9955000D03*
%TD*%
D28*
%TO.C,C72*%
X-10325000Y-27250000D03*
X-8775000Y-27250000D03*
%TD*%
D29*
%TO.C,D42*%
X-30325000Y-5635000D03*
X-30325000Y-4665000D03*
%TD*%
D21*
%TO.C,R31*%
X-4240000Y-38425000D03*
X-5260000Y-38425000D03*
%TD*%
D16*
%TO.C,C46*%
X-30750000Y-10505000D03*
X-30750000Y-9545000D03*
%TD*%
D11*
%TO.C,T5*%
X19700000Y-42125000D03*
D12*
X23680000Y-42080000D03*
D11*
X19700000Y-41475000D03*
X23680000Y-40075000D03*
D13*
X20090000Y-39470000D03*
D14*
X19390000Y-39470000D03*
D11*
X23680000Y-39425000D03*
%TD*%
%TO.C,T8*%
X-17040000Y-42125000D03*
D12*
X-13060000Y-42080000D03*
D11*
X-17040000Y-41475000D03*
X-13060000Y-40075000D03*
D13*
X-16650000Y-39470000D03*
D14*
X-17350000Y-39470000D03*
D11*
X-13060000Y-39425000D03*
%TD*%
%TO.C,T6*%
X7329285Y-42125000D03*
D12*
X11309285Y-42080000D03*
D11*
X7329285Y-41475000D03*
X11309285Y-40075000D03*
D13*
X7719285Y-39470000D03*
D14*
X7019285Y-39470000D03*
D11*
X11309285Y-39425000D03*
%TD*%
D10*
%TO.C,R36*%
X-16450000Y-37160000D03*
X-16450000Y-36140000D03*
%TD*%
D30*
%TO.C,L60*%
X10100000Y-36300000D03*
D31*
X9500000Y-31900000D03*
D32*
X13900000Y-31300000D03*
D31*
X14500000Y-35700000D03*
%TD*%
D16*
%TO.C,C97*%
X-30275000Y-40955000D03*
X-30275000Y-39995000D03*
%TD*%
D15*
%TO.C,R73*%
X-15400000Y-36140000D03*
X-15400000Y-37160000D03*
%TD*%
D28*
%TO.C,C3*%
X-1925000Y-27200000D03*
X-375000Y-27200000D03*
%TD*%
D25*
%TO.C,R44*%
X-23785000Y-15675000D03*
X-22765000Y-15675000D03*
%TD*%
D33*
%TO.C,J98*%
X-30050000Y-44950000D03*
D34*
X-31525000Y-43425000D03*
X-28575000Y-43425000D03*
%TD*%
D25*
%TO.C,R14*%
X26215000Y-15675000D03*
X27235000Y-15675000D03*
%TD*%
D21*
%TO.C,R68*%
X8909999Y-15700000D03*
X7890001Y-15700000D03*
%TD*%
D35*
%TO.C,R25*%
X12914376Y-4235624D03*
X13635624Y-3514376D03*
%TD*%
D20*
%TO.C,C89*%
X-21300000Y-17270000D03*
X-21300000Y-18230000D03*
%TD*%
D22*
%TO.C,C2*%
X975000Y-33875000D03*
X-575000Y-33875000D03*
%TD*%
D25*
%TO.C,R55*%
X19215000Y-18750000D03*
X20235000Y-18750000D03*
%TD*%
D23*
%TO.C,C86*%
X-30680000Y-17725000D03*
X-29720000Y-17725000D03*
%TD*%
D30*
%TO.C,L80*%
X-26600000Y-36300000D03*
D31*
X-27200000Y-31900000D03*
D32*
X-22800000Y-31300000D03*
D31*
X-22200000Y-35700000D03*
%TD*%
D10*
%TO.C,R60*%
X15975000Y-35684999D03*
X15975000Y-34665001D03*
%TD*%
D19*
%TO.C,D63*%
X5750000Y-31090000D03*
X5750000Y-32060000D03*
%TD*%
D18*
%TO.C,C23*%
X11930000Y-4275000D03*
X10970000Y-4275000D03*
%TD*%
D29*
%TO.C,D12*%
X19574999Y-5669999D03*
X19574999Y-4699999D03*
%TD*%
D20*
%TO.C,C14*%
X19250000Y-11395000D03*
X19250000Y-12355000D03*
%TD*%
D11*
%TO.C,T1*%
X13085000Y-42100000D03*
D12*
X17065000Y-42055000D03*
D11*
X13085000Y-41450000D03*
X17065000Y-40050000D03*
D13*
X13475000Y-39445000D03*
D14*
X12775000Y-39445000D03*
D11*
X17065000Y-39400000D03*
%TD*%
D21*
%TO.C,R86*%
X-29690001Y-15700000D03*
X-30709999Y-15700000D03*
%TD*%
D24*
%TO.C,U60*%
X10162500Y-20325000D03*
X10162500Y-20975000D03*
X10162500Y-21625000D03*
X10162500Y-22275000D03*
X10162500Y-22925000D03*
X10162500Y-23575000D03*
X10162500Y-24225000D03*
X10162500Y-24875000D03*
X15887500Y-24875000D03*
X15887500Y-24225000D03*
X15887500Y-23575000D03*
X15887500Y-22925000D03*
X15887500Y-22275000D03*
X15887500Y-21625000D03*
X15887500Y-20975000D03*
X15887500Y-20325000D03*
%TD*%
D25*
%TO.C,R20*%
X3431072Y-38425000D03*
X4451072Y-38425000D03*
%TD*%
D21*
%TO.C,R56*%
X20259999Y-15725000D03*
X19240001Y-15725000D03*
%TD*%
D36*
%TO.C,D82*%
X-29175000Y-31500000D03*
X-29175000Y-34400000D03*
%TD*%
D15*
%TO.C,R42*%
X-29300000Y-4640001D03*
X-29300000Y-5659999D03*
%TD*%
%TO.C,R90*%
X-2250000Y-24125000D03*
X-2250000Y-25144998D03*
%TD*%
D23*
%TO.C,C65*%
X5965000Y-16725000D03*
X6925000Y-16725000D03*
%TD*%
D10*
%TO.C,R52*%
X26000000Y-29034999D03*
X26000000Y-28015001D03*
%TD*%
D26*
%TO.C,U73*%
X-13812500Y-17000000D03*
X-13812500Y-17500000D03*
X-13812500Y-18000000D03*
X-13812500Y-18500000D03*
X-13812500Y-19000000D03*
X-9587500Y-19000000D03*
X-9587500Y-18500000D03*
X-9587500Y-18000000D03*
X-9587500Y-17500000D03*
X-9587500Y-17000000D03*
%TD*%
D30*
%TO.C,L70*%
X-13300000Y-36300000D03*
D31*
X-13900000Y-31900000D03*
D32*
X-9500000Y-31300000D03*
D31*
X-8900000Y-35700000D03*
%TD*%
D23*
%TO.C,C66*%
X5965000Y-17775000D03*
X6925000Y-17775000D03*
%TD*%
D37*
%TO.C,U4*%
X-50000Y-31950000D03*
X-50000Y-30700000D03*
X-900000Y-31950000D03*
X-900000Y-30700000D03*
D38*
X975000Y-32450000D03*
X975000Y-32000000D03*
X975000Y-31550000D03*
X975000Y-31100000D03*
X975000Y-30650000D03*
X975000Y-30200000D03*
X-1925000Y-30200000D03*
X-1925000Y-30650000D03*
X-1925000Y-31100000D03*
X-1925000Y-31550000D03*
X-1925000Y-32000000D03*
X-1925000Y-32450000D03*
%TD*%
D18*
%TO.C,C12*%
X24480000Y-15675000D03*
X23520000Y-15675000D03*
%TD*%
D39*
%TO.C,U71*%
X-13799999Y-29012500D03*
X-12850000Y-29012500D03*
X-11900001Y-29012500D03*
X-11900001Y-26737500D03*
X-12850000Y-26737500D03*
X-13799999Y-26737500D03*
%TD*%
D22*
%TO.C,C61*%
X7975000Y-25625000D03*
X6425000Y-25625000D03*
%TD*%
D10*
%TO.C,R46*%
X-29800000Y-37260000D03*
X-29800000Y-36240000D03*
%TD*%
D20*
%TO.C,C91*%
X25525000Y-39070000D03*
X25525000Y-40030000D03*
%TD*%
D15*
%TO.C,R94*%
X-24300000Y-45565000D03*
X-24300000Y-46585000D03*
%TD*%
D36*
%TO.C,D52*%
X20800000Y-31550000D03*
X20800000Y-34450000D03*
%TD*%
D18*
%TO.C,C13*%
X25230000Y-4275000D03*
X24270000Y-4275000D03*
%TD*%
D40*
%TO.C,L71*%
X-16125000Y-27225000D03*
X-16125000Y-29175000D03*
%TD*%
D25*
%TO.C,R10*%
X15710358Y-38400000D03*
X16730358Y-38400000D03*
%TD*%
%TO.C,R75*%
X-17485000Y-18775000D03*
X-16465000Y-18775000D03*
%TD*%
D29*
%TO.C,D84*%
X-30900000Y-35910000D03*
X-30900000Y-34940000D03*
%TD*%
D41*
%TO.C,U52*%
X21250000Y-20425000D03*
D42*
X19550000Y-20425000D03*
X19550000Y-22425000D03*
X21450000Y-22425000D03*
%TD*%
D28*
%TO.C,C62*%
X13025000Y-26775000D03*
X14575000Y-26775000D03*
%TD*%
D43*
%TO.C,U40*%
X-29162500Y-7225000D03*
X-29162500Y-7725000D03*
X-29162500Y-8225000D03*
X-29162500Y-8725000D03*
X-29162500Y-9225000D03*
X-29162500Y-9725000D03*
X-29162500Y-10225000D03*
X-29162500Y-10725000D03*
X-29162500Y-11225000D03*
X-29162500Y-11725000D03*
X-29162500Y-12225000D03*
X-29162500Y-12725000D03*
D44*
X-27750000Y-14137500D03*
X-27250000Y-14137500D03*
X-26750000Y-14137500D03*
X-26250000Y-14137500D03*
X-25750000Y-14137500D03*
X-25250000Y-14137500D03*
X-24750000Y-14137500D03*
X-24250000Y-14137500D03*
X-23750000Y-14137500D03*
X-23250000Y-14137500D03*
X-22750000Y-14137500D03*
X-22250000Y-14137500D03*
D43*
X-20837500Y-12725000D03*
X-20837500Y-12225000D03*
X-20837500Y-11725000D03*
X-20837500Y-11225000D03*
X-20837500Y-10725000D03*
X-20837500Y-10225000D03*
X-20837500Y-9725000D03*
X-20837500Y-9225000D03*
X-20837500Y-8725000D03*
X-20837500Y-8225000D03*
X-20837500Y-7725000D03*
X-20837500Y-7225000D03*
D44*
X-22250000Y-5812500D03*
X-22750000Y-5812500D03*
X-23250000Y-5812500D03*
X-23750000Y-5812500D03*
X-24250000Y-5812500D03*
X-24750000Y-5812500D03*
X-25250000Y-5812500D03*
X-25750000Y-5812500D03*
X-26250000Y-5812500D03*
X-26750000Y-5812500D03*
X-27250000Y-5812500D03*
X-27750000Y-5812500D03*
%TD*%
D15*
%TO.C,R74*%
X-17625000Y-33015000D03*
X-17625000Y-34035000D03*
%TD*%
D16*
%TO.C,C16*%
X19250000Y-10505000D03*
X19250000Y-9545000D03*
%TD*%
D15*
%TO.C,R87*%
X-28775000Y-16715001D03*
X-28775000Y-17734999D03*
%TD*%
%TO.C,R81*%
X-22775000Y-28515001D03*
X-22775000Y-29534999D03*
%TD*%
D18*
%TO.C,C40*%
X-23020000Y-38425000D03*
X-23980000Y-38425000D03*
%TD*%
D15*
%TO.C,R61*%
X13850000Y-28015001D03*
X13850000Y-29034999D03*
%TD*%
D25*
%TO.C,R1*%
X-2335000Y-5700000D03*
X-1315000Y-5700000D03*
%TD*%
D29*
%TO.C,D22*%
X6275000Y-5660000D03*
X6275000Y-4690000D03*
%TD*%
D20*
%TO.C,C34*%
X-17450000Y-11395000D03*
X-17450000Y-12355000D03*
%TD*%
D16*
%TO.C,C11*%
X18425000Y-39455000D03*
X18425000Y-38495000D03*
%TD*%
D15*
%TO.C,R15*%
X2200000Y-11140001D03*
X2200000Y-12159999D03*
%TD*%
D40*
%TO.C,L51*%
X20450000Y-27225000D03*
X20450000Y-29175000D03*
%TD*%
D25*
%TO.C,R40*%
X-20985000Y-38425000D03*
X-19965000Y-38425000D03*
%TD*%
D29*
%TO.C,D54*%
X19050000Y-36010000D03*
X19050000Y-35040000D03*
%TD*%
D28*
%TO.C,C1*%
X-1925000Y-28750000D03*
X-375000Y-28750000D03*
%TD*%
D21*
%TO.C,R78*%
X-14490001Y-15700000D03*
X-15509999Y-15700000D03*
%TD*%
D18*
%TO.C,C96*%
X30455000Y-44975000D03*
X29495000Y-44975000D03*
%TD*%
%TO.C,C32*%
X-12220000Y-15650000D03*
X-13180000Y-15650000D03*
%TD*%
D29*
%TO.C,D74*%
X-17625000Y-35935000D03*
X-17625000Y-34965000D03*
%TD*%
D15*
%TO.C,R63*%
X8000000Y-36140000D03*
X8000000Y-37160000D03*
%TD*%
D20*
%TO.C,C79*%
X-8050000Y-17270000D03*
X-8050000Y-18230000D03*
%TD*%
D43*
%TO.C,U10*%
X20837500Y-7225000D03*
X20837500Y-7725000D03*
X20837500Y-8225000D03*
X20837500Y-8725000D03*
X20837500Y-9225000D03*
X20837500Y-9725000D03*
X20837500Y-10225000D03*
X20837500Y-10725000D03*
X20837500Y-11225000D03*
X20837500Y-11725000D03*
X20837500Y-12225000D03*
X20837500Y-12725000D03*
D44*
X22250000Y-14137500D03*
X22750000Y-14137500D03*
X23250000Y-14137500D03*
X23750000Y-14137500D03*
X24250000Y-14137500D03*
X24750000Y-14137500D03*
X25250000Y-14137500D03*
X25750000Y-14137500D03*
X26250000Y-14137500D03*
X26750000Y-14137500D03*
X27250000Y-14137500D03*
X27750000Y-14137500D03*
D43*
X29162500Y-12725000D03*
X29162500Y-12225000D03*
X29162500Y-11725000D03*
X29162500Y-11225000D03*
X29162500Y-10725000D03*
X29162500Y-10225000D03*
X29162500Y-9725000D03*
X29162500Y-9225000D03*
X29162500Y-8725000D03*
X29162500Y-8225000D03*
X29162500Y-7725000D03*
X29162500Y-7225000D03*
D44*
X27750000Y-5812500D03*
X27250000Y-5812500D03*
X26750000Y-5812500D03*
X26250000Y-5812500D03*
X25750000Y-5812500D03*
X25250000Y-5812500D03*
X24750000Y-5812500D03*
X24250000Y-5812500D03*
X23750000Y-5812500D03*
X23250000Y-5812500D03*
X22750000Y-5812500D03*
X22250000Y-5812500D03*
%TD*%
D16*
%TO.C,C36*%
X-17450000Y-10505000D03*
X-17450000Y-9545000D03*
%TD*%
D15*
%TO.C,R64*%
X5750000Y-33015001D03*
X5750000Y-34034999D03*
%TD*%
D10*
%TO.C,R72*%
X-10625000Y-29534999D03*
X-10625000Y-28515001D03*
%TD*%
D21*
%TO.C,R58*%
X22234999Y-15675000D03*
X21215001Y-15675000D03*
%TD*%
%TO.C,R76*%
X-16465000Y-15700000D03*
X-17485000Y-15700000D03*
%TD*%
D22*
%TO.C,C51*%
X21225000Y-25625000D03*
X19675000Y-25625000D03*
%TD*%
D45*
%TO.C,U5*%
X-29150000Y-40925000D03*
X-28650000Y-40925000D03*
X-28150000Y-40925000D03*
X-28150000Y-39425000D03*
X-28650000Y-39425000D03*
X-29150000Y-39425000D03*
%TD*%
D21*
%TO.C,R11*%
X20435000Y-38400000D03*
X19415000Y-38400000D03*
%TD*%
D41*
%TO.C,U62*%
X7900000Y-20425000D03*
D42*
X6200000Y-20425000D03*
X6200000Y-22425000D03*
X8100000Y-22425000D03*
%TD*%
D46*
%TO.C,U3*%
X100000Y-3800000D03*
X100000Y-4750000D03*
X100000Y-5700000D03*
X2375000Y-5700000D03*
X2375000Y-3800000D03*
%TD*%
D10*
%TO.C,R62*%
X12800000Y-29034999D03*
X12800000Y-28015001D03*
%TD*%
D23*
%TO.C,C85*%
X-30680000Y-16725000D03*
X-29720000Y-16725000D03*
%TD*%
D36*
%TO.C,D72*%
X-15900000Y-31550000D03*
X-15900000Y-34450000D03*
%TD*%
D29*
%TO.C,D64*%
X5750000Y-35985000D03*
X5750000Y-35015000D03*
%TD*%
D22*
%TO.C,C81*%
X-28587500Y-25650000D03*
X-30137500Y-25650000D03*
%TD*%
%TO.C,C83*%
X-28650000Y-23850000D03*
X-30200000Y-23850000D03*
%TD*%
D21*
%TO.C,R66*%
X6959999Y-15700000D03*
X5940001Y-15700000D03*
%TD*%
D10*
%TO.C,R26*%
X6950000Y-37160000D03*
X6950000Y-36140000D03*
%TD*%
D25*
%TO.C,R85*%
X-30709999Y-18725000D03*
X-29690001Y-18725000D03*
%TD*%
D41*
%TO.C,U82*%
X-28662500Y-20425000D03*
D42*
X-30362500Y-20425000D03*
X-30362500Y-22425000D03*
X-28462500Y-22425000D03*
%TD*%
D22*
%TO.C,C63*%
X7975000Y-23825000D03*
X6425000Y-23825000D03*
%TD*%
D40*
%TO.C,L61*%
X7225000Y-27225000D03*
X7225000Y-29175000D03*
%TD*%
D20*
%TO.C,C69*%
X15350000Y-17295000D03*
X15350000Y-18255000D03*
%TD*%
D21*
%TO.C,R88*%
X-27765001Y-15700000D03*
X-28784999Y-15700000D03*
%TD*%
D18*
%TO.C,C43*%
X-24770000Y-4225000D03*
X-25730000Y-4225000D03*
%TD*%
D26*
%TO.C,U83*%
X-27162500Y-17000000D03*
X-27162500Y-17500000D03*
X-27162500Y-18000000D03*
X-27162500Y-18500000D03*
X-27162500Y-19000000D03*
X-22937500Y-19000000D03*
X-22937500Y-18500000D03*
X-22937500Y-18000000D03*
X-22937500Y-17500000D03*
X-22937500Y-17000000D03*
%TD*%
D15*
%TO.C,R77*%
X-15500000Y-16740001D03*
X-15500000Y-17759999D03*
%TD*%
D18*
%TO.C,C42*%
X-25520000Y-15675000D03*
X-26480000Y-15675000D03*
%TD*%
D30*
%TO.C,L50*%
X23400000Y-36300000D03*
D31*
X22800000Y-31900000D03*
D32*
X27200000Y-31300000D03*
D31*
X27800000Y-35700000D03*
%TD*%
D16*
%TO.C,C26*%
X5950000Y-10505000D03*
X5950000Y-9545000D03*
%TD*%
%TO.C,C41*%
X-18300000Y-39460000D03*
X-18300000Y-38500000D03*
%TD*%
D10*
%TO.C,R9*%
X2325000Y-28545000D03*
X2325000Y-27525000D03*
%TD*%
D11*
%TO.C,T4*%
X-23590000Y-42125000D03*
D12*
X-19610000Y-42080000D03*
D11*
X-23590000Y-41475000D03*
X-19610000Y-40075000D03*
D13*
X-23200000Y-39470000D03*
D14*
X-23900000Y-39470000D03*
D11*
X-19610000Y-39425000D03*
%TD*%
D18*
%TO.C,C20*%
X1321072Y-38425000D03*
X361072Y-38425000D03*
%TD*%
D47*
%TO.C,Y1*%
X29300000Y-38325000D03*
X27100000Y-38325000D03*
X27100000Y-40025000D03*
X29300000Y-40025000D03*
%TD*%
D10*
%TO.C,R16*%
X20350000Y-37110000D03*
X20350000Y-36090000D03*
%TD*%
D20*
%TO.C,C90*%
X-2250000Y-22220000D03*
X-2250000Y-23180000D03*
%TD*%
D15*
%TO.C,R17*%
X30725000Y-7030002D03*
X30725000Y-8050000D03*
%TD*%
D22*
%TO.C,C73*%
X-15512500Y-23925000D03*
X-17062500Y-23925000D03*
%TD*%
D15*
%TO.C,R22*%
X7300000Y-4665001D03*
X7300000Y-5684999D03*
%TD*%
D48*
%TO.C,J1*%
X-25325000Y-39225000D03*
X-26625000Y-39225000D03*
%TD*%
D41*
%TO.C,U72*%
X-15437500Y-20425000D03*
D42*
X-17137500Y-20425000D03*
X-17137500Y-22425000D03*
X-15237500Y-22425000D03*
%TD*%
D15*
%TO.C,R96*%
X-22300000Y-45565000D03*
X-22300000Y-46585000D03*
%TD*%
D18*
%TO.C,C94*%
X24610000Y-44275000D03*
X23650000Y-44275000D03*
%TD*%
D15*
%TO.C,R57*%
X21225000Y-16715001D03*
X21225000Y-17734999D03*
%TD*%
%TO.C,R97*%
X-23300000Y-45565000D03*
X-23300000Y-46585000D03*
%TD*%
D43*
%TO.C,U30*%
X-15862500Y-7225000D03*
X-15862500Y-7725000D03*
X-15862500Y-8225000D03*
X-15862500Y-8725000D03*
X-15862500Y-9225000D03*
X-15862500Y-9725000D03*
X-15862500Y-10225000D03*
X-15862500Y-10725000D03*
X-15862500Y-11225000D03*
X-15862500Y-11725000D03*
X-15862500Y-12225000D03*
X-15862500Y-12725000D03*
D44*
X-14450000Y-14137500D03*
X-13950000Y-14137500D03*
X-13450000Y-14137500D03*
X-12950000Y-14137500D03*
X-12450000Y-14137500D03*
X-11950000Y-14137500D03*
X-11450000Y-14137500D03*
X-10950000Y-14137500D03*
X-10450000Y-14137500D03*
X-9950000Y-14137500D03*
X-9450000Y-14137500D03*
X-8950000Y-14137500D03*
D43*
X-7537500Y-12725000D03*
X-7537500Y-12225000D03*
X-7537500Y-11725000D03*
X-7537500Y-11225000D03*
X-7537500Y-10725000D03*
X-7537500Y-10225000D03*
X-7537500Y-9725000D03*
X-7537500Y-9225000D03*
X-7537500Y-8725000D03*
X-7537500Y-8225000D03*
X-7537500Y-7725000D03*
X-7537500Y-7225000D03*
D44*
X-8950000Y-5812500D03*
X-9450000Y-5812500D03*
X-9950000Y-5812500D03*
X-10450000Y-5812500D03*
X-10950000Y-5812500D03*
X-11450000Y-5812500D03*
X-11950000Y-5812500D03*
X-12450000Y-5812500D03*
X-12950000Y-5812500D03*
X-13450000Y-5812500D03*
X-13950000Y-5812500D03*
X-14450000Y-5812500D03*
%TD*%
D20*
%TO.C,C60*%
X14850000Y-29020000D03*
X14850000Y-29980000D03*
%TD*%
D29*
%TO.C,D91*%
X2250000Y-25142501D03*
X2250000Y-24172501D03*
%TD*%
D23*
%TO.C,C56*%
X19245000Y-17725000D03*
X20205000Y-17725000D03*
%TD*%
D15*
%TO.C,R32*%
X-15975000Y-4640001D03*
X-15975000Y-5659999D03*
%TD*%
D11*
%TO.C,T7*%
X-4965000Y-42125000D03*
D12*
X-985000Y-42080000D03*
D11*
X-4965000Y-41475000D03*
X-985000Y-40075000D03*
D13*
X-4575000Y-39470000D03*
D14*
X-5275000Y-39470000D03*
D11*
X-985000Y-39425000D03*
%TD*%
D39*
%TO.C,U61*%
X9550001Y-29037500D03*
X10500000Y-29037500D03*
X11449999Y-29037500D03*
X11449999Y-26762500D03*
X10500000Y-26762500D03*
X9550001Y-26762500D03*
%TD*%
%TO.C,U51*%
X22800001Y-29037500D03*
X23750000Y-29037500D03*
X24699999Y-29037500D03*
X24699999Y-26762500D03*
X23750000Y-26762500D03*
X22800001Y-26762500D03*
%TD*%
D21*
%TO.C,R3*%
X4809999Y-3800000D03*
X3790001Y-3800000D03*
%TD*%
D49*
%TO.C,J93*%
X24975000Y-49565000D03*
D50*
X23450000Y-51040000D03*
X23450000Y-48090000D03*
%TD*%
D10*
%TO.C,R50*%
X29225000Y-35709999D03*
X29225000Y-34690001D03*
%TD*%
D35*
%TO.C,R45*%
X-23760624Y-4260624D03*
X-23039376Y-3539376D03*
%TD*%
D51*
%TO.C,D94*%
X-23025000Y-44475000D03*
X-23025000Y-43475000D03*
X-24314999Y-43975000D03*
%TD*%
D20*
%TO.C,C95*%
X4600000Y-17965000D03*
X4600000Y-18925000D03*
%TD*%
D10*
%TO.C,R82*%
X-23800000Y-29534999D03*
X-23800000Y-28515001D03*
%TD*%
D28*
%TO.C,C82*%
X-23575000Y-27300000D03*
X-22025000Y-27300000D03*
%TD*%
D39*
%TO.C,U81*%
X-27012499Y-29062500D03*
X-26062500Y-29062500D03*
X-25112501Y-29062500D03*
X-25112501Y-26787500D03*
X-26062500Y-26787500D03*
X-27012499Y-26787500D03*
%TD*%
D25*
%TO.C,R93*%
X21670001Y-44275000D03*
X22689999Y-44275000D03*
%TD*%
D15*
%TO.C,R84*%
X-30900000Y-32965001D03*
X-30900000Y-33984999D03*
%TD*%
D52*
%TO.C,L4*%
X3000000Y-32325001D03*
X3000000Y-33774999D03*
%TD*%
D40*
%TO.C,L81*%
X-29362500Y-27250001D03*
X-29362500Y-29200001D03*
%TD*%
D18*
%TO.C,C10*%
X13650358Y-38400000D03*
X12690358Y-38400000D03*
%TD*%
D20*
%TO.C,C50*%
X28075000Y-29020000D03*
X28075000Y-29980000D03*
%TD*%
D25*
%TO.C,R24*%
X12915000Y-15675000D03*
X13935000Y-15675000D03*
%TD*%
D36*
%TO.C,D62*%
X7500000Y-31550000D03*
X7500000Y-34450000D03*
%TD*%
D19*
%TO.C,D83*%
X-30900000Y-31065000D03*
X-30900000Y-32035000D03*
%TD*%
D10*
%TO.C,R5*%
X225000Y-12159999D03*
X225000Y-11140001D03*
%TD*%
%TO.C,R79*%
X-7025000Y-18284999D03*
X-7025000Y-17265001D03*
%TD*%
D25*
%TO.C,R30*%
X-8820000Y-38425000D03*
X-7800000Y-38425000D03*
%TD*%
D28*
%TO.C,C52*%
X26225000Y-26775000D03*
X27775000Y-26775000D03*
%TD*%
D20*
%TO.C,C35*%
X-6025000Y-8995000D03*
X-6025000Y-9955000D03*
%TD*%
D18*
%TO.C,C30*%
X-10920000Y-38425000D03*
X-11880000Y-38425000D03*
%TD*%
D20*
%TO.C,C80*%
X-21775000Y-29020000D03*
X-21775000Y-29980000D03*
%TD*%
D25*
%TO.C,R34*%
X-10485000Y-15650000D03*
X-9465000Y-15650000D03*
%TD*%
D20*
%TO.C,C15*%
X30725000Y-8995000D03*
X30725000Y-9955000D03*
%TD*%
D19*
%TO.C,D73*%
X-17625000Y-31090000D03*
X-17625000Y-32060000D03*
%TD*%
D15*
%TO.C,R53*%
X21400000Y-36090000D03*
X21400000Y-37110000D03*
%TD*%
D10*
%TO.C,R69*%
X16375000Y-18284999D03*
X16375000Y-17265001D03*
%TD*%
D18*
%TO.C,C33*%
X-11450000Y-4225000D03*
X-12410000Y-4225000D03*
%TD*%
D53*
%TO.C,U1*%
X1905000Y-15520000D03*
X635000Y-15520000D03*
X-635000Y-15520000D03*
X-1905000Y-15520000D03*
X1905000Y-16790000D03*
X635000Y-16790000D03*
X-635000Y-16790000D03*
X-1905000Y-16790000D03*
X1905000Y-18060000D03*
X635000Y-18060000D03*
X-635000Y-18060000D03*
X-1905000Y-18060000D03*
X1905000Y-19330000D03*
X635000Y-19330000D03*
X-635000Y-19330000D03*
X-1905000Y-19330000D03*
D54*
X2750000Y-13975000D03*
X2250000Y-13975000D03*
X1750000Y-13975000D03*
X1250000Y-13975000D03*
X750000Y-13975000D03*
X250000Y-13975000D03*
X-250000Y-13975000D03*
X-750000Y-13975000D03*
X-1250000Y-13975000D03*
X-1750000Y-13975000D03*
X-2250000Y-13975000D03*
X-2750000Y-13975000D03*
D55*
X-3450000Y-14675000D03*
X-3450000Y-15175000D03*
X-3450000Y-15675000D03*
X-3450000Y-16175000D03*
X-3450000Y-16675000D03*
X-3450000Y-17175000D03*
X-3450000Y-17675000D03*
X-3450000Y-18175000D03*
X-3450000Y-18675000D03*
X-3450000Y-19175000D03*
X-3450000Y-19675000D03*
X-3450000Y-20175000D03*
D54*
X-2750000Y-20875000D03*
X-2250000Y-20875000D03*
X-1750000Y-20875000D03*
X-1250000Y-20875000D03*
X-750000Y-20875000D03*
X-250000Y-20875000D03*
X250000Y-20875000D03*
X750000Y-20875000D03*
X1250000Y-20875000D03*
X1750000Y-20875000D03*
X2250000Y-20875000D03*
X2750000Y-20875000D03*
D55*
X3450000Y-20175000D03*
X3450000Y-19675000D03*
X3450000Y-19175000D03*
X3450000Y-18675000D03*
X3450000Y-18175000D03*
X3450000Y-17675000D03*
X3450000Y-17175000D03*
X3450000Y-16675000D03*
X3450000Y-16175000D03*
X3450000Y-15675000D03*
X3450000Y-15175000D03*
X3450000Y-14675000D03*
%TD*%
D24*
%TO.C,U70*%
X-13275000Y-20325000D03*
X-13275000Y-20975000D03*
X-13275000Y-21625000D03*
X-13275000Y-22275000D03*
X-13275000Y-22925000D03*
X-13275000Y-23575000D03*
X-13275000Y-24225000D03*
X-13275000Y-24875000D03*
X-7550000Y-24875000D03*
X-7550000Y-24225000D03*
X-7550000Y-23575000D03*
X-7550000Y-22925000D03*
X-7550000Y-22275000D03*
X-7550000Y-21625000D03*
X-7550000Y-20975000D03*
X-7550000Y-20325000D03*
%TD*%
D26*
%TO.C,U63*%
X9512500Y-17000000D03*
X9512500Y-17500000D03*
X9512500Y-18000000D03*
X9512500Y-18500000D03*
X9512500Y-19000000D03*
X13737500Y-19000000D03*
X13737500Y-18500000D03*
X13737500Y-18000000D03*
X13737500Y-17500000D03*
X13737500Y-17000000D03*
%TD*%
D48*
%TO.C,U6*%
X-26625000Y-41125000D03*
X-25975000Y-41125000D03*
X-25325000Y-41125000D03*
X-25325000Y-39225000D03*
X-26625000Y-39225000D03*
%TD*%
D23*
%TO.C,C76*%
X-17455000Y-17750000D03*
X-16495000Y-17750000D03*
%TD*%
D22*
%TO.C,C4*%
X975000Y-35425000D03*
X-575000Y-35425000D03*
%TD*%
D10*
%TO.C,R99*%
X-26975000Y-44109999D03*
X-26975000Y-43090001D03*
%TD*%
D20*
%TO.C,C45*%
X-30750000Y-11395000D03*
X-30750000Y-12355000D03*
%TD*%
D29*
%TO.C,D32*%
X-17000000Y-5635000D03*
X-17000000Y-4665000D03*
%TD*%
D43*
%TO.C,U20*%
X7537500Y-7225000D03*
X7537500Y-7725000D03*
X7537500Y-8225000D03*
X7537500Y-8725000D03*
X7537500Y-9225000D03*
X7537500Y-9725000D03*
X7537500Y-10225000D03*
X7537500Y-10725000D03*
X7537500Y-11225000D03*
X7537500Y-11725000D03*
X7537500Y-12225000D03*
X7537500Y-12725000D03*
D44*
X8950000Y-14137500D03*
X9450000Y-14137500D03*
X9950000Y-14137500D03*
X10450000Y-14137500D03*
X10950000Y-14137500D03*
X11450000Y-14137500D03*
X11950000Y-14137500D03*
X12450000Y-14137500D03*
X12950000Y-14137500D03*
X13450000Y-14137500D03*
X13950000Y-14137500D03*
X14450000Y-14137500D03*
D43*
X15862500Y-12725000D03*
X15862500Y-12225000D03*
X15862500Y-11725000D03*
X15862500Y-11225000D03*
X15862500Y-10725000D03*
X15862500Y-10225000D03*
X15862500Y-9725000D03*
X15862500Y-9225000D03*
X15862500Y-8725000D03*
X15862500Y-8225000D03*
X15862500Y-7725000D03*
X15862500Y-7225000D03*
D44*
X14450000Y-5812500D03*
X13950000Y-5812500D03*
X13450000Y-5812500D03*
X12950000Y-5812500D03*
X12450000Y-5812500D03*
X11950000Y-5812500D03*
X11450000Y-5812500D03*
X10950000Y-5812500D03*
X10450000Y-5812500D03*
X9950000Y-5812500D03*
X9450000Y-5812500D03*
X8950000Y-5812500D03*
%TD*%
D16*
%TO.C,C21*%
X6075000Y-39455000D03*
X6075000Y-38495000D03*
%TD*%
D56*
%TO.C,U2*%
X30700000Y-43700000D03*
X30700000Y-43200000D03*
X30700000Y-42700000D03*
X30700000Y-42200000D03*
X30700000Y-41700000D03*
X26475000Y-41700000D03*
X26475000Y-42200000D03*
X26475000Y-42700000D03*
X26475000Y-43200000D03*
X26475000Y-43700000D03*
%TD*%
D57*
%TO.C,J94*%
X-24950000Y-49575000D03*
D58*
X-23425000Y-48100000D03*
X-23425000Y-51050000D03*
%TD*%
D25*
%TO.C,R65*%
X5930000Y-18800000D03*
X6950000Y-18800000D03*
%TD*%
M02*
